%FSLAX25Y25*%
%MOIN*%
G70*
G01*
G75*
G04 Layer_Color=2752767*
%ADD10C,0.00500*%
%ADD11C,0.00667*%
D10*
X180850Y-16000D02*
Y-12000D01*
X184850D01*
Y-16000D01*
X180850D01*
X12000D02*
Y-12000D01*
X16000D01*
Y-16000D01*
X12000D01*
Y-184850D02*
Y-180850D01*
X16000D01*
Y-184850D01*
X12000D01*
X180850D02*
Y-180850D01*
X184850D01*
Y-184850D01*
X180850D01*
X118900Y-167384D02*
X116900Y-163383D01*
X120900D01*
X118900Y-167384D01*
Y-155572D02*
X116900Y-151572D01*
X120900D01*
X118900Y-155572D01*
X91000Y-167384D02*
X89000Y-163383D01*
X93000D01*
X91000Y-167384D01*
Y-155572D02*
X89000Y-151572D01*
X93000D01*
X91000Y-155572D01*
X139594Y-46128D02*
X137594Y-42128D01*
X141595D01*
X139594Y-46128D01*
Y-34317D02*
X137594Y-30316D01*
X141595D01*
X139594Y-34317D01*
X151406D02*
X149406Y-30316D01*
X153405D01*
X151406Y-34317D01*
Y-46128D02*
X149406Y-42128D01*
X153405D01*
X151406Y-46128D01*
X63500Y-150000D02*
X64500Y-149000D01*
X65500D01*
X64500Y-148000D01*
X65500Y-147000D01*
X64500D01*
X63500Y-146000D01*
X62500Y-147000D01*
X61500D01*
X62500Y-148000D01*
X61500Y-149000D01*
X62500D01*
X63500Y-150000D01*
X63500Y-127559D02*
X64500Y-126559D01*
X65500D01*
X64500Y-125559D01*
X65500Y-124559D01*
X64500D01*
X63500Y-123559D01*
X62500Y-124559D01*
X61500D01*
X62500Y-125559D01*
X61500Y-126559D01*
X62500D01*
X63500Y-127559D01*
X40500Y-150000D02*
X41500Y-149000D01*
X42500D01*
X41500Y-148000D01*
X42500Y-147000D01*
X41500D01*
X40500Y-146000D01*
X39500Y-147000D01*
X38500D01*
X39500Y-148000D01*
X38500Y-149000D01*
X39500D01*
X40500Y-150000D01*
X40500Y-127559D02*
X41500Y-126559D01*
X42500D01*
X41500Y-125559D01*
X42500Y-124559D01*
X41500D01*
X40500Y-123559D01*
X39500Y-124559D01*
X38500D01*
X39500Y-125559D01*
X38500Y-126559D01*
X39500D01*
X40500Y-127559D01*
X-21685Y198787D02*
X-20685Y200787D01*
X-21685Y202787D01*
X-19685Y201787D01*
X-17685Y202787D01*
X-18685Y200787D01*
X-17685Y198787D01*
X-19685Y199787D01*
X-21685Y198787D01*
Y-190976D02*
X-20685Y-188976D01*
X-21685Y-186976D01*
X-19685Y-187976D01*
X-17685Y-186976D01*
X-18685Y-188976D01*
X-17685Y-190976D01*
X-19685Y-189976D01*
X-21685Y-190976D01*
X423197D02*
X424197Y-188976D01*
X423197Y-186976D01*
X425197Y-187976D01*
X427197Y-186976D01*
X426197Y-188976D01*
X427197Y-190976D01*
X425197Y-189976D01*
X423197Y-190976D01*
Y198787D02*
X424197Y200787D01*
X423197Y202787D01*
X425197Y201787D01*
X427197Y202787D01*
X426197Y200787D01*
X427197Y198787D01*
X425197Y199787D01*
X423197Y198787D01*
X175100Y-70700D02*
Y-71700D01*
X177100D01*
Y-70700D01*
X178100D01*
Y-68700D01*
X177100D01*
Y-67700D01*
X175100D01*
Y-68700D01*
X174100D01*
Y-70700D01*
X175100D01*
X145400Y-87300D02*
Y-88300D01*
X147400D01*
Y-87300D01*
X148400D01*
Y-85300D01*
X147400D01*
Y-84300D01*
X145400D01*
Y-85300D01*
X144400D01*
Y-87300D01*
X145400D01*
X74000Y-96000D02*
Y-97000D01*
X76000D01*
Y-96000D01*
X77000D01*
Y-94000D01*
X76000D01*
Y-93000D01*
X74000D01*
Y-94000D01*
X73000D01*
Y-96000D01*
X74000D01*
X137000Y-124000D02*
Y-125000D01*
X139000D01*
Y-124000D01*
X140000D01*
Y-122000D01*
X139000D01*
Y-121000D01*
X137000D01*
Y-122000D01*
X136000D01*
Y-124000D01*
X137000D01*
X119000Y-131000D02*
Y-132000D01*
X121000D01*
Y-131000D01*
X122000D01*
Y-129000D01*
X121000D01*
Y-128000D01*
X119000D01*
Y-129000D01*
X118000D01*
Y-131000D01*
X119000D01*
X176500Y-163500D02*
Y-164500D01*
X178500D01*
Y-163500D01*
X179500D01*
Y-161500D01*
X178500D01*
Y-160500D01*
X176500D01*
Y-161500D01*
X175500D01*
Y-163500D01*
X176500D01*
X169000D02*
Y-164500D01*
X171000D01*
Y-163500D01*
X172000D01*
Y-161500D01*
X171000D01*
Y-160500D01*
X169000D01*
Y-161500D01*
X168000D01*
Y-163500D01*
X169000D01*
X129000Y-178500D02*
Y-179500D01*
X131000D01*
Y-178500D01*
X132000D01*
Y-176500D01*
X131000D01*
Y-175500D01*
X129000D01*
Y-176500D01*
X128000D01*
Y-178500D01*
X129000D01*
Y-163500D02*
Y-164500D01*
X131000D01*
Y-163500D01*
X132000D01*
Y-161500D01*
X131000D01*
Y-160500D01*
X129000D01*
Y-161500D01*
X128000D01*
Y-163500D01*
X129000D01*
X79000Y-151000D02*
Y-152000D01*
X81000D01*
Y-151000D01*
X82000D01*
Y-149000D01*
X81000D01*
Y-148000D01*
X79000D01*
Y-149000D01*
X78000D01*
Y-151000D01*
X79000D01*
X104000Y-193500D02*
Y-194500D01*
X106000D01*
Y-193500D01*
X107000D01*
Y-191500D01*
X106000D01*
Y-190500D01*
X104000D01*
Y-191500D01*
X103000D01*
Y-193500D01*
X104000D01*
Y-178500D02*
Y-179500D01*
X106000D01*
Y-178500D01*
X107000D01*
Y-176500D01*
X106000D01*
Y-175500D01*
X104000D01*
Y-176500D01*
X103000D01*
Y-178500D01*
X104000D01*
X71500Y-193500D02*
Y-194500D01*
X73500D01*
Y-193500D01*
X74500D01*
Y-191500D01*
X73500D01*
Y-190500D01*
X71500D01*
Y-191500D01*
X70500D01*
Y-193500D01*
X71500D01*
X56500D02*
Y-194500D01*
X58500D01*
Y-193500D01*
X59500D01*
Y-191500D01*
X58500D01*
Y-190500D01*
X56500D01*
Y-191500D01*
X55500D01*
Y-193500D01*
X56500D01*
X41500D02*
Y-194500D01*
X43500D01*
Y-193500D01*
X44500D01*
Y-191500D01*
X43500D01*
Y-190500D01*
X41500D01*
Y-191500D01*
X40500D01*
Y-193500D01*
X41500D01*
X71500Y-178500D02*
Y-179500D01*
X73500D01*
Y-178500D01*
X74500D01*
Y-176500D01*
X73500D01*
Y-175500D01*
X71500D01*
Y-176500D01*
X70500D01*
Y-178500D01*
X71500D01*
X56500D02*
Y-179500D01*
X58500D01*
Y-178500D01*
X59500D01*
Y-176500D01*
X58500D01*
Y-175500D01*
X56500D01*
Y-176500D01*
X55500D01*
Y-178500D01*
X56500D01*
X41500D02*
Y-179500D01*
X43500D01*
Y-178500D01*
X44500D01*
Y-176500D01*
X43500D01*
Y-175500D01*
X41500D01*
Y-176500D01*
X40500D01*
Y-178500D01*
X41500D01*
X71500Y-163500D02*
Y-164500D01*
X73500D01*
Y-163500D01*
X74500D01*
Y-161500D01*
X73500D01*
Y-160500D01*
X71500D01*
Y-161500D01*
X70500D01*
Y-163500D01*
X71500D01*
X56500D02*
Y-164500D01*
X58500D01*
Y-163500D01*
X59500D01*
Y-161500D01*
X58500D01*
Y-160500D01*
X56500D01*
Y-161500D01*
X55500D01*
Y-163500D01*
X56500D01*
X41500D02*
Y-164500D01*
X43500D01*
Y-163500D01*
X44500D01*
Y-161500D01*
X43500D01*
Y-160500D01*
X41500D01*
Y-161500D01*
X40500D01*
Y-163500D01*
X41500D01*
X177000Y-37000D02*
Y-38000D01*
X179000D01*
Y-37000D01*
X180000D01*
Y-35000D01*
X179000D01*
Y-34000D01*
X177000D01*
Y-35000D01*
X176000D01*
Y-37000D01*
X177000D01*
Y-32000D02*
Y-33000D01*
X179000D01*
Y-32000D01*
X180000D01*
Y-30000D01*
X179000D01*
Y-29000D01*
X177000D01*
Y-30000D01*
X176000D01*
Y-32000D01*
X177000D01*
X171000D02*
Y-33000D01*
X173000D01*
Y-32000D01*
X174000D01*
Y-30000D01*
X173000D01*
Y-29000D01*
X171000D01*
Y-30000D01*
X170000D01*
Y-32000D01*
X171000D01*
X165000D02*
Y-33000D01*
X167000D01*
Y-32000D01*
X168000D01*
Y-30000D01*
X167000D01*
Y-29000D01*
X165000D01*
Y-30000D01*
X164000D01*
Y-32000D01*
X165000D01*
X171000Y-37000D02*
Y-38000D01*
X173000D01*
Y-37000D01*
X174000D01*
Y-35000D01*
X173000D01*
Y-34000D01*
X171000D01*
Y-35000D01*
X170000D01*
Y-37000D01*
X171000D01*
X165000D02*
Y-38000D01*
X167000D01*
Y-37000D01*
X168000D01*
Y-35000D01*
X167000D01*
Y-34000D01*
X165000D01*
Y-35000D01*
X164000D01*
Y-37000D01*
X165000D01*
X129000Y-42000D02*
Y-43000D01*
X131000D01*
Y-42000D01*
X132000D01*
Y-40000D01*
X131000D01*
Y-39000D01*
X129000D01*
Y-40000D01*
X128000D01*
Y-42000D01*
X129000D01*
Y-32000D02*
Y-33000D01*
X131000D01*
Y-32000D01*
X132000D01*
Y-30000D01*
X131000D01*
Y-29000D01*
X129000D01*
Y-30000D01*
X128000D01*
Y-32000D01*
X129000D01*
Y-37000D02*
Y-38000D01*
X131000D01*
Y-37000D01*
X132000D01*
Y-35000D01*
X131000D01*
Y-34000D01*
X129000D01*
Y-35000D01*
X128000D01*
Y-37000D01*
X129000D01*
Y-47000D02*
Y-48000D01*
X131000D01*
Y-47000D01*
X132000D01*
Y-45000D01*
X131000D01*
Y-44000D01*
X129000D01*
Y-45000D01*
X128000D01*
Y-47000D01*
X129000D01*
X189000Y-41000D02*
Y-42000D01*
X191000D01*
Y-41000D01*
X192000D01*
Y-39000D01*
X191000D01*
Y-38000D01*
X189000D01*
Y-39000D01*
X188000D01*
Y-41000D01*
X189000D01*
Y-46000D02*
Y-47000D01*
X191000D01*
Y-46000D01*
X192000D01*
Y-44000D01*
X191000D01*
Y-43000D01*
X189000D01*
Y-44000D01*
X188000D01*
Y-46000D01*
X189000D01*
Y-51000D02*
Y-52000D01*
X191000D01*
Y-51000D01*
X192000D01*
Y-49000D01*
X191000D01*
Y-48000D01*
X189000D01*
Y-49000D01*
X188000D01*
Y-51000D01*
X189000D01*
Y-56000D02*
Y-57000D01*
X191000D01*
Y-56000D01*
X192000D01*
Y-54000D01*
X191000D01*
Y-53000D01*
X189000D01*
Y-54000D01*
X188000D01*
Y-56000D01*
X189000D01*
Y-61000D02*
Y-62000D01*
X191000D01*
Y-61000D01*
X192000D01*
Y-59000D01*
X191000D01*
Y-58000D01*
X189000D01*
Y-59000D01*
X188000D01*
Y-61000D01*
X189000D01*
X111000Y-108000D02*
Y-109000D01*
X113000D01*
Y-108000D01*
X114000D01*
Y-106000D01*
X113000D01*
Y-105000D01*
X111000D01*
Y-106000D01*
X110000D01*
Y-108000D01*
X111000D01*
Y-122000D02*
Y-123000D01*
X113000D01*
Y-122000D01*
X114000D01*
Y-120000D01*
X113000D01*
Y-119000D01*
X111000D01*
Y-120000D01*
X110000D01*
Y-122000D01*
X111000D01*
X151000Y-120000D02*
Y-121000D01*
X153000D01*
Y-120000D01*
X154000D01*
Y-118000D01*
X153000D01*
Y-117000D01*
X151000D01*
Y-118000D01*
X150000D01*
Y-120000D01*
X151000D01*
X158000Y-62000D02*
Y-63000D01*
X160000D01*
Y-62000D01*
X161000D01*
Y-60000D01*
X160000D01*
Y-59000D01*
X158000D01*
Y-60000D01*
X157000D01*
Y-62000D01*
X158000D01*
Y-58000D02*
Y-59000D01*
X160000D01*
Y-58000D01*
X161000D01*
Y-56000D01*
X160000D01*
Y-55000D01*
X158000D01*
Y-56000D01*
X157000D01*
Y-58000D01*
X158000D01*
X153000D02*
Y-59000D01*
X155000D01*
Y-58000D01*
X156000D01*
Y-56000D01*
X155000D01*
Y-55000D01*
X153000D01*
Y-56000D01*
X152000D01*
Y-58000D01*
X153000D01*
X176100Y-72300D02*
Y-73300D01*
X178100D01*
Y-72300D01*
X179100D01*
Y-70300D01*
X178100D01*
Y-69300D01*
X176100D01*
Y-70300D01*
X175100D01*
Y-72300D01*
X176100D01*
X154000Y-76000D02*
Y-77000D01*
X156000D01*
Y-76000D01*
X157000D01*
Y-74000D01*
X156000D01*
Y-73000D01*
X154000D01*
Y-74000D01*
X153000D01*
Y-76000D01*
X154000D01*
X151000Y-72000D02*
Y-73000D01*
X153000D01*
Y-72000D01*
X154000D01*
Y-70000D01*
X153000D01*
Y-69000D01*
X151000D01*
Y-70000D01*
X150000D01*
Y-72000D01*
X151000D01*
X150000Y-81000D02*
Y-82000D01*
X152000D01*
Y-81000D01*
X153000D01*
Y-79000D01*
X152000D01*
Y-78000D01*
X150000D01*
Y-79000D01*
X149000D01*
Y-81000D01*
X150000D01*
X147000Y-78000D02*
Y-79000D01*
X149000D01*
Y-78000D01*
X150000D01*
Y-76000D01*
X149000D01*
Y-75000D01*
X147000D01*
Y-76000D01*
X146000D01*
Y-78000D01*
X147000D01*
X133000Y-81000D02*
Y-82000D01*
X135000D01*
Y-81000D01*
X136000D01*
Y-79000D01*
X135000D01*
Y-78000D01*
X133000D01*
Y-79000D01*
X132000D01*
Y-81000D01*
X133000D01*
X131800Y-94000D02*
Y-95000D01*
X133800D01*
Y-94000D01*
X134800D01*
Y-92000D01*
X133800D01*
Y-91000D01*
X131800D01*
Y-92000D01*
X130800D01*
Y-94000D01*
X131800D01*
X105000Y-122000D02*
Y-123000D01*
X107000D01*
Y-122000D01*
X108000D01*
Y-120000D01*
X107000D01*
Y-119000D01*
X105000D01*
Y-120000D01*
X104000D01*
Y-122000D01*
X105000D01*
X69200Y-117100D02*
Y-118100D01*
X71200D01*
Y-117100D01*
X72200D01*
Y-115100D01*
X71200D01*
Y-114100D01*
X69200D01*
Y-115100D01*
X68200D01*
Y-117100D01*
X69200D01*
X54000Y-96000D02*
Y-97000D01*
X56000D01*
Y-96000D01*
X57000D01*
Y-94000D01*
X56000D01*
Y-93000D01*
X54000D01*
Y-94000D01*
X53000D01*
Y-96000D01*
X54000D01*
X49000D02*
Y-97000D01*
X51000D01*
Y-96000D01*
X52000D01*
Y-94000D01*
X51000D01*
Y-93000D01*
X49000D01*
Y-94000D01*
X48000D01*
Y-96000D01*
X49000D01*
X69000D02*
Y-97000D01*
X71000D01*
Y-96000D01*
X72000D01*
Y-94000D01*
X71000D01*
Y-93000D01*
X69000D01*
Y-94000D01*
X68000D01*
Y-96000D01*
X69000D01*
X109900Y-96600D02*
Y-97600D01*
X111900D01*
Y-96600D01*
X112900D01*
Y-94600D01*
X111900D01*
Y-93600D01*
X109900D01*
Y-94600D01*
X108900D01*
Y-96600D01*
X109900D01*
X111000Y-117000D02*
Y-118000D01*
X113000D01*
Y-117000D01*
X114000D01*
Y-115000D01*
X113000D01*
Y-114000D01*
X111000D01*
Y-115000D01*
X110000D01*
Y-117000D01*
X111000D01*
Y-113000D02*
Y-114000D01*
X113000D01*
Y-113000D01*
X114000D01*
Y-111000D01*
X113000D01*
Y-110000D01*
X111000D01*
Y-111000D01*
X110000D01*
Y-113000D01*
X111000D01*
X129000Y-115000D02*
Y-116000D01*
X131000D01*
Y-115000D01*
X132000D01*
Y-113000D01*
X131000D01*
Y-112000D01*
X129000D01*
Y-113000D01*
X128000D01*
Y-115000D01*
X129000D01*
X122000D02*
Y-116000D01*
X124000D01*
Y-115000D01*
X125000D01*
Y-113000D01*
X124000D01*
Y-112000D01*
X122000D01*
Y-113000D01*
X121000D01*
Y-115000D01*
X122000D01*
X151000D02*
Y-116000D01*
X153000D01*
Y-115000D01*
X154000D01*
Y-113000D01*
X153000D01*
Y-112000D01*
X151000D01*
Y-113000D01*
X150000D01*
Y-115000D01*
X151000D01*
Y-110000D02*
Y-111000D01*
X153000D01*
Y-110000D01*
X154000D01*
Y-108000D01*
X153000D01*
Y-107000D01*
X151000D01*
Y-108000D01*
X150000D01*
Y-110000D01*
X151000D01*
X181500Y-156000D02*
Y-157000D01*
X183500D01*
Y-156000D01*
X184500D01*
Y-154000D01*
X183500D01*
Y-153000D01*
X181500D01*
Y-154000D01*
X180500D01*
Y-156000D01*
X181500D01*
X189000D02*
Y-157000D01*
X191000D01*
Y-156000D01*
X192000D01*
Y-154000D01*
X191000D01*
Y-153000D01*
X189000D01*
Y-154000D01*
X188000D01*
Y-156000D01*
X189000D01*
Y-148500D02*
Y-149500D01*
X191000D01*
Y-148500D01*
X192000D01*
Y-146500D01*
X191000D01*
Y-145500D01*
X189000D01*
Y-146500D01*
X188000D01*
Y-148500D01*
X189000D01*
Y-141000D02*
Y-142000D01*
X191000D01*
Y-141000D01*
X192000D01*
Y-139000D01*
X191000D01*
Y-138000D01*
X189000D01*
Y-139000D01*
X188000D01*
Y-141000D01*
X189000D01*
Y-133500D02*
Y-134500D01*
X191000D01*
Y-133500D01*
X192000D01*
Y-131500D01*
X191000D01*
Y-130500D01*
X189000D01*
Y-131500D01*
X188000D01*
Y-133500D01*
X189000D01*
X134000Y-133000D02*
Y-134000D01*
X136000D01*
Y-133000D01*
X137000D01*
Y-131000D01*
X136000D01*
Y-130000D01*
X134000D01*
Y-131000D01*
X133000D01*
Y-133000D01*
X134000D01*
X129000Y-151000D02*
Y-152000D01*
X131000D01*
Y-151000D01*
X132000D01*
Y-149000D01*
X131000D01*
Y-148000D01*
X129000D01*
Y-149000D01*
X128000D01*
Y-151000D01*
X129000D01*
Y-143000D02*
Y-144000D01*
X131000D01*
Y-143000D01*
X132000D01*
Y-141000D01*
X131000D01*
Y-140000D01*
X129000D01*
Y-141000D01*
X128000D01*
Y-143000D01*
X129000D01*
Y-136000D02*
Y-137000D01*
X131000D01*
Y-136000D01*
X132000D01*
Y-134000D01*
X131000D01*
Y-133000D01*
X129000D01*
Y-134000D01*
X128000D01*
Y-136000D01*
X129000D01*
X144300Y-153300D02*
Y-154300D01*
X146300D01*
Y-153300D01*
X147300D01*
Y-151300D01*
X146300D01*
Y-150300D01*
X144300D01*
Y-151300D01*
X143300D01*
Y-153300D01*
X144300D01*
X149000Y-147000D02*
Y-148000D01*
X151000D01*
Y-147000D01*
X152000D01*
Y-145000D01*
X151000D01*
Y-144000D01*
X149000D01*
Y-145000D01*
X148000D01*
Y-147000D01*
X149000D01*
X142000D02*
Y-148000D01*
X144000D01*
Y-147000D01*
X145000D01*
Y-145000D01*
X144000D01*
Y-144000D01*
X142000D01*
Y-145000D01*
X141000D01*
Y-147000D01*
X142000D01*
X135000D02*
Y-148000D01*
X137000D01*
Y-147000D01*
X138000D01*
Y-145000D01*
X137000D01*
Y-144000D01*
X135000D01*
Y-145000D01*
X134000D01*
Y-147000D01*
X135000D01*
X153000Y-169900D02*
Y-170900D01*
X155000D01*
Y-169900D01*
X156000D01*
Y-167900D01*
X155000D01*
Y-166900D01*
X153000D01*
Y-167900D01*
X152000D01*
Y-169900D01*
X153000D01*
X147600Y-170000D02*
Y-171000D01*
X149600D01*
Y-170000D01*
X150600D01*
Y-168000D01*
X149600D01*
Y-167000D01*
X147600D01*
Y-168000D01*
X146600D01*
Y-170000D01*
X147600D01*
X154000Y-181000D02*
Y-182000D01*
X156000D01*
Y-181000D01*
X157000D01*
Y-179000D01*
X156000D01*
Y-178000D01*
X154000D01*
Y-179000D01*
X153000D01*
Y-181000D01*
X154000D01*
X149000D02*
Y-182000D01*
X151000D01*
Y-181000D01*
X152000D01*
Y-179000D01*
X151000D01*
Y-178000D01*
X149000D01*
Y-179000D01*
X148000D01*
Y-181000D01*
X149000D01*
X154000Y-188500D02*
Y-189500D01*
X156000D01*
Y-188500D01*
X157000D01*
Y-186500D01*
X156000D01*
Y-185500D01*
X154000D01*
Y-186500D01*
X153000D01*
Y-188500D01*
X154000D01*
X149000D02*
Y-189500D01*
X151000D01*
Y-188500D01*
X152000D01*
Y-186500D01*
X151000D01*
Y-185500D01*
X149000D01*
Y-186500D01*
X148000D01*
Y-188500D01*
X149000D01*
X44200Y-113900D02*
Y-114900D01*
X46200D01*
Y-113900D01*
X47200D01*
Y-111900D01*
X46200D01*
Y-110900D01*
X44200D01*
Y-111900D01*
X43200D01*
Y-113900D01*
X44200D01*
Y-117700D02*
Y-118700D01*
X46200D01*
Y-117700D01*
X47200D01*
Y-115700D01*
X46200D01*
Y-114700D01*
X44200D01*
Y-115700D01*
X43200D01*
Y-117700D01*
X44200D01*
X39300D02*
Y-118700D01*
X41300D01*
Y-117700D01*
X42300D01*
Y-115700D01*
X41300D01*
Y-114700D01*
X39300D01*
Y-115700D01*
X38300D01*
Y-117700D01*
X39300D01*
X3000Y-158000D02*
Y-159000D01*
X5000D01*
Y-158000D01*
X6000D01*
Y-156000D01*
X5000D01*
Y-155000D01*
X3000D01*
Y-156000D01*
X2000D01*
Y-158000D01*
X3000D01*
X156300Y-88000D02*
Y-89000D01*
X158300D01*
Y-88000D01*
X159300D01*
Y-86000D01*
X158300D01*
Y-85000D01*
X156300D01*
Y-86000D01*
X155300D01*
Y-88000D01*
X156300D01*
X135500Y-75500D02*
Y-76500D01*
X137500D01*
Y-75500D01*
X138500D01*
Y-73500D01*
X137500D01*
Y-72500D01*
X135500D01*
Y-73500D01*
X134500D01*
Y-75500D01*
X135500D01*
X132000D02*
Y-76500D01*
X134000D01*
Y-75500D01*
X135000D01*
Y-73500D01*
X134000D01*
Y-72500D01*
X132000D01*
Y-73500D01*
X131000D01*
Y-75500D01*
X132000D01*
X135500Y-57500D02*
Y-58500D01*
X137500D01*
Y-57500D01*
X138500D01*
Y-55500D01*
X137500D01*
Y-54500D01*
X135500D01*
Y-55500D01*
X134500D01*
Y-57500D01*
X135500D01*
Y-61000D02*
Y-62000D01*
X137500D01*
Y-61000D01*
X138500D01*
Y-59000D01*
X137500D01*
Y-58000D01*
X135500D01*
Y-59000D01*
X134500D01*
Y-61000D01*
X135500D01*
X132000D02*
Y-62000D01*
X134000D01*
Y-61000D01*
X135000D01*
Y-59000D01*
X134000D01*
Y-58000D01*
X132000D01*
Y-59000D01*
X131000D01*
Y-61000D01*
X132000D01*
X135500Y-68000D02*
Y-69000D01*
X137500D01*
Y-68000D01*
X138500D01*
Y-66000D01*
X137500D01*
Y-65000D01*
X135500D01*
Y-66000D01*
X134500D01*
Y-68000D01*
X135500D01*
X132000D02*
Y-69000D01*
X134000D01*
Y-68000D01*
X135000D01*
Y-66000D01*
X134000D01*
Y-65000D01*
X132000D01*
Y-66000D01*
X131000D01*
Y-68000D01*
X132000D01*
X139500Y-62500D02*
Y-63500D01*
X141500D01*
Y-62500D01*
X142500D01*
Y-60500D01*
X141500D01*
Y-59500D01*
X139500D01*
Y-60500D01*
X138500D01*
Y-62500D01*
X139500D01*
X135500Y-64500D02*
Y-65500D01*
X137500D01*
Y-64500D01*
X138500D01*
Y-62500D01*
X137500D01*
Y-61500D01*
X135500D01*
Y-62500D01*
X134500D01*
Y-64500D01*
X135500D01*
X132000D02*
Y-65500D01*
X134000D01*
Y-64500D01*
X135000D01*
Y-62500D01*
X134000D01*
Y-61500D01*
X132000D01*
Y-62500D01*
X131000D01*
Y-64500D01*
X132000D01*
X138500Y-55500D02*
Y-56500D01*
X140500D01*
Y-55500D01*
X141500D01*
Y-53500D01*
X140500D01*
Y-52500D01*
X138500D01*
Y-53500D01*
X137500D01*
Y-55500D01*
X138500D01*
X183000Y-41000D02*
Y-42000D01*
X185000D01*
Y-41000D01*
X186000D01*
Y-39000D01*
X185000D01*
Y-38000D01*
X183000D01*
Y-39000D01*
X182000D01*
Y-41000D01*
X183000D01*
Y-61000D02*
Y-62000D01*
X185000D01*
Y-61000D01*
X186000D01*
Y-59000D01*
X185000D01*
Y-58000D01*
X183000D01*
Y-59000D01*
X182000D01*
Y-61000D01*
X183000D01*
Y-46000D02*
Y-47000D01*
X185000D01*
Y-46000D01*
X186000D01*
Y-44000D01*
X185000D01*
Y-43000D01*
X183000D01*
Y-44000D01*
X182000D01*
Y-46000D01*
X183000D01*
Y-51000D02*
Y-52000D01*
X185000D01*
Y-51000D01*
X186000D01*
Y-49000D01*
X185000D01*
Y-48000D01*
X183000D01*
Y-49000D01*
X182000D01*
Y-51000D01*
X183000D01*
Y-56000D02*
Y-57000D01*
X185000D01*
Y-56000D01*
X186000D01*
Y-54000D01*
X185000D01*
Y-53000D01*
X183000D01*
Y-54000D01*
X182000D01*
Y-56000D01*
X183000D01*
X192500Y-75000D02*
Y-76000D01*
X194500D01*
Y-75000D01*
X195500D01*
Y-73000D01*
X194500D01*
Y-72000D01*
X192500D01*
Y-73000D01*
X191500D01*
Y-75000D01*
X192500D01*
X184000Y-76500D02*
Y-77500D01*
X186000D01*
Y-76500D01*
X187000D01*
Y-74500D01*
X186000D01*
Y-73500D01*
X184000D01*
Y-74500D01*
X183000D01*
Y-76500D01*
X184000D01*
X188500Y-81000D02*
Y-82000D01*
X190500D01*
Y-81000D01*
X191500D01*
Y-79000D01*
X190500D01*
Y-78000D01*
X188500D01*
Y-79000D01*
X187500D01*
Y-81000D01*
X188500D01*
X184000D02*
Y-82000D01*
X186000D01*
Y-81000D01*
X187000D01*
Y-79000D01*
X186000D01*
Y-78000D01*
X184000D01*
Y-79000D01*
X183000D01*
Y-81000D01*
X184000D01*
X162700Y-107500D02*
Y-108500D01*
X164700D01*
Y-107500D01*
X165700D01*
Y-105500D01*
X164700D01*
Y-104500D01*
X162700D01*
Y-105500D01*
X161700D01*
Y-107500D01*
X162700D01*
X158400D02*
Y-108500D01*
X160400D01*
Y-107500D01*
X161400D01*
Y-105500D01*
X160400D01*
Y-104500D01*
X158400D01*
Y-105500D01*
X157400D01*
Y-107500D01*
X158400D01*
X158900Y-82300D02*
Y-83300D01*
X160900D01*
Y-82300D01*
X161900D01*
Y-80300D01*
X160900D01*
Y-79300D01*
X158900D01*
Y-80300D01*
X157900D01*
Y-82300D01*
X158900D01*
X166700Y-90500D02*
Y-91500D01*
X168700D01*
Y-90500D01*
X169700D01*
Y-88500D01*
X168700D01*
Y-87500D01*
X166700D01*
Y-88500D01*
X165700D01*
Y-90500D01*
X166700D01*
X167700Y-98400D02*
Y-99400D01*
X169700D01*
Y-98400D01*
X170700D01*
Y-96400D01*
X169700D01*
Y-95400D01*
X167700D01*
Y-96400D01*
X166700D01*
Y-98400D01*
X167700D01*
X161500Y-88000D02*
Y-89000D01*
X163500D01*
Y-88000D01*
X164500D01*
Y-86000D01*
X163500D01*
Y-85000D01*
X161500D01*
Y-86000D01*
X160500D01*
Y-88000D01*
X161500D01*
X164700Y-93500D02*
Y-94500D01*
X166700D01*
Y-93500D01*
X167700D01*
Y-91500D01*
X166700D01*
Y-90500D01*
X164700D01*
Y-91500D01*
X163700D01*
Y-93500D01*
X164700D01*
X161500Y-91500D02*
Y-92500D01*
X163500D01*
Y-91500D01*
X164500D01*
Y-89500D01*
X163500D01*
Y-88500D01*
X161500D01*
Y-89500D01*
X160500D01*
Y-91500D01*
X161500D01*
X156300D02*
Y-92500D01*
X158300D01*
Y-91500D01*
X159300D01*
Y-89500D01*
X158300D01*
Y-88500D01*
X156300D01*
Y-89500D01*
X155300D01*
Y-91500D01*
X156300D01*
X182500Y-113500D02*
Y-114500D01*
X184500D01*
Y-113500D01*
X185500D01*
Y-111500D01*
X184500D01*
Y-110500D01*
X182500D01*
Y-111500D01*
X181500D01*
Y-113500D01*
X182500D01*
Y-118500D02*
Y-119500D01*
X184500D01*
Y-118500D01*
X185500D01*
Y-116500D01*
X184500D01*
Y-115500D01*
X182500D01*
Y-116500D01*
X181500D01*
Y-118500D01*
X182500D01*
Y-108500D02*
Y-109500D01*
X184500D01*
Y-108500D01*
X185500D01*
Y-106500D01*
X184500D01*
Y-105500D01*
X182500D01*
Y-106500D01*
X181500D01*
Y-108500D01*
X182500D01*
X181000Y-126500D02*
Y-127500D01*
X183000D01*
Y-126500D01*
X184000D01*
Y-124500D01*
X183000D01*
Y-123500D01*
X181000D01*
Y-124500D01*
X180000D01*
Y-126500D01*
X181000D01*
X175500Y-124500D02*
Y-125500D01*
X177500D01*
Y-124500D01*
X178500D01*
Y-122500D01*
X177500D01*
Y-121500D01*
X175500D01*
Y-122500D01*
X174500D01*
Y-124500D01*
X175500D01*
X171500D02*
Y-125500D01*
X173500D01*
Y-124500D01*
X174500D01*
Y-122500D01*
X173500D01*
Y-121500D01*
X171500D01*
Y-122500D01*
X170500D01*
Y-124500D01*
X171500D01*
X167500D02*
Y-125500D01*
X169500D01*
Y-124500D01*
X170500D01*
Y-122500D01*
X169500D01*
Y-121500D01*
X167500D01*
Y-122500D01*
X166500D01*
Y-124500D01*
X167500D01*
X187500Y-108500D02*
Y-109500D01*
X189500D01*
Y-108500D01*
X190500D01*
Y-106500D01*
X189500D01*
Y-105500D01*
X187500D01*
Y-106500D01*
X186500D01*
Y-108500D01*
X187500D01*
Y-118500D02*
Y-119500D01*
X189500D01*
Y-118500D01*
X190500D01*
Y-116500D01*
X189500D01*
Y-115500D01*
X187500D01*
Y-116500D01*
X186500D01*
Y-118500D01*
X187500D01*
Y-113500D02*
Y-114500D01*
X189500D01*
Y-113500D01*
X190500D01*
Y-111500D01*
X189500D01*
Y-110500D01*
X187500D01*
Y-111500D01*
X186500D01*
Y-113500D01*
X187500D01*
X192500Y-118500D02*
Y-119500D01*
X194500D01*
Y-118500D01*
X195500D01*
Y-116500D01*
X194500D01*
Y-115500D01*
X192500D01*
Y-116500D01*
X191500D01*
Y-118500D01*
X192500D01*
Y-113500D02*
Y-114500D01*
X194500D01*
Y-113500D01*
X195500D01*
Y-111500D01*
X194500D01*
Y-110500D01*
X192500D01*
Y-111500D01*
X191500D01*
Y-113500D01*
X192500D01*
Y-108500D02*
Y-109500D01*
X194500D01*
Y-108500D01*
X195500D01*
Y-106500D01*
X194500D01*
Y-105500D01*
X192500D01*
Y-106500D01*
X191500D01*
Y-108500D01*
X192500D01*
Y-103500D02*
Y-104500D01*
X194500D01*
Y-103500D01*
X195500D01*
Y-101500D01*
X194500D01*
Y-100500D01*
X192500D01*
Y-101500D01*
X191500D01*
Y-103500D01*
X192500D01*
Y-98500D02*
Y-99500D01*
X194500D01*
Y-98500D01*
X195500D01*
Y-96500D01*
X194500D01*
Y-95500D01*
X192500D01*
Y-96500D01*
X191500D01*
Y-98500D01*
X192500D01*
Y-93500D02*
Y-94500D01*
X194500D01*
Y-93500D01*
X195500D01*
Y-91500D01*
X194500D01*
Y-90500D01*
X192500D01*
Y-91500D01*
X191500D01*
Y-93500D01*
X192500D01*
X124500Y-138500D02*
Y-139500D01*
X126500D01*
Y-138500D01*
X127500D01*
Y-136500D01*
X126500D01*
Y-135500D01*
X124500D01*
Y-136500D01*
X123500D01*
Y-138500D01*
X124500D01*
Y-136000D02*
Y-137000D01*
X126500D01*
Y-136000D01*
X127500D01*
Y-134000D01*
X126500D01*
Y-133000D01*
X124500D01*
Y-134000D01*
X123500D01*
Y-136000D01*
X124500D01*
X122000D02*
Y-137000D01*
X124000D01*
Y-136000D01*
X125000D01*
Y-134000D01*
X124000D01*
Y-133000D01*
X122000D01*
Y-134000D01*
X121000D01*
Y-136000D01*
X122000D01*
Y-138500D02*
Y-139500D01*
X124000D01*
Y-138500D01*
X125000D01*
Y-136500D01*
X124000D01*
Y-135500D01*
X122000D01*
Y-136500D01*
X121000D01*
Y-138500D01*
X122000D01*
X146300Y-121600D02*
Y-122600D01*
X148300D01*
Y-121600D01*
X149300D01*
Y-119600D01*
X148300D01*
Y-118600D01*
X146300D01*
Y-119600D01*
X145300D01*
Y-121600D01*
X146300D01*
X146600Y-108500D02*
Y-109500D01*
X148600D01*
Y-108500D01*
X149600D01*
Y-106500D01*
X148600D01*
Y-105500D01*
X146600D01*
Y-106500D01*
X145600D01*
Y-108500D01*
X146600D01*
X137600Y-81000D02*
Y-82000D01*
X139600D01*
Y-81000D01*
X140600D01*
Y-79000D01*
X139600D01*
Y-78000D01*
X137600D01*
Y-79000D01*
X136600D01*
Y-81000D01*
X137600D01*
X151900Y-62700D02*
Y-63700D01*
X153900D01*
Y-62700D01*
X154900D01*
Y-60700D01*
X153900D01*
Y-59700D01*
X151900D01*
Y-60700D01*
X150900D01*
Y-62700D01*
X151900D01*
X170300Y-43500D02*
Y-44500D01*
X172300D01*
Y-43500D01*
X173300D01*
Y-41500D01*
X172300D01*
Y-40500D01*
X170300D01*
Y-41500D01*
X169300D01*
Y-43500D01*
X170300D01*
Y-46400D02*
Y-47400D01*
X172300D01*
Y-46400D01*
X173300D01*
Y-44400D01*
X172300D01*
Y-43400D01*
X170300D01*
Y-44400D01*
X169300D01*
Y-46400D01*
X170300D01*
X173000Y-64600D02*
Y-65600D01*
X175000D01*
Y-64600D01*
X176000D01*
Y-62600D01*
X175000D01*
Y-61600D01*
X173000D01*
Y-62600D01*
X172000D01*
Y-64600D01*
X173000D01*
X162900Y-71500D02*
Y-72500D01*
X164900D01*
Y-71500D01*
X165900D01*
Y-69500D01*
X164900D01*
Y-68500D01*
X162900D01*
Y-69500D01*
X161900D01*
Y-71500D01*
X162900D01*
X192900Y-80700D02*
Y-81700D01*
X194900D01*
Y-80700D01*
X195900D01*
Y-78700D01*
X194900D01*
Y-77700D01*
X192900D01*
Y-78700D01*
X191900D01*
Y-80700D01*
X192900D01*
X179100Y-123300D02*
Y-124300D01*
X181100D01*
Y-123300D01*
X182100D01*
Y-121300D01*
X181100D01*
Y-120300D01*
X179100D01*
Y-121300D01*
X178100D01*
Y-123300D01*
X179100D01*
X140700Y-129600D02*
Y-130600D01*
X142700D01*
Y-129600D01*
X143700D01*
Y-127600D01*
X142700D01*
Y-126600D01*
X140700D01*
Y-127600D01*
X139700D01*
Y-129600D01*
X140700D01*
X163500Y-186500D02*
Y-187500D01*
X165500D01*
Y-186500D01*
X166500D01*
Y-184500D01*
X165500D01*
Y-183500D01*
X163500D01*
Y-184500D01*
X162500D01*
Y-186500D01*
X163500D01*
X131000Y-193000D02*
Y-194000D01*
X133000D01*
Y-193000D01*
X134000D01*
Y-191000D01*
X133000D01*
Y-190000D01*
X131000D01*
Y-191000D01*
X130000D01*
Y-193000D01*
X131000D01*
X176000Y-84688D02*
Y-85688D01*
X178000D01*
Y-84688D01*
X179000D01*
Y-82688D01*
X178000D01*
Y-81688D01*
X176000D01*
Y-82688D01*
X175000D01*
Y-84688D01*
X176000D01*
X157200Y-172500D02*
Y-173500D01*
X159200D01*
Y-172500D01*
X160200D01*
Y-170500D01*
X159200D01*
Y-169500D01*
X157200D01*
Y-170500D01*
X156200D01*
Y-172500D01*
X157200D01*
X178500Y-82700D02*
Y-83700D01*
X180500D01*
Y-82700D01*
X181500D01*
Y-80700D01*
X180500D01*
Y-79700D01*
X178500D01*
Y-80700D01*
X177500D01*
Y-82700D01*
X178500D01*
X175450Y-87850D02*
Y-88850D01*
X177450D01*
Y-87850D01*
X178450D01*
Y-85850D01*
X177450D01*
Y-84850D01*
X175450D01*
Y-85850D01*
X174450D01*
Y-87850D01*
X175450D01*
X114500Y-96500D02*
Y-97500D01*
X116500D01*
Y-96500D01*
X117500D01*
Y-94500D01*
X116500D01*
Y-93500D01*
X114500D01*
Y-94500D01*
X113500D01*
Y-96500D01*
X114500D01*
X156200Y-96000D02*
Y-97000D01*
X158200D01*
Y-96000D01*
X159200D01*
Y-94000D01*
X158200D01*
Y-93000D01*
X156200D01*
Y-94000D01*
X155200D01*
Y-96000D01*
X156200D01*
X74000Y-138000D02*
Y-139000D01*
X76000D01*
Y-138000D01*
X77000D01*
Y-136000D01*
X76000D01*
Y-135000D01*
X74000D01*
Y-136000D01*
X73000D01*
Y-138000D01*
X74000D01*
Y-136000D02*
Y-137000D01*
X76000D01*
Y-136000D01*
X77000D01*
Y-134000D01*
X76000D01*
Y-133000D01*
X74000D01*
Y-134000D01*
X73000D01*
Y-136000D01*
X74000D01*
X54000Y-138500D02*
Y-139500D01*
X56000D01*
Y-138500D01*
X57000D01*
Y-136500D01*
X56000D01*
Y-135500D01*
X54000D01*
Y-136500D01*
X53000D01*
Y-138500D01*
X54000D01*
X74000Y-151000D02*
Y-152000D01*
X76000D01*
Y-151000D01*
X77000D01*
Y-149000D01*
X76000D01*
Y-148000D01*
X74000D01*
Y-149000D01*
X73000D01*
Y-151000D01*
X74000D01*
X84000D02*
Y-152000D01*
X86000D01*
Y-151000D01*
X87000D01*
Y-149000D01*
X86000D01*
Y-148000D01*
X84000D01*
Y-149000D01*
X83000D01*
Y-151000D01*
X84000D01*
X77000Y-97000D02*
Y-98000D01*
X79000D01*
Y-97000D01*
X80000D01*
Y-95000D01*
X79000D01*
Y-94000D01*
X77000D01*
Y-95000D01*
X76000D01*
Y-97000D01*
X77000D01*
X102000Y-140500D02*
Y-141500D01*
X104000D01*
Y-140500D01*
X105000D01*
Y-138500D01*
X104000D01*
Y-137500D01*
X102000D01*
Y-138500D01*
X101000D01*
Y-140500D01*
X102000D01*
X98500D02*
Y-141500D01*
X100500D01*
Y-140500D01*
X101500D01*
Y-138500D01*
X100500D01*
Y-137500D01*
X98500D01*
Y-138500D01*
X97500D01*
Y-140500D01*
X98500D01*
X92500D02*
Y-141500D01*
X94500D01*
Y-140500D01*
X95500D01*
Y-138500D01*
X94500D01*
Y-137500D01*
X92500D01*
Y-138500D01*
X91500D01*
Y-140500D01*
X92500D01*
X69000Y-138500D02*
Y-139500D01*
X71000D01*
Y-138500D01*
X72000D01*
Y-136500D01*
X71000D01*
Y-135500D01*
X69000D01*
Y-136500D01*
X68000D01*
Y-138500D01*
X69000D01*
X39000D02*
Y-139500D01*
X41000D01*
Y-138500D01*
X42000D01*
Y-136500D01*
X41000D01*
Y-135500D01*
X39000D01*
Y-136500D01*
X38000D01*
Y-138500D01*
X39000D01*
X86500Y-132000D02*
Y-133000D01*
X88500D01*
Y-132000D01*
X89500D01*
Y-130000D01*
X88500D01*
Y-129000D01*
X86500D01*
Y-130000D01*
X85500D01*
Y-132000D01*
X86500D01*
X81500D02*
Y-133000D01*
X83500D01*
Y-132000D01*
X84500D01*
Y-130000D01*
X83500D01*
Y-129000D01*
X81500D01*
Y-130000D01*
X80500D01*
Y-132000D01*
X81500D01*
X76500D02*
Y-133000D01*
X78500D01*
Y-132000D01*
X79500D01*
Y-130000D01*
X78500D01*
Y-129000D01*
X76500D01*
Y-130000D01*
X75500D01*
Y-132000D01*
X76500D01*
X71500D02*
Y-133000D01*
X73500D01*
Y-132000D01*
X74500D01*
Y-130000D01*
X73500D01*
Y-129000D01*
X71500D01*
Y-130000D01*
X70500D01*
Y-132000D01*
X71500D01*
X86500Y-128000D02*
Y-129000D01*
X88500D01*
Y-128000D01*
X89500D01*
Y-126000D01*
X88500D01*
Y-125000D01*
X86500D01*
Y-126000D01*
X85500D01*
Y-128000D01*
X86500D01*
X81500D02*
Y-129000D01*
X83500D01*
Y-128000D01*
X84500D01*
Y-126000D01*
X83500D01*
Y-125000D01*
X81500D01*
Y-126000D01*
X80500D01*
Y-128000D01*
X81500D01*
X76500D02*
Y-129000D01*
X78500D01*
Y-128000D01*
X79500D01*
Y-126000D01*
X78500D01*
Y-125000D01*
X76500D01*
Y-126000D01*
X75500D01*
Y-128000D01*
X76500D01*
X71500D02*
Y-129000D01*
X73500D01*
Y-128000D01*
X74500D01*
Y-126000D01*
X73500D01*
Y-125000D01*
X71500D01*
Y-126000D01*
X70500D01*
Y-128000D01*
X71500D01*
X89000Y-108500D02*
Y-109500D01*
X91000D01*
Y-108500D01*
X92000D01*
Y-106500D01*
X91000D01*
Y-105500D01*
X89000D01*
Y-106500D01*
X88000D01*
Y-108500D01*
X89000D01*
Y-111000D02*
Y-112000D01*
X91000D01*
Y-111000D01*
X92000D01*
Y-109000D01*
X91000D01*
Y-108000D01*
X89000D01*
Y-109000D01*
X88000D01*
Y-111000D01*
X89000D01*
X86500Y-108500D02*
Y-109500D01*
X88500D01*
Y-108500D01*
X89500D01*
Y-106500D01*
X88500D01*
Y-105500D01*
X86500D01*
Y-106500D01*
X85500D01*
Y-108500D01*
X86500D01*
X95000Y-100000D02*
Y-101000D01*
X97000D01*
Y-100000D01*
X98000D01*
Y-98000D01*
X97000D01*
Y-97000D01*
X95000D01*
Y-98000D01*
X94000D01*
Y-100000D01*
X95000D01*
X93000D02*
Y-101000D01*
X95000D01*
Y-100000D01*
X96000D01*
Y-98000D01*
X95000D01*
Y-97000D01*
X93000D01*
Y-98000D01*
X92000D01*
Y-100000D01*
X93000D01*
X30000Y-162500D02*
Y-163500D01*
X32000D01*
Y-162500D01*
X33000D01*
Y-160500D01*
X32000D01*
Y-159500D01*
X30000D01*
Y-160500D01*
X29000D01*
Y-162500D01*
X30000D01*
Y-167000D02*
Y-168000D01*
X32000D01*
Y-167000D01*
X33000D01*
Y-165000D01*
X32000D01*
Y-164000D01*
X30000D01*
Y-165000D01*
X29000D01*
Y-167000D01*
X30000D01*
X25500D02*
Y-168000D01*
X27500D01*
Y-167000D01*
X28500D01*
Y-165000D01*
X27500D01*
Y-164000D01*
X25500D01*
Y-165000D01*
X24500D01*
Y-167000D01*
X25500D01*
X21000D02*
Y-168000D01*
X23000D01*
Y-167000D01*
X24000D01*
Y-165000D01*
X23000D01*
Y-164000D01*
X21000D01*
Y-165000D01*
X20000D01*
Y-167000D01*
X21000D01*
X16500D02*
Y-168000D01*
X18500D01*
Y-167000D01*
X19500D01*
Y-165000D01*
X18500D01*
Y-164000D01*
X16500D01*
Y-165000D01*
X15500D01*
Y-167000D01*
X16500D01*
X12000D02*
Y-168000D01*
X14000D01*
Y-167000D01*
X15000D01*
Y-165000D01*
X14000D01*
Y-164000D01*
X12000D01*
Y-165000D01*
X11000D01*
Y-167000D01*
X12000D01*
X7500D02*
Y-168000D01*
X9500D01*
Y-167000D01*
X10500D01*
Y-165000D01*
X9500D01*
Y-164000D01*
X7500D01*
Y-165000D01*
X6500D01*
Y-167000D01*
X7500D01*
X3000D02*
Y-168000D01*
X5000D01*
Y-167000D01*
X6000D01*
Y-165000D01*
X5000D01*
Y-164000D01*
X3000D01*
Y-165000D01*
X2000D01*
Y-167000D01*
X3000D01*
X12000Y-162500D02*
Y-163500D01*
X14000D01*
Y-162500D01*
X15000D01*
Y-160500D01*
X14000D01*
Y-159500D01*
X12000D01*
Y-160500D01*
X11000D01*
Y-162500D01*
X12000D01*
X3000D02*
Y-163500D01*
X5000D01*
Y-162500D01*
X6000D01*
Y-160500D01*
X5000D01*
Y-159500D01*
X3000D01*
Y-160500D01*
X2000D01*
Y-162500D01*
X3000D01*
X7500D02*
Y-163500D01*
X9500D01*
Y-162500D01*
X10500D01*
Y-160500D01*
X9500D01*
Y-159500D01*
X7500D01*
Y-160500D01*
X6500D01*
Y-162500D01*
X7500D01*
Y-158000D02*
Y-159000D01*
X9500D01*
Y-158000D01*
X10500D01*
Y-156000D01*
X9500D01*
Y-155000D01*
X7500D01*
Y-156000D01*
X6500D01*
Y-158000D01*
X7500D01*
X20700Y-139500D02*
Y-140500D01*
X22700D01*
Y-139500D01*
X23700D01*
Y-137500D01*
X22700D01*
Y-136500D01*
X20700D01*
Y-137500D01*
X19700D01*
Y-139500D01*
X20700D01*
Y-144500D02*
Y-145500D01*
X22700D01*
Y-144500D01*
X23700D01*
Y-142500D01*
X22700D01*
Y-141500D01*
X20700D01*
Y-142500D01*
X19700D01*
Y-144500D01*
X20700D01*
Y-149000D02*
Y-150000D01*
X22700D01*
Y-149000D01*
X23700D01*
Y-147000D01*
X22700D01*
Y-146000D01*
X20700D01*
Y-147000D01*
X19700D01*
Y-149000D01*
X20700D01*
Y-153500D02*
Y-154500D01*
X22700D01*
Y-153500D01*
X23700D01*
Y-151500D01*
X22700D01*
Y-150500D01*
X20700D01*
Y-151500D01*
X19700D01*
Y-153500D01*
X20700D01*
X44200Y-110300D02*
Y-111300D01*
X46200D01*
Y-110300D01*
X47200D01*
Y-108300D01*
X46200D01*
Y-107300D01*
X44200D01*
Y-108300D01*
X43200D01*
Y-110300D01*
X44200D01*
X29000Y-126000D02*
Y-127000D01*
X31000D01*
Y-126000D01*
X32000D01*
Y-124000D01*
X31000D01*
Y-123000D01*
X29000D01*
Y-124000D01*
X28000D01*
Y-126000D01*
X29000D01*
X37900Y-103500D02*
Y-104500D01*
X39900D01*
Y-103500D01*
X40900D01*
Y-101500D01*
X39900D01*
Y-100500D01*
X37900D01*
Y-101500D01*
X36900D01*
Y-103500D01*
X37900D01*
X41500Y-107000D02*
Y-108000D01*
X43500D01*
Y-107000D01*
X44500D01*
Y-105000D01*
X43500D01*
Y-104000D01*
X41500D01*
Y-105000D01*
X40500D01*
Y-107000D01*
X41500D01*
X37900D02*
Y-108000D01*
X39900D01*
Y-107000D01*
X40900D01*
Y-105000D01*
X39900D01*
Y-104000D01*
X37900D01*
Y-105000D01*
X36900D01*
Y-107000D01*
X37900D01*
X92000Y-92000D02*
Y-93000D01*
X94000D01*
Y-92000D01*
X95000D01*
Y-90000D01*
X94000D01*
Y-89000D01*
X92000D01*
Y-90000D01*
X91000D01*
Y-92000D01*
X92000D01*
X121000Y-91500D02*
Y-92500D01*
X123000D01*
Y-91500D01*
X124000D01*
Y-89500D01*
X123000D01*
Y-88500D01*
X121000D01*
Y-89500D01*
X120000D01*
Y-91500D01*
X121000D01*
X116000D02*
Y-92500D01*
X118000D01*
Y-91500D01*
X119000D01*
Y-89500D01*
X118000D01*
Y-88500D01*
X116000D01*
Y-89500D01*
X115000D01*
Y-91500D01*
X116000D01*
X111000D02*
Y-92500D01*
X113000D01*
Y-91500D01*
X114000D01*
Y-89500D01*
X113000D01*
Y-88500D01*
X111000D01*
Y-89500D01*
X110000D01*
Y-91500D01*
X111000D01*
X106000Y-92000D02*
Y-93000D01*
X108000D01*
Y-92000D01*
X109000D01*
Y-90000D01*
X108000D01*
Y-89000D01*
X106000D01*
Y-90000D01*
X105000D01*
Y-92000D01*
X106000D01*
X87000Y-91500D02*
Y-92500D01*
X89000D01*
Y-91500D01*
X90000D01*
Y-89500D01*
X89000D01*
Y-88500D01*
X87000D01*
Y-89500D01*
X86000D01*
Y-91500D01*
X87000D01*
X82000D02*
Y-92500D01*
X84000D01*
Y-91500D01*
X85000D01*
Y-89500D01*
X84000D01*
Y-88500D01*
X82000D01*
Y-89500D01*
X81000D01*
Y-91500D01*
X82000D01*
X77000D02*
Y-92500D01*
X79000D01*
Y-91500D01*
X80000D01*
Y-89500D01*
X79000D01*
Y-88500D01*
X77000D01*
Y-89500D01*
X76000D01*
Y-91500D01*
X77000D01*
X72000D02*
Y-92500D01*
X74000D01*
Y-91500D01*
X75000D01*
Y-89500D01*
X74000D01*
Y-88500D01*
X72000D01*
Y-89500D01*
X71000D01*
Y-91500D01*
X72000D01*
X67000D02*
Y-92500D01*
X69000D01*
Y-91500D01*
X70000D01*
Y-89500D01*
X69000D01*
Y-88500D01*
X67000D01*
Y-89500D01*
X66000D01*
Y-91500D01*
X67000D01*
X33500Y-92000D02*
Y-93000D01*
X35500D01*
Y-92000D01*
X36500D01*
Y-90000D01*
X35500D01*
Y-89000D01*
X33500D01*
Y-90000D01*
X32500D01*
Y-92000D01*
X33500D01*
X122000Y-79000D02*
Y-80000D01*
X124000D01*
Y-79000D01*
X125000D01*
Y-77000D01*
X124000D01*
Y-76000D01*
X122000D01*
Y-77000D01*
X121000D01*
Y-79000D01*
X122000D01*
X117000D02*
Y-80000D01*
X119000D01*
Y-79000D01*
X120000D01*
Y-77000D01*
X119000D01*
Y-76000D01*
X117000D01*
Y-77000D01*
X116000D01*
Y-79000D01*
X117000D01*
X112000D02*
Y-80000D01*
X114000D01*
Y-79000D01*
X115000D01*
Y-77000D01*
X114000D01*
Y-76000D01*
X112000D01*
Y-77000D01*
X111000D01*
Y-79000D01*
X112000D01*
X107000D02*
Y-80000D01*
X109000D01*
Y-79000D01*
X110000D01*
Y-77000D01*
X109000D01*
Y-76000D01*
X107000D01*
Y-77000D01*
X106000D01*
Y-79000D01*
X107000D01*
X102000D02*
Y-80000D01*
X104000D01*
Y-79000D01*
X105000D01*
Y-77000D01*
X104000D01*
Y-76000D01*
X102000D01*
Y-77000D01*
X101000D01*
Y-79000D01*
X102000D01*
X97000D02*
Y-80000D01*
X99000D01*
Y-79000D01*
X100000D01*
Y-77000D01*
X99000D01*
Y-76000D01*
X97000D01*
Y-77000D01*
X96000D01*
Y-79000D01*
X97000D01*
X122000Y-74000D02*
Y-75000D01*
X124000D01*
Y-74000D01*
X125000D01*
Y-72000D01*
X124000D01*
Y-71000D01*
X122000D01*
Y-72000D01*
X121000D01*
Y-74000D01*
X122000D01*
X117000D02*
Y-75000D01*
X119000D01*
Y-74000D01*
X120000D01*
Y-72000D01*
X119000D01*
Y-71000D01*
X117000D01*
Y-72000D01*
X116000D01*
Y-74000D01*
X117000D01*
X122000Y-69000D02*
Y-70000D01*
X124000D01*
Y-69000D01*
X125000D01*
Y-67000D01*
X124000D01*
Y-66000D01*
X122000D01*
Y-67000D01*
X121000D01*
Y-69000D01*
X122000D01*
X117000D02*
Y-70000D01*
X119000D01*
Y-69000D01*
X120000D01*
Y-67000D01*
X119000D01*
Y-66000D01*
X117000D01*
Y-67000D01*
X116000D01*
Y-69000D01*
X117000D01*
X92000D02*
Y-70000D01*
X94000D01*
Y-69000D01*
X95000D01*
Y-67000D01*
X94000D01*
Y-66000D01*
X92000D01*
Y-67000D01*
X91000D01*
Y-69000D01*
X92000D01*
X97000D02*
Y-70000D01*
X99000D01*
Y-69000D01*
X100000D01*
Y-67000D01*
X99000D01*
Y-66000D01*
X97000D01*
Y-67000D01*
X96000D01*
Y-69000D01*
X97000D01*
X102000D02*
Y-70000D01*
X104000D01*
Y-69000D01*
X105000D01*
Y-67000D01*
X104000D01*
Y-66000D01*
X102000D01*
Y-67000D01*
X101000D01*
Y-69000D01*
X102000D01*
X107000D02*
Y-70000D01*
X109000D01*
Y-69000D01*
X110000D01*
Y-67000D01*
X109000D01*
Y-66000D01*
X107000D01*
Y-67000D01*
X106000D01*
Y-69000D01*
X107000D01*
X112000D02*
Y-70000D01*
X114000D01*
Y-69000D01*
X115000D01*
Y-67000D01*
X114000D01*
Y-66000D01*
X112000D01*
Y-67000D01*
X111000D01*
Y-69000D01*
X112000D01*
X97000Y-74000D02*
Y-75000D01*
X99000D01*
Y-74000D01*
X100000D01*
Y-72000D01*
X99000D01*
Y-71000D01*
X97000D01*
Y-72000D01*
X96000D01*
Y-74000D01*
X97000D01*
X102000D02*
Y-75000D01*
X104000D01*
Y-74000D01*
X105000D01*
Y-72000D01*
X104000D01*
Y-71000D01*
X102000D01*
Y-72000D01*
X101000D01*
Y-74000D01*
X102000D01*
X107000D02*
Y-75000D01*
X109000D01*
Y-74000D01*
X110000D01*
Y-72000D01*
X109000D01*
Y-71000D01*
X107000D01*
Y-72000D01*
X106000D01*
Y-74000D01*
X107000D01*
X112000D02*
Y-75000D01*
X114000D01*
Y-74000D01*
X115000D01*
Y-72000D01*
X114000D01*
Y-71000D01*
X112000D01*
Y-72000D01*
X111000D01*
Y-74000D01*
X112000D01*
X92000D02*
Y-75000D01*
X94000D01*
Y-74000D01*
X95000D01*
Y-72000D01*
X94000D01*
Y-71000D01*
X92000D01*
Y-72000D01*
X91000D01*
Y-74000D01*
X92000D01*
X69000Y-83000D02*
Y-84000D01*
X71000D01*
Y-83000D01*
X72000D01*
Y-81000D01*
X71000D01*
Y-80000D01*
X69000D01*
Y-81000D01*
X68000D01*
Y-83000D01*
X69000D01*
Y-87000D02*
Y-88000D01*
X71000D01*
Y-87000D01*
X72000D01*
Y-85000D01*
X71000D01*
Y-84000D01*
X69000D01*
Y-85000D01*
X68000D01*
Y-87000D01*
X69000D01*
Y-54000D02*
Y-55000D01*
X71000D01*
Y-54000D01*
X72000D01*
Y-52000D01*
X71000D01*
Y-51000D01*
X69000D01*
Y-52000D01*
X68000D01*
Y-54000D01*
X69000D01*
Y-60000D02*
Y-61000D01*
X71000D01*
Y-60000D01*
X72000D01*
Y-58000D01*
X71000D01*
Y-57000D01*
X69000D01*
Y-58000D01*
X68000D01*
Y-60000D01*
X69000D01*
Y-66000D02*
Y-67000D01*
X71000D01*
Y-66000D01*
X72000D01*
Y-64000D01*
X71000D01*
Y-63000D01*
X69000D01*
Y-64000D01*
X68000D01*
Y-66000D01*
X69000D01*
Y-72000D02*
Y-73000D01*
X71000D01*
Y-72000D01*
X72000D01*
Y-70000D01*
X71000D01*
Y-69000D01*
X69000D01*
Y-70000D01*
X68000D01*
Y-72000D01*
X69000D01*
X28000Y-91000D02*
Y-92000D01*
X30000D01*
Y-91000D01*
X31000D01*
Y-89000D01*
X30000D01*
Y-88000D01*
X28000D01*
Y-89000D01*
X27000D01*
Y-91000D01*
X28000D01*
X23000D02*
Y-92000D01*
X25000D01*
Y-91000D01*
X26000D01*
Y-89000D01*
X25000D01*
Y-88000D01*
X23000D01*
Y-89000D01*
X22000D01*
Y-91000D01*
X23000D01*
X18000D02*
Y-92000D01*
X20000D01*
Y-91000D01*
X21000D01*
Y-89000D01*
X20000D01*
Y-88000D01*
X18000D01*
Y-89000D01*
X17000D01*
Y-91000D01*
X18000D01*
X13000D02*
Y-92000D01*
X15000D01*
Y-91000D01*
X16000D01*
Y-89000D01*
X15000D01*
Y-88000D01*
X13000D01*
Y-89000D01*
X12000D01*
Y-91000D01*
X13000D01*
X54000Y-92000D02*
Y-93000D01*
X56000D01*
Y-92000D01*
X57000D01*
Y-90000D01*
X56000D01*
Y-89000D01*
X54000D01*
Y-90000D01*
X53000D01*
Y-92000D01*
X54000D01*
X49000D02*
Y-93000D01*
X51000D01*
Y-92000D01*
X52000D01*
Y-90000D01*
X51000D01*
Y-89000D01*
X49000D01*
Y-90000D01*
X48000D01*
Y-92000D01*
X49000D01*
X54000Y-87500D02*
Y-88500D01*
X56000D01*
Y-87500D01*
X57000D01*
Y-85500D01*
X56000D01*
Y-84500D01*
X54000D01*
Y-85500D01*
X53000D01*
Y-87500D01*
X54000D01*
Y-83000D02*
Y-84000D01*
X56000D01*
Y-83000D01*
X57000D01*
Y-81000D01*
X56000D01*
Y-80000D01*
X54000D01*
Y-81000D01*
X53000D01*
Y-83000D01*
X54000D01*
X34000Y-74000D02*
Y-75000D01*
X36000D01*
Y-74000D01*
X37000D01*
Y-72000D01*
X36000D01*
Y-71000D01*
X34000D01*
Y-72000D01*
X33000D01*
Y-74000D01*
X34000D01*
X54000Y-59000D02*
Y-60000D01*
X56000D01*
Y-59000D01*
X57000D01*
Y-57000D01*
X56000D01*
Y-56000D01*
X54000D01*
Y-57000D01*
X53000D01*
Y-59000D01*
X54000D01*
Y-64000D02*
Y-65000D01*
X56000D01*
Y-64000D01*
X57000D01*
Y-62000D01*
X56000D01*
Y-61000D01*
X54000D01*
Y-62000D01*
X53000D01*
Y-64000D01*
X54000D01*
Y-74000D02*
Y-75000D01*
X56000D01*
Y-74000D01*
X57000D01*
Y-72000D01*
X56000D01*
Y-71000D01*
X54000D01*
Y-72000D01*
X53000D01*
Y-74000D01*
X54000D01*
X49000D02*
Y-75000D01*
X51000D01*
Y-74000D01*
X52000D01*
Y-72000D01*
X51000D01*
Y-71000D01*
X49000D01*
Y-72000D01*
X48000D01*
Y-74000D01*
X49000D01*
X44000D02*
Y-75000D01*
X46000D01*
Y-74000D01*
X47000D01*
Y-72000D01*
X46000D01*
Y-71000D01*
X44000D01*
Y-72000D01*
X43000D01*
Y-74000D01*
X44000D01*
X39000D02*
Y-75000D01*
X41000D01*
Y-74000D01*
X42000D01*
Y-72000D01*
X41000D01*
Y-71000D01*
X39000D01*
Y-72000D01*
X38000D01*
Y-74000D01*
X39000D01*
X54000Y-69000D02*
Y-70000D01*
X56000D01*
Y-69000D01*
X57000D01*
Y-67000D01*
X56000D01*
Y-66000D01*
X54000D01*
Y-67000D01*
X53000D01*
Y-69000D01*
X54000D01*
X49000D02*
Y-70000D01*
X51000D01*
Y-69000D01*
X52000D01*
Y-67000D01*
X51000D01*
Y-66000D01*
X49000D01*
Y-67000D01*
X48000D01*
Y-69000D01*
X49000D01*
X44000D02*
Y-70000D01*
X46000D01*
Y-69000D01*
X47000D01*
Y-67000D01*
X46000D01*
Y-66000D01*
X44000D01*
Y-67000D01*
X43000D01*
Y-69000D01*
X44000D01*
X39000D02*
Y-70000D01*
X41000D01*
Y-69000D01*
X42000D01*
Y-67000D01*
X41000D01*
Y-66000D01*
X39000D01*
Y-67000D01*
X38000D01*
Y-69000D01*
X39000D01*
X34000D02*
Y-70000D01*
X36000D01*
Y-69000D01*
X37000D01*
Y-67000D01*
X36000D01*
Y-66000D01*
X34000D01*
Y-67000D01*
X33000D01*
Y-69000D01*
X34000D01*
X12000Y-87000D02*
Y-88000D01*
X14000D01*
Y-87000D01*
X15000D01*
Y-85000D01*
X14000D01*
Y-84000D01*
X12000D01*
Y-85000D01*
X11000D01*
Y-87000D01*
X12000D01*
Y-83000D02*
Y-84000D01*
X14000D01*
Y-83000D01*
X15000D01*
Y-81000D01*
X14000D01*
Y-80000D01*
X12000D01*
Y-81000D01*
X11000D01*
Y-83000D01*
X12000D01*
Y-72000D02*
Y-73000D01*
X14000D01*
Y-72000D01*
X15000D01*
Y-70000D01*
X14000D01*
Y-69000D01*
X12000D01*
Y-70000D01*
X11000D01*
Y-72000D01*
X12000D01*
Y-66000D02*
Y-67000D01*
X14000D01*
Y-66000D01*
X15000D01*
Y-64000D01*
X14000D01*
Y-63000D01*
X12000D01*
Y-64000D01*
X11000D01*
Y-66000D01*
X12000D01*
Y-60000D02*
Y-61000D01*
X14000D01*
Y-60000D01*
X15000D01*
Y-58000D01*
X14000D01*
Y-57000D01*
X12000D01*
Y-58000D01*
X11000D01*
Y-60000D01*
X12000D01*
Y-54000D02*
Y-55000D01*
X14000D01*
Y-54000D01*
X15000D01*
Y-52000D01*
X14000D01*
Y-51000D01*
X12000D01*
Y-52000D01*
X11000D01*
Y-54000D01*
X12000D01*
X39800Y-99400D02*
Y-100400D01*
X41800D01*
Y-99400D01*
X42800D01*
Y-97400D01*
X41800D01*
Y-96400D01*
X39800D01*
Y-97400D01*
X38800D01*
Y-99400D01*
X39800D01*
X44000D02*
Y-100400D01*
X46000D01*
Y-99400D01*
X47000D01*
Y-97400D01*
X46000D01*
Y-96400D01*
X44000D01*
Y-97400D01*
X43000D01*
Y-99400D01*
X44000D01*
X135600Y-169700D02*
Y-170700D01*
X137600D01*
Y-169700D01*
X138600D01*
Y-167700D01*
X137600D01*
Y-166700D01*
X135600D01*
Y-167700D01*
X134600D01*
Y-169700D01*
X135600D01*
X141500D02*
Y-170700D01*
X143500D01*
Y-169700D01*
X144500D01*
Y-167700D01*
X143500D01*
Y-166700D01*
X141500D01*
Y-167700D01*
X140500D01*
Y-169700D01*
X141500D01*
X92600Y-96500D02*
Y-97500D01*
X94600D01*
Y-96500D01*
X95600D01*
Y-94500D01*
X94600D01*
Y-93500D01*
X92600D01*
Y-94500D01*
X91600D01*
Y-96500D01*
X92600D01*
X104400D02*
Y-97500D01*
X106400D01*
Y-96500D01*
X107400D01*
Y-94500D01*
X106400D01*
Y-93500D01*
X104400D01*
Y-94500D01*
X103400D01*
Y-96500D01*
X104400D01*
X5500Y-92000D02*
Y-93000D01*
X7500D01*
Y-92000D01*
X8500D01*
Y-90000D01*
X7500D01*
Y-89000D01*
X5500D01*
Y-90000D01*
X4500D01*
Y-92000D01*
X5500D01*
X9500D02*
Y-93000D01*
X11500D01*
Y-92000D01*
X12500D01*
Y-90000D01*
X11500D01*
Y-89000D01*
X9500D01*
Y-90000D01*
X8500D01*
Y-92000D01*
X9500D01*
X5500Y-94000D02*
Y-95000D01*
X7500D01*
Y-94000D01*
X8500D01*
Y-92000D01*
X7500D01*
Y-91000D01*
X5500D01*
Y-92000D01*
X4500D01*
Y-94000D01*
X5500D01*
X9500D02*
Y-95000D01*
X11500D01*
Y-94000D01*
X12500D01*
Y-92000D01*
X11500D01*
Y-91000D01*
X9500D01*
Y-92000D01*
X8500D01*
Y-94000D01*
X9500D01*
X7500D02*
Y-95000D01*
X9500D01*
Y-94000D01*
X10500D01*
Y-92000D01*
X9500D01*
Y-91000D01*
X7500D01*
Y-92000D01*
X6500D01*
Y-94000D01*
X7500D01*
Y-92000D02*
Y-93000D01*
X9500D01*
Y-92000D01*
X10500D01*
Y-90000D01*
X9500D01*
Y-89000D01*
X7500D01*
Y-90000D01*
X6500D01*
Y-92000D01*
X7500D01*
X61700D02*
Y-93000D01*
X63700D01*
Y-92000D01*
X64700D01*
Y-90000D01*
X63700D01*
Y-89000D01*
X61700D01*
Y-90000D01*
X60700D01*
Y-92000D01*
X61700D01*
Y-94000D02*
Y-95000D01*
X63700D01*
Y-94000D01*
X64700D01*
Y-92000D01*
X63700D01*
Y-91000D01*
X61700D01*
Y-92000D01*
X60700D01*
Y-94000D01*
X61700D01*
X63700D02*
Y-95000D01*
X65700D01*
Y-94000D01*
X66700D01*
Y-92000D01*
X65700D01*
Y-91000D01*
X63700D01*
Y-92000D01*
X62700D01*
Y-94000D01*
X63700D01*
X59700D02*
Y-95000D01*
X61700D01*
Y-94000D01*
X62700D01*
Y-92000D01*
X61700D01*
Y-91000D01*
X59700D01*
Y-92000D01*
X58700D01*
Y-94000D01*
X59700D01*
X63700Y-92000D02*
Y-93000D01*
X65700D01*
Y-92000D01*
X66700D01*
Y-90000D01*
X65700D01*
Y-89000D01*
X63700D01*
Y-90000D01*
X62700D01*
Y-92000D01*
X63700D01*
X59700D02*
Y-93000D01*
X61700D01*
Y-92000D01*
X62700D01*
Y-90000D01*
X61700D01*
Y-89000D01*
X59700D01*
Y-90000D01*
X58700D01*
Y-92000D01*
X59700D01*
X1700Y-97300D02*
Y-98300D01*
X3700D01*
Y-97300D01*
X4700D01*
Y-95300D01*
X3700D01*
Y-94300D01*
X1700D01*
Y-95300D01*
X700D01*
Y-97300D01*
X1700D01*
Y-92500D02*
Y-93500D01*
X3700D01*
Y-92500D01*
X4700D01*
Y-90500D01*
X3700D01*
Y-89500D01*
X1700D01*
Y-90500D01*
X700D01*
Y-92500D01*
X1700D01*
Y-94900D02*
Y-95900D01*
X3700D01*
Y-94900D01*
X4700D01*
Y-92900D01*
X3700D01*
Y-91900D01*
X1700D01*
Y-92900D01*
X700D01*
Y-94900D01*
X1700D01*
X8250Y-102500D02*
Y-103500D01*
X10250D01*
Y-102500D01*
X11250D01*
Y-100500D01*
X10250D01*
Y-99500D01*
X8250D01*
Y-100500D01*
X7250D01*
Y-102500D01*
X8250D01*
X13350D02*
Y-103500D01*
X15350D01*
Y-102500D01*
X16350D01*
Y-100500D01*
X15350D01*
Y-99500D01*
X13350D01*
Y-100500D01*
X12350D01*
Y-102500D01*
X13350D01*
X18450D02*
Y-103500D01*
X20450D01*
Y-102500D01*
X21450D01*
Y-100500D01*
X20450D01*
Y-99500D01*
X18450D01*
Y-100500D01*
X17450D01*
Y-102500D01*
X18450D01*
X26000Y-79000D02*
Y-80000D01*
X28000D01*
Y-79000D01*
X29000D01*
Y-77000D01*
X28000D01*
Y-76000D01*
X26000D01*
Y-77000D01*
X25000D01*
Y-79000D01*
X26000D01*
X28400D02*
Y-80000D01*
X30400D01*
Y-79000D01*
X31400D01*
Y-77000D01*
X30400D01*
Y-76000D01*
X28400D01*
Y-77000D01*
X27400D01*
Y-79000D01*
X28400D01*
X23600D02*
Y-80000D01*
X25600D01*
Y-79000D01*
X26600D01*
Y-77000D01*
X25600D01*
Y-76000D01*
X23600D01*
Y-77000D01*
X22600D01*
Y-79000D01*
X23600D01*
X80600D02*
Y-80000D01*
X82600D01*
Y-79000D01*
X83600D01*
Y-77000D01*
X82600D01*
Y-76000D01*
X80600D01*
Y-77000D01*
X79600D01*
Y-79000D01*
X80600D01*
X85400D02*
Y-80000D01*
X87400D01*
Y-79000D01*
X88400D01*
Y-77000D01*
X87400D01*
Y-76000D01*
X85400D01*
Y-77000D01*
X84400D01*
Y-79000D01*
X85400D01*
X83000D02*
Y-80000D01*
X85000D01*
Y-79000D01*
X86000D01*
Y-77000D01*
X85000D01*
Y-76000D01*
X83000D01*
Y-77000D01*
X82000D01*
Y-79000D01*
X83000D01*
X2000Y-125000D02*
Y-126000D01*
X4000D01*
Y-125000D01*
X5000D01*
Y-123000D01*
X4000D01*
Y-122000D01*
X2000D01*
Y-123000D01*
X1000D01*
Y-125000D01*
X2000D01*
X5500D02*
Y-126000D01*
X7500D01*
Y-125000D01*
X8500D01*
Y-123000D01*
X7500D01*
Y-122000D01*
X5500D01*
Y-123000D01*
X4500D01*
Y-125000D01*
X5500D01*
X2000Y-128500D02*
Y-129500D01*
X4000D01*
Y-128500D01*
X5000D01*
Y-126500D01*
X4000D01*
Y-125500D01*
X2000D01*
Y-126500D01*
X1000D01*
Y-128500D01*
X2000D01*
X5500D02*
Y-129500D01*
X7500D01*
Y-128500D01*
X8500D01*
Y-126500D01*
X7500D01*
Y-125500D01*
X5500D01*
Y-126500D01*
X4500D01*
Y-128500D01*
X5500D01*
X7500Y-134000D02*
Y-135000D01*
X9500D01*
Y-134000D01*
X10500D01*
Y-132000D01*
X9500D01*
Y-131000D01*
X7500D01*
Y-132000D01*
X6500D01*
Y-134000D01*
X7500D01*
Y-143000D02*
Y-144000D01*
X9500D01*
Y-143000D01*
X10500D01*
Y-141000D01*
X9500D01*
Y-140000D01*
X7500D01*
Y-141000D01*
X6500D01*
Y-143000D01*
X7500D01*
Y-152000D02*
Y-153000D01*
X9500D01*
Y-152000D01*
X10500D01*
Y-150000D01*
X9500D01*
Y-149000D01*
X7500D01*
Y-150000D01*
X6500D01*
Y-152000D01*
X7500D01*
Y-138500D02*
Y-139500D01*
X9500D01*
Y-138500D01*
X10500D01*
Y-136500D01*
X9500D01*
Y-135500D01*
X7500D01*
Y-136500D01*
X6500D01*
Y-138500D01*
X7500D01*
Y-147500D02*
Y-148500D01*
X9500D01*
Y-147500D01*
X10500D01*
Y-145500D01*
X9500D01*
Y-144500D01*
X7500D01*
Y-145500D01*
X6500D01*
Y-147500D01*
X7500D01*
X15000Y-116000D02*
Y-117000D01*
X17000D01*
Y-116000D01*
X18000D01*
Y-114000D01*
X17000D01*
Y-113000D01*
X15000D01*
Y-114000D01*
X14000D01*
Y-116000D01*
X15000D01*
X18500Y-113000D02*
Y-114000D01*
X20500D01*
Y-113000D01*
X21500D01*
Y-111000D01*
X20500D01*
Y-110000D01*
X18500D01*
Y-111000D01*
X17500D01*
Y-113000D01*
X18500D01*
X15000D02*
Y-114000D01*
X17000D01*
Y-113000D01*
X18000D01*
Y-111000D01*
X17000D01*
Y-110000D01*
X15000D01*
Y-111000D01*
X14000D01*
Y-113000D01*
X15000D01*
X6000Y-109000D02*
Y-110000D01*
X8000D01*
Y-109000D01*
X9000D01*
Y-107000D01*
X8000D01*
Y-106000D01*
X6000D01*
Y-107000D01*
X5000D01*
Y-109000D01*
X6000D01*
X21500Y-126000D02*
Y-127000D01*
X23500D01*
Y-126000D01*
X24500D01*
Y-124000D01*
X23500D01*
Y-123000D01*
X21500D01*
Y-124000D01*
X20500D01*
Y-126000D01*
X21500D01*
Y-133500D02*
Y-134500D01*
X23500D01*
Y-133500D01*
X24500D01*
Y-131500D01*
X23500D01*
Y-130500D01*
X21500D01*
Y-131500D01*
X20500D01*
Y-133500D01*
X21500D01*
X25200Y-129700D02*
Y-130700D01*
X27200D01*
Y-129700D01*
X28200D01*
Y-127700D01*
X27200D01*
Y-126700D01*
X25200D01*
Y-127700D01*
X24200D01*
Y-129700D01*
X25200D01*
X56000Y-39000D02*
Y-40000D01*
X58000D01*
Y-39000D01*
X59000D01*
Y-37000D01*
X58000D01*
Y-36000D01*
X56000D01*
Y-37000D01*
X55000D01*
Y-39000D01*
X56000D01*
X60000D02*
Y-40000D01*
X62000D01*
Y-39000D01*
X63000D01*
Y-37000D01*
X62000D01*
Y-36000D01*
X60000D01*
Y-37000D01*
X59000D01*
Y-39000D01*
X60000D01*
X56000Y-44000D02*
Y-45000D01*
X58000D01*
Y-44000D01*
X59000D01*
Y-42000D01*
X58000D01*
Y-41000D01*
X56000D01*
Y-42000D01*
X55000D01*
Y-44000D01*
X56000D01*
X60000D02*
Y-45000D01*
X62000D01*
Y-44000D01*
X63000D01*
Y-42000D01*
X62000D01*
Y-41000D01*
X60000D01*
Y-42000D01*
X59000D01*
Y-44000D01*
X60000D01*
X118000Y-39000D02*
Y-40000D01*
X120000D01*
Y-39000D01*
X121000D01*
Y-37000D01*
X120000D01*
Y-36000D01*
X118000D01*
Y-37000D01*
X117000D01*
Y-39000D01*
X118000D01*
X120000D02*
Y-40000D01*
X122000D01*
Y-39000D01*
X123000D01*
Y-37000D01*
X122000D01*
Y-36000D01*
X120000D01*
Y-37000D01*
X119000D01*
Y-39000D01*
X120000D01*
Y-44000D02*
Y-45000D01*
X122000D01*
Y-44000D01*
X123000D01*
Y-42000D01*
X122000D01*
Y-41000D01*
X120000D01*
Y-42000D01*
X119000D01*
Y-44000D01*
X120000D01*
X122000D02*
Y-45000D01*
X124000D01*
Y-44000D01*
X125000D01*
Y-42000D01*
X124000D01*
Y-41000D01*
X122000D01*
Y-42000D01*
X121000D01*
Y-44000D01*
X122000D01*
X58000Y-39000D02*
Y-40000D01*
X60000D01*
Y-39000D01*
X61000D01*
Y-37000D01*
X60000D01*
Y-36000D01*
X58000D01*
Y-37000D01*
X57000D01*
Y-39000D01*
X58000D01*
Y-44000D02*
Y-45000D01*
X60000D01*
Y-44000D01*
X61000D01*
Y-42000D01*
X60000D01*
Y-41000D01*
X58000D01*
Y-42000D01*
X57000D01*
Y-44000D01*
X58000D01*
X122000Y-39000D02*
Y-40000D01*
X124000D01*
Y-39000D01*
X125000D01*
Y-37000D01*
X124000D01*
Y-36000D01*
X122000D01*
Y-37000D01*
X121000D01*
Y-39000D01*
X122000D01*
X118000Y-44000D02*
Y-45000D01*
X120000D01*
Y-44000D01*
X121000D01*
Y-42000D01*
X120000D01*
Y-41000D01*
X118000D01*
Y-42000D01*
X117000D01*
Y-44000D01*
X118000D01*
X162000Y-96000D02*
Y-97000D01*
X164000D01*
Y-96000D01*
X165000D01*
Y-94000D01*
X164000D01*
Y-93000D01*
X162000D01*
Y-94000D01*
X161000D01*
Y-96000D01*
X162000D01*
X168500Y-93500D02*
Y-94500D01*
X170500D01*
Y-93500D01*
X171500D01*
Y-91500D01*
X170500D01*
Y-90500D01*
X168500D01*
Y-91500D01*
X167500D01*
Y-93500D01*
X168500D01*
X165000Y-101000D02*
Y-102000D01*
X167000D01*
Y-101000D01*
X168000D01*
Y-99000D01*
X167000D01*
Y-98000D01*
X165000D01*
Y-99000D01*
X164000D01*
Y-101000D01*
X165000D01*
X171500Y-98500D02*
Y-99500D01*
X173500D01*
Y-98500D01*
X174500D01*
Y-96500D01*
X173500D01*
Y-95500D01*
X171500D01*
Y-96500D01*
X170500D01*
Y-98500D01*
X171500D01*
X137000Y-134500D02*
Y-135500D01*
X139000D01*
Y-134500D01*
X140000D01*
Y-132500D01*
X139000D01*
Y-131500D01*
X137000D01*
Y-132500D01*
X136000D01*
Y-134500D01*
X137000D01*
X150800D02*
Y-135500D01*
X152800D01*
Y-134500D01*
X153800D01*
Y-132500D01*
X152800D01*
Y-131500D01*
X150800D01*
Y-132500D01*
X149800D01*
Y-134500D01*
X150800D01*
X165500Y-85000D02*
Y-86000D01*
X167500D01*
Y-85000D01*
X168500D01*
Y-83000D01*
X167500D01*
Y-82000D01*
X165500D01*
Y-83000D01*
X164500D01*
Y-85000D01*
X165500D01*
X171800Y-87800D02*
Y-88800D01*
X173800D01*
Y-87800D01*
X174800D01*
Y-85800D01*
X173800D01*
Y-84800D01*
X171800D01*
Y-85800D01*
X170800D01*
Y-87800D01*
X171800D01*
D11*
X120900Y-183100D02*
G03*
X120900Y-183100I-2000J0D01*
G01*
X93000D02*
G03*
X93000Y-183100I-2000J0D01*
G01*
X147500Y-14600D02*
G03*
X147500Y-14600I-2000J0D01*
G01*
M02*
