%FSLAX25Y25*%
%MOIN*%
G70*
G01*
G75*
G04 Layer_Color=255*
%ADD10C,0.00900*%
%ADD11C,0.00800*%
%ADD12C,0.01500*%
%ADD13C,0.03000*%
%ADD14C,0.05000*%
%ADD15C,0.01200*%
%ADD16C,0.02500*%
%ADD17C,0.02000*%
%ADD18C,0.04000*%
%ADD19R,0.02362X0.02756*%
%ADD20R,0.02756X0.02362*%
%ADD21O,0.05906X0.00984*%
%ADD22O,0.00984X0.05906*%
%ADD23R,0.06693X0.05512*%
%ADD24R,0.04331X0.05118*%
%ADD25O,0.06299X0.02362*%
%ADD26R,0.18898X0.17716*%
%ADD27R,0.06299X0.10630*%
%ADD28R,0.04331X0.03150*%
%ADD29R,0.02800X0.03500*%
%ADD30O,0.01969X0.06299*%
%ADD31R,0.01969X0.06299*%
%ADD32R,0.04331X0.05906*%
G04:AMPARAMS|DCode=33|XSize=157.48mil|YSize=196.85mil|CornerRadius=39.37mil|HoleSize=0mil|Usage=FLASHONLY|Rotation=180.000|XOffset=0mil|YOffset=0mil|HoleType=Round|Shape=RoundedRectangle|*
%AMROUNDEDRECTD33*
21,1,0.15748,0.11811,0,0,180.0*
21,1,0.07874,0.19685,0,0,180.0*
1,1,0.07874,-0.03937,0.05906*
1,1,0.07874,0.03937,0.05906*
1,1,0.07874,0.03937,-0.05906*
1,1,0.07874,-0.03937,-0.05906*
%
%ADD33ROUNDEDRECTD33*%
%ADD34R,0.04724X0.03150*%
%ADD35R,0.03150X0.02362*%
%ADD36R,0.02362X0.03150*%
%ADD37R,0.03937X0.10236*%
%ADD38R,0.03500X0.02800*%
%ADD39R,0.03543X0.05512*%
%ADD40R,0.08661X0.05512*%
%ADD41R,0.05118X0.03150*%
%ADD42R,0.11024X0.08268*%
%ADD43R,0.03543X0.05906*%
%ADD44R,0.10236X0.03937*%
%ADD45R,0.05512X0.06693*%
%ADD46R,0.05118X0.04331*%
%ADD47R,0.03150X0.04724*%
%ADD48R,0.12598X0.07874*%
%ADD49C,0.03937*%
%ADD50C,0.06500*%
%ADD51R,0.36600X0.13000*%
%ADD52R,0.04900X0.04900*%
%ADD53R,0.03000X0.05000*%
%ADD54R,0.12000X0.05500*%
%ADD55R,0.05500X0.10500*%
%ADD56R,0.05000X0.03000*%
%ADD57R,0.06200X0.41500*%
%ADD58R,0.07200X0.03100*%
%ADD59R,0.36000X0.13000*%
%ADD60R,0.06300X0.12400*%
%ADD61R,0.07700X0.12400*%
%ADD62C,0.25590*%
%ADD63C,0.10630*%
%ADD64O,0.07480X0.06299*%
%ADD65C,0.11811*%
%ADD66C,0.07874*%
%ADD67C,0.02362*%
%ADD68R,0.06400X0.04400*%
%ADD69R,0.06400X0.12400*%
%ADD70R,0.07200X0.02400*%
%ADD71R,0.02400X0.07200*%
%ADD72R,0.36700X0.13000*%
%ADD73C,0.07000*%
%ADD74C,0.06400*%
%ADD75C,0.06000*%
%ADD76R,0.68300X0.12400*%
D38*
X105000Y-162499D02*
D03*
Y-156200D02*
D03*
D49*
X-15748Y173228D02*
D03*
X421260D02*
D03*
X-15748Y-161417D02*
D03*
X421260D02*
D03*
D62*
X182850Y-14000D02*
D03*
X14000D02*
D03*
Y-182850D02*
D03*
X182850D02*
D03*
D63*
X118900Y-183100D02*
D03*
X91000D02*
D03*
X145500Y-14600D02*
D03*
D64*
X118900Y-165384D02*
D03*
Y-153572D02*
D03*
X91000Y-165384D02*
D03*
Y-153572D02*
D03*
X139594Y-44128D02*
D03*
Y-32316D02*
D03*
X151406D02*
D03*
Y-44128D02*
D03*
D65*
X63500Y-148000D02*
D03*
X63500Y-125559D02*
D03*
X40500Y-148000D02*
D03*
X40500Y-125559D02*
D03*
D66*
X-19685Y200787D02*
D03*
Y-188976D02*
D03*
X425197D02*
D03*
Y200787D02*
D03*
M02*
