%FSLAX25Y25*%
%MOIN*%
G70*
G01*
G75*
G04 Layer_Color=32896*
%ADD10C,0.00900*%
%ADD11C,0.00800*%
%ADD12C,0.01500*%
%ADD13C,0.03000*%
%ADD14C,0.05000*%
%ADD15C,0.01200*%
%ADD16C,0.02500*%
%ADD17C,0.02000*%
%ADD18C,0.04000*%
%ADD19R,0.02362X0.02756*%
%ADD20R,0.02756X0.02362*%
%ADD21O,0.05906X0.00984*%
%ADD22O,0.00984X0.05906*%
%ADD23R,0.06693X0.05512*%
%ADD24R,0.04331X0.05118*%
%ADD25O,0.06299X0.02362*%
%ADD26R,0.18898X0.17716*%
%ADD27R,0.06299X0.10630*%
%ADD28R,0.04331X0.03150*%
%ADD29R,0.02800X0.03500*%
%ADD30O,0.01969X0.06299*%
%ADD31R,0.01969X0.06299*%
%ADD32R,0.04331X0.05906*%
G04:AMPARAMS|DCode=33|XSize=157.48mil|YSize=196.85mil|CornerRadius=39.37mil|HoleSize=0mil|Usage=FLASHONLY|Rotation=180.000|XOffset=0mil|YOffset=0mil|HoleType=Round|Shape=RoundedRectangle|*
%AMROUNDEDRECTD33*
21,1,0.15748,0.11811,0,0,180.0*
21,1,0.07874,0.19685,0,0,180.0*
1,1,0.07874,-0.03937,0.05906*
1,1,0.07874,0.03937,0.05906*
1,1,0.07874,0.03937,-0.05906*
1,1,0.07874,-0.03937,-0.05906*
%
%ADD33ROUNDEDRECTD33*%
%ADD34R,0.04724X0.03150*%
%ADD35R,0.03150X0.02362*%
%ADD36R,0.02362X0.03150*%
%ADD37R,0.03937X0.10236*%
%ADD38R,0.03500X0.02800*%
%ADD39R,0.03543X0.05512*%
%ADD40R,0.08661X0.05512*%
%ADD41R,0.05118X0.03150*%
%ADD42R,0.11024X0.08268*%
%ADD43R,0.03543X0.05906*%
%ADD44R,0.10236X0.03937*%
%ADD45R,0.05512X0.06693*%
%ADD46R,0.05118X0.04331*%
%ADD47R,0.03150X0.04724*%
%ADD48R,0.12598X0.07874*%
%ADD49C,0.03937*%
%ADD50C,0.06500*%
%ADD51R,0.36600X0.13000*%
%ADD52R,0.04900X0.04900*%
%ADD53R,0.03000X0.05000*%
%ADD54R,0.12000X0.05500*%
%ADD55R,0.05500X0.10500*%
%ADD56R,0.05000X0.03000*%
%ADD57R,0.06200X0.41500*%
%ADD58R,0.07200X0.03100*%
%ADD59R,0.36000X0.13000*%
%ADD60R,0.06300X0.12400*%
%ADD61R,0.07700X0.12400*%
%ADD62C,0.25590*%
%ADD63C,0.10630*%
%ADD64O,0.07480X0.06299*%
%ADD65C,0.11811*%
%ADD66C,0.07874*%
%ADD67C,0.02362*%
%ADD68R,0.06400X0.04400*%
%ADD69R,0.06400X0.12400*%
%ADD70R,0.07200X0.02400*%
%ADD71R,0.02400X0.07200*%
%ADD72R,0.36700X0.13000*%
%ADD73C,0.07000*%
%ADD74C,0.06400*%
%ADD75C,0.06000*%
%ADD76R,0.68300X0.12400*%
%ADD77C,0.00787*%
%ADD78C,0.01000*%
%ADD79C,0.00984*%
%ADD80C,0.00394*%
%ADD81C,0.00500*%
%ADD82C,0.00591*%
%ADD83C,0.01181*%
%ADD84C,0.00460*%
%ADD85R,0.03162X0.03556*%
%ADD86R,0.03556X0.03162*%
%ADD87O,0.06706X0.01784*%
%ADD88O,0.01784X0.06706*%
%ADD89R,0.07493X0.06312*%
%ADD90R,0.05131X0.05918*%
%ADD91O,0.07099X0.03162*%
%ADD92R,0.19698X0.18517*%
%ADD93R,0.07099X0.11430*%
%ADD94R,0.05131X0.03950*%
%ADD95R,0.03600X0.04300*%
%ADD96O,0.02769X0.07099*%
%ADD97R,0.02769X0.07099*%
%ADD98R,0.05131X0.06706*%
G04:AMPARAMS|DCode=99|XSize=165.48mil|YSize=204.85mil|CornerRadius=43.37mil|HoleSize=0mil|Usage=FLASHONLY|Rotation=180.000|XOffset=0mil|YOffset=0mil|HoleType=Round|Shape=RoundedRectangle|*
%AMROUNDEDRECTD99*
21,1,0.16548,0.11811,0,0,180.0*
21,1,0.07874,0.20485,0,0,180.0*
1,1,0.08674,-0.03937,0.05906*
1,1,0.08674,0.03937,0.05906*
1,1,0.08674,0.03937,-0.05906*
1,1,0.08674,-0.03937,-0.05906*
%
%ADD99ROUNDEDRECTD99*%
%ADD100R,0.05524X0.03950*%
%ADD101R,0.03950X0.03162*%
%ADD102R,0.03162X0.03950*%
%ADD103R,0.04737X0.11036*%
%ADD104R,0.04300X0.03600*%
%ADD105R,0.04343X0.06312*%
%ADD106R,0.09461X0.06312*%
%ADD107R,0.05918X0.03950*%
%ADD108R,0.11824X0.09068*%
%ADD109R,0.04343X0.06706*%
%ADD110R,0.11036X0.04737*%
%ADD111R,0.06312X0.07493*%
%ADD112R,0.05918X0.05131*%
%ADD113R,0.03950X0.05524*%
%ADD114R,0.13398X0.08674*%
%ADD115C,0.04737*%
%ADD116C,0.26391*%
%ADD117C,0.11430*%
%ADD118O,0.08280X0.07099*%
%ADD119C,0.12611*%
%ADD120C,0.08674*%
G36*
X104234Y-167153D02*
X104367Y-167175D01*
X104486Y-167205D01*
X104604Y-167242D01*
X104708Y-167293D01*
X104804Y-167345D01*
X104885Y-167404D01*
X104967Y-167456D01*
X105033Y-167515D01*
X105093Y-167575D01*
X105144Y-167626D01*
X105189Y-167678D01*
X105218Y-167715D01*
X105241Y-167745D01*
X105255Y-167767D01*
X105263Y-167774D01*
X105329Y-167900D01*
X105396Y-168033D01*
X105448Y-168174D01*
X105492Y-168322D01*
X105566Y-168625D01*
X105611Y-168921D01*
X105625Y-169062D01*
X105640Y-169188D01*
X105648Y-169306D01*
X105655Y-169402D01*
X105662Y-169484D01*
Y-169550D01*
Y-169587D01*
Y-169602D01*
X105655Y-169802D01*
X105648Y-169994D01*
X105625Y-170172D01*
X105603Y-170335D01*
X105574Y-170490D01*
X105544Y-170631D01*
X105507Y-170757D01*
X105470Y-170868D01*
X105440Y-170971D01*
X105403Y-171053D01*
X105374Y-171127D01*
X105344Y-171186D01*
X105322Y-171238D01*
X105300Y-171267D01*
X105292Y-171289D01*
X105285Y-171297D01*
X105211Y-171400D01*
X105130Y-171489D01*
X105041Y-171563D01*
X104952Y-171630D01*
X104863Y-171689D01*
X104774Y-171733D01*
X104686Y-171770D01*
X104597Y-171800D01*
X104515Y-171822D01*
X104441Y-171844D01*
X104375Y-171859D01*
X104316Y-171867D01*
X104264D01*
X104227Y-171874D01*
X104197D01*
X104064Y-171867D01*
X103938Y-171844D01*
X103820Y-171815D01*
X103709Y-171778D01*
X103605Y-171733D01*
X103516Y-171682D01*
X103428Y-171630D01*
X103354Y-171571D01*
X103287Y-171511D01*
X103228Y-171460D01*
X103176Y-171408D01*
X103132Y-171363D01*
X103102Y-171326D01*
X103080Y-171289D01*
X103065Y-171275D01*
X103058Y-171267D01*
X102984Y-171149D01*
X102917Y-171016D01*
X102865Y-170875D01*
X102821Y-170734D01*
X102747Y-170438D01*
X102695Y-170150D01*
X102680Y-170017D01*
X102665Y-169898D01*
X102658Y-169787D01*
X102651Y-169691D01*
X102643Y-169610D01*
Y-169550D01*
Y-169513D01*
Y-169499D01*
X102651Y-169284D01*
X102658Y-169084D01*
X102680Y-168899D01*
X102702Y-168722D01*
X102739Y-168559D01*
X102776Y-168411D01*
X102821Y-168270D01*
X102873Y-168137D01*
X102924Y-168019D01*
X102976Y-167908D01*
X103043Y-167811D01*
X103102Y-167723D01*
X103169Y-167641D01*
X103235Y-167567D01*
X103302Y-167501D01*
X103368Y-167441D01*
X103502Y-167345D01*
X103635Y-167271D01*
X103761Y-167219D01*
X103864Y-167182D01*
X103960Y-167160D01*
X104034Y-167153D01*
X104057Y-167145D01*
X104094D01*
X104234Y-167153D01*
D02*
G37*
G36*
X100090D02*
X100260Y-167168D01*
X100416Y-167197D01*
X100564Y-167234D01*
X100704Y-167279D01*
X100830Y-167330D01*
X100949Y-167382D01*
X101060Y-167434D01*
X101148Y-167493D01*
X101237Y-167545D01*
X101304Y-167597D01*
X101363Y-167641D01*
X101415Y-167678D01*
X101444Y-167708D01*
X101467Y-167723D01*
X101474Y-167730D01*
X101578Y-167841D01*
X101666Y-167959D01*
X101748Y-168085D01*
X101814Y-168218D01*
X101874Y-168344D01*
X101918Y-168477D01*
X101962Y-168603D01*
X101992Y-168722D01*
X102014Y-168840D01*
X102036Y-168944D01*
X102051Y-169040D01*
X102059Y-169121D01*
Y-169188D01*
X102066Y-169240D01*
Y-169269D01*
Y-169284D01*
X102051Y-169513D01*
X102022Y-169735D01*
X101962Y-169943D01*
X101896Y-170135D01*
X101807Y-170313D01*
X101718Y-170475D01*
X101615Y-170631D01*
X101511Y-170764D01*
X101407Y-170882D01*
X101304Y-170993D01*
X101215Y-171082D01*
X101126Y-171156D01*
X101060Y-171215D01*
X101000Y-171252D01*
X100971Y-171282D01*
X100956Y-171289D01*
X102066D01*
Y-171800D01*
X100379D01*
Y-171289D01*
X100564Y-171134D01*
X100734Y-170971D01*
X100875Y-170808D01*
X101000Y-170638D01*
X101104Y-170475D01*
X101193Y-170313D01*
X101259Y-170150D01*
X101319Y-170002D01*
X101363Y-169854D01*
X101393Y-169728D01*
X101422Y-169610D01*
X101437Y-169506D01*
X101444Y-169425D01*
X101452Y-169365D01*
Y-169328D01*
Y-169314D01*
X101444Y-169180D01*
X101430Y-169047D01*
X101415Y-168929D01*
X101385Y-168818D01*
X101356Y-168707D01*
X101319Y-168611D01*
X101274Y-168522D01*
X101237Y-168440D01*
X101200Y-168366D01*
X101156Y-168307D01*
X101119Y-168248D01*
X101089Y-168204D01*
X101060Y-168167D01*
X101037Y-168144D01*
X101030Y-168130D01*
X101023Y-168122D01*
X100941Y-168041D01*
X100852Y-167974D01*
X100756Y-167915D01*
X100667Y-167863D01*
X100571Y-167819D01*
X100475Y-167782D01*
X100297Y-167730D01*
X100216Y-167708D01*
X100142Y-167693D01*
X100075Y-167686D01*
X100016Y-167678D01*
X99964Y-167671D01*
X99898D01*
X99772Y-167678D01*
X99654Y-167693D01*
X99543Y-167715D01*
X99432Y-167737D01*
X99335Y-167774D01*
X99247Y-167811D01*
X99158Y-167856D01*
X99084Y-167893D01*
X99017Y-167937D01*
X98958Y-167982D01*
X98906Y-168019D01*
X98862Y-168048D01*
X98832Y-168078D01*
X98810Y-168100D01*
X98795Y-168115D01*
X98788Y-168122D01*
X98714Y-168211D01*
X98647Y-168300D01*
X98588Y-168396D01*
X98536Y-168492D01*
X98499Y-168596D01*
X98462Y-168692D01*
X98410Y-168884D01*
X98396Y-168973D01*
X98381Y-169055D01*
X98373Y-169129D01*
X98366Y-169188D01*
X98359Y-169240D01*
Y-169284D01*
Y-169306D01*
Y-169314D01*
X98373Y-169528D01*
X98403Y-169735D01*
X98455Y-169935D01*
X98529Y-170120D01*
X98610Y-170290D01*
X98699Y-170453D01*
X98795Y-170609D01*
X98891Y-170742D01*
X98995Y-170868D01*
X99091Y-170971D01*
X99180Y-171067D01*
X99261Y-171149D01*
X99335Y-171208D01*
X99387Y-171252D01*
X99417Y-171282D01*
X99432Y-171289D01*
Y-171800D01*
X97744D01*
Y-171289D01*
X98854D01*
X98662Y-171141D01*
X98484Y-170993D01*
X98336Y-170831D01*
X98211Y-170660D01*
X98107Y-170498D01*
X98018Y-170327D01*
X97944Y-170165D01*
X97885Y-170002D01*
X97841Y-169854D01*
X97804Y-169721D01*
X97781Y-169595D01*
X97759Y-169484D01*
X97752Y-169402D01*
X97744Y-169336D01*
Y-169291D01*
Y-169277D01*
X97752Y-169099D01*
X97767Y-168929D01*
X97796Y-168773D01*
X97833Y-168618D01*
X97885Y-168485D01*
X97929Y-168359D01*
X97989Y-168241D01*
X98040Y-168130D01*
X98092Y-168041D01*
X98151Y-167959D01*
X98196Y-167885D01*
X98240Y-167826D01*
X98285Y-167782D01*
X98314Y-167752D01*
X98329Y-167730D01*
X98336Y-167723D01*
X98447Y-167619D01*
X98573Y-167530D01*
X98699Y-167456D01*
X98832Y-167390D01*
X98958Y-167330D01*
X99091Y-167286D01*
X99217Y-167249D01*
X99343Y-167219D01*
X99461Y-167197D01*
X99565Y-167175D01*
X99661Y-167160D01*
X99750Y-167153D01*
X99816Y-167145D01*
X99913D01*
X100090Y-167153D01*
D02*
G37*
G36*
X112507Y-167604D02*
Y-168130D01*
X111449Y-167826D01*
Y-171304D01*
X112478D01*
Y-171800D01*
X109851D01*
Y-171304D01*
X110879D01*
Y-167131D01*
X112507Y-167604D01*
D02*
G37*
G36*
X107808Y-167153D02*
X107934Y-167160D01*
X108060Y-167182D01*
X108178Y-167212D01*
X108289Y-167242D01*
X108393Y-167279D01*
X108489Y-167316D01*
X108578Y-167353D01*
X108659Y-167397D01*
X108733Y-167434D01*
X108793Y-167471D01*
X108844Y-167501D01*
X108889Y-167530D01*
X108918Y-167552D01*
X108933Y-167560D01*
X108941Y-167567D01*
Y-168152D01*
X108837Y-168063D01*
X108733Y-167982D01*
X108630Y-167915D01*
X108526Y-167848D01*
X108423Y-167804D01*
X108326Y-167760D01*
X108238Y-167723D01*
X108149Y-167700D01*
X108067Y-167678D01*
X107993Y-167663D01*
X107934Y-167649D01*
X107875Y-167641D01*
X107831Y-167634D01*
X107771D01*
X107623Y-167641D01*
X107498Y-167663D01*
X107387Y-167700D01*
X107298Y-167737D01*
X107231Y-167774D01*
X107179Y-167811D01*
X107150Y-167834D01*
X107142Y-167841D01*
X107068Y-167922D01*
X107017Y-168019D01*
X106972Y-168122D01*
X106950Y-168218D01*
X106935Y-168307D01*
X106920Y-168374D01*
Y-168403D01*
Y-168426D01*
Y-168433D01*
Y-168440D01*
X106928Y-168566D01*
X106950Y-168685D01*
X106980Y-168803D01*
X107009Y-168899D01*
X107046Y-168988D01*
X107076Y-169047D01*
X107098Y-169092D01*
X107105Y-169099D01*
Y-169106D01*
X107142Y-169166D01*
X107187Y-169232D01*
X107298Y-169373D01*
X107416Y-169521D01*
X107542Y-169661D01*
X107653Y-169780D01*
X107705Y-169832D01*
X107749Y-169883D01*
X107786Y-169920D01*
X107816Y-169950D01*
X107831Y-169965D01*
X107838Y-169972D01*
X109170Y-171304D01*
Y-171800D01*
X106388D01*
Y-171289D01*
X108482D01*
Y-171275D01*
X107438Y-170261D01*
X107320Y-170142D01*
X107216Y-170031D01*
X107120Y-169928D01*
X107031Y-169832D01*
X106957Y-169735D01*
X106883Y-169654D01*
X106824Y-169573D01*
X106765Y-169499D01*
X106721Y-169439D01*
X106676Y-169380D01*
X106647Y-169328D01*
X106617Y-169291D01*
X106595Y-169262D01*
X106580Y-169232D01*
X106573Y-169225D01*
Y-169217D01*
X106499Y-169062D01*
X106439Y-168914D01*
X106402Y-168773D01*
X106373Y-168640D01*
X106358Y-168537D01*
X106343Y-168455D01*
Y-168426D01*
Y-168403D01*
Y-168389D01*
Y-168381D01*
X106351Y-168278D01*
X106358Y-168181D01*
X106402Y-168004D01*
X106454Y-167848D01*
X106521Y-167723D01*
X106587Y-167619D01*
X106647Y-167545D01*
X106669Y-167523D01*
X106691Y-167501D01*
X106698Y-167486D01*
X106706D01*
X106772Y-167427D01*
X106846Y-167375D01*
X107009Y-167286D01*
X107172Y-167227D01*
X107320Y-167190D01*
X107461Y-167160D01*
X107520Y-167153D01*
X107572D01*
X107616Y-167145D01*
X107675D01*
X107808Y-167153D01*
D02*
G37*
%LPC*%
G36*
X104168Y-167634D02*
X104131D01*
X104049Y-167641D01*
X103975Y-167656D01*
X103901Y-167678D01*
X103835Y-167715D01*
X103775Y-167760D01*
X103716Y-167811D01*
X103613Y-167930D01*
X103524Y-168078D01*
X103457Y-168241D01*
X103398Y-168411D01*
X103346Y-168588D01*
X103309Y-168773D01*
X103280Y-168944D01*
X103265Y-169106D01*
X103250Y-169247D01*
X103243Y-169373D01*
X103235Y-169425D01*
Y-169469D01*
Y-169506D01*
Y-169528D01*
Y-169543D01*
Y-169550D01*
Y-169721D01*
X103243Y-169876D01*
X103257Y-170024D01*
X103272Y-170157D01*
X103294Y-170290D01*
X103317Y-170409D01*
X103346Y-170520D01*
X103376Y-170616D01*
X103413Y-170712D01*
X103442Y-170801D01*
X103487Y-170875D01*
X103524Y-170949D01*
X103605Y-171067D01*
X103687Y-171171D01*
X103775Y-171245D01*
X103857Y-171304D01*
X103931Y-171341D01*
X104005Y-171371D01*
X104064Y-171386D01*
X104108Y-171393D01*
X104138Y-171400D01*
X104145D01*
X104227Y-171393D01*
X104308Y-171378D01*
X104382Y-171356D01*
X104449Y-171319D01*
X104515Y-171282D01*
X104575Y-171230D01*
X104678Y-171119D01*
X104767Y-170979D01*
X104841Y-170823D01*
X104908Y-170660D01*
X104952Y-170490D01*
X104996Y-170320D01*
X105019Y-170157D01*
X105041Y-170002D01*
X105056Y-169861D01*
X105063Y-169750D01*
Y-169698D01*
X105070Y-169661D01*
Y-169624D01*
Y-169602D01*
Y-169587D01*
Y-169580D01*
Y-169402D01*
X105063Y-169240D01*
X105048Y-169084D01*
X105033Y-168936D01*
X105011Y-168803D01*
X104982Y-168677D01*
X104952Y-168559D01*
X104922Y-168455D01*
X104885Y-168359D01*
X104856Y-168263D01*
X104811Y-168181D01*
X104774Y-168107D01*
X104686Y-167982D01*
X104597Y-167878D01*
X104515Y-167797D01*
X104427Y-167737D01*
X104345Y-167693D01*
X104279Y-167663D01*
X104219Y-167649D01*
X104168Y-167634D01*
D02*
G37*
%LPD*%
D80*
X102760Y-164420D02*
X107260D01*
X102760D02*
Y-160910D01*
X107260Y-164420D02*
Y-160860D01*
X102750Y-157890D02*
Y-154300D01*
X107290D01*
Y-157870D02*
Y-154300D01*
M02*
