%FSLAX25Y25*%
%MOIN*%
G70*
G01*
G75*
G04 Layer_Physical_Order=3*
G04 Layer_Color=16440176*
%ADD10C,0.00900*%
%ADD11C,0.00800*%
%ADD12C,0.01500*%
%ADD13C,0.03000*%
%ADD14C,0.05000*%
%ADD15C,0.01200*%
%ADD16C,0.02500*%
%ADD17C,0.02000*%
%ADD18C,0.04000*%
%ADD19R,0.02362X0.02756*%
%ADD20R,0.02756X0.02362*%
%ADD21O,0.05906X0.00984*%
%ADD22O,0.00984X0.05906*%
%ADD23R,0.06693X0.05512*%
%ADD24R,0.04331X0.05118*%
%ADD25O,0.06299X0.02362*%
%ADD26R,0.18898X0.17716*%
%ADD27R,0.06299X0.10630*%
%ADD28R,0.04331X0.03150*%
%ADD29R,0.02800X0.03500*%
%ADD30O,0.01969X0.06299*%
%ADD31R,0.01969X0.06299*%
%ADD32R,0.04331X0.05906*%
G04:AMPARAMS|DCode=33|XSize=157.48mil|YSize=196.85mil|CornerRadius=39.37mil|HoleSize=0mil|Usage=FLASHONLY|Rotation=180.000|XOffset=0mil|YOffset=0mil|HoleType=Round|Shape=RoundedRectangle|*
%AMROUNDEDRECTD33*
21,1,0.15748,0.11811,0,0,180.0*
21,1,0.07874,0.19685,0,0,180.0*
1,1,0.07874,-0.03937,0.05906*
1,1,0.07874,0.03937,0.05906*
1,1,0.07874,0.03937,-0.05906*
1,1,0.07874,-0.03937,-0.05906*
%
%ADD33ROUNDEDRECTD33*%
%ADD34R,0.04724X0.03150*%
%ADD35R,0.03150X0.02362*%
%ADD36R,0.02362X0.03150*%
%ADD37R,0.03937X0.10236*%
%ADD38R,0.03500X0.02800*%
%ADD39R,0.03543X0.05512*%
%ADD40R,0.08661X0.05512*%
%ADD41R,0.05118X0.03150*%
%ADD42R,0.11024X0.08268*%
%ADD43R,0.03543X0.05906*%
%ADD44R,0.10236X0.03937*%
%ADD45R,0.05512X0.06693*%
%ADD46R,0.05118X0.04331*%
%ADD47R,0.03150X0.04724*%
%ADD48R,0.12598X0.07874*%
%ADD49C,0.03937*%
%ADD50C,0.06500*%
%ADD51R,0.36600X0.13000*%
%ADD52R,0.04900X0.04900*%
%ADD53R,0.03000X0.05000*%
%ADD54R,0.12000X0.05500*%
%ADD55R,0.05500X0.10500*%
%ADD56R,0.05000X0.03000*%
%ADD57R,0.06200X0.41500*%
%ADD58R,0.07200X0.03100*%
%ADD59R,0.36000X0.13000*%
%ADD60R,0.06300X0.12400*%
%ADD61R,0.07700X0.12400*%
%ADD62C,0.25590*%
%ADD63C,0.10630*%
%ADD64O,0.07480X0.06299*%
%ADD65C,0.11811*%
%ADD66C,0.07874*%
%ADD67C,0.02362*%
%ADD68R,0.06400X0.04400*%
%ADD69R,0.06400X0.12400*%
%ADD70R,0.07200X0.02400*%
%ADD71R,0.02400X0.07200*%
%ADD72R,0.36700X0.13000*%
%ADD73C,0.07000*%
%ADD74C,0.06400*%
%ADD75C,0.06000*%
%ADD76R,0.68300X0.12400*%
G36*
X66042Y-90187D02*
X65980Y-90500D01*
X66134Y-91273D01*
X66572Y-91928D01*
X67227Y-92366D01*
X68000Y-92520D01*
X68773Y-92366D01*
X69428Y-91928D01*
X69521Y-91789D01*
X70000Y-91934D01*
Y-92980D01*
X69227Y-93134D01*
X68572Y-93572D01*
X68134Y-94227D01*
X67980Y-95000D01*
X68134Y-95773D01*
X68572Y-96428D01*
X69227Y-96866D01*
X70000Y-97020D01*
Y-114120D01*
X69427Y-114234D01*
X68772Y-114672D01*
X68334Y-115327D01*
X68180Y-116100D01*
X68334Y-116873D01*
X68772Y-117528D01*
X69427Y-117966D01*
X70000Y-118080D01*
Y-132000D01*
X24420D01*
X24366Y-131727D01*
X23928Y-131072D01*
X23273Y-130634D01*
X22500Y-130480D01*
X21727Y-130634D01*
X21072Y-131072D01*
X20634Y-131727D01*
X20580Y-132000D01*
X10215D01*
X9928Y-131572D01*
X9273Y-131134D01*
X8500Y-130980D01*
X7727Y-131134D01*
X7072Y-131572D01*
X6786Y-132000D01*
X5300D01*
Y-129594D01*
X5727Y-129366D01*
X6500Y-129520D01*
X7273Y-129366D01*
X7928Y-128928D01*
X8366Y-128273D01*
X8520Y-127500D01*
X8366Y-126727D01*
X7928Y-126072D01*
X7821Y-126000D01*
Y-125500D01*
X7928Y-125428D01*
X8366Y-124773D01*
X8520Y-124000D01*
X8366Y-123227D01*
X7928Y-122572D01*
X7273Y-122134D01*
X6500Y-121980D01*
X5727Y-122134D01*
X5300Y-121906D01*
Y-109777D01*
X5741Y-109541D01*
X6227Y-109866D01*
X7000Y-110020D01*
X7773Y-109866D01*
X8428Y-109428D01*
X8866Y-108773D01*
X9020Y-108000D01*
X8866Y-107227D01*
X8428Y-106572D01*
X7773Y-106134D01*
X7000Y-105980D01*
X6227Y-106134D01*
X5741Y-106459D01*
X5300Y-106223D01*
Y-98079D01*
X5316Y-98000D01*
Y-93100D01*
X5300Y-93021D01*
Y-92979D01*
X5316Y-92900D01*
Y-91100D01*
X5300Y-91021D01*
Y-90979D01*
X5316Y-90900D01*
Y-89800D01*
X11816D01*
X11980Y-90000D01*
X12134Y-90773D01*
X12572Y-91428D01*
X13227Y-91866D01*
X14000Y-92020D01*
X14773Y-91866D01*
X15428Y-91428D01*
X15866Y-90773D01*
X16020Y-90000D01*
X16184Y-89800D01*
X16816D01*
X16980Y-90000D01*
X17134Y-90773D01*
X17572Y-91428D01*
X18227Y-91866D01*
X19000Y-92020D01*
X19773Y-91866D01*
X20428Y-91428D01*
X20866Y-90773D01*
X21020Y-90000D01*
X21184Y-89800D01*
X21816D01*
X21980Y-90000D01*
X22134Y-90773D01*
X22572Y-91428D01*
X23227Y-91866D01*
X24000Y-92020D01*
X24773Y-91866D01*
X25428Y-91428D01*
X25866Y-90773D01*
X26020Y-90000D01*
X26184Y-89800D01*
X26816D01*
X26980Y-90000D01*
X27134Y-90773D01*
X27572Y-91428D01*
X28227Y-91866D01*
X29000Y-92020D01*
X29773Y-91866D01*
X30428Y-91428D01*
X30866Y-90773D01*
X31020Y-90000D01*
X31184Y-89800D01*
X32406D01*
X32634Y-90227D01*
X32480Y-91000D01*
X32634Y-91773D01*
X33072Y-92428D01*
X33727Y-92866D01*
X34500Y-93020D01*
X35273Y-92866D01*
X35928Y-92428D01*
X36366Y-91773D01*
X36520Y-91000D01*
X36366Y-90227D01*
X36594Y-89800D01*
X47906D01*
X48134Y-90227D01*
X47980Y-91000D01*
X48134Y-91773D01*
X48572Y-92428D01*
X49053Y-92750D01*
Y-93250D01*
X48572Y-93572D01*
X48134Y-94227D01*
X47980Y-95000D01*
X48134Y-95773D01*
X48572Y-96428D01*
X49227Y-96866D01*
X50000Y-97020D01*
X50773Y-96866D01*
X51428Y-96428D01*
X51866Y-95773D01*
X52020Y-95000D01*
X51866Y-94227D01*
X51428Y-93572D01*
X50773Y-93134D01*
Y-92866D01*
X51428Y-92428D01*
X51866Y-91773D01*
X52020Y-91000D01*
X51866Y-90227D01*
X52094Y-89800D01*
X52906D01*
X53134Y-90227D01*
X52980Y-91000D01*
X53134Y-91773D01*
X53572Y-92428D01*
X54053Y-92750D01*
Y-93250D01*
X53572Y-93572D01*
X53134Y-94227D01*
X52980Y-95000D01*
X53134Y-95773D01*
X53572Y-96428D01*
X54227Y-96866D01*
X55000Y-97020D01*
X55773Y-96866D01*
X56428Y-96428D01*
X56866Y-95773D01*
X57020Y-95000D01*
X56866Y-94227D01*
X56428Y-93572D01*
X55773Y-93134D01*
Y-92866D01*
X56428Y-92428D01*
X56866Y-91773D01*
X57020Y-91000D01*
X56866Y-90227D01*
X57094Y-89800D01*
X65725D01*
X66042Y-90187D01*
D02*
G37*
G36*
X88000Y-79500D02*
X11000D01*
X5300Y-85200D01*
X4500Y-86000D01*
Y-88000D01*
Y-88900D01*
X4480Y-89000D01*
X4500Y-89100D01*
Y-90900D01*
X4480Y-91000D01*
X4500Y-91100D01*
Y-92900D01*
X4480Y-93000D01*
X4500Y-93100D01*
Y-98000D01*
X1071D01*
Y-84929D01*
X9500Y-76500D01*
X88000D01*
Y-79500D01*
D02*
G37*
G36*
X195780Y-72985D02*
X195301Y-73130D01*
X194928Y-72572D01*
X194273Y-72134D01*
X193500Y-71980D01*
X192727Y-72134D01*
X192072Y-72572D01*
X191634Y-73227D01*
X191480Y-74000D01*
X191634Y-74773D01*
X192072Y-75428D01*
X192727Y-75866D01*
X193500Y-76020D01*
X194273Y-75866D01*
X194928Y-75428D01*
X195301Y-74870D01*
X195780Y-75015D01*
Y-91485D01*
X195301Y-91630D01*
X194928Y-91072D01*
X194273Y-90634D01*
X193500Y-90480D01*
X192727Y-90634D01*
X192072Y-91072D01*
X191634Y-91727D01*
X191480Y-92500D01*
X191634Y-93273D01*
X192072Y-93928D01*
X192727Y-94366D01*
X193500Y-94520D01*
X194273Y-94366D01*
X194928Y-93928D01*
X195301Y-93370D01*
X195780Y-93515D01*
Y-96485D01*
X195301Y-96630D01*
X194928Y-96072D01*
X194273Y-95634D01*
X193500Y-95480D01*
X192727Y-95634D01*
X192072Y-96072D01*
X191634Y-96727D01*
X191480Y-97500D01*
X191634Y-98273D01*
X192072Y-98928D01*
X192727Y-99366D01*
X193500Y-99520D01*
X194273Y-99366D01*
X194928Y-98928D01*
X195301Y-98370D01*
X195780Y-98515D01*
Y-101485D01*
X195301Y-101630D01*
X194928Y-101072D01*
X194273Y-100634D01*
X193500Y-100480D01*
X192727Y-100634D01*
X192072Y-101072D01*
X191634Y-101727D01*
X191480Y-102500D01*
X191634Y-103273D01*
X192072Y-103928D01*
X192727Y-104366D01*
X193500Y-104520D01*
X194273Y-104366D01*
X194928Y-103928D01*
X195301Y-103370D01*
X195780Y-103515D01*
Y-106485D01*
X195301Y-106630D01*
X194928Y-106072D01*
X194273Y-105634D01*
X193500Y-105480D01*
X192727Y-105634D01*
X192072Y-106072D01*
X191634Y-106727D01*
X191480Y-107500D01*
X191634Y-108273D01*
X192072Y-108928D01*
X192727Y-109366D01*
X193500Y-109520D01*
X194273Y-109366D01*
X194928Y-108928D01*
X195301Y-108370D01*
X195780Y-108515D01*
Y-111485D01*
X195301Y-111630D01*
X194928Y-111072D01*
X194273Y-110634D01*
X193500Y-110480D01*
X192727Y-110634D01*
X192072Y-111072D01*
X191634Y-111727D01*
X191480Y-112500D01*
X191634Y-113273D01*
X192072Y-113928D01*
X192727Y-114366D01*
X193500Y-114520D01*
X194273Y-114366D01*
X194928Y-113928D01*
X195301Y-113370D01*
X195780Y-113515D01*
Y-116485D01*
X195301Y-116630D01*
X194928Y-116072D01*
X194273Y-115634D01*
X193500Y-115480D01*
X192727Y-115634D01*
X192072Y-116072D01*
X191634Y-116727D01*
X191480Y-117500D01*
X191634Y-118273D01*
X192072Y-118928D01*
X192727Y-119366D01*
X193500Y-119520D01*
X194273Y-119366D01*
X194928Y-118928D01*
X195301Y-118370D01*
X195780Y-118515D01*
Y-177257D01*
X195289Y-177355D01*
X195001Y-176659D01*
X193883Y-174835D01*
X192493Y-173207D01*
X190866Y-171818D01*
X189042Y-170700D01*
X187065Y-169880D01*
X184984Y-169381D01*
X182850Y-169213D01*
X180717Y-169381D01*
X178636Y-169880D01*
X176659Y-170700D01*
X174835Y-171818D01*
X173207Y-173207D01*
X171818Y-174835D01*
X170700Y-176659D01*
X169880Y-178636D01*
X169381Y-180717D01*
X169213Y-182850D01*
X169381Y-184984D01*
X169880Y-187065D01*
X170700Y-189042D01*
X171818Y-190866D01*
X173207Y-192493D01*
X174835Y-193883D01*
X176659Y-195001D01*
X177355Y-195289D01*
X177257Y-195780D01*
X118110D01*
Y-189539D01*
X118481Y-189203D01*
X118900Y-189245D01*
X120099Y-189127D01*
X121251Y-188777D01*
X122314Y-188209D01*
X123245Y-187445D01*
X124009Y-186514D01*
X124577Y-185451D01*
X124926Y-184299D01*
X125045Y-183100D01*
X124926Y-181901D01*
X124577Y-180749D01*
X124009Y-179686D01*
X123245Y-178755D01*
X122314Y-177991D01*
X121251Y-177423D01*
X120099Y-177074D01*
X118900Y-176955D01*
X118481Y-176997D01*
X118110Y-176661D01*
Y-169542D01*
X118309Y-169367D01*
X119491D01*
X120522Y-169231D01*
X121482Y-168833D01*
X122307Y-168200D01*
X122941Y-167375D01*
X123338Y-166414D01*
X123474Y-165384D01*
X123338Y-164352D01*
X122941Y-163392D01*
X122307Y-162567D01*
X121482Y-161934D01*
X120522Y-161536D01*
X119491Y-161400D01*
X118309D01*
X118110Y-161225D01*
Y-157731D01*
X118309Y-157556D01*
X119491D01*
X120522Y-157420D01*
X121482Y-157022D01*
X122307Y-156389D01*
X122941Y-155564D01*
X123338Y-154604D01*
X123474Y-153572D01*
X123338Y-152541D01*
X122941Y-151581D01*
X122307Y-150756D01*
X121482Y-150122D01*
X120522Y-149724D01*
X119491Y-149589D01*
X118309D01*
X118110Y-149414D01*
Y-141732D01*
Y-131737D01*
X118572Y-131428D01*
X119227Y-131866D01*
X120000Y-132020D01*
X120773Y-131866D01*
X121428Y-131428D01*
X121866Y-130773D01*
X122020Y-130000D01*
X121866Y-129227D01*
X121428Y-128572D01*
X120773Y-128134D01*
X120000Y-127980D01*
X119227Y-128134D01*
X118572Y-128572D01*
X118110Y-128263D01*
Y-106299D01*
X125984D01*
X129921Y-102362D01*
X133858Y-98425D01*
Y-94675D01*
X134228Y-94428D01*
X134666Y-93773D01*
X134820Y-93000D01*
X134666Y-92227D01*
X134228Y-91572D01*
X133858Y-91325D01*
Y-82677D01*
Y-82136D01*
X134000Y-82020D01*
X134773Y-81866D01*
X135428Y-81428D01*
X135866Y-80773D01*
X136020Y-80000D01*
X135866Y-79227D01*
X135428Y-78572D01*
X134773Y-78134D01*
X134000Y-77980D01*
X133858Y-77864D01*
Y-76309D01*
X134428Y-75928D01*
X134500Y-75821D01*
X135000D01*
X135072Y-75928D01*
X135727Y-76366D01*
X136500Y-76520D01*
X137273Y-76366D01*
X137928Y-75928D01*
X138366Y-75273D01*
X138520Y-74500D01*
X138366Y-73727D01*
X137928Y-73072D01*
X137273Y-72634D01*
X136500Y-72480D01*
X136389Y-72272D01*
X149606Y-59055D01*
X151552Y-57109D01*
X152031Y-57254D01*
X152134Y-57773D01*
X152572Y-58428D01*
X153227Y-58866D01*
X154000Y-59020D01*
X154773Y-58866D01*
X155428Y-58428D01*
X155866Y-57773D01*
X156020Y-57000D01*
X155866Y-56227D01*
X155428Y-55572D01*
X154773Y-55134D01*
X154000Y-54980D01*
X153889Y-54772D01*
X169291Y-39370D01*
X181711D01*
X182028Y-39757D01*
X181980Y-40000D01*
X182134Y-40773D01*
X182572Y-41428D01*
X183227Y-41866D01*
X184000Y-42020D01*
X184773Y-41866D01*
X185428Y-41428D01*
X185866Y-40773D01*
X186020Y-40000D01*
X185971Y-39757D01*
X186289Y-39370D01*
X187711D01*
X188029Y-39757D01*
X187980Y-40000D01*
X188134Y-40773D01*
X188572Y-41428D01*
X189227Y-41866D01*
X190000Y-42020D01*
X190773Y-41866D01*
X191428Y-41428D01*
X191866Y-40773D01*
X192020Y-40000D01*
X191972Y-39757D01*
X192289Y-39370D01*
X195780D01*
Y-72985D01*
D02*
G37*
%LPC*%
G36*
X130000Y-132980D02*
X129227Y-133134D01*
X128572Y-133572D01*
X128134Y-134227D01*
X127980Y-135000D01*
X128134Y-135773D01*
X128572Y-136428D01*
X129227Y-136866D01*
X130000Y-137020D01*
X130773Y-136866D01*
X131428Y-136428D01*
X131866Y-135773D01*
X132020Y-135000D01*
X131866Y-134227D01*
X131428Y-133572D01*
X130773Y-133134D01*
X130000Y-132980D01*
D02*
G37*
G36*
X151800Y-131480D02*
X151027Y-131634D01*
X150372Y-132072D01*
X149934Y-132727D01*
X149780Y-133500D01*
X149934Y-134273D01*
X150372Y-134928D01*
X151027Y-135366D01*
X151800Y-135520D01*
X152573Y-135366D01*
X153228Y-134928D01*
X153666Y-134273D01*
X153820Y-133500D01*
X153666Y-132727D01*
X153228Y-132072D01*
X152573Y-131634D01*
X151800Y-131480D01*
D02*
G37*
G36*
X135000Y-129980D02*
X134227Y-130134D01*
X133572Y-130572D01*
X133134Y-131227D01*
X132980Y-132000D01*
X133134Y-132773D01*
X133572Y-133428D01*
X134227Y-133866D01*
X135000Y-134020D01*
X135696Y-133882D01*
X136111Y-134159D01*
X136134Y-134273D01*
X136572Y-134928D01*
X137227Y-135366D01*
X138000Y-135520D01*
X138773Y-135366D01*
X139428Y-134928D01*
X139866Y-134273D01*
X140020Y-133500D01*
X139866Y-132727D01*
X139428Y-132072D01*
X138773Y-131634D01*
X138000Y-131480D01*
X137304Y-131618D01*
X136889Y-131341D01*
X136866Y-131227D01*
X136428Y-130572D01*
X135773Y-130134D01*
X135000Y-129980D01*
D02*
G37*
G36*
X190000Y-137980D02*
X189227Y-138134D01*
X188572Y-138572D01*
X188134Y-139227D01*
X187980Y-140000D01*
X188134Y-140773D01*
X188572Y-141428D01*
X189227Y-141866D01*
X190000Y-142020D01*
X190773Y-141866D01*
X191428Y-141428D01*
X191866Y-140773D01*
X192020Y-140000D01*
X191866Y-139227D01*
X191428Y-138572D01*
X190773Y-138134D01*
X190000Y-137980D01*
D02*
G37*
G36*
X143000Y-143980D02*
X142227Y-144134D01*
X141572Y-144572D01*
X141134Y-145227D01*
X140980Y-146000D01*
X141134Y-146773D01*
X141572Y-147428D01*
X142227Y-147866D01*
X143000Y-148020D01*
X143773Y-147866D01*
X144428Y-147428D01*
X144866Y-146773D01*
X145020Y-146000D01*
X144866Y-145227D01*
X144428Y-144572D01*
X143773Y-144134D01*
X143000Y-143980D01*
D02*
G37*
G36*
X150000D02*
X149227Y-144134D01*
X148572Y-144572D01*
X148134Y-145227D01*
X147980Y-146000D01*
X148134Y-146773D01*
X148572Y-147428D01*
X149227Y-147866D01*
X150000Y-148020D01*
X150773Y-147866D01*
X151428Y-147428D01*
X151866Y-146773D01*
X152020Y-146000D01*
X151866Y-145227D01*
X151428Y-144572D01*
X150773Y-144134D01*
X150000Y-143980D01*
D02*
G37*
G36*
X130000Y-139980D02*
X129227Y-140134D01*
X128572Y-140572D01*
X128134Y-141227D01*
X127980Y-142000D01*
X128134Y-142773D01*
X128572Y-143428D01*
X129227Y-143866D01*
X130000Y-144020D01*
X130773Y-143866D01*
X131428Y-143428D01*
X131866Y-142773D01*
X132020Y-142000D01*
X131866Y-141227D01*
X131428Y-140572D01*
X130773Y-140134D01*
X130000Y-139980D01*
D02*
G37*
G36*
X190000Y-130480D02*
X189227Y-130634D01*
X188572Y-131072D01*
X188134Y-131727D01*
X187980Y-132500D01*
X188134Y-133273D01*
X188572Y-133928D01*
X189227Y-134366D01*
X190000Y-134520D01*
X190773Y-134366D01*
X191428Y-133928D01*
X191866Y-133273D01*
X192020Y-132500D01*
X191866Y-131727D01*
X191428Y-131072D01*
X190773Y-130634D01*
X190000Y-130480D01*
D02*
G37*
G36*
X152000Y-116980D02*
X151227Y-117134D01*
X150572Y-117572D01*
X150134Y-118227D01*
X149980Y-119000D01*
X150134Y-119773D01*
X150572Y-120428D01*
X151227Y-120866D01*
X152000Y-121020D01*
X152773Y-120866D01*
X153428Y-120428D01*
X153866Y-119773D01*
X154020Y-119000D01*
X153866Y-118227D01*
X153428Y-117572D01*
X152773Y-117134D01*
X152000Y-116980D01*
D02*
G37*
G36*
X176500Y-121480D02*
X175727Y-121634D01*
X175072Y-122072D01*
X174750Y-122553D01*
X174250D01*
X173928Y-122072D01*
X173273Y-121634D01*
X172500Y-121480D01*
X171727Y-121634D01*
X171072Y-122072D01*
X170750Y-122553D01*
X170250D01*
X169928Y-122072D01*
X169273Y-121634D01*
X168500Y-121480D01*
X167727Y-121634D01*
X167072Y-122072D01*
X166634Y-122727D01*
X166480Y-123500D01*
X166634Y-124273D01*
X167072Y-124928D01*
X167727Y-125366D01*
X168500Y-125520D01*
X169273Y-125366D01*
X169928Y-124928D01*
X170250Y-124447D01*
X170750D01*
X171072Y-124928D01*
X171727Y-125366D01*
X172500Y-125520D01*
X173273Y-125366D01*
X173928Y-124928D01*
X174250Y-124447D01*
X174750D01*
X175072Y-124928D01*
X175727Y-125366D01*
X176500Y-125520D01*
X177273Y-125366D01*
X177928Y-124928D01*
X178366Y-124273D01*
X178520Y-123500D01*
X178366Y-122727D01*
X177928Y-122072D01*
X177273Y-121634D01*
X176500Y-121480D01*
D02*
G37*
G36*
X188500Y-115480D02*
X187727Y-115634D01*
X187072Y-116072D01*
X186634Y-116727D01*
X186480Y-117500D01*
X186634Y-118273D01*
X187072Y-118928D01*
X187727Y-119366D01*
X188500Y-119520D01*
X189273Y-119366D01*
X189928Y-118928D01*
X190366Y-118273D01*
X190520Y-117500D01*
X190366Y-116727D01*
X189928Y-116072D01*
X189273Y-115634D01*
X188500Y-115480D01*
D02*
G37*
G36*
X183500D02*
X182727Y-115634D01*
X182072Y-116072D01*
X181634Y-116727D01*
X181480Y-117500D01*
X181634Y-118273D01*
X182072Y-118928D01*
X182727Y-119366D01*
X183500Y-119520D01*
X184273Y-119366D01*
X184928Y-118928D01*
X185366Y-118273D01*
X185520Y-117500D01*
X185366Y-116727D01*
X184928Y-116072D01*
X184273Y-115634D01*
X183500Y-115480D01*
D02*
G37*
G36*
X138000Y-120980D02*
X137227Y-121134D01*
X136572Y-121572D01*
X136134Y-122227D01*
X135980Y-123000D01*
X136134Y-123773D01*
X136572Y-124428D01*
X137227Y-124866D01*
X138000Y-125020D01*
X138773Y-124866D01*
X139428Y-124428D01*
X139866Y-123773D01*
X140020Y-123000D01*
X139866Y-122227D01*
X139428Y-121572D01*
X138773Y-121134D01*
X138000Y-120980D01*
D02*
G37*
G36*
X182000Y-123480D02*
X181227Y-123634D01*
X180572Y-124072D01*
X180134Y-124727D01*
X179980Y-125500D01*
X180134Y-126273D01*
X180572Y-126928D01*
X181227Y-127366D01*
X182000Y-127520D01*
X182773Y-127366D01*
X183428Y-126928D01*
X183866Y-126273D01*
X184020Y-125500D01*
X183866Y-124727D01*
X183428Y-124072D01*
X182773Y-123634D01*
X182000Y-123480D01*
D02*
G37*
G36*
X26200Y-126680D02*
X25427Y-126834D01*
X24772Y-127272D01*
X24334Y-127927D01*
X24180Y-128700D01*
X24334Y-129473D01*
X24772Y-130128D01*
X25427Y-130566D01*
X26200Y-130720D01*
X26973Y-130566D01*
X27628Y-130128D01*
X28066Y-129473D01*
X28220Y-128700D01*
X28066Y-127927D01*
X27628Y-127272D01*
X26973Y-126834D01*
X26200Y-126680D01*
D02*
G37*
G36*
X30000Y-122980D02*
X29227Y-123134D01*
X28572Y-123572D01*
X28134Y-124227D01*
X27980Y-125000D01*
X28134Y-125773D01*
X28572Y-126428D01*
X29227Y-126866D01*
X30000Y-127020D01*
X30773Y-126866D01*
X31428Y-126428D01*
X31866Y-125773D01*
X32020Y-125000D01*
X31866Y-124227D01*
X31428Y-123572D01*
X30773Y-123134D01*
X30000Y-122980D01*
D02*
G37*
G36*
X22500D02*
X21727Y-123134D01*
X21072Y-123572D01*
X20634Y-124227D01*
X20480Y-125000D01*
X20634Y-125773D01*
X21072Y-126428D01*
X21727Y-126866D01*
X22500Y-127020D01*
X23273Y-126866D01*
X23928Y-126428D01*
X24366Y-125773D01*
X24520Y-125000D01*
X24366Y-124227D01*
X23928Y-123572D01*
X23273Y-123134D01*
X22500Y-122980D01*
D02*
G37*
G36*
X148600Y-166980D02*
X147827Y-167134D01*
X147172Y-167572D01*
X146734Y-168227D01*
X146580Y-169000D01*
X146734Y-169773D01*
X147172Y-170428D01*
X147827Y-170866D01*
X148600Y-171020D01*
X149373Y-170866D01*
X150028Y-170428D01*
X150466Y-169773D01*
X150620Y-169000D01*
X150466Y-168227D01*
X150028Y-167572D01*
X149373Y-167134D01*
X148600Y-166980D01*
D02*
G37*
G36*
X158200Y-169480D02*
X157427Y-169634D01*
X156772Y-170072D01*
X156334Y-170727D01*
X156180Y-171500D01*
X156334Y-172273D01*
X156772Y-172928D01*
X157427Y-173366D01*
X158200Y-173520D01*
X158973Y-173366D01*
X159628Y-172928D01*
X160066Y-172273D01*
X160220Y-171500D01*
X160066Y-170727D01*
X159628Y-170072D01*
X158973Y-169634D01*
X158200Y-169480D01*
D02*
G37*
G36*
X136600Y-166680D02*
X135827Y-166834D01*
X135172Y-167272D01*
X134734Y-167927D01*
X134580Y-168700D01*
X134734Y-169473D01*
X135172Y-170128D01*
X135827Y-170566D01*
X136600Y-170720D01*
X137373Y-170566D01*
X138028Y-170128D01*
X138466Y-169473D01*
X138620Y-168700D01*
X138466Y-167927D01*
X138028Y-167272D01*
X137373Y-166834D01*
X136600Y-166680D01*
D02*
G37*
G36*
X154000Y-166880D02*
X153227Y-167034D01*
X152572Y-167472D01*
X152134Y-168127D01*
X151980Y-168900D01*
X152134Y-169673D01*
X152572Y-170328D01*
X153227Y-170766D01*
X154000Y-170920D01*
X154773Y-170766D01*
X155428Y-170328D01*
X155866Y-169673D01*
X156020Y-168900D01*
X155866Y-168127D01*
X155428Y-167472D01*
X154773Y-167034D01*
X154000Y-166880D01*
D02*
G37*
G36*
X130000Y-175480D02*
X129227Y-175634D01*
X128572Y-176072D01*
X128134Y-176727D01*
X127980Y-177500D01*
X128134Y-178273D01*
X128572Y-178928D01*
X129227Y-179366D01*
X130000Y-179520D01*
X130773Y-179366D01*
X131428Y-178928D01*
X131866Y-178273D01*
X132020Y-177500D01*
X131866Y-176727D01*
X131428Y-176072D01*
X130773Y-175634D01*
X130000Y-175480D01*
D02*
G37*
G36*
X155000Y-185480D02*
X154227Y-185634D01*
X153572Y-186072D01*
X153134Y-186727D01*
X152980Y-187500D01*
X153134Y-188273D01*
X153572Y-188928D01*
X154227Y-189366D01*
X155000Y-189520D01*
X155773Y-189366D01*
X156428Y-188928D01*
X156866Y-188273D01*
X157020Y-187500D01*
X156866Y-186727D01*
X156428Y-186072D01*
X155773Y-185634D01*
X155000Y-185480D01*
D02*
G37*
G36*
X150000D02*
X149227Y-185634D01*
X148572Y-186072D01*
X148134Y-186727D01*
X147980Y-187500D01*
X148134Y-188273D01*
X148572Y-188928D01*
X149227Y-189366D01*
X150000Y-189520D01*
X150773Y-189366D01*
X151428Y-188928D01*
X151866Y-188273D01*
X152020Y-187500D01*
X151866Y-186727D01*
X151428Y-186072D01*
X150773Y-185634D01*
X150000Y-185480D01*
D02*
G37*
G36*
X155000Y-177980D02*
X154227Y-178134D01*
X153572Y-178572D01*
X153134Y-179227D01*
X152980Y-180000D01*
X153134Y-180773D01*
X153572Y-181428D01*
X154227Y-181866D01*
X155000Y-182020D01*
X155773Y-181866D01*
X156428Y-181428D01*
X156866Y-180773D01*
X157020Y-180000D01*
X156866Y-179227D01*
X156428Y-178572D01*
X155773Y-178134D01*
X155000Y-177980D01*
D02*
G37*
G36*
X150000D02*
X149227Y-178134D01*
X148572Y-178572D01*
X148134Y-179227D01*
X147980Y-180000D01*
X148134Y-180773D01*
X148572Y-181428D01*
X149227Y-181866D01*
X150000Y-182020D01*
X150773Y-181866D01*
X151428Y-181428D01*
X151866Y-180773D01*
X152020Y-180000D01*
X151866Y-179227D01*
X151428Y-178572D01*
X150773Y-178134D01*
X150000Y-177980D01*
D02*
G37*
G36*
X142500Y-166680D02*
X141727Y-166834D01*
X141072Y-167272D01*
X140634Y-167927D01*
X140480Y-168700D01*
X140634Y-169473D01*
X141072Y-170128D01*
X141727Y-170566D01*
X142500Y-170720D01*
X143273Y-170566D01*
X143928Y-170128D01*
X144366Y-169473D01*
X144520Y-168700D01*
X144366Y-167927D01*
X143928Y-167272D01*
X143273Y-166834D01*
X142500Y-166680D01*
D02*
G37*
G36*
X130000Y-147980D02*
X129227Y-148134D01*
X128572Y-148572D01*
X128134Y-149227D01*
X127980Y-150000D01*
X128134Y-150773D01*
X128572Y-151428D01*
X129227Y-151866D01*
X130000Y-152020D01*
X130773Y-151866D01*
X131428Y-151428D01*
X131866Y-150773D01*
X132020Y-150000D01*
X131866Y-149227D01*
X131428Y-148572D01*
X130773Y-148134D01*
X130000Y-147980D01*
D02*
G37*
G36*
X145300Y-150280D02*
X144527Y-150434D01*
X143872Y-150872D01*
X143434Y-151527D01*
X143280Y-152300D01*
X143434Y-153073D01*
X143872Y-153728D01*
X144527Y-154166D01*
X145300Y-154320D01*
X146073Y-154166D01*
X146728Y-153728D01*
X147166Y-153073D01*
X147320Y-152300D01*
X147166Y-151527D01*
X146728Y-150872D01*
X146073Y-150434D01*
X145300Y-150280D01*
D02*
G37*
G36*
X136000Y-143980D02*
X135227Y-144134D01*
X134572Y-144572D01*
X134134Y-145227D01*
X133980Y-146000D01*
X134134Y-146773D01*
X134572Y-147428D01*
X135227Y-147866D01*
X136000Y-148020D01*
X136773Y-147866D01*
X137428Y-147428D01*
X137866Y-146773D01*
X138020Y-146000D01*
X137866Y-145227D01*
X137428Y-144572D01*
X136773Y-144134D01*
X136000Y-143980D01*
D02*
G37*
G36*
X190000Y-145480D02*
X189227Y-145634D01*
X188572Y-146072D01*
X188134Y-146727D01*
X187980Y-147500D01*
X188134Y-148273D01*
X188572Y-148928D01*
X189227Y-149366D01*
X190000Y-149520D01*
X190773Y-149366D01*
X191428Y-148928D01*
X191866Y-148273D01*
X192020Y-147500D01*
X191866Y-146727D01*
X191428Y-146072D01*
X190773Y-145634D01*
X190000Y-145480D01*
D02*
G37*
G36*
Y-152980D02*
X189227Y-153134D01*
X188572Y-153572D01*
X188134Y-154227D01*
X187980Y-155000D01*
X188134Y-155773D01*
X188572Y-156428D01*
X189227Y-156866D01*
X190000Y-157020D01*
X190773Y-156866D01*
X191428Y-156428D01*
X191866Y-155773D01*
X192020Y-155000D01*
X191866Y-154227D01*
X191428Y-153572D01*
X190773Y-153134D01*
X190000Y-152980D01*
D02*
G37*
G36*
X170000Y-160480D02*
X169227Y-160634D01*
X168572Y-161072D01*
X168134Y-161727D01*
X167980Y-162500D01*
X168134Y-163273D01*
X168572Y-163928D01*
X169227Y-164366D01*
X170000Y-164520D01*
X170773Y-164366D01*
X171428Y-163928D01*
X171866Y-163273D01*
X172020Y-162500D01*
X171866Y-161727D01*
X171428Y-161072D01*
X170773Y-160634D01*
X170000Y-160480D01*
D02*
G37*
G36*
X130000D02*
X129227Y-160634D01*
X128572Y-161072D01*
X128134Y-161727D01*
X127980Y-162500D01*
X128134Y-163273D01*
X128572Y-163928D01*
X129227Y-164366D01*
X130000Y-164520D01*
X130773Y-164366D01*
X131428Y-163928D01*
X131866Y-163273D01*
X132020Y-162500D01*
X131866Y-161727D01*
X131428Y-161072D01*
X130773Y-160634D01*
X130000Y-160480D01*
D02*
G37*
G36*
X182500Y-152980D02*
X181727Y-153134D01*
X181072Y-153572D01*
X180634Y-154227D01*
X180480Y-155000D01*
X180634Y-155773D01*
X181072Y-156428D01*
X181727Y-156866D01*
X182500Y-157020D01*
X183273Y-156866D01*
X183928Y-156428D01*
X184366Y-155773D01*
X184520Y-155000D01*
X184366Y-154227D01*
X183928Y-153572D01*
X183273Y-153134D01*
X182500Y-152980D01*
D02*
G37*
G36*
X177500Y-160480D02*
X176727Y-160634D01*
X176072Y-161072D01*
X175634Y-161727D01*
X175480Y-162500D01*
X175634Y-163273D01*
X176072Y-163928D01*
X176727Y-164366D01*
X177500Y-164520D01*
X178273Y-164366D01*
X178928Y-163928D01*
X179366Y-163273D01*
X179520Y-162500D01*
X179366Y-161727D01*
X178928Y-161072D01*
X178273Y-160634D01*
X177500Y-160480D01*
D02*
G37*
G36*
X40300Y-114680D02*
X39527Y-114834D01*
X38872Y-115272D01*
X38434Y-115927D01*
X38280Y-116700D01*
X38434Y-117473D01*
X38872Y-118128D01*
X39527Y-118566D01*
X40300Y-118720D01*
X41073Y-118566D01*
X41728Y-118128D01*
X42166Y-117473D01*
X42320Y-116700D01*
X42166Y-115927D01*
X41728Y-115272D01*
X41073Y-114834D01*
X40300Y-114680D01*
D02*
G37*
G36*
X155000Y-72980D02*
X154227Y-73134D01*
X153572Y-73572D01*
X153134Y-74227D01*
X152980Y-75000D01*
X153134Y-75773D01*
X153572Y-76428D01*
X154227Y-76866D01*
X155000Y-77020D01*
X155773Y-76866D01*
X156428Y-76428D01*
X156866Y-75773D01*
X157020Y-75000D01*
X156866Y-74227D01*
X156428Y-73572D01*
X155773Y-73134D01*
X155000Y-72980D01*
D02*
G37*
G36*
X179500Y-79680D02*
X178727Y-79834D01*
X178072Y-80272D01*
X177634Y-80927D01*
X177537Y-81414D01*
X177121Y-81692D01*
X177000Y-81668D01*
X176227Y-81822D01*
X175572Y-82260D01*
X175134Y-82915D01*
X174980Y-83688D01*
X175134Y-84461D01*
X175347Y-84779D01*
X175249Y-85270D01*
X175022Y-85422D01*
X174892Y-85616D01*
X174392D01*
X174228Y-85372D01*
X173573Y-84934D01*
X172800Y-84780D01*
X172027Y-84934D01*
X171372Y-85372D01*
X170934Y-86027D01*
X170780Y-86800D01*
X170934Y-87573D01*
X171372Y-88228D01*
X172027Y-88666D01*
X172800Y-88820D01*
X173573Y-88666D01*
X174228Y-88228D01*
X174358Y-88034D01*
X174858D01*
X175022Y-88278D01*
X175677Y-88716D01*
X176450Y-88870D01*
X177223Y-88716D01*
X177878Y-88278D01*
X178316Y-87623D01*
X178470Y-86850D01*
X178316Y-86077D01*
X177907Y-85465D01*
X178428Y-85116D01*
X178866Y-84461D01*
X178963Y-83974D01*
X179379Y-83696D01*
X179500Y-83720D01*
X180273Y-83566D01*
X180928Y-83128D01*
X181366Y-82473D01*
X181520Y-81700D01*
X181366Y-80927D01*
X180928Y-80272D01*
X180273Y-79834D01*
X179500Y-79680D01*
D02*
G37*
G36*
X152000Y-68980D02*
X151227Y-69134D01*
X150572Y-69572D01*
X150134Y-70227D01*
X149980Y-71000D01*
X150134Y-71773D01*
X150572Y-72428D01*
X151227Y-72866D01*
X152000Y-73020D01*
X152773Y-72866D01*
X153428Y-72428D01*
X153866Y-71773D01*
X154020Y-71000D01*
X153866Y-70227D01*
X153428Y-69572D01*
X152773Y-69134D01*
X152000Y-68980D01*
D02*
G37*
G36*
X176100Y-67680D02*
X175327Y-67834D01*
X174672Y-68272D01*
X174234Y-68927D01*
X174080Y-69700D01*
X174234Y-70473D01*
X174672Y-71128D01*
X175103Y-71417D01*
X175234Y-72073D01*
X175672Y-72728D01*
X176327Y-73166D01*
X177100Y-73320D01*
X177873Y-73166D01*
X178528Y-72728D01*
X178966Y-72073D01*
X179120Y-71300D01*
X178966Y-70527D01*
X178528Y-69872D01*
X178097Y-69583D01*
X177966Y-68927D01*
X177528Y-68272D01*
X176873Y-67834D01*
X176100Y-67680D01*
D02*
G37*
G36*
X185000Y-73480D02*
X184227Y-73634D01*
X183572Y-74072D01*
X183134Y-74727D01*
X182980Y-75500D01*
X183134Y-76273D01*
X183572Y-76928D01*
X184227Y-77366D01*
X184900Y-77500D01*
Y-78000D01*
X184227Y-78134D01*
X183572Y-78572D01*
X183134Y-79227D01*
X182980Y-80000D01*
X183134Y-80773D01*
X183572Y-81428D01*
X184227Y-81866D01*
X185000Y-82020D01*
X185773Y-81866D01*
X186428Y-81428D01*
X186866Y-80773D01*
X187000Y-80100D01*
X187500D01*
X187634Y-80773D01*
X188072Y-81428D01*
X188727Y-81866D01*
X189500Y-82020D01*
X190273Y-81866D01*
X190928Y-81428D01*
X191366Y-80773D01*
X191520Y-80000D01*
X191366Y-79227D01*
X190928Y-78572D01*
X190273Y-78134D01*
X189500Y-77980D01*
X188727Y-78134D01*
X188072Y-78572D01*
X187634Y-79227D01*
X187500Y-79900D01*
X187000D01*
X186866Y-79227D01*
X186428Y-78572D01*
X185773Y-78134D01*
X185100Y-78000D01*
Y-77500D01*
X185773Y-77366D01*
X186428Y-76928D01*
X186866Y-76273D01*
X187020Y-75500D01*
X186866Y-74727D01*
X186428Y-74072D01*
X185773Y-73634D01*
X185000Y-73480D01*
D02*
G37*
G36*
X166500Y-81980D02*
X165727Y-82134D01*
X165072Y-82572D01*
X164634Y-83227D01*
X164480Y-84000D01*
X164634Y-84773D01*
X165072Y-85428D01*
X165727Y-85866D01*
X166500Y-86020D01*
X167273Y-85866D01*
X167928Y-85428D01*
X168366Y-84773D01*
X168520Y-84000D01*
X168366Y-83227D01*
X167928Y-82572D01*
X167273Y-82134D01*
X166500Y-81980D01*
D02*
G37*
G36*
X146400Y-84280D02*
X145627Y-84434D01*
X144972Y-84872D01*
X144534Y-85527D01*
X144380Y-86300D01*
X144534Y-87073D01*
X144972Y-87728D01*
X145627Y-88166D01*
X146400Y-88320D01*
X147173Y-88166D01*
X147828Y-87728D01*
X148266Y-87073D01*
X148420Y-86300D01*
X148266Y-85527D01*
X147828Y-84872D01*
X147173Y-84434D01*
X146400Y-84280D01*
D02*
G37*
G36*
X148000Y-74980D02*
X147227Y-75134D01*
X146572Y-75572D01*
X146134Y-76227D01*
X145980Y-77000D01*
X146134Y-77773D01*
X146572Y-78428D01*
X147227Y-78866D01*
X148000Y-79020D01*
X148773Y-78866D01*
X148795Y-78851D01*
X149149Y-79205D01*
X149134Y-79227D01*
X148980Y-80000D01*
X149134Y-80773D01*
X149572Y-81428D01*
X150227Y-81866D01*
X151000Y-82020D01*
X151773Y-81866D01*
X152428Y-81428D01*
X152866Y-80773D01*
X153020Y-80000D01*
X152866Y-79227D01*
X152428Y-78572D01*
X151773Y-78134D01*
X151000Y-77980D01*
X150227Y-78134D01*
X150205Y-78149D01*
X149851Y-77795D01*
X149866Y-77773D01*
X150020Y-77000D01*
X149866Y-76227D01*
X149428Y-75572D01*
X148773Y-75134D01*
X148000Y-74980D01*
D02*
G37*
G36*
X159900Y-79280D02*
X159127Y-79434D01*
X158472Y-79872D01*
X158034Y-80527D01*
X157880Y-81300D01*
X158034Y-82073D01*
X158472Y-82728D01*
X159127Y-83166D01*
X159900Y-83320D01*
X160673Y-83166D01*
X161328Y-82728D01*
X161766Y-82073D01*
X161920Y-81300D01*
X161766Y-80527D01*
X161328Y-79872D01*
X160673Y-79434D01*
X159900Y-79280D01*
D02*
G37*
G36*
X190000Y-47980D02*
X189227Y-48134D01*
X188572Y-48572D01*
X188134Y-49227D01*
X187980Y-50000D01*
X188134Y-50773D01*
X188572Y-51428D01*
X189227Y-51866D01*
X190000Y-52020D01*
X190773Y-51866D01*
X191428Y-51428D01*
X191866Y-50773D01*
X192020Y-50000D01*
X191866Y-49227D01*
X191428Y-48572D01*
X190773Y-48134D01*
X190000Y-47980D01*
D02*
G37*
G36*
X184000D02*
X183227Y-48134D01*
X182572Y-48572D01*
X182134Y-49227D01*
X181980Y-50000D01*
X182134Y-50773D01*
X182572Y-51428D01*
X183227Y-51866D01*
X184000Y-52020D01*
X184773Y-51866D01*
X185428Y-51428D01*
X185866Y-50773D01*
X186020Y-50000D01*
X185866Y-49227D01*
X185428Y-48572D01*
X184773Y-48134D01*
X184000Y-47980D01*
D02*
G37*
G36*
X190000Y-42980D02*
X189227Y-43134D01*
X188572Y-43572D01*
X188134Y-44227D01*
X187980Y-45000D01*
X188134Y-45773D01*
X188572Y-46428D01*
X189227Y-46866D01*
X190000Y-47020D01*
X190773Y-46866D01*
X191428Y-46428D01*
X191866Y-45773D01*
X192020Y-45000D01*
X191866Y-44227D01*
X191428Y-43572D01*
X190773Y-43134D01*
X190000Y-42980D01*
D02*
G37*
G36*
X184000D02*
X183227Y-43134D01*
X182572Y-43572D01*
X182134Y-44227D01*
X181980Y-45000D01*
X182134Y-45773D01*
X182572Y-46428D01*
X183227Y-46866D01*
X184000Y-47020D01*
X184773Y-46866D01*
X185428Y-46428D01*
X185866Y-45773D01*
X186020Y-45000D01*
X185866Y-44227D01*
X185428Y-43572D01*
X184773Y-43134D01*
X184000Y-42980D01*
D02*
G37*
G36*
X190000Y-52980D02*
X189227Y-53134D01*
X188572Y-53572D01*
X188134Y-54227D01*
X187980Y-55000D01*
X188134Y-55773D01*
X188572Y-56428D01*
X189227Y-56866D01*
X190000Y-57020D01*
X190773Y-56866D01*
X191428Y-56428D01*
X191866Y-55773D01*
X192020Y-55000D01*
X191866Y-54227D01*
X191428Y-53572D01*
X190773Y-53134D01*
X190000Y-52980D01*
D02*
G37*
G36*
X184000Y-57980D02*
X183227Y-58134D01*
X182572Y-58572D01*
X182134Y-59227D01*
X181980Y-60000D01*
X182134Y-60773D01*
X182572Y-61428D01*
X183227Y-61866D01*
X184000Y-62020D01*
X184773Y-61866D01*
X185428Y-61428D01*
X185866Y-60773D01*
X186020Y-60000D01*
X185866Y-59227D01*
X185428Y-58572D01*
X184773Y-58134D01*
X184000Y-57980D01*
D02*
G37*
G36*
X159000Y-54980D02*
X158227Y-55134D01*
X157572Y-55572D01*
X157134Y-56227D01*
X156980Y-57000D01*
X157134Y-57773D01*
X157572Y-58428D01*
X158053Y-58750D01*
Y-59250D01*
X157572Y-59572D01*
X157134Y-60227D01*
X156980Y-61000D01*
X157134Y-61773D01*
X157572Y-62428D01*
X158227Y-62866D01*
X159000Y-63020D01*
X159773Y-62866D01*
X160428Y-62428D01*
X160866Y-61773D01*
X161020Y-61000D01*
X160866Y-60227D01*
X160428Y-59572D01*
X159773Y-59134D01*
Y-58866D01*
X160428Y-58428D01*
X160866Y-57773D01*
X161020Y-57000D01*
X160866Y-56227D01*
X160428Y-55572D01*
X159773Y-55134D01*
X159000Y-54980D01*
D02*
G37*
G36*
X184000Y-52980D02*
X183227Y-53134D01*
X182572Y-53572D01*
X182134Y-54227D01*
X181980Y-55000D01*
X182134Y-55773D01*
X182572Y-56428D01*
X183227Y-56866D01*
X184000Y-57020D01*
X184773Y-56866D01*
X185428Y-56428D01*
X185866Y-55773D01*
X186020Y-55000D01*
X185866Y-54227D01*
X185428Y-53572D01*
X184773Y-53134D01*
X184000Y-52980D01*
D02*
G37*
G36*
X190000Y-57980D02*
X189227Y-58134D01*
X188572Y-58572D01*
X188134Y-59227D01*
X187980Y-60000D01*
X188134Y-60773D01*
X188572Y-61428D01*
X189227Y-61866D01*
X190000Y-62020D01*
X190773Y-61866D01*
X191428Y-61428D01*
X191866Y-60773D01*
X192020Y-60000D01*
X191866Y-59227D01*
X191428Y-58572D01*
X190773Y-58134D01*
X190000Y-57980D01*
D02*
G37*
G36*
X152000Y-106980D02*
X151227Y-107134D01*
X150572Y-107572D01*
X150134Y-108227D01*
X149980Y-109000D01*
X150134Y-109773D01*
X150572Y-110428D01*
X151227Y-110866D01*
X152000Y-111020D01*
X152773Y-110866D01*
X153428Y-110428D01*
X153866Y-109773D01*
X154020Y-109000D01*
X153866Y-108227D01*
X153428Y-107572D01*
X152773Y-107134D01*
X152000Y-106980D01*
D02*
G37*
G36*
X38900Y-100480D02*
X38127Y-100634D01*
X37472Y-101072D01*
X37034Y-101727D01*
X36880Y-102500D01*
X37034Y-103273D01*
X37472Y-103928D01*
X37579Y-104000D01*
Y-104500D01*
X37472Y-104572D01*
X37034Y-105227D01*
X36880Y-106000D01*
X37034Y-106773D01*
X37472Y-107428D01*
X38127Y-107866D01*
X38900Y-108020D01*
X39673Y-107866D01*
X40328Y-107428D01*
X40450Y-107246D01*
X40950D01*
X41072Y-107428D01*
X41727Y-107866D01*
X42500Y-108020D01*
X43212Y-107878D01*
X43490Y-108294D01*
X43334Y-108527D01*
X43180Y-109300D01*
X43334Y-110073D01*
X43772Y-110728D01*
X43954Y-110850D01*
Y-111350D01*
X43772Y-111472D01*
X43334Y-112127D01*
X43180Y-112900D01*
X43334Y-113673D01*
X43772Y-114328D01*
X44104Y-114550D01*
Y-115050D01*
X43772Y-115272D01*
X43334Y-115927D01*
X43180Y-116700D01*
X43334Y-117473D01*
X43772Y-118128D01*
X44427Y-118566D01*
X45200Y-118720D01*
X45973Y-118566D01*
X46628Y-118128D01*
X47066Y-117473D01*
X47220Y-116700D01*
X47066Y-115927D01*
X46628Y-115272D01*
X45973Y-114834D01*
X46628Y-114328D01*
X46628Y-114328D01*
Y-114328D01*
X46628Y-114328D01*
X46628Y-114328D01*
X46628Y-114328D01*
X46628Y-114328D01*
D01*
X47066Y-113673D01*
X47220Y-112900D01*
X47066Y-112127D01*
X46628Y-111472D01*
X46446Y-111350D01*
Y-110850D01*
X46628Y-110728D01*
X47066Y-110073D01*
X47220Y-109300D01*
X47066Y-108527D01*
X46628Y-107872D01*
X45973Y-107434D01*
X45200Y-107280D01*
X44488Y-107422D01*
X44210Y-107006D01*
X44366Y-106773D01*
X44520Y-106000D01*
X44366Y-105227D01*
X43928Y-104572D01*
X43273Y-104134D01*
X42500Y-103980D01*
X41727Y-104134D01*
X41072Y-104572D01*
X40950Y-104754D01*
X40450D01*
X40328Y-104572D01*
X40221Y-104500D01*
Y-104000D01*
X40328Y-103928D01*
X40766Y-103273D01*
X40920Y-102500D01*
X40766Y-101727D01*
X40328Y-101072D01*
X39673Y-100634D01*
X38900Y-100480D01*
D02*
G37*
G36*
X183500Y-105480D02*
X182727Y-105634D01*
X182072Y-106072D01*
X181634Y-106727D01*
X181480Y-107500D01*
X181634Y-108273D01*
X182072Y-108928D01*
X182727Y-109366D01*
X183500Y-109520D01*
X184273Y-109366D01*
X184928Y-108928D01*
X185366Y-108273D01*
X185520Y-107500D01*
X185366Y-106727D01*
X184928Y-106072D01*
X184273Y-105634D01*
X183500Y-105480D01*
D02*
G37*
G36*
X19500Y-109980D02*
X18727Y-110134D01*
X18072Y-110572D01*
X18000Y-110679D01*
X17500D01*
X17428Y-110572D01*
X16773Y-110134D01*
X16000Y-109980D01*
X15227Y-110134D01*
X14572Y-110572D01*
X14134Y-111227D01*
X13980Y-112000D01*
X14134Y-112773D01*
X14572Y-113428D01*
Y-113572D01*
X14134Y-114227D01*
X13980Y-115000D01*
X14134Y-115773D01*
X14572Y-116428D01*
X15227Y-116866D01*
X16000Y-117020D01*
X16773Y-116866D01*
X17428Y-116428D01*
X17866Y-115773D01*
X18020Y-115000D01*
X17866Y-114227D01*
X17428Y-113572D01*
Y-113428D01*
X17500Y-113321D01*
X18000D01*
X18072Y-113428D01*
X18727Y-113866D01*
X19500Y-114020D01*
X20273Y-113866D01*
X20928Y-113428D01*
X21366Y-112773D01*
X21520Y-112000D01*
X21366Y-111227D01*
X20928Y-110572D01*
X20273Y-110134D01*
X19500Y-109980D01*
D02*
G37*
G36*
X188500Y-110480D02*
X187727Y-110634D01*
X187072Y-111072D01*
X186634Y-111727D01*
X186480Y-112500D01*
X186634Y-113273D01*
X187072Y-113928D01*
X187727Y-114366D01*
X188500Y-114520D01*
X189273Y-114366D01*
X189928Y-113928D01*
X190366Y-113273D01*
X190520Y-112500D01*
X190366Y-111727D01*
X189928Y-111072D01*
X189273Y-110634D01*
X188500Y-110480D01*
D02*
G37*
G36*
X130000Y-111980D02*
X129227Y-112134D01*
X128572Y-112572D01*
X128134Y-113227D01*
X127980Y-114000D01*
X128134Y-114773D01*
X128572Y-115428D01*
X129227Y-115866D01*
X130000Y-116020D01*
X130773Y-115866D01*
X131428Y-115428D01*
X131866Y-114773D01*
X132020Y-114000D01*
X131866Y-113227D01*
X131428Y-112572D01*
X130773Y-112134D01*
X130000Y-111980D01*
D02*
G37*
G36*
X123000D02*
X122227Y-112134D01*
X121572Y-112572D01*
X121134Y-113227D01*
X120980Y-114000D01*
X121134Y-114773D01*
X121572Y-115428D01*
X122227Y-115866D01*
X123000Y-116020D01*
X123773Y-115866D01*
X124428Y-115428D01*
X124866Y-114773D01*
X125020Y-114000D01*
X124866Y-113227D01*
X124428Y-112572D01*
X123773Y-112134D01*
X123000Y-111980D01*
D02*
G37*
G36*
X183500Y-110480D02*
X182727Y-110634D01*
X182072Y-111072D01*
X181634Y-111727D01*
X181480Y-112500D01*
X181634Y-113273D01*
X182072Y-113928D01*
X182727Y-114366D01*
X183500Y-114520D01*
X184273Y-114366D01*
X184928Y-113928D01*
X185366Y-113273D01*
X185520Y-112500D01*
X185366Y-111727D01*
X184928Y-111072D01*
X184273Y-110634D01*
X183500Y-110480D01*
D02*
G37*
G36*
X152000Y-111980D02*
X151227Y-112134D01*
X150572Y-112572D01*
X150134Y-113227D01*
X149980Y-114000D01*
X150134Y-114773D01*
X150572Y-115428D01*
X151227Y-115866D01*
X152000Y-116020D01*
X152773Y-115866D01*
X153428Y-115428D01*
X153866Y-114773D01*
X154020Y-114000D01*
X153866Y-113227D01*
X153428Y-112572D01*
X152773Y-112134D01*
X152000Y-111980D01*
D02*
G37*
G36*
X45000Y-96380D02*
X44227Y-96534D01*
X43572Y-96972D01*
X43150Y-97603D01*
X42650D01*
X42228Y-96972D01*
X41573Y-96534D01*
X40800Y-96380D01*
X40027Y-96534D01*
X39372Y-96972D01*
X38934Y-97627D01*
X38780Y-98400D01*
X38934Y-99173D01*
X39372Y-99828D01*
X40027Y-100266D01*
X40800Y-100420D01*
X41573Y-100266D01*
X42228Y-99828D01*
X42650Y-99197D01*
X43150D01*
X43572Y-99828D01*
X44227Y-100266D01*
X45000Y-100420D01*
X45773Y-100266D01*
X46428Y-99828D01*
X46866Y-99173D01*
X47020Y-98400D01*
X46866Y-97627D01*
X46428Y-96972D01*
X45773Y-96534D01*
X45000Y-96380D01*
D02*
G37*
G36*
X168700Y-95380D02*
X167927Y-95534D01*
X167272Y-95972D01*
X166834Y-96627D01*
X166680Y-97400D01*
X166741Y-97703D01*
X166387Y-98057D01*
X166000Y-97980D01*
X165227Y-98134D01*
X164572Y-98572D01*
X164134Y-99227D01*
X163980Y-100000D01*
X164134Y-100773D01*
X164572Y-101428D01*
X165227Y-101866D01*
X166000Y-102020D01*
X166773Y-101866D01*
X167428Y-101428D01*
X167866Y-100773D01*
X168020Y-100000D01*
X167959Y-99696D01*
X168313Y-99343D01*
X168700Y-99420D01*
X169473Y-99266D01*
X170128Y-98828D01*
X170317Y-98546D01*
X170817D01*
X171072Y-98928D01*
X171727Y-99366D01*
X172500Y-99520D01*
X173273Y-99366D01*
X173928Y-98928D01*
X174366Y-98273D01*
X174520Y-97500D01*
X174366Y-96727D01*
X173928Y-96072D01*
X173273Y-95634D01*
X172500Y-95480D01*
X171727Y-95634D01*
X171072Y-96072D01*
X170883Y-96354D01*
X170383D01*
X170128Y-95972D01*
X169473Y-95534D01*
X168700Y-95380D01*
D02*
G37*
G36*
X162500Y-84980D02*
X161727Y-85134D01*
X161072Y-85572D01*
X160634Y-86227D01*
X160480Y-87000D01*
X160634Y-87773D01*
X161072Y-88428D01*
X161179Y-88500D01*
Y-89000D01*
X161072Y-89072D01*
X160634Y-89727D01*
X160480Y-90500D01*
X160634Y-91273D01*
X161072Y-91928D01*
X161727Y-92366D01*
X162500Y-92520D01*
X163273Y-92366D01*
X163407Y-92410D01*
X163523Y-92896D01*
X163366Y-93053D01*
X163000Y-92980D01*
X162227Y-93134D01*
X161572Y-93572D01*
X161134Y-94227D01*
X160980Y-95000D01*
X161134Y-95773D01*
X161572Y-96428D01*
X162227Y-96866D01*
X163000Y-97020D01*
X163773Y-96866D01*
X164428Y-96428D01*
X164866Y-95773D01*
X165020Y-95000D01*
X164980Y-94801D01*
X165334Y-94447D01*
X165700Y-94520D01*
X166473Y-94366D01*
X167128Y-93928D01*
X167350Y-93597D01*
X167850D01*
X168072Y-93928D01*
X168727Y-94366D01*
X169500Y-94520D01*
X170273Y-94366D01*
X170928Y-93928D01*
X171366Y-93273D01*
X171520Y-92500D01*
X171366Y-91727D01*
X170928Y-91072D01*
X170273Y-90634D01*
X169500Y-90480D01*
X169464Y-90426D01*
X169566Y-90273D01*
X169720Y-89500D01*
X169566Y-88727D01*
X169128Y-88072D01*
X168473Y-87634D01*
X167700Y-87480D01*
X166927Y-87634D01*
X166272Y-88072D01*
X165834Y-88727D01*
X165680Y-89500D01*
X165834Y-90273D01*
X165836Y-90276D01*
X165700Y-90480D01*
X164927Y-90634D01*
X164385Y-89823D01*
X164366Y-89727D01*
X163928Y-89072D01*
X163821Y-89000D01*
Y-88500D01*
X163928Y-88428D01*
X164366Y-87773D01*
X164520Y-87000D01*
X164366Y-86227D01*
X163928Y-85572D01*
X163273Y-85134D01*
X162500Y-84980D01*
D02*
G37*
G36*
X157300D02*
X156527Y-85134D01*
X155872Y-85572D01*
X155434Y-86227D01*
X155280Y-87000D01*
X155434Y-87773D01*
X155872Y-88428D01*
X155979Y-88500D01*
Y-89000D01*
X155872Y-89072D01*
X155434Y-89727D01*
X155280Y-90500D01*
X155434Y-91273D01*
X155872Y-91928D01*
X156527Y-92366D01*
X157150Y-92490D01*
Y-92510D01*
X157150D01*
Y-92990D01*
X156427Y-93134D01*
X155772Y-93572D01*
X155334Y-94227D01*
X155180Y-95000D01*
X155334Y-95773D01*
X155772Y-96428D01*
X156427Y-96866D01*
X157200Y-97020D01*
X157973Y-96866D01*
X158628Y-96428D01*
X159066Y-95773D01*
X159220Y-95000D01*
X159066Y-94227D01*
X158628Y-93572D01*
X157973Y-93134D01*
X157350Y-93010D01*
Y-92990D01*
X157350D01*
Y-92510D01*
X158073Y-92366D01*
X158728Y-91928D01*
X159166Y-91273D01*
X159320Y-90500D01*
X159166Y-89727D01*
X158728Y-89072D01*
X158621Y-89000D01*
Y-88500D01*
X158728Y-88428D01*
X159166Y-87773D01*
X159320Y-87000D01*
X159166Y-86227D01*
X158728Y-85572D01*
X158073Y-85134D01*
X157300Y-84980D01*
D02*
G37*
G36*
X19450Y-99480D02*
X18677Y-99634D01*
X18022Y-100072D01*
X17584Y-100727D01*
X17430Y-101500D01*
X17584Y-102273D01*
X18022Y-102928D01*
X18677Y-103366D01*
X19450Y-103520D01*
X20223Y-103366D01*
X20878Y-102928D01*
X21316Y-102273D01*
X21470Y-101500D01*
X21316Y-100727D01*
X20878Y-100072D01*
X20223Y-99634D01*
X19450Y-99480D01*
D02*
G37*
G36*
X163700Y-104480D02*
X162927Y-104634D01*
X162272Y-105072D01*
X161834Y-105727D01*
X161800Y-105897D01*
X161300D01*
X161266Y-105727D01*
X160828Y-105072D01*
X160173Y-104634D01*
X159400Y-104480D01*
X158627Y-104634D01*
X157972Y-105072D01*
X157534Y-105727D01*
X157380Y-106500D01*
X157534Y-107273D01*
X157972Y-107928D01*
X158627Y-108366D01*
X159400Y-108520D01*
X160173Y-108366D01*
X160828Y-107928D01*
X161266Y-107273D01*
X161300Y-107103D01*
X161800D01*
X161834Y-107273D01*
X162272Y-107928D01*
X162927Y-108366D01*
X163700Y-108520D01*
X164473Y-108366D01*
X165128Y-107928D01*
X165566Y-107273D01*
X165720Y-106500D01*
X165566Y-105727D01*
X165128Y-105072D01*
X164473Y-104634D01*
X163700Y-104480D01*
D02*
G37*
G36*
X188500Y-105480D02*
X187727Y-105634D01*
X187072Y-106072D01*
X186634Y-106727D01*
X186480Y-107500D01*
X186634Y-108273D01*
X187072Y-108928D01*
X187727Y-109366D01*
X188500Y-109520D01*
X189273Y-109366D01*
X189928Y-108928D01*
X190366Y-108273D01*
X190520Y-107500D01*
X190366Y-106727D01*
X189928Y-106072D01*
X189273Y-105634D01*
X188500Y-105480D01*
D02*
G37*
G36*
X14350Y-99480D02*
X13577Y-99634D01*
X12922Y-100072D01*
X12484Y-100727D01*
X12330Y-101500D01*
X12484Y-102273D01*
X12922Y-102928D01*
X13577Y-103366D01*
X14350Y-103520D01*
X15123Y-103366D01*
X15778Y-102928D01*
X16216Y-102273D01*
X16370Y-101500D01*
X16216Y-100727D01*
X15778Y-100072D01*
X15123Y-99634D01*
X14350Y-99480D01*
D02*
G37*
G36*
X9250D02*
X8477Y-99634D01*
X7822Y-100072D01*
X7384Y-100727D01*
X7230Y-101500D01*
X7384Y-102273D01*
X7822Y-102928D01*
X8477Y-103366D01*
X9250Y-103520D01*
X10023Y-103366D01*
X10678Y-102928D01*
X11116Y-102273D01*
X11270Y-101500D01*
X11116Y-100727D01*
X10678Y-100072D01*
X10023Y-99634D01*
X9250Y-99480D01*
D02*
G37*
%LPD*%
D11*
X153452Y-62252D02*
G03*
X152900Y-63586I1333J-1333D01*
G01*
D02*
G03*
X152348Y-62252I-1886J0D01*
G01*
X138600Y-79219D02*
G03*
X139933Y-78667I0J1886D01*
G01*
D02*
G03*
X139381Y-80000I1333J-1333D01*
G01*
X139152Y-80552D02*
G03*
X138600Y-81886I1333J-1333D01*
G01*
D02*
G03*
X138048Y-80552I-1886J0D01*
G01*
X146819Y-107500D02*
G03*
X146267Y-106167I-1886J0D01*
G01*
D02*
G03*
X147600Y-106719I1333J1333D01*
G01*
X148152Y-108052D02*
G03*
X147600Y-109386I1333J-1333D01*
G01*
D02*
G03*
X147048Y-108052I-1886J0D01*
G01*
X146748Y-120048D02*
G03*
X147600Y-117990I-2058J2058D01*
G01*
Y-119439D02*
G03*
X147852Y-120048I862J0D01*
G01*
X138600Y-98500D02*
X147600Y-107500D01*
X138600Y-98500D02*
Y-80000D01*
X152900Y-65700D02*
Y-61700D01*
X138600Y-80000D02*
X152900Y-65700D01*
X147300Y-120600D02*
X147600Y-120300D01*
Y-107500D01*
D12*
X141395Y-128905D02*
G03*
X138969Y-127900I-2426J-2426D01*
G01*
X179269Y-124369D02*
G03*
X179695Y-122447I-1295J1295D01*
G01*
X132600Y-127900D02*
X141000D01*
X125500Y-135000D02*
X132600Y-127900D01*
X155100Y-61700D02*
X163900Y-70500D01*
X152900Y-61700D02*
X155100D01*
X174000Y-63600D02*
Y-48100D01*
X171300Y-45400D02*
X174000Y-48100D01*
X171300Y-45400D02*
Y-42500D01*
X167100Y-70500D02*
X174000Y-63600D01*
X163900Y-70500D02*
X167100D01*
X174000Y-63600D02*
X177800D01*
X193900Y-79700D01*
X147300Y-128600D02*
Y-120600D01*
X141000Y-127900D02*
X141700Y-128600D01*
X164500Y-135000D02*
X168300Y-131200D01*
X175200D01*
X179269Y-127131D01*
Y-124369D01*
X180100Y-123538D01*
Y-122300D01*
D13*
X95775Y-99225D02*
G03*
X97644Y-100000I1870J1870D01*
G01*
X94000Y-99000D02*
G03*
X96162Y-99275I1258J1258D01*
G01*
X95686Y-98947D02*
G03*
X96500Y-101500I2880J-488D01*
G01*
X74760Y-135210D02*
G03*
X76500Y-136000I1740J1521D01*
G01*
X74774Y-135225D02*
G03*
X76644Y-136000I1870J1870D01*
G01*
X74807Y-135254D02*
G03*
X77248Y-135899I2000J2624D01*
G01*
X74807Y-135254D02*
G03*
X77310Y-135908I2041J2694D01*
G01*
X76500Y-136000D02*
G03*
X74760Y-136790I0J-2311D01*
G01*
X76644Y-136000D02*
G03*
X74774Y-136775I0J-2644D01*
G01*
X147581Y-47952D02*
G03*
X149165Y-44128I-3824J3824D01*
G01*
X145033Y-50500D02*
X151406Y-44128D01*
X132500Y-50500D02*
X145033D01*
X128500Y-54500D02*
X132500Y-50500D01*
X128500Y-94000D02*
Y-54500D01*
X122500Y-100000D02*
X128500Y-94000D01*
X97000Y-100000D02*
X122500D01*
X94000Y-99000D02*
X96500Y-101500D01*
X96000Y-99000D02*
X97000Y-100000D01*
X76500Y-136000D02*
X91500D01*
X96500Y-131000D01*
Y-101500D01*
X94000Y-99000D02*
X96000D01*
D14*
X62700Y-124759D02*
X63500Y-125559D01*
D17*
X147300Y-128600D02*
X158100D01*
X141700D02*
X147300D01*
X158100D02*
X164500Y-135000D01*
Y-185500D02*
Y-135000D01*
X158000Y-192000D02*
X164500Y-185500D01*
X132000Y-192000D02*
X158000D01*
D52*
X124250Y-136250D02*
D03*
D53*
X75000Y-136000D02*
D03*
D56*
X95000Y-99000D02*
D03*
D59*
X52000Y-148000D02*
D03*
Y-125500D02*
D03*
D62*
X182850Y-14000D02*
D03*
X14000D02*
D03*
Y-182850D02*
D03*
X182850D02*
D03*
D63*
X118900Y-183100D02*
D03*
X91000D02*
D03*
X145500Y-14600D02*
D03*
D64*
X118900Y-165384D02*
D03*
Y-153572D02*
D03*
X91000Y-165384D02*
D03*
Y-153572D02*
D03*
X139594Y-44128D02*
D03*
Y-32316D02*
D03*
X151406D02*
D03*
Y-44128D02*
D03*
D65*
X63500Y-148000D02*
D03*
X63500Y-125559D02*
D03*
X40500Y-148000D02*
D03*
X40500Y-125559D02*
D03*
D66*
X-19685Y200787D02*
D03*
Y-188976D02*
D03*
X425197D02*
D03*
Y200787D02*
D03*
D67*
X176100Y-69700D02*
D03*
X146400Y-86300D02*
D03*
X75000Y-95000D02*
D03*
X138000Y-123000D02*
D03*
X120000Y-130000D02*
D03*
X177500Y-162500D02*
D03*
X170000D02*
D03*
X130000Y-177500D02*
D03*
Y-162500D02*
D03*
X80000Y-150000D02*
D03*
X105000Y-192500D02*
D03*
Y-177500D02*
D03*
X72500Y-192500D02*
D03*
X57500D02*
D03*
X42500D02*
D03*
X72500Y-177500D02*
D03*
X57500D02*
D03*
X42500D02*
D03*
X72500Y-162500D02*
D03*
X57500D02*
D03*
X42500D02*
D03*
X178000Y-36000D02*
D03*
Y-31000D02*
D03*
X172000D02*
D03*
X166000D02*
D03*
X172000Y-36000D02*
D03*
X166000D02*
D03*
X130000Y-41000D02*
D03*
Y-31000D02*
D03*
Y-36000D02*
D03*
Y-46000D02*
D03*
X190000Y-40000D02*
D03*
Y-45000D02*
D03*
Y-50000D02*
D03*
Y-55000D02*
D03*
Y-60000D02*
D03*
X112000Y-107000D02*
D03*
Y-121000D02*
D03*
X152000Y-119000D02*
D03*
X159000Y-61000D02*
D03*
Y-57000D02*
D03*
X154000D02*
D03*
X177100Y-71300D02*
D03*
X155000Y-75000D02*
D03*
X152000Y-71000D02*
D03*
X151000Y-80000D02*
D03*
X148000Y-77000D02*
D03*
X134000Y-80000D02*
D03*
X132800Y-93000D02*
D03*
X106000Y-121000D02*
D03*
X70200Y-116100D02*
D03*
X55000Y-95000D02*
D03*
X50000D02*
D03*
X70000D02*
D03*
X110900Y-95600D02*
D03*
X112000Y-116000D02*
D03*
Y-112000D02*
D03*
X130000Y-114000D02*
D03*
X123000D02*
D03*
X152000D02*
D03*
Y-109000D02*
D03*
X182500Y-155000D02*
D03*
X190000D02*
D03*
Y-147500D02*
D03*
Y-140000D02*
D03*
Y-132500D02*
D03*
X135000Y-132000D02*
D03*
X130000Y-150000D02*
D03*
Y-142000D02*
D03*
Y-135000D02*
D03*
X145300Y-152300D02*
D03*
X150000Y-146000D02*
D03*
X143000D02*
D03*
X136000D02*
D03*
X154000Y-168900D02*
D03*
X148600Y-169000D02*
D03*
X155000Y-180000D02*
D03*
X150000D02*
D03*
X155000Y-187500D02*
D03*
X150000D02*
D03*
X45200Y-112900D02*
D03*
Y-116700D02*
D03*
X40300D02*
D03*
X4000Y-157000D02*
D03*
X157300Y-87000D02*
D03*
X136500Y-74500D02*
D03*
X133000D02*
D03*
X136500Y-56500D02*
D03*
Y-60000D02*
D03*
X133000D02*
D03*
X136500Y-67000D02*
D03*
X133000D02*
D03*
X140500Y-61500D02*
D03*
X136500Y-63500D02*
D03*
X133000D02*
D03*
X139500Y-54500D02*
D03*
X184000Y-40000D02*
D03*
Y-60000D02*
D03*
Y-45000D02*
D03*
Y-50000D02*
D03*
Y-55000D02*
D03*
X193500Y-74000D02*
D03*
X185000Y-75500D02*
D03*
X189500Y-80000D02*
D03*
X185000D02*
D03*
X163700Y-106500D02*
D03*
X159400D02*
D03*
X159900Y-81300D02*
D03*
X167700Y-89500D02*
D03*
X168700Y-97400D02*
D03*
X162500Y-87000D02*
D03*
X165700Y-92500D02*
D03*
X162500Y-90500D02*
D03*
X157300D02*
D03*
X183500Y-112500D02*
D03*
Y-117500D02*
D03*
Y-107500D02*
D03*
X182000Y-125500D02*
D03*
X176500Y-123500D02*
D03*
X172500D02*
D03*
X168500D02*
D03*
X188500Y-107500D02*
D03*
Y-117500D02*
D03*
Y-112500D02*
D03*
X193500Y-117500D02*
D03*
Y-112500D02*
D03*
Y-107500D02*
D03*
Y-102500D02*
D03*
Y-97500D02*
D03*
Y-92500D02*
D03*
X125500Y-137500D02*
D03*
Y-135000D02*
D03*
X123000D02*
D03*
Y-137500D02*
D03*
X147300Y-120600D02*
D03*
X147600Y-107500D02*
D03*
X138600Y-80000D02*
D03*
X152900Y-61700D02*
D03*
X171300Y-42500D02*
D03*
Y-45400D02*
D03*
X174000Y-63600D02*
D03*
X163900Y-70500D02*
D03*
X193900Y-79700D02*
D03*
X180100Y-122300D02*
D03*
X141700Y-128600D02*
D03*
X164500Y-185500D02*
D03*
X132000Y-192000D02*
D03*
X177000Y-83688D02*
D03*
X158200Y-171500D02*
D03*
X179500Y-81700D02*
D03*
X176450Y-86850D02*
D03*
X115500Y-95500D02*
D03*
X157200Y-95000D02*
D03*
X75000Y-137000D02*
D03*
Y-135000D02*
D03*
X55000Y-137500D02*
D03*
X75000Y-150000D02*
D03*
X85000D02*
D03*
X78000Y-96000D02*
D03*
X103000Y-139500D02*
D03*
X99500D02*
D03*
X93500D02*
D03*
X70000Y-137500D02*
D03*
X40000D02*
D03*
X87500Y-131000D02*
D03*
X82500D02*
D03*
X77500D02*
D03*
X72500D02*
D03*
X87500Y-127000D02*
D03*
X82500D02*
D03*
X77500D02*
D03*
X72500D02*
D03*
X90000Y-107500D02*
D03*
Y-110000D02*
D03*
X87500Y-107500D02*
D03*
X96000Y-99000D02*
D03*
X94000D02*
D03*
X31000Y-161500D02*
D03*
Y-166000D02*
D03*
X26500D02*
D03*
X22000D02*
D03*
X17500D02*
D03*
X13000D02*
D03*
X8500D02*
D03*
X4000D02*
D03*
X13000Y-161500D02*
D03*
X4000D02*
D03*
X8500D02*
D03*
Y-157000D02*
D03*
X21700Y-138500D02*
D03*
Y-143500D02*
D03*
Y-148000D02*
D03*
Y-152500D02*
D03*
X45200Y-109300D02*
D03*
X30000Y-125000D02*
D03*
X38900Y-102500D02*
D03*
X42500Y-106000D02*
D03*
X38900D02*
D03*
X93000Y-91000D02*
D03*
X122000Y-90500D02*
D03*
X117000D02*
D03*
X112000D02*
D03*
X107000Y-91000D02*
D03*
X88000Y-90500D02*
D03*
X83000D02*
D03*
X78000D02*
D03*
X73000D02*
D03*
X68000D02*
D03*
X34500Y-91000D02*
D03*
X123000Y-78000D02*
D03*
X118000D02*
D03*
X113000D02*
D03*
X108000D02*
D03*
X103000D02*
D03*
X98000D02*
D03*
X123000Y-73000D02*
D03*
X118000D02*
D03*
X123000Y-68000D02*
D03*
X118000D02*
D03*
X93000D02*
D03*
X98000D02*
D03*
X103000D02*
D03*
X108000D02*
D03*
X113000D02*
D03*
X98000Y-73000D02*
D03*
X103000D02*
D03*
X108000D02*
D03*
X113000D02*
D03*
X93000D02*
D03*
X70000Y-82000D02*
D03*
Y-86000D02*
D03*
Y-53000D02*
D03*
Y-59000D02*
D03*
Y-65000D02*
D03*
Y-71000D02*
D03*
X29000Y-90000D02*
D03*
X24000D02*
D03*
X19000D02*
D03*
X14000D02*
D03*
X55000Y-91000D02*
D03*
X50000D02*
D03*
X55000Y-86500D02*
D03*
Y-82000D02*
D03*
X35000Y-73000D02*
D03*
X55000Y-58000D02*
D03*
Y-63000D02*
D03*
Y-73000D02*
D03*
X50000D02*
D03*
X45000D02*
D03*
X40000D02*
D03*
X55000Y-68000D02*
D03*
X50000D02*
D03*
X45000D02*
D03*
X40000D02*
D03*
X35000D02*
D03*
X13000Y-86000D02*
D03*
Y-82000D02*
D03*
Y-71000D02*
D03*
Y-65000D02*
D03*
Y-59000D02*
D03*
Y-53000D02*
D03*
X40800Y-98400D02*
D03*
X45000D02*
D03*
X136600Y-168700D02*
D03*
X142500D02*
D03*
X93600Y-95500D02*
D03*
X105400D02*
D03*
X6500Y-91000D02*
D03*
X10500D02*
D03*
X6500Y-93000D02*
D03*
X10500D02*
D03*
X8500D02*
D03*
Y-91000D02*
D03*
X62700D02*
D03*
Y-93000D02*
D03*
X64700D02*
D03*
X60700D02*
D03*
X64700Y-91000D02*
D03*
X60700D02*
D03*
X2700Y-96300D02*
D03*
Y-91500D02*
D03*
Y-93900D02*
D03*
X9250Y-101500D02*
D03*
X14350D02*
D03*
X19450D02*
D03*
X27000Y-78000D02*
D03*
X29400D02*
D03*
X24600D02*
D03*
X81600D02*
D03*
X86400D02*
D03*
X84000D02*
D03*
X3000Y-124000D02*
D03*
X6500D02*
D03*
X3000Y-127500D02*
D03*
X6500D02*
D03*
X8500Y-133000D02*
D03*
Y-142000D02*
D03*
Y-151000D02*
D03*
Y-137500D02*
D03*
Y-146500D02*
D03*
X16000Y-115000D02*
D03*
X19500Y-112000D02*
D03*
X16000D02*
D03*
X7000Y-108000D02*
D03*
X22500Y-125000D02*
D03*
Y-132500D02*
D03*
X26200Y-128700D02*
D03*
X57000Y-38000D02*
D03*
X61000D02*
D03*
X57000Y-43000D02*
D03*
X61000D02*
D03*
X119000Y-38000D02*
D03*
X121000D02*
D03*
Y-43000D02*
D03*
X123000D02*
D03*
X59000Y-38000D02*
D03*
Y-43000D02*
D03*
X123000Y-38000D02*
D03*
X119000Y-43000D02*
D03*
X163000Y-95000D02*
D03*
X169500Y-92500D02*
D03*
X166000Y-100000D02*
D03*
X172500Y-97500D02*
D03*
X138000Y-133500D02*
D03*
X151800D02*
D03*
X166500Y-84000D02*
D03*
X172800Y-86800D02*
D03*
D68*
X62700Y-92000D02*
D03*
X8500D02*
D03*
D73*
X62700Y-117820D02*
G03*
X65201Y-123858I8539J0D01*
G01*
X26500Y-96000D02*
X30500Y-100000D01*
X11000Y-96000D02*
X26500D01*
X62700Y-124759D02*
Y-93000D01*
X30500Y-115559D02*
Y-100000D01*
Y-115559D02*
X40500Y-125559D01*
D74*
X8500Y-94000D02*
X10500Y-96000D01*
D75*
X8500Y-94000D02*
Y-93000D01*
D76*
X90050Y-40500D02*
D03*
M02*
