%FSLAX25Y25*%
%MOIN*%
G70*
G01*
G75*
G04 Layer_Color=8388736*
%ADD10C,0.00900*%
%ADD11C,0.00800*%
%ADD12C,0.01500*%
%ADD13C,0.03000*%
%ADD14C,0.05000*%
%ADD15C,0.01200*%
%ADD16C,0.02500*%
%ADD17C,0.02000*%
%ADD18C,0.04000*%
%ADD19R,0.02362X0.02756*%
%ADD20R,0.02756X0.02362*%
%ADD21O,0.05906X0.00984*%
%ADD22O,0.00984X0.05906*%
%ADD23R,0.06693X0.05512*%
%ADD24R,0.04331X0.05118*%
%ADD25O,0.06299X0.02362*%
%ADD26R,0.18898X0.17716*%
%ADD27R,0.06299X0.10630*%
%ADD28R,0.04331X0.03150*%
%ADD29R,0.02800X0.03500*%
%ADD30O,0.01969X0.06299*%
%ADD31R,0.01969X0.06299*%
%ADD32R,0.04331X0.05906*%
G04:AMPARAMS|DCode=33|XSize=157.48mil|YSize=196.85mil|CornerRadius=39.37mil|HoleSize=0mil|Usage=FLASHONLY|Rotation=180.000|XOffset=0mil|YOffset=0mil|HoleType=Round|Shape=RoundedRectangle|*
%AMROUNDEDRECTD33*
21,1,0.15748,0.11811,0,0,180.0*
21,1,0.07874,0.19685,0,0,180.0*
1,1,0.07874,-0.03937,0.05906*
1,1,0.07874,0.03937,0.05906*
1,1,0.07874,0.03937,-0.05906*
1,1,0.07874,-0.03937,-0.05906*
%
%ADD33ROUNDEDRECTD33*%
%ADD34R,0.04724X0.03150*%
%ADD35R,0.03150X0.02362*%
%ADD36R,0.02362X0.03150*%
%ADD37R,0.03937X0.10236*%
%ADD38R,0.03500X0.02800*%
%ADD39R,0.03543X0.05512*%
%ADD40R,0.08661X0.05512*%
%ADD41R,0.05118X0.03150*%
%ADD42R,0.11024X0.08268*%
%ADD43R,0.03543X0.05906*%
%ADD44R,0.10236X0.03937*%
%ADD45R,0.05512X0.06693*%
%ADD46R,0.05118X0.04331*%
%ADD47R,0.03150X0.04724*%
%ADD48R,0.12598X0.07874*%
%ADD49C,0.03937*%
%ADD50C,0.06500*%
%ADD51R,0.36600X0.13000*%
%ADD52R,0.04900X0.04900*%
%ADD53R,0.03000X0.05000*%
%ADD54R,0.12000X0.05500*%
%ADD55R,0.05500X0.10500*%
%ADD56R,0.05000X0.03000*%
%ADD57R,0.06200X0.41500*%
%ADD58R,0.07200X0.03100*%
%ADD59R,0.36000X0.13000*%
%ADD60R,0.06300X0.12400*%
%ADD61R,0.07700X0.12400*%
%ADD62C,0.25590*%
%ADD63C,0.10630*%
%ADD64O,0.07480X0.06299*%
%ADD65C,0.11811*%
%ADD66C,0.07874*%
%ADD67C,0.02362*%
%ADD68R,0.06400X0.04400*%
%ADD69R,0.06400X0.12400*%
%ADD70R,0.07200X0.02400*%
%ADD71R,0.02400X0.07200*%
%ADD72R,0.36700X0.13000*%
%ADD73C,0.07000*%
%ADD74C,0.06400*%
%ADD75C,0.06000*%
%ADD76R,0.68300X0.12400*%
%ADD77C,0.00787*%
%ADD78C,0.01000*%
%ADD79C,0.00984*%
%ADD80C,0.00394*%
%ADD81C,0.00500*%
%ADD82C,0.00591*%
%ADD83C,0.01181*%
%ADD84C,0.00460*%
%ADD85R,0.03162X0.03556*%
%ADD86R,0.03556X0.03162*%
%ADD87O,0.06706X0.01784*%
%ADD88O,0.01784X0.06706*%
%ADD89R,0.07493X0.06312*%
%ADD90R,0.05131X0.05918*%
%ADD91O,0.07099X0.03162*%
%ADD92R,0.19698X0.18517*%
%ADD93R,0.07099X0.11430*%
%ADD94R,0.05131X0.03950*%
%ADD95R,0.03600X0.04300*%
%ADD96O,0.02769X0.07099*%
%ADD97R,0.02769X0.07099*%
%ADD98R,0.05131X0.06706*%
G04:AMPARAMS|DCode=99|XSize=165.48mil|YSize=204.85mil|CornerRadius=43.37mil|HoleSize=0mil|Usage=FLASHONLY|Rotation=180.000|XOffset=0mil|YOffset=0mil|HoleType=Round|Shape=RoundedRectangle|*
%AMROUNDEDRECTD99*
21,1,0.16548,0.11811,0,0,180.0*
21,1,0.07874,0.20485,0,0,180.0*
1,1,0.08674,-0.03937,0.05906*
1,1,0.08674,0.03937,0.05906*
1,1,0.08674,0.03937,-0.05906*
1,1,0.08674,-0.03937,-0.05906*
%
%ADD99ROUNDEDRECTD99*%
%ADD100R,0.05524X0.03950*%
%ADD101R,0.03950X0.03162*%
%ADD102R,0.03162X0.03950*%
%ADD103R,0.04737X0.11036*%
%ADD104R,0.04300X0.03600*%
%ADD105R,0.04343X0.06312*%
%ADD106R,0.09461X0.06312*%
%ADD107R,0.05918X0.03950*%
%ADD108R,0.11824X0.09068*%
%ADD109R,0.04343X0.06706*%
%ADD110R,0.11036X0.04737*%
%ADD111R,0.06312X0.07493*%
%ADD112R,0.05918X0.05131*%
%ADD113R,0.03950X0.05524*%
%ADD114R,0.13398X0.08674*%
%ADD115C,0.04737*%
%ADD116C,0.26391*%
%ADD117C,0.11430*%
%ADD118O,0.08280X0.07099*%
%ADD119C,0.12611*%
%ADD120C,0.08674*%
D85*
X149200Y-66000D02*
D03*
X145263D02*
D03*
X90300Y-98600D02*
D03*
X86363D02*
D03*
X90300Y-94500D02*
D03*
X86363D02*
D03*
X23000Y-108000D02*
D03*
X19063D02*
D03*
X15500D02*
D03*
X11563D02*
D03*
X7000Y-120500D02*
D03*
X3063D02*
D03*
X160437Y-65200D02*
D03*
X156500D02*
D03*
X172137Y-118900D02*
D03*
X168200D02*
D03*
X160437Y-69300D02*
D03*
X156500D02*
D03*
X180137Y-118900D02*
D03*
X176200D02*
D03*
X141763Y-132000D02*
D03*
X145700D02*
D03*
X132863Y-70800D02*
D03*
X136800D02*
D03*
X132363Y-52300D02*
D03*
X136300D02*
D03*
X124263D02*
D03*
X128200D02*
D03*
D86*
X102000Y-95500D02*
D03*
Y-91563D02*
D03*
X97000Y-95500D02*
D03*
Y-91563D02*
D03*
X45000Y-95500D02*
D03*
Y-91563D02*
D03*
X40800Y-95500D02*
D03*
Y-91563D02*
D03*
X95200Y-114700D02*
D03*
Y-110763D02*
D03*
Y-107100D02*
D03*
Y-103163D02*
D03*
X82500Y-98500D02*
D03*
Y-94563D02*
D03*
X136600Y-175400D02*
D03*
Y-171463D02*
D03*
X142500Y-175400D02*
D03*
Y-171463D02*
D03*
X28000Y-116500D02*
D03*
Y-120437D02*
D03*
X3000Y-112500D02*
D03*
Y-116437D02*
D03*
X7500Y-112500D02*
D03*
Y-116437D02*
D03*
X162900Y-48200D02*
D03*
Y-44263D02*
D03*
X167100Y-48200D02*
D03*
Y-44263D02*
D03*
X158700Y-48200D02*
D03*
Y-44263D02*
D03*
X77000Y-114937D02*
D03*
Y-111000D02*
D03*
X143700Y-93863D02*
D03*
Y-97800D02*
D03*
Y-86263D02*
D03*
Y-90200D02*
D03*
Y-109063D02*
D03*
Y-113000D02*
D03*
Y-120637D02*
D03*
Y-116700D02*
D03*
Y-78663D02*
D03*
Y-82600D02*
D03*
X193900Y-83163D02*
D03*
Y-87100D02*
D03*
X143700Y-101463D02*
D03*
Y-105400D02*
D03*
X171300Y-60737D02*
D03*
Y-56800D02*
D03*
Y-48863D02*
D03*
Y-52800D02*
D03*
X164500Y-192837D02*
D03*
Y-188900D02*
D03*
X128800Y-74537D02*
D03*
Y-70600D02*
D03*
X140900Y-70563D02*
D03*
Y-74500D02*
D03*
X145100Y-57763D02*
D03*
Y-61700D02*
D03*
X149300Y-57763D02*
D03*
Y-61700D02*
D03*
D87*
X151600Y-83200D02*
D03*
Y-85168D02*
D03*
Y-87137D02*
D03*
Y-89105D02*
D03*
Y-91074D02*
D03*
Y-93042D02*
D03*
Y-95011D02*
D03*
Y-96979D02*
D03*
Y-98948D02*
D03*
Y-100917D02*
D03*
Y-102885D02*
D03*
Y-104853D02*
D03*
X187033D02*
D03*
Y-102885D02*
D03*
Y-100917D02*
D03*
Y-98948D02*
D03*
Y-96979D02*
D03*
Y-95011D02*
D03*
Y-93042D02*
D03*
Y-91074D02*
D03*
Y-89105D02*
D03*
Y-87137D02*
D03*
Y-85168D02*
D03*
Y-83200D02*
D03*
D88*
X158490Y-111743D02*
D03*
X160458D02*
D03*
X162427D02*
D03*
X164395D02*
D03*
X166364D02*
D03*
X168332D02*
D03*
X170301D02*
D03*
X172269D02*
D03*
X174238D02*
D03*
X176206D02*
D03*
X178175D02*
D03*
X180143D02*
D03*
Y-76310D02*
D03*
X178175D02*
D03*
X176206D02*
D03*
X174238D02*
D03*
X172269D02*
D03*
X170301D02*
D03*
X168332D02*
D03*
X166364D02*
D03*
X164395D02*
D03*
X162427D02*
D03*
X160458D02*
D03*
X158490D02*
D03*
D89*
X84000Y-85024D02*
D03*
Y-74000D02*
D03*
X27000Y-85024D02*
D03*
Y-74000D02*
D03*
X69700Y-110024D02*
D03*
Y-99000D02*
D03*
X60700Y-110024D02*
D03*
Y-99000D02*
D03*
X51700Y-110024D02*
D03*
Y-99000D02*
D03*
D90*
X100498Y-54000D02*
D03*
X93500D02*
D03*
X43498D02*
D03*
X36500D02*
D03*
D91*
X59000Y-30500D02*
D03*
Y-35500D02*
D03*
Y-40500D02*
D03*
Y-45500D02*
D03*
X28000Y-30500D02*
D03*
Y-35500D02*
D03*
Y-40500D02*
D03*
Y-45500D02*
D03*
X90000Y-30500D02*
D03*
Y-35500D02*
D03*
Y-40500D02*
D03*
Y-45500D02*
D03*
X121000Y-30500D02*
D03*
Y-35500D02*
D03*
Y-40500D02*
D03*
Y-45500D02*
D03*
D92*
X42366Y-38020D02*
D03*
X11366D02*
D03*
X73366D02*
D03*
X104366D02*
D03*
D93*
X62689Y-82500D02*
D03*
X74500D02*
D03*
X5689D02*
D03*
X17500D02*
D03*
X5689Y-69000D02*
D03*
X17500D02*
D03*
X5689Y-55500D02*
D03*
X17500D02*
D03*
X74500D02*
D03*
X62689D02*
D03*
X74500Y-69000D02*
D03*
X62689D02*
D03*
D94*
X27000Y-66815D02*
D03*
Y-59226D02*
D03*
X84000Y-66815D02*
D03*
Y-59226D02*
D03*
D95*
X24701Y-51500D02*
D03*
X31000D02*
D03*
X49201D02*
D03*
X55500D02*
D03*
X81701D02*
D03*
X88000D02*
D03*
X106201D02*
D03*
X112500D02*
D03*
X100001Y-100300D02*
D03*
X106300D02*
D03*
X100001Y-115300D02*
D03*
X106300D02*
D03*
X100001Y-105300D02*
D03*
X106300D02*
D03*
X100001Y-110300D02*
D03*
X106300D02*
D03*
X17599Y-125700D02*
D03*
X11300D02*
D03*
X113799Y-130300D02*
D03*
X107500D02*
D03*
Y-125200D02*
D03*
X113799D02*
D03*
D96*
X50000Y-61492D02*
D03*
X45000D02*
D03*
X40000D02*
D03*
X35000D02*
D03*
X50000Y-85508D02*
D03*
X45000D02*
D03*
X40000D02*
D03*
X107000Y-61492D02*
D03*
X102000D02*
D03*
X97000D02*
D03*
X92000D02*
D03*
X107000Y-85508D02*
D03*
X102000D02*
D03*
X97000D02*
D03*
X136800Y-163108D02*
D03*
X141800D02*
D03*
X146800D02*
D03*
X151800D02*
D03*
X136800Y-139092D02*
D03*
X141800D02*
D03*
X146800D02*
D03*
D97*
X35000Y-85508D02*
D03*
X92000D02*
D03*
X151800Y-139092D02*
D03*
D98*
X137331Y-99444D02*
D03*
X128670D02*
D03*
X137331Y-85271D02*
D03*
X128670D02*
D03*
D99*
X62700Y-14000D02*
D03*
X85700D02*
D03*
D100*
X118000Y-117842D02*
D03*
Y-109378D02*
D03*
X135716Y-117842D02*
D03*
Y-109378D02*
D03*
D101*
X129138Y-65244D02*
D03*
Y-57764D02*
D03*
Y-61504D02*
D03*
X140555Y-57764D02*
D03*
Y-65244D02*
D03*
X12138Y-120244D02*
D03*
Y-112764D02*
D03*
Y-116504D02*
D03*
X23555D02*
D03*
Y-112764D02*
D03*
Y-120244D02*
D03*
X90638Y-143244D02*
D03*
Y-135764D02*
D03*
Y-139504D02*
D03*
X102055Y-135764D02*
D03*
Y-143244D02*
D03*
D102*
X82556Y-103138D02*
D03*
X90036D02*
D03*
X86296D02*
D03*
Y-114555D02*
D03*
X90036D02*
D03*
X82556D02*
D03*
D103*
X92332Y-124797D02*
D03*
X100600D02*
D03*
D104*
X77000Y-106799D02*
D03*
Y-100500D02*
D03*
X6700Y-97201D02*
D03*
Y-103500D02*
D03*
X11800Y-97201D02*
D03*
Y-103500D02*
D03*
X16900Y-97201D02*
D03*
Y-103500D02*
D03*
X22000Y-97201D02*
D03*
Y-103500D02*
D03*
X120000Y-136201D02*
D03*
Y-142500D02*
D03*
D105*
X74000Y-121200D02*
D03*
X41000Y-111000D02*
D03*
D106*
X84039Y-121200D02*
D03*
X30961Y-111000D02*
D03*
D107*
X177000Y-42500D02*
D03*
Y-47421D02*
D03*
Y-52342D02*
D03*
Y-57264D02*
D03*
Y-154185D02*
D03*
Y-149264D02*
D03*
Y-139421D02*
D03*
Y-134500D02*
D03*
Y-144343D02*
D03*
D108*
X189598Y-67303D02*
D03*
Y-32461D02*
D03*
Y-124461D02*
D03*
Y-164224D02*
D03*
D109*
X142506Y-181964D02*
D03*
X136600D02*
D03*
X142506Y-192200D02*
D03*
X136600D02*
D03*
D110*
X31597Y-104268D02*
D03*
Y-96000D02*
D03*
D111*
X15924Y-151000D02*
D03*
X4900D02*
D03*
X15924Y-142000D02*
D03*
X4900D02*
D03*
X15924Y-133000D02*
D03*
X4900D02*
D03*
D112*
X85000Y-136002D02*
D03*
Y-143000D02*
D03*
X78500Y-136002D02*
D03*
Y-143000D02*
D03*
X114000Y-142998D02*
D03*
Y-136000D02*
D03*
X107500Y-142998D02*
D03*
Y-136000D02*
D03*
D113*
X158222Y-192816D02*
D03*
X149758D02*
D03*
X158222Y-175100D02*
D03*
X149758D02*
D03*
D114*
X118500Y-84000D02*
D03*
Y-60378D02*
D03*
D115*
X-15748Y173228D02*
D03*
Y-161417D02*
D03*
X421260Y173228D02*
D03*
Y-161417D02*
D03*
D116*
X182850Y-14000D02*
D03*
X14000D02*
D03*
Y-182850D02*
D03*
X182850D02*
D03*
D117*
X118900Y-183100D02*
D03*
X91000D02*
D03*
X145500Y-14600D02*
D03*
D118*
X118900Y-165384D02*
D03*
Y-153572D02*
D03*
X91000Y-165384D02*
D03*
Y-153572D02*
D03*
X139594Y-44128D02*
D03*
Y-32316D02*
D03*
X151406D02*
D03*
Y-44128D02*
D03*
D119*
X63500Y-148000D02*
D03*
X63500Y-125559D02*
D03*
X40500Y-148000D02*
D03*
X40500Y-125559D02*
D03*
D120*
X-19685Y200787D02*
D03*
Y-188976D02*
D03*
X425197D02*
D03*
Y200787D02*
D03*
M02*
