M48
;Layer_Color=9474304
;FILE_FORMAT=2:5
INCH,TZ
;TYPE=PLATED
T1F00S00C0.01181
T2F00S00C0.03937
T3F00S00C0.06299
T4F00S00C0.07874
T5F00S00C0.10630
T6F00S00C0.11811
%
T01
X4000Y-166000
X8500
X13000
X17500
X22000
X26500
X31000
X42500Y-162500
Y-177500
Y-192500
X57500
X72500
Y-177500
X57500
Y-162500
X72500
X105000Y-177500
Y-192500
X132000Y-192000
X130000Y-177500
Y-162500
X136600Y-168700
X142500
X148600Y-169000
X154000Y-168900
X158200Y-171500
X155000Y-180000
X150000
Y-187500
X155000
X164500Y-185500
X170000Y-162500
X177500
X182500Y-155000
X190000
Y-147500
Y-140000
Y-132500
X182000Y-125500
X180100Y-122300
X176500Y-123500
X172500
X168500
X152000Y-119000
Y-114000
Y-109000
X147600Y-107500
X159400Y-106500
X163700
X166000Y-100000
X168700Y-97400
X172500Y-97500
X169500Y-92500
X165700
X167700Y-89500
X162500Y-90500
Y-87000
X157300
Y-90500
X157200Y-95000
X163000
X166500Y-84000
X172800Y-86800
X176450Y-86850
X177000Y-83688
X179500Y-81700
X185000Y-80000
Y-75500
X189500Y-80000
X193900Y-79700
X193500Y-74000
X190000Y-60000
Y-55000
Y-50000
Y-45000
Y-40000
X184000
Y-45000
Y-50000
Y-55000
Y-60000
X174000Y-63600
X176100Y-69700
X177100Y-71300
X163900Y-70500
X152000Y-71000
X155000Y-75000
X151000Y-80000
X148000Y-77000
X146400Y-86300
X138600Y-80000
X134000
X133000Y-74500
X136500
Y-67000
X133000
Y-63500
Y-60000
X136500
Y-56500
X139500Y-54500
X140500Y-61500
X136500Y-63500
X123000Y-68000
Y-73000
Y-78000
X118000
X113000
X108000
Y-73000
Y-68000
X113000
X118000
Y-73000
X113000
X112000Y-90500
X117000
X122000
X115500Y-95500
X110900Y-95600
X112000Y-107000
Y-112000
Y-116000
Y-121000
X120000Y-130000
X123000Y-135000
X125500
Y-137500
X123000
X130000Y-135000
Y-142000
Y-150000
X136000Y-146000
X143000
X150000
X145300Y-152300
X151800Y-133500
X138000
X135000Y-132000
X141700Y-128600
X138000Y-123000
X147300Y-120600
X130000Y-114000
X123000
X132800Y-93000
X159900Y-81300
X159000Y-61000
Y-57000
X154000
X152900Y-61700
X171300Y-45400
Y-42500
X172000Y-36000
Y-31000
X178000
Y-36000
X166000
Y-31000
X130000
Y-36000
Y-41000
Y-46000
X123000Y-43000
X121000
X119000
Y-38000
X121000
X123000
X193500Y-92500
Y-97500
Y-102500
Y-107500
X188500
X183500
Y-112500
Y-117500
X188500
Y-112500
X193500
Y-117500
X106000Y-121000
X103000Y-139500
X99500
X93500
X87500Y-131000
Y-127000
X82500
Y-131000
X77500
Y-127000
X72500
Y-131000
X75000Y-135000
Y-137000
X70000Y-137500
X55000
X40000
X21700Y-138500
Y-143500
Y-148000
Y-152500
X8500Y-151000
Y-146500
Y-142000
Y-137500
Y-133000
X6500Y-127500
Y-124000
X3000
Y-127500
X22500Y-125000
X26200Y-128700
X30000Y-125000
X22500Y-132500
X19500Y-112000
X16000
Y-115000
X14350Y-101500
X9250
X7000Y-108000
X6500Y-93000
Y-91000
X8500
X10500
Y-93000
X8500
X2700Y-93900
Y-96300
Y-91500
X14000Y-90000
X19000
X24000
X29000
X34500Y-91000
X40800Y-98400
X45000
X50000Y-95000
Y-91000
X55000
Y-95000
X60700Y-93000
X62700
Y-91000
X64700
Y-93000
X68000Y-90500
X73000
X78000
X83000
X88000
X93000Y-91000
X93600Y-95500
X94000Y-99000
X96000
X105400Y-95500
X107000Y-91000
X103000Y-78000
X98000
Y-73000
Y-68000
X93000
Y-73000
X103000
Y-68000
X86400Y-78000
X84000
X81600
X70000Y-82000
Y-86000
Y-95000
X75000
X78000Y-96000
X87500Y-107500
X90000
Y-110000
X70200Y-116100
X45200Y-116700
Y-112900
Y-109300
X42500Y-106000
X38900
Y-102500
X40300Y-116700
X19450Y-101500
X13000Y-86000
Y-82000
Y-71000
Y-65000
Y-59000
Y-53000
X24600Y-78000
X27000
X29400
X35000Y-73000
X40000
X45000
X50000
X55000
Y-68000
Y-63000
Y-58000
X50000Y-68000
X45000
X40000
X35000
X55000Y-82000
Y-86500
X60700Y-91000
X70000Y-71000
Y-65000
Y-59000
Y-53000
X61000Y-43000
X59000
X57000
Y-38000
X59000
X61000
X75000Y-150000
X80000
X85000
X31000Y-161500
X13000
X8500
X4000
Y-157000
X8500
T02
X91000Y-165384
X118900
Y-153572
X139594Y-44128
X151406
Y-32316
X139594
X91000Y-153572
T03
X40500Y-148000
X40500Y-125559
X63500
X63500Y-148000
T04
X-19685Y-188976
X425197
Y200787
X-19685
T05
X91000Y-183100
X118900
X145500Y-14600
T06
X14000Y-182850
X182850
Y-14000
X14000
M30
