%FSLAX25Y25*%
%MOIN*%
G70*
G01*
G75*
G04 Layer_Physical_Order=1*
G04 Layer_Color=255*
%ADD10C,0.00900*%
%ADD11C,0.00800*%
%ADD12C,0.01500*%
%ADD13C,0.03000*%
%ADD14C,0.05000*%
%ADD15C,0.01200*%
%ADD16C,0.02500*%
%ADD17C,0.02000*%
%ADD18C,0.04000*%
%ADD19R,0.02362X0.02756*%
%ADD20R,0.02756X0.02362*%
%ADD21O,0.05906X0.00984*%
%ADD22O,0.00984X0.05906*%
%ADD23R,0.06693X0.05512*%
%ADD24R,0.04331X0.05118*%
%ADD25O,0.06299X0.02362*%
%ADD26R,0.18898X0.17716*%
%ADD27R,0.06299X0.10630*%
%ADD28R,0.04331X0.03150*%
%ADD29R,0.02800X0.03500*%
%ADD30O,0.01969X0.06299*%
%ADD31R,0.01969X0.06299*%
%ADD32R,0.04331X0.05906*%
G04:AMPARAMS|DCode=33|XSize=157.48mil|YSize=196.85mil|CornerRadius=39.37mil|HoleSize=0mil|Usage=FLASHONLY|Rotation=180.000|XOffset=0mil|YOffset=0mil|HoleType=Round|Shape=RoundedRectangle|*
%AMROUNDEDRECTD33*
21,1,0.15748,0.11811,0,0,180.0*
21,1,0.07874,0.19685,0,0,180.0*
1,1,0.07874,-0.03937,0.05906*
1,1,0.07874,0.03937,0.05906*
1,1,0.07874,0.03937,-0.05906*
1,1,0.07874,-0.03937,-0.05906*
%
%ADD33ROUNDEDRECTD33*%
%ADD34R,0.04724X0.03150*%
%ADD35R,0.03150X0.02362*%
%ADD36R,0.02362X0.03150*%
%ADD37R,0.03937X0.10236*%
%ADD38R,0.03500X0.02800*%
%ADD39R,0.03543X0.05512*%
%ADD40R,0.08661X0.05512*%
%ADD41R,0.05118X0.03150*%
%ADD42R,0.11024X0.08268*%
%ADD43R,0.03543X0.05906*%
%ADD44R,0.10236X0.03937*%
%ADD45R,0.05512X0.06693*%
%ADD46R,0.05118X0.04331*%
%ADD47R,0.03150X0.04724*%
%ADD48R,0.12598X0.07874*%
%ADD49C,0.03937*%
%ADD50C,0.06500*%
%ADD51R,0.36600X0.13000*%
%ADD52R,0.04900X0.04900*%
%ADD53R,0.03000X0.05000*%
%ADD54R,0.12000X0.05500*%
%ADD55R,0.05500X0.10500*%
%ADD56R,0.05000X0.03000*%
%ADD57R,0.06200X0.41500*%
%ADD58R,0.07200X0.03100*%
%ADD59R,0.36000X0.13000*%
%ADD60R,0.06300X0.12400*%
%ADD61R,0.07700X0.12400*%
%ADD62C,0.25590*%
%ADD63C,0.10630*%
%ADD64O,0.07480X0.06299*%
%ADD65C,0.11811*%
%ADD66C,0.07874*%
%ADD67C,0.02362*%
G36*
X70628Y-46890D02*
X65800Y-52900D01*
Y-87800D01*
X65900Y-87900D01*
Y-94200D01*
X59500D01*
Y-87800D01*
X59600Y-87700D01*
Y-50200D01*
X64000Y-46800D01*
X70584D01*
X70628Y-46890D01*
D02*
G37*
G36*
X11700Y-88500D02*
Y-88600D01*
Y-94200D01*
X5300D01*
Y-90600D01*
X2550Y-87850D01*
Y-87050D01*
X5300Y-84300D01*
X7500D01*
X11700Y-88500D01*
D02*
G37*
G36*
X158776Y-85507D02*
Y-93140D01*
X158335Y-93376D01*
X157973Y-93134D01*
X157200Y-92980D01*
X156427Y-93134D01*
X155772Y-93572D01*
X155331Y-93277D01*
X155378Y-93042D01*
X155278Y-92538D01*
X154992Y-92111D01*
Y-92006D01*
X155278Y-91578D01*
X155378Y-91074D01*
X155278Y-90570D01*
X154992Y-90142D01*
Y-90037D01*
X155278Y-89610D01*
X155378Y-89105D01*
X155278Y-88601D01*
X154992Y-88174D01*
Y-88069D01*
X155278Y-87641D01*
X155378Y-87137D01*
X155278Y-86633D01*
X154992Y-86205D01*
Y-86100D01*
X155278Y-85673D01*
X155378Y-85168D01*
X155278Y-84664D01*
X154992Y-84237D01*
Y-84132D01*
X155278Y-83704D01*
X155378Y-83200D01*
X155278Y-82696D01*
X155690Y-82420D01*
X158776Y-85507D01*
D02*
G37*
G36*
X180726Y-83794D02*
Y-85700D01*
X180823Y-86188D01*
X181099Y-86601D01*
X182536Y-88038D01*
X182949Y-88314D01*
X183048Y-88334D01*
X183326Y-88750D01*
X183255Y-89105D01*
X183326Y-89464D01*
X183009Y-89850D01*
X176926D01*
X176458Y-89944D01*
X176061Y-90209D01*
X174993Y-91277D01*
X171386D01*
Y-91273D01*
Y-91263D01*
X171138Y-91213D01*
X170930Y-91074D01*
X170928Y-91072D01*
X170273Y-90634D01*
X169500Y-90480D01*
X168727Y-90634D01*
X168072Y-91072D01*
X167634Y-91727D01*
X167480Y-92500D01*
X167634Y-93273D01*
X167676Y-93335D01*
X167440Y-93777D01*
X164886D01*
Y-93773D01*
Y-93762D01*
X164638Y-93713D01*
X164430Y-93574D01*
X164428Y-93572D01*
X163773Y-93134D01*
X163000Y-92980D01*
X162227Y-93134D01*
X161664Y-93510D01*
X161223Y-93274D01*
Y-85000D01*
X161150Y-84629D01*
X161591Y-84393D01*
X164899Y-87701D01*
X165312Y-87977D01*
X165800Y-88074D01*
X171035D01*
Y-88076D01*
X171047Y-88074D01*
X171066D01*
X171347Y-88191D01*
X171372Y-88228D01*
X172027Y-88666D01*
X172800Y-88820D01*
X173573Y-88666D01*
X174228Y-88228D01*
X174358Y-88034D01*
X174858D01*
X175022Y-88278D01*
X175677Y-88716D01*
X176450Y-88870D01*
X177223Y-88716D01*
X177878Y-88278D01*
X178316Y-87623D01*
X178470Y-86850D01*
X178316Y-86077D01*
X177907Y-85465D01*
X178428Y-85116D01*
X178866Y-84461D01*
X178963Y-83974D01*
X179379Y-83696D01*
X179500Y-83720D01*
X180273Y-83566D01*
X180285Y-83558D01*
X180726Y-83794D01*
D02*
G37*
G36*
X141522Y-82952D02*
Y-84581D01*
X145878D01*
Y-84424D01*
X147073D01*
X147231Y-84444D01*
Y-84424D01*
X147576D01*
X147893Y-84810D01*
X147822Y-85168D01*
X147922Y-85673D01*
X148208Y-86100D01*
Y-86205D01*
X147922Y-86633D01*
X147822Y-87137D01*
X147922Y-87641D01*
X148208Y-88069D01*
Y-88174D01*
X147922Y-88601D01*
X147822Y-89105D01*
X147893Y-89464D01*
X147576Y-89850D01*
X146981D01*
X146465Y-89335D01*
X146068Y-89070D01*
X145955Y-89047D01*
X145878Y-89032D01*
Y-88219D01*
X141522D01*
Y-88977D01*
X140297D01*
Y-82380D01*
X140759Y-82189D01*
X141522Y-82952D01*
D02*
G37*
G36*
X84382Y-96422D02*
Y-96519D01*
X80322D01*
Y-100481D01*
X80575D01*
Y-100763D01*
X80575D01*
Y-105513D01*
X84537D01*
Y-100778D01*
X88055D01*
Y-105513D01*
X92017D01*
Y-104718D01*
X93022D01*
Y-105144D01*
Y-109081D01*
Y-112684D01*
X92017D01*
Y-112180D01*
X88386D01*
Y-111296D01*
X88386Y-111296D01*
X88227Y-110496D01*
X87774Y-109818D01*
X87774Y-109818D01*
X85525Y-107569D01*
X84847Y-107116D01*
X84047Y-106957D01*
X84047Y-106957D01*
X82948D01*
X81975Y-106861D01*
X80856Y-106522D01*
X79825Y-105971D01*
X79612Y-105796D01*
X79586Y-105733D01*
X79550Y-105686D01*
Y-104599D01*
X78310D01*
X77871Y-104417D01*
X77140Y-104321D01*
X76409Y-104417D01*
X75970Y-104599D01*
X74450D01*
Y-105978D01*
X74408Y-106033D01*
X73841Y-106468D01*
X65553D01*
Y-106695D01*
X64846D01*
Y-106468D01*
X56554D01*
Y-106695D01*
X55847D01*
Y-106468D01*
X53698D01*
X52757Y-106078D01*
X51700Y-105939D01*
X50643Y-106078D01*
X49701Y-106468D01*
X47554D01*
X47554Y-106468D01*
Y-106468D01*
X47139Y-106639D01*
X41275Y-100775D01*
X41420Y-100297D01*
X41573Y-100266D01*
X42228Y-99828D01*
X42650Y-99197D01*
X43150D01*
X43572Y-99828D01*
X44227Y-100266D01*
X45000Y-100420D01*
X45773Y-100266D01*
X46428Y-99828D01*
X46866Y-99173D01*
X47020Y-98400D01*
X46866Y-97627D01*
X46944Y-97481D01*
X47178D01*
Y-93544D01*
Y-93500D01*
X58684D01*
Y-94200D01*
X58746Y-94512D01*
X58923Y-94777D01*
X59188Y-94954D01*
X59500Y-95016D01*
X60679D01*
X60700Y-95020D01*
X60721Y-95016D01*
X62679D01*
X62700Y-95020D01*
X62721Y-95016D01*
X64679D01*
X64700Y-95020D01*
X64721Y-95016D01*
X65900D01*
X66212Y-94954D01*
X66477Y-94777D01*
X66654Y-94512D01*
X66716Y-94200D01*
Y-93500D01*
X84382D01*
Y-96422D01*
D02*
G37*
G36*
X36400Y-105400D02*
X36700Y-105700D01*
Y-109200D01*
Y-112300D01*
X35300Y-113700D01*
X25300D01*
X25100Y-113900D01*
X22100D01*
Y-111800D01*
X22000Y-111700D01*
Y-109200D01*
X21914Y-107061D01*
X22261Y-106700D01*
X26500D01*
Y-103600D01*
X27100Y-103000D01*
X27200Y-102900D01*
X36400D01*
Y-105400D01*
D02*
G37*
G36*
X21184Y-110783D02*
X21180D01*
Y-114007D01*
X21000Y-114155D01*
X19500D01*
X18603Y-114333D01*
X17842Y-114842D01*
X15941Y-116743D01*
X15433Y-117503D01*
X15254Y-118401D01*
Y-125700D01*
Y-126026D01*
X15107Y-127146D01*
X14549Y-128493D01*
X14272Y-128853D01*
X12368D01*
Y-137146D01*
X12595D01*
Y-137854D01*
X12368D01*
Y-146147D01*
X12595D01*
Y-146853D01*
X12368D01*
Y-155147D01*
X12595D01*
Y-157324D01*
X12709Y-158185D01*
X12903Y-158655D01*
X13041Y-158988D01*
X13570Y-159677D01*
X15846Y-161954D01*
X16536Y-162483D01*
X16937Y-162649D01*
X17338Y-162815D01*
X18200Y-162928D01*
X24900D01*
X25762Y-162815D01*
X26232Y-162620D01*
X26564Y-162483D01*
X27254Y-161954D01*
X29354Y-159854D01*
X29882Y-159164D01*
X30049Y-158763D01*
X30215Y-158361D01*
X30329Y-157500D01*
Y-138179D01*
X33388Y-135119D01*
X33548Y-134988D01*
X34000Y-135202D01*
Y-195780D01*
X19593D01*
X19496Y-195289D01*
X20191Y-195001D01*
X22016Y-193883D01*
X23643Y-192493D01*
X25033Y-190866D01*
X26151Y-189042D01*
X26970Y-187065D01*
X27469Y-184984D01*
X27637Y-182850D01*
X27469Y-180717D01*
X26970Y-178636D01*
X26151Y-176659D01*
X25033Y-174835D01*
X23643Y-173207D01*
X22016Y-171818D01*
X20191Y-170700D01*
X18214Y-169880D01*
X16133Y-169381D01*
X14000Y-169213D01*
X11867Y-169381D01*
X9786Y-169880D01*
X7809Y-170700D01*
X5984Y-171818D01*
X4357Y-173207D01*
X2967Y-174835D01*
X1849Y-176659D01*
X1561Y-177355D01*
X1071Y-177257D01*
Y-118418D01*
X5019D01*
Y-122678D01*
X8981D01*
Y-121824D01*
X9763D01*
Y-122225D01*
X14513D01*
Y-118263D01*
X9763D01*
D01*
X9763D01*
X9678Y-118178D01*
Y-114745D01*
X9763D01*
Y-114745D01*
X14513D01*
Y-110783D01*
X13143D01*
Y-110178D01*
X21184D01*
Y-110783D01*
D02*
G37*
G36*
X184068Y-84417D02*
X184572Y-84517D01*
X189494D01*
X189966Y-84424D01*
X191722D01*
Y-85144D01*
X195780D01*
Y-177257D01*
X195289Y-177355D01*
X195001Y-176659D01*
X193883Y-174835D01*
X192493Y-173207D01*
X190866Y-171818D01*
X189042Y-170700D01*
X187065Y-169880D01*
X184984Y-169381D01*
X182850Y-169213D01*
X180717Y-169381D01*
X178636Y-169880D01*
X176659Y-170700D01*
X174835Y-171818D01*
X173207Y-173207D01*
X171818Y-174835D01*
X170700Y-176659D01*
X169880Y-178636D01*
X169381Y-180717D01*
X169213Y-182850D01*
X169381Y-184984D01*
X169880Y-187065D01*
X170700Y-189042D01*
X171818Y-190866D01*
X173207Y-192493D01*
X174835Y-193883D01*
X176659Y-195001D01*
X177355Y-195289D01*
X177257Y-195780D01*
X160597D01*
Y-194652D01*
X162322D01*
Y-194818D01*
X166678D01*
Y-190881D01*
Y-186919D01*
X166335D01*
Y-186319D01*
X166366Y-186273D01*
X166520Y-185500D01*
X166366Y-184727D01*
X165928Y-184072D01*
X165273Y-183634D01*
X164500Y-183480D01*
X163727Y-183634D01*
X163072Y-184072D01*
X162634Y-184727D01*
X162480Y-185500D01*
X162634Y-186273D01*
X162665Y-186319D01*
Y-186919D01*
X162322D01*
Y-190881D01*
Y-190981D01*
X160597D01*
Y-189654D01*
X160057D01*
Y-178262D01*
X160597D01*
Y-171938D01*
X160527D01*
X160210Y-171551D01*
X160220Y-171500D01*
X160066Y-170727D01*
X159628Y-170072D01*
X158973Y-169634D01*
X158200Y-169480D01*
X157427Y-169634D01*
X156772Y-170072D01*
X156334Y-170727D01*
X156180Y-171500D01*
X156190Y-171551D01*
X155873Y-171938D01*
X155847D01*
Y-178262D01*
X156387D01*
Y-189654D01*
X155847D01*
Y-195780D01*
X145077D01*
Y-188447D01*
X139934D01*
Y-190165D01*
X139172D01*
Y-188447D01*
X134028D01*
Y-190165D01*
X132819D01*
X132773Y-190134D01*
X132000Y-189980D01*
X131227Y-190134D01*
X130572Y-190572D01*
X130134Y-191227D01*
X129980Y-192000D01*
X130134Y-192773D01*
X130572Y-193428D01*
X131227Y-193866D01*
X132000Y-194020D01*
X132773Y-193866D01*
X132819Y-193835D01*
X134028D01*
Y-195780D01*
X35000D01*
Y-155500D01*
X70000D01*
Y-140500D01*
X35000D01*
Y-133872D01*
X36529Y-133054D01*
X36709Y-133000D01*
X48000D01*
Y-132816D01*
X70000D01*
X70312Y-132754D01*
X70577Y-132577D01*
X70754Y-132312D01*
X70816Y-132000D01*
Y-119000D01*
X70754Y-118688D01*
X70577Y-118423D01*
X70312Y-118246D01*
X70000Y-118184D01*
X55785D01*
Y-113579D01*
X55847D01*
Y-113352D01*
X56554D01*
Y-113579D01*
X64846D01*
Y-113352D01*
X65553D01*
Y-113579D01*
X73847D01*
Y-112824D01*
X74822D01*
Y-112981D01*
Y-116918D01*
X79178D01*
Y-116517D01*
X80575D01*
Y-116930D01*
X88184D01*
Y-117644D01*
X78909D01*
Y-124756D01*
X82200D01*
X82500Y-124816D01*
X89564D01*
Y-130715D01*
X95101D01*
Y-124541D01*
X95254Y-124312D01*
X95316Y-124000D01*
Y-116681D01*
X97378D01*
D01*
X97378D01*
X97656Y-116959D01*
Y-119070D01*
X97654D01*
X97656Y-119086D01*
Y-124198D01*
X97831Y-125081D01*
Y-130715D01*
X103368D01*
Y-118879D01*
X102346D01*
Y-115300D01*
Y-110300D01*
Y-105300D01*
X102346Y-105300D01*
X102346Y-105300D01*
Y-105300D01*
Y-100300D01*
X102201Y-99571D01*
Y-97750D01*
D01*
Y-97750D01*
X102470Y-97481D01*
X104178D01*
X104178Y-97481D01*
X104533Y-97303D01*
X104627Y-97366D01*
X105400Y-97520D01*
X106173Y-97366D01*
X106828Y-96928D01*
X107266Y-96273D01*
X107420Y-95500D01*
X107266Y-94727D01*
X106828Y-94072D01*
X106190Y-93645D01*
X106190Y-93645D01*
X106190D01*
X106173Y-93634D01*
Y-93634D01*
X106186Y-93500D01*
X114066D01*
X114211Y-93979D01*
X114072Y-94072D01*
X113634Y-94727D01*
X113480Y-95500D01*
X113634Y-96273D01*
X114072Y-96928D01*
X114727Y-97366D01*
X115500Y-97520D01*
X115503Y-97519D01*
X115748Y-97568D01*
X115958Y-97708D01*
X115966Y-97701D01*
X115968Y-97699D01*
X116777Y-98507D01*
Y-106542D01*
X116765D01*
X116771Y-106590D01*
X116689Y-107003D01*
X114838D01*
Y-111753D01*
X121162D01*
Y-110689D01*
X121575Y-110606D01*
X121624Y-110613D01*
Y-110601D01*
X132093D01*
Y-110613D01*
X132141Y-110606D01*
X132554Y-110689D01*
Y-111753D01*
X136386D01*
X136504Y-111776D01*
Y-111776D01*
X136526Y-111758D01*
X137475Y-111947D01*
X138204Y-112434D01*
X139635Y-113865D01*
Y-113865D01*
D01*
Y-113865D01*
X139635Y-113865D01*
D01*
D01*
X139635D01*
X139635Y-113865D01*
Y-113865D01*
Y-113865D01*
D01*
D01*
X139635D01*
Y-113865D01*
X140032Y-114130D01*
X140500Y-114224D01*
X141522D01*
Y-114981D01*
Y-118681D01*
Y-122618D01*
X145878D01*
Y-122563D01*
X146319Y-122327D01*
X146527Y-122466D01*
X147300Y-122620D01*
X148073Y-122466D01*
X148728Y-122028D01*
X149166Y-121373D01*
X149320Y-120600D01*
X149166Y-119827D01*
X148728Y-119172D01*
X148073Y-118734D01*
X147300Y-118580D01*
X146527Y-118734D01*
X146319Y-118873D01*
X145878Y-118637D01*
Y-114981D01*
Y-111019D01*
X141522D01*
Y-111776D01*
X141007D01*
X140013Y-110783D01*
X140013Y-110783D01*
X140027Y-110769D01*
X139910Y-110680D01*
X139110Y-109880D01*
X139119Y-109871D01*
X138968Y-109645D01*
X138915Y-109378D01*
X138902D01*
X138879Y-109260D01*
Y-107003D01*
X132554D01*
Y-108067D01*
X132141Y-108150D01*
X132093Y-108143D01*
Y-108154D01*
X121624D01*
Y-108143D01*
X121575Y-108150D01*
X121162Y-108067D01*
Y-107003D01*
X119311D01*
X119228Y-106590D01*
X119235Y-106542D01*
X119223D01*
Y-98000D01*
X119130Y-97532D01*
X118865Y-97135D01*
X117699Y-95968D01*
X117701Y-95966D01*
X117709Y-95958D01*
X117568Y-95748D01*
X117519Y-95503D01*
X117520Y-95500D01*
X117366Y-94727D01*
X116928Y-94072D01*
X116290Y-93645D01*
X116290Y-93645D01*
X116290D01*
X116273Y-93634D01*
Y-93634D01*
X116286Y-93500D01*
X126500D01*
Y-89024D01*
X128552D01*
X128670Y-89047D01*
Y-89050D01*
X129386Y-89144D01*
X130053Y-89420D01*
X130626Y-89860D01*
X130626Y-89860D01*
X130626Y-89860D01*
X130630D01*
X130758Y-89988D01*
X130879Y-90146D01*
X130898Y-90128D01*
X130898Y-90128D01*
X131835Y-91065D01*
X132232Y-91330D01*
X132700Y-91423D01*
X141522D01*
Y-92181D01*
Y-92639D01*
X139437D01*
X138969Y-92733D01*
X138572Y-92998D01*
X136466Y-95103D01*
X136201Y-95500D01*
X136163Y-95691D01*
X134366D01*
Y-103197D01*
X140297D01*
Y-95691D01*
X139992D01*
X139801Y-95229D01*
X139944Y-95086D01*
X141522D01*
Y-95844D01*
X145878D01*
Y-95031D01*
X146068Y-94993D01*
X146465Y-94728D01*
X146927Y-94266D01*
X147576D01*
X147893Y-94652D01*
X147822Y-95011D01*
X147922Y-95515D01*
X148208Y-95943D01*
X148635Y-96228D01*
X149139Y-96328D01*
X154061D01*
X154533Y-96235D01*
X155288D01*
Y-96238D01*
X155314Y-96235D01*
X155396D01*
X155736Y-96376D01*
X155772Y-96428D01*
X156427Y-96866D01*
X157200Y-97020D01*
X157915Y-96878D01*
X158151Y-97319D01*
X155956Y-99514D01*
X155457Y-99489D01*
X155307Y-99306D01*
X155378Y-98948D01*
X155278Y-98444D01*
X154992Y-98016D01*
X154565Y-97731D01*
X154061Y-97631D01*
X149139D01*
X148667Y-97724D01*
X147952D01*
X147484Y-97818D01*
X147087Y-98083D01*
X146935Y-98235D01*
X146093Y-98881D01*
X145034Y-99320D01*
X143908Y-99468D01*
X143897Y-99458D01*
Y-99458D01*
X143779Y-99482D01*
X141522D01*
Y-103444D01*
X145523D01*
X145677Y-103547D01*
Y-105200D01*
X145677Y-105200D01*
X145677D01*
X145770Y-105668D01*
X146035Y-106065D01*
X146119Y-106150D01*
X145734Y-106727D01*
X145580Y-107500D01*
X145734Y-108273D01*
X146172Y-108928D01*
X146827Y-109366D01*
X147600Y-109520D01*
X148373Y-109366D01*
X149028Y-108928D01*
X149466Y-108273D01*
X149620Y-107500D01*
X149466Y-106727D01*
X149117Y-106204D01*
X149139Y-106171D01*
X154061D01*
Y-106178D01*
X154406Y-106247D01*
X154700Y-106443D01*
X154706Y-106437D01*
X155277Y-107007D01*
Y-118500D01*
X155370Y-118968D01*
X155635Y-119365D01*
X165635Y-129365D01*
X165873Y-129524D01*
X166032Y-129630D01*
X166500Y-129724D01*
X177493D01*
X180526Y-132757D01*
Y-137047D01*
X180359D01*
Y-137047D01*
X173641D01*
Y-141614D01*
X173641Y-141614D01*
X173641D01*
X173641Y-141796D01*
Y-141968D01*
D01*
D01*
D01*
X173641D01*
D01*
Y-146535D01*
X173641Y-146535D01*
X173641D01*
X173641Y-146717D01*
Y-146889D01*
D01*
D01*
X173641D01*
Y-151639D01*
X180359D01*
Y-150604D01*
X180700Y-150548D01*
Y-150548D01*
X180700D01*
X180700Y-150538D01*
X181236D01*
X181724Y-150441D01*
X182137Y-150165D01*
X184401Y-147901D01*
X184678Y-147488D01*
X184774Y-147000D01*
Y-131500D01*
X184678Y-131012D01*
X184401Y-130599D01*
X179651Y-125849D01*
X179238Y-125573D01*
X178750Y-125476D01*
X167778D01*
X159764Y-117462D01*
Y-115777D01*
X160151Y-115460D01*
X160458Y-115521D01*
X160962Y-115421D01*
X161390Y-115135D01*
X161495D01*
X161923Y-115421D01*
X162427Y-115521D01*
X162931Y-115421D01*
X163358Y-115135D01*
X163464D01*
X163891Y-115421D01*
X164395Y-115521D01*
X164899Y-115421D01*
X165327Y-115135D01*
X165432D01*
X165860Y-115421D01*
X166364Y-115521D01*
X166868Y-115421D01*
X167295Y-115135D01*
X167401D01*
X167828Y-115421D01*
X168332Y-115521D01*
X168836Y-115421D01*
X169264Y-115135D01*
X169369D01*
X169797Y-115421D01*
X170301Y-115521D01*
X170659Y-115450D01*
X171046Y-115767D01*
Y-116498D01*
X171041D01*
X170996Y-116722D01*
X170156D01*
Y-121078D01*
X174118D01*
Y-116722D01*
X173717D01*
X173500Y-116498D01*
Y-116498D01*
X173500D01*
D01*
D01*
X173493Y-116498D01*
Y-115767D01*
X173879Y-115450D01*
X174238Y-115521D01*
X174742Y-115421D01*
X175169Y-115135D01*
X175275D01*
X175702Y-115421D01*
X176206Y-115521D01*
X176710Y-115421D01*
X177138Y-115135D01*
X177423Y-114708D01*
X177524Y-114204D01*
Y-109283D01*
X177423Y-108779D01*
X177138Y-108351D01*
X176710Y-108065D01*
X176206Y-107965D01*
X175702Y-108065D01*
X175275Y-108351D01*
X175169D01*
X174742Y-108065D01*
X174238Y-107965D01*
X173734Y-108065D01*
X173306Y-108351D01*
X173201D01*
X172773Y-108065D01*
X172269Y-107965D01*
X171765Y-108065D01*
X171338Y-108351D01*
X171232D01*
X170805Y-108065D01*
X170301Y-107965D01*
X169797Y-108065D01*
X169369Y-108351D01*
X169264D01*
X168836Y-108065D01*
X168332Y-107965D01*
X167828Y-108065D01*
X167401Y-108351D01*
X167295D01*
X166868Y-108065D01*
X166364Y-107965D01*
X165860Y-108065D01*
X165432Y-108351D01*
X165327D01*
X164899Y-108065D01*
X164395Y-107965D01*
X163891Y-108065D01*
X163464Y-108351D01*
X163358D01*
X162931Y-108065D01*
X162427Y-107965D01*
X161923Y-108065D01*
X161495Y-108351D01*
X161390D01*
X160962Y-108065D01*
X160458Y-107965D01*
X159954Y-108065D01*
X159527Y-108351D01*
X159421D01*
X158994Y-108065D01*
X158490Y-107965D01*
X158110Y-108041D01*
X157723Y-107723D01*
Y-106500D01*
X157630Y-106032D01*
X157365Y-105635D01*
X156437Y-104706D01*
X156440Y-104702D01*
X156408Y-104678D01*
X155719Y-103988D01*
X155322Y-103723D01*
X155219Y-103476D01*
X155278Y-103389D01*
X155378Y-102885D01*
X155278Y-102381D01*
X155406Y-102140D01*
X156283D01*
X156752Y-102047D01*
X157149Y-101782D01*
X160865Y-98065D01*
X161130Y-97668D01*
X161223Y-97200D01*
Y-96726D01*
X161664Y-96490D01*
X162227Y-96866D01*
X163000Y-97020D01*
X163773Y-96866D01*
X164428Y-96428D01*
X164430Y-96426D01*
X164638Y-96287D01*
X164886Y-96237D01*
Y-96227D01*
Y-96223D01*
X170440D01*
X170676Y-96665D01*
X170634Y-96727D01*
X170480Y-97500D01*
X170634Y-98273D01*
X170676Y-98335D01*
X170440Y-98777D01*
X167886D01*
Y-98763D01*
X167638Y-98713D01*
X167430Y-98574D01*
X167428Y-98572D01*
X166773Y-98134D01*
X166000Y-97980D01*
X165227Y-98134D01*
X164572Y-98572D01*
X164134Y-99227D01*
X163980Y-100000D01*
X164134Y-100773D01*
X164572Y-101428D01*
X165227Y-101866D01*
X166000Y-102020D01*
X166773Y-101866D01*
X167428Y-101428D01*
X167430Y-101426D01*
X167638Y-101287D01*
X167886Y-101237D01*
Y-101227D01*
Y-101224D01*
X177000D01*
X177468Y-101130D01*
X177865Y-100865D01*
X180527Y-98203D01*
X183009D01*
X183326Y-98589D01*
X183255Y-98948D01*
X183355Y-99452D01*
X183641Y-99879D01*
Y-99985D01*
X183355Y-100412D01*
X183255Y-100917D01*
X183355Y-101421D01*
X183641Y-101848D01*
Y-101953D01*
X183355Y-102381D01*
X183255Y-102885D01*
X183355Y-103389D01*
X183641Y-103817D01*
Y-103922D01*
X183355Y-104349D01*
X183255Y-104853D01*
X183355Y-105358D01*
X183641Y-105785D01*
X184068Y-106071D01*
X184572Y-106171D01*
X189494D01*
X189998Y-106071D01*
X190425Y-105785D01*
X190711Y-105358D01*
X190811Y-104853D01*
X190711Y-104349D01*
X190425Y-103922D01*
Y-103817D01*
X190711Y-103389D01*
X190811Y-102885D01*
X190711Y-102381D01*
X190425Y-101953D01*
Y-101848D01*
X190711Y-101421D01*
X190811Y-100917D01*
X190711Y-100412D01*
X190425Y-99985D01*
Y-99879D01*
X190711Y-99452D01*
X190811Y-98948D01*
X190711Y-98444D01*
X190425Y-98016D01*
Y-97911D01*
X190711Y-97484D01*
X190811Y-96979D01*
X190711Y-96475D01*
X190425Y-96048D01*
Y-95943D01*
X190711Y-95515D01*
X190811Y-95011D01*
X190711Y-94507D01*
X190425Y-94079D01*
Y-93974D01*
X190711Y-93547D01*
X190811Y-93042D01*
X190711Y-92538D01*
X190425Y-92111D01*
Y-92006D01*
X190711Y-91578D01*
X190811Y-91074D01*
X190711Y-90570D01*
X190425Y-90142D01*
Y-90037D01*
X190711Y-89610D01*
X190811Y-89105D01*
X190711Y-88601D01*
X190425Y-88174D01*
Y-88069D01*
X190711Y-87641D01*
X190811Y-87137D01*
X190711Y-86633D01*
X190425Y-86205D01*
X189998Y-85920D01*
X189494Y-85820D01*
X184572D01*
X184356Y-85862D01*
X183965D01*
X183274Y-85172D01*
Y-84417D01*
X183715Y-84181D01*
X184068Y-84417D01*
D02*
G37*
G36*
X4000Y-90453D02*
Y-95100D01*
X4700Y-95800D01*
X4800Y-95700D01*
X9400D01*
Y-98600D01*
X1500D01*
Y-90300D01*
X3847D01*
X4000Y-90453D01*
D02*
G37*
G36*
X37515Y-98769D02*
X37868Y-98769D01*
X47000Y-107900D01*
Y-118184D01*
X34000D01*
X33688Y-118246D01*
X33423Y-118423D01*
X33246Y-118688D01*
X33184Y-119000D01*
Y-125909D01*
X28562Y-130531D01*
X28471Y-130611D01*
X28476Y-130616D01*
X28476Y-130616D01*
X24646Y-134446D01*
X24117Y-135136D01*
X23980Y-135468D01*
X23785Y-135939D01*
X23672Y-136800D01*
Y-156121D01*
X23521Y-156272D01*
X19579D01*
X19252Y-155945D01*
Y-155147D01*
X19479D01*
Y-146853D01*
X19252D01*
Y-146147D01*
X19479D01*
Y-137854D01*
X19252D01*
Y-137146D01*
X19479D01*
Y-132650D01*
X19766Y-132222D01*
X19944Y-131324D01*
Y-125743D01*
X19949Y-125700D01*
X19944D01*
Y-125700D01*
Y-119372D01*
X20471Y-118845D01*
X21000D01*
X21180Y-118993D01*
Y-122225D01*
X25822D01*
Y-122418D01*
X30178D01*
Y-118481D01*
Y-114556D01*
X36091D01*
Y-114062D01*
X37277Y-112877D01*
X37454Y-112612D01*
X37516Y-112300D01*
X37516Y-112300D01*
Y-109200D01*
Y-105700D01*
X37515Y-105696D01*
Y-101499D01*
X25679D01*
Y-105884D01*
X24981D01*
Y-105822D01*
X9582D01*
Y-110178D01*
D01*
Y-110178D01*
X9241Y-110519D01*
X5322D01*
D01*
D01*
X5322Y-110519D01*
X5178D01*
Y-110519D01*
X4580D01*
Y-99546D01*
X21847D01*
X22350Y-99646D01*
Y-99631D01*
X23216Y-99546D01*
X24100D01*
X24997Y-99367D01*
X25758Y-98859D01*
X25837Y-98780D01*
X25854Y-98769D01*
X28233D01*
X28257Y-98773D01*
X28281Y-98769D01*
X37515D01*
Y-98769D01*
D02*
G37*
G36*
X154840Y-81571D02*
X154565Y-81983D01*
X154061Y-81883D01*
X149139D01*
X148667Y-81976D01*
X147231D01*
Y-81973D01*
X146530Y-81881D01*
X145878Y-81611D01*
Y-80619D01*
X143621D01*
X143503Y-80595D01*
Y-80595D01*
X143489Y-80607D01*
X142687Y-80448D01*
X142057Y-80026D01*
X141165Y-79135D01*
X140768Y-78870D01*
X140300Y-78777D01*
X140300Y-78776D01*
Y-78767D01*
X140133Y-78684D01*
D01*
D01*
X140133Y-78684D01*
D01*
D01*
X140133D01*
Y-78684D01*
X140133Y-78684D01*
X140133Y-78684D01*
Y-78684D01*
X140101Y-78680D01*
X140028Y-78572D01*
X139373Y-78134D01*
X138600Y-77980D01*
X137827Y-78134D01*
X137172Y-78572D01*
X136734Y-79227D01*
X136580Y-80000D01*
X136734Y-80773D01*
X136937Y-81077D01*
X136701Y-81518D01*
X134366D01*
Y-88977D01*
X133207D01*
X132618Y-88388D01*
X132101Y-87713D01*
X131770Y-86915D01*
X131657Y-86060D01*
X131659Y-86058D01*
X131659D01*
X131635Y-85940D01*
Y-81518D01*
X126500D01*
Y-77300D01*
X143500D01*
X147035Y-73765D01*
X154840Y-81571D01*
D02*
G37*
G36*
X113800Y-26700D02*
Y-46900D01*
X102600D01*
Y-56500D01*
X98400D01*
Y-46900D01*
X86900D01*
Y-34300D01*
X94900D01*
Y-28200D01*
X90600Y-23900D01*
X80200D01*
X77800Y-21500D01*
Y-6500D01*
X80200Y-4100D01*
X91200D01*
X113800Y-26700D01*
D02*
G37*
G36*
X70600Y-6500D02*
Y-21500D01*
X68200Y-23900D01*
X57100D01*
X51900Y-29100D01*
Y-46900D01*
X45600D01*
Y-56500D01*
X41400D01*
Y-46900D01*
X24900D01*
Y-34300D01*
X32900D01*
Y-28300D01*
X57100Y-4100D01*
X68200D01*
X70600Y-6500D01*
D02*
G37*
G36*
X125500Y-64500D02*
X112000D01*
Y-56500D01*
X113800D01*
X117800Y-52500D01*
Y-34300D01*
X125500D01*
Y-64500D01*
D02*
G37*
G36*
X177355Y-1561D02*
X176659Y-1849D01*
X174835Y-2967D01*
X173207Y-4357D01*
X171818Y-5984D01*
X170700Y-7809D01*
X169880Y-9786D01*
X169381Y-11867D01*
X169213Y-14000D01*
X169381Y-16133D01*
X169880Y-18214D01*
X170700Y-20191D01*
X171818Y-22016D01*
X173207Y-23643D01*
X174835Y-25033D01*
X176659Y-26151D01*
X178636Y-26970D01*
X180717Y-27469D01*
X182850Y-27637D01*
X184984Y-27469D01*
X187065Y-26970D01*
X189042Y-26151D01*
X190866Y-25033D01*
X192493Y-23643D01*
X193883Y-22016D01*
X195001Y-20191D01*
X195289Y-19496D01*
X195780Y-19593D01*
Y-77970D01*
X195328Y-78272D01*
X194673Y-77834D01*
X193900Y-77680D01*
X193127Y-77834D01*
X192472Y-78272D01*
X192034Y-78927D01*
X191880Y-79700D01*
X192034Y-80473D01*
X192213Y-80741D01*
X191977Y-81182D01*
X191722D01*
Y-81976D01*
X189966D01*
X189494Y-81883D01*
X184572D01*
X184068Y-81983D01*
X183715Y-82219D01*
X183274Y-81983D01*
Y-69000D01*
X183177Y-68512D01*
X182901Y-68099D01*
X178275Y-63472D01*
Y-59979D01*
X178284D01*
X178279Y-59943D01*
X178340Y-59639D01*
X180359D01*
Y-54889D01*
D01*
Y-54889D01*
X180359Y-54889D01*
Y-54717D01*
X180359D01*
Y-49968D01*
X173641D01*
D01*
X173641D01*
X173478Y-49805D01*
Y-46882D01*
X173223D01*
X172987Y-46441D01*
X173166Y-46173D01*
X173320Y-45400D01*
X173301Y-45303D01*
X173578Y-44887D01*
X173641Y-44875D01*
X173641Y-44875D01*
X173641Y-44875D01*
X180359D01*
Y-40125D01*
X173641D01*
Y-40920D01*
X172501D01*
X172073Y-40634D01*
X171300Y-40480D01*
X170527Y-40634D01*
X169872Y-41072D01*
X169434Y-41727D01*
X169324Y-42282D01*
X169278D01*
Y-42282D01*
X168260D01*
X168230Y-42132D01*
X167965Y-41735D01*
X157682Y-31451D01*
X157285Y-31186D01*
X156816Y-31093D01*
X156816D01*
Y-31082D01*
X156767Y-31088D01*
X156192Y-30974D01*
X155663Y-30620D01*
X155437Y-30282D01*
X155421Y-30292D01*
X154813Y-29500D01*
X153988Y-28867D01*
X153027Y-28469D01*
X151996Y-28333D01*
X150815D01*
X149784Y-28469D01*
X148823Y-28867D01*
X147998Y-29500D01*
X147365Y-30325D01*
X146967Y-31286D01*
X146831Y-32316D01*
X146967Y-33348D01*
X147365Y-34308D01*
X147998Y-35133D01*
X148823Y-35767D01*
X149784Y-36165D01*
X150815Y-36300D01*
X151996D01*
X153027Y-36165D01*
X153988Y-35767D01*
X154813Y-35133D01*
X155421Y-34341D01*
X155437Y-34351D01*
X155663Y-34013D01*
X156192Y-33659D01*
X156390Y-33620D01*
X159384Y-36615D01*
X159193Y-37077D01*
X146090D01*
X145306Y-36120D01*
X144673Y-34937D01*
X144283Y-33652D01*
X144159Y-32391D01*
X144169Y-32316D01*
X144033Y-31286D01*
X143635Y-30325D01*
X143002Y-29500D01*
X142177Y-28867D01*
X141216Y-28469D01*
X140185Y-28333D01*
X139004D01*
X137973Y-28469D01*
X137012Y-28867D01*
X136187Y-29500D01*
X135554Y-30325D01*
X135156Y-31286D01*
X135020Y-32316D01*
X135156Y-33348D01*
X135554Y-34308D01*
X136187Y-35133D01*
X137012Y-35767D01*
X137973Y-36165D01*
X139004Y-36300D01*
X140185D01*
X140254Y-36291D01*
X141219Y-36418D01*
X142183Y-36817D01*
X142964Y-37417D01*
X142980Y-37432D01*
X143057Y-37526D01*
X143057D01*
X143074D01*
X144278Y-38731D01*
X144416Y-38899D01*
X144431Y-38884D01*
D01*
X144713Y-39165D01*
X145110Y-39430D01*
X145578Y-39524D01*
X158793D01*
X161090Y-41820D01*
X160898Y-42282D01*
X156522D01*
Y-42282D01*
X156282Y-42443D01*
X156061Y-42351D01*
X154969Y-41513D01*
X154880Y-41397D01*
X154880Y-41397D01*
X154880D01*
D01*
X154880Y-41397D01*
X154879Y-41397D01*
D01*
X154813Y-41311D01*
X153988Y-40678D01*
X153027Y-40280D01*
X151996Y-40144D01*
X150815D01*
X149784Y-40280D01*
X148823Y-40678D01*
X147998Y-41311D01*
X147365Y-42136D01*
X146967Y-43097D01*
X146831Y-44128D01*
X146967Y-45159D01*
X147365Y-46119D01*
X147998Y-46944D01*
X148823Y-47578D01*
X149784Y-47976D01*
X150815Y-48111D01*
X151996D01*
X153027Y-47976D01*
X153988Y-47578D01*
X154813Y-46944D01*
X154875Y-46864D01*
X155823Y-46136D01*
X156155Y-45999D01*
X156522Y-46244D01*
Y-46244D01*
X160722D01*
Y-50181D01*
X161677D01*
Y-62900D01*
X161063Y-63022D01*
X158456D01*
Y-67378D01*
Y-71414D01*
X157625Y-72245D01*
X157359Y-72642D01*
X157266Y-73110D01*
Y-73377D01*
X157172Y-73850D01*
Y-78771D01*
X157273Y-79275D01*
X157558Y-79702D01*
X157986Y-79988D01*
X158490Y-80088D01*
X158994Y-79988D01*
X159421Y-79702D01*
X159707Y-79275D01*
X159807Y-78771D01*
Y-73850D01*
X159753Y-73577D01*
X161302Y-72028D01*
X161567Y-71631D01*
X161598Y-71478D01*
X162048D01*
X162211Y-71587D01*
X162344Y-71785D01*
X162344Y-71785D01*
X162380Y-71791D01*
X162472Y-71928D01*
X162712Y-72089D01*
X162521Y-72551D01*
X162427Y-72532D01*
X161923Y-72632D01*
X161495Y-72918D01*
X161210Y-73346D01*
X161109Y-73850D01*
Y-78771D01*
X161152Y-78987D01*
Y-83427D01*
X161231Y-83824D01*
X160790Y-84060D01*
X148000Y-71270D01*
Y-63681D01*
X151478D01*
Y-63663D01*
X151919Y-63427D01*
X152127Y-63566D01*
X152900Y-63720D01*
X153673Y-63566D01*
X154328Y-63128D01*
X154766Y-62473D01*
X154920Y-61700D01*
X154766Y-60927D01*
X154328Y-60272D01*
X153673Y-59834D01*
X152900Y-59680D01*
X152127Y-59834D01*
X151919Y-59973D01*
X151478Y-59737D01*
Y-55782D01*
X148000D01*
Y-55000D01*
X144300D01*
X138700Y-49400D01*
X126500D01*
Y-1071D01*
X177257D01*
X177355Y-1561D01*
D02*
G37*
G36*
X83331Y-48140D02*
X83095Y-48376D01*
X82485Y-48783D01*
X81713Y-48937D01*
X81701Y-48926D01*
Y-48926D01*
X81583Y-48950D01*
X79501D01*
Y-54050D01*
X83901D01*
Y-51268D01*
X83924Y-51150D01*
X83925D01*
X83925Y-51150D01*
X83925D01*
Y-51150D01*
X83925D01*
X83925Y-51150D01*
X84790Y-50141D01*
X84881Y-50071D01*
X84870Y-50061D01*
X84871Y-50060D01*
X85338Y-49593D01*
X85800Y-49784D01*
Y-54050D01*
X90153D01*
X90431Y-54466D01*
X90326Y-54719D01*
X90319Y-54776D01*
X90304Y-54798D01*
X90165Y-55500D01*
Y-55946D01*
X90158Y-56000D01*
X90165D01*
Y-57082D01*
X89778Y-57399D01*
X89734Y-57391D01*
X86965D01*
Y-56851D01*
X81035D01*
Y-61601D01*
X86965D01*
Y-61061D01*
X88974D01*
X90181Y-62268D01*
Y-63657D01*
X90319Y-64354D01*
X90714Y-64944D01*
X91304Y-65338D01*
X92000Y-65477D01*
X92696Y-65338D01*
X93286Y-64944D01*
X93681Y-64354D01*
X93819Y-63657D01*
Y-61573D01*
X93835Y-61492D01*
Y-60679D01*
X93938Y-59636D01*
X94286Y-58489D01*
X94851Y-57432D01*
X94911Y-57359D01*
X95776D01*
Y-57916D01*
X95763D01*
X95712Y-58039D01*
X95714Y-58040D01*
X95319Y-58631D01*
X95181Y-59327D01*
Y-63657D01*
X95319Y-64354D01*
X95714Y-64944D01*
X96304Y-65338D01*
X97000Y-65477D01*
X97696Y-65338D01*
X98286Y-64944D01*
X98681Y-64354D01*
X98819Y-63657D01*
Y-59327D01*
X98681Y-58631D01*
X98286Y-58040D01*
X98288Y-58039D01*
X98262Y-57978D01*
X98237Y-57916D01*
X98237Y-57916D01*
X98224Y-57903D01*
Y-57359D01*
X99088D01*
X99148Y-57432D01*
X99714Y-58490D01*
X100062Y-59638D01*
X100165Y-60683D01*
Y-61492D01*
X100181Y-61573D01*
Y-63657D01*
X100319Y-64354D01*
X100714Y-64944D01*
X101304Y-65338D01*
X102000Y-65477D01*
X102696Y-65338D01*
X103286Y-64944D01*
X103681Y-64354D01*
X103819Y-63657D01*
Y-61573D01*
X103835Y-61492D01*
Y-60832D01*
X103847D01*
X103835Y-60712D01*
Y-56004D01*
X103842D01*
X103835Y-55950D01*
Y-55502D01*
X103696Y-54799D01*
X103681Y-54777D01*
X103674Y-54722D01*
X103464Y-54215D01*
Y-50641D01*
X103416D01*
Y-47716D01*
X113800D01*
X113897Y-47697D01*
X114132Y-48137D01*
X113894Y-48376D01*
X113284Y-48783D01*
X112513Y-48937D01*
X112500Y-48926D01*
Y-48926D01*
X112382Y-48950D01*
X110300D01*
Y-54050D01*
X114443D01*
X114635Y-54512D01*
X113505Y-55641D01*
X111401D01*
Y-55957D01*
X111246Y-56188D01*
X111184Y-56500D01*
Y-64500D01*
X111246Y-64812D01*
X111401Y-65043D01*
Y-65115D01*
X111480D01*
X111688Y-65254D01*
X112000Y-65316D01*
X125500D01*
Y-92500D01*
X104178D01*
Y-89582D01*
X103580D01*
Y-88520D01*
X103681Y-88369D01*
X103819Y-87673D01*
Y-83342D01*
X103681Y-82646D01*
X103286Y-82056D01*
X102696Y-81662D01*
X102000Y-81523D01*
X101304Y-81662D01*
X100714Y-82056D01*
X100319Y-82646D01*
X100181Y-83342D01*
Y-87673D01*
X100319Y-88369D01*
X100420Y-88520D01*
Y-89582D01*
X99822D01*
Y-92500D01*
X99178D01*
Y-89582D01*
X98580D01*
Y-88520D01*
X98681Y-88369D01*
X98819Y-87673D01*
Y-83342D01*
X98681Y-82646D01*
X98286Y-82056D01*
X97696Y-81662D01*
X97000Y-81523D01*
X96304Y-81662D01*
X95714Y-82056D01*
X95319Y-82646D01*
X95181Y-83342D01*
Y-87673D01*
X95319Y-88369D01*
X95420Y-88520D01*
Y-89582D01*
X94822D01*
Y-92500D01*
X92281D01*
Y-92322D01*
X84382D01*
Y-92500D01*
X66716D01*
Y-91021D01*
X66720Y-91000D01*
X66716Y-90979D01*
Y-87900D01*
X66654Y-87588D01*
X66639Y-87565D01*
Y-76385D01*
X66616D01*
Y-75115D01*
X66639D01*
Y-62885D01*
X66616D01*
Y-61615D01*
X66639D01*
Y-53158D01*
X71041Y-47678D01*
X83139D01*
X83331Y-48140D01*
D02*
G37*
G36*
X57032Y-47520D02*
X60961D01*
X60980Y-47576D01*
X61071Y-48033D01*
X59321Y-49385D01*
X58739D01*
Y-61615D01*
X58784D01*
Y-62885D01*
X58739D01*
Y-75115D01*
X58784D01*
Y-76385D01*
X58739D01*
Y-87523D01*
X58684Y-87800D01*
X58684Y-87800D01*
Y-90979D01*
X58680Y-91000D01*
X58684Y-91021D01*
Y-92500D01*
X47178D01*
Y-89582D01*
X46580D01*
Y-88520D01*
X46681Y-88369D01*
X46819Y-87673D01*
Y-83342D01*
X46681Y-82646D01*
X46286Y-82056D01*
X45696Y-81662D01*
X45000Y-81523D01*
X44304Y-81662D01*
X43714Y-82056D01*
X43319Y-82646D01*
X43181Y-83342D01*
Y-87673D01*
X43319Y-88369D01*
X43420Y-88520D01*
Y-89582D01*
X42796D01*
X42413Y-89083D01*
X42415Y-89080D01*
X42117Y-88881D01*
X41917Y-88582D01*
D01*
X41917D01*
D01*
D01*
D01*
D01*
D01*
D01*
X41917Y-88582D01*
D01*
D01*
D01*
D01*
D01*
D01*
D01*
X41917Y-88582D01*
X41917D01*
D01*
D01*
D01*
D01*
D01*
D01*
D01*
D01*
D01*
D01*
D01*
X41917Y-88582D01*
D01*
D01*
D01*
X41917D01*
X41876Y-88542D01*
X41732Y-88194D01*
X41782Y-88076D01*
X41741Y-88066D01*
X41819Y-87673D01*
Y-83342D01*
X41681Y-82646D01*
X41286Y-82056D01*
X40696Y-81662D01*
X40000Y-81523D01*
X39304Y-81662D01*
X38714Y-82056D01*
X38319Y-82646D01*
X38181Y-83342D01*
Y-87673D01*
X38319Y-88369D01*
X38420Y-88520D01*
Y-88900D01*
X38540Y-89505D01*
X38622Y-89628D01*
Y-92500D01*
X37700D01*
Y-93231D01*
X37515D01*
Y-93231D01*
X25679D01*
Y-93655D01*
X25301D01*
X24403Y-93834D01*
X23643Y-94342D01*
X23508Y-94476D01*
X23508Y-94476D01*
X23508Y-94476D01*
X23412Y-94572D01*
X22988Y-94856D01*
X12968D01*
X12551Y-94577D01*
X12462Y-94469D01*
X12516Y-94200D01*
Y-93021D01*
X12520Y-93000D01*
X12516Y-92979D01*
Y-91021D01*
X12520Y-91000D01*
X12516Y-90979D01*
Y-88600D01*
Y-88500D01*
X12516Y-88500D01*
X12454Y-88188D01*
X12277Y-87923D01*
X12277Y-87923D01*
X9639Y-85285D01*
Y-76385D01*
X9516D01*
Y-75115D01*
X9639D01*
Y-62885D01*
X9516D01*
Y-61615D01*
X9639D01*
Y-49385D01*
X9516D01*
Y-48798D01*
X9537Y-48772D01*
X10870Y-47678D01*
X21423D01*
X21777Y-48031D01*
Y-48493D01*
X21752D01*
X21777Y-48678D01*
Y-49799D01*
X21870Y-50267D01*
X22135Y-50664D01*
X22317Y-50847D01*
X22501Y-51290D01*
Y-54050D01*
X26901D01*
Y-48950D01*
X25749D01*
X25397Y-48521D01*
X25195Y-48145D01*
X25452Y-47716D01*
X40584D01*
Y-48701D01*
X40122Y-48892D01*
X39865Y-48635D01*
X39468Y-48370D01*
X39000Y-48276D01*
X33000D01*
X32532Y-48370D01*
X32135Y-48635D01*
X32135Y-48635D01*
X32131Y-48631D01*
X31785Y-48861D01*
X31378Y-48942D01*
X31258Y-48918D01*
X31254Y-48950D01*
X31200D01*
X31115Y-48933D01*
X31030Y-48950D01*
X28800D01*
Y-54050D01*
X33154D01*
X33431Y-54466D01*
X33326Y-54719D01*
X33319Y-54776D01*
X33304Y-54798D01*
X33165Y-55500D01*
Y-55946D01*
X33158Y-56000D01*
X33165D01*
Y-57082D01*
X32778Y-57399D01*
X32734Y-57391D01*
X29965D01*
Y-56851D01*
X24035D01*
Y-61601D01*
X29965D01*
Y-61061D01*
X31974D01*
X33181Y-62268D01*
Y-63657D01*
X33319Y-64354D01*
X33714Y-64944D01*
X34304Y-65338D01*
X35000Y-65477D01*
X35696Y-65338D01*
X36286Y-64944D01*
X36681Y-64354D01*
X36819Y-63657D01*
Y-61573D01*
X36835Y-61492D01*
Y-60679D01*
X36938Y-59636D01*
X37286Y-58489D01*
X37851Y-57432D01*
X37911Y-57359D01*
X38776D01*
Y-57916D01*
X38763D01*
X38712Y-58039D01*
X38714Y-58040D01*
X38319Y-58631D01*
X38181Y-59327D01*
Y-63657D01*
X38319Y-64354D01*
X38714Y-64944D01*
X39304Y-65338D01*
X40000Y-65477D01*
X40696Y-65338D01*
X41286Y-64944D01*
X41681Y-64354D01*
X41819Y-63657D01*
Y-59327D01*
X41681Y-58631D01*
X41286Y-58040D01*
X41288Y-58039D01*
X41262Y-57978D01*
X41237Y-57916D01*
X41237Y-57916D01*
X41223Y-57903D01*
Y-57359D01*
X42088D01*
X42148Y-57432D01*
X42714Y-58490D01*
X43062Y-59638D01*
X43165Y-60683D01*
Y-61492D01*
X43181Y-61573D01*
Y-63657D01*
X43319Y-64354D01*
X43714Y-64944D01*
X44304Y-65338D01*
X45000Y-65477D01*
X45696Y-65338D01*
X46286Y-64944D01*
X46681Y-64354D01*
X46819Y-63657D01*
Y-61573D01*
X46835Y-61492D01*
Y-60832D01*
X46847D01*
X46835Y-60712D01*
Y-56004D01*
X46842D01*
X46835Y-55950D01*
Y-55502D01*
X46696Y-54799D01*
X46681Y-54777D01*
X46674Y-54722D01*
X46464Y-54215D01*
Y-50641D01*
X46416D01*
Y-47716D01*
X51900D01*
X52090Y-47678D01*
X52423D01*
X52776Y-48031D01*
Y-48977D01*
X52758D01*
X52776Y-49118D01*
Y-49799D01*
X52870Y-50267D01*
X53036Y-50517D01*
X53278Y-51100D01*
X53278Y-51100D01*
X53300Y-51212D01*
Y-54050D01*
X57700D01*
Y-48950D01*
X56552D01*
X56284Y-48623D01*
X55844Y-47799D01*
X55900Y-47516D01*
X57010D01*
X57032Y-47520D01*
D02*
G37*
G36*
X143120Y-55320D02*
X142929Y-55782D01*
X142922D01*
Y-55783D01*
X138180D01*
Y-59745D01*
X142930D01*
Y-59744D01*
X147000D01*
Y-69628D01*
X146559Y-69864D01*
X146268Y-69670D01*
X145800Y-69577D01*
X143078D01*
Y-68582D01*
X142136D01*
Y-67225D01*
X142930D01*
Y-63263D01*
X138180D01*
Y-67225D01*
X138975D01*
Y-68582D01*
X138722D01*
Y-68622D01*
X130978D01*
Y-68619D01*
X130718D01*
Y-67225D01*
X131513D01*
Y-63263D01*
X126763D01*
D01*
X126763D01*
X126500Y-63000D01*
Y-59745D01*
X126763D01*
Y-59745D01*
X131513D01*
Y-59289D01*
X131841Y-59224D01*
X132354Y-58881D01*
X133481Y-57754D01*
X133823Y-57242D01*
X133943Y-56637D01*
Y-54478D01*
X134344D01*
Y-50400D01*
X138200D01*
X143120Y-55320D01*
D02*
G37*
G36*
X146285Y-73015D02*
X143000Y-76300D01*
X126500D01*
Y-72581D01*
X126622D01*
Y-72581D01*
X130882D01*
Y-72978D01*
X138781D01*
Y-72544D01*
X143078D01*
Y-72023D01*
X145293D01*
X146285Y-73015D01*
D02*
G37*
%LPC*%
G36*
X151800Y-159123D02*
X151104Y-159262D01*
X150514Y-159656D01*
X150119Y-160246D01*
X149981Y-160942D01*
Y-165273D01*
X150119Y-165969D01*
X150514Y-166560D01*
X151104Y-166954D01*
X151800Y-167092D01*
X152496Y-166954D01*
X153086Y-166560D01*
X153481Y-165969D01*
X153619Y-165273D01*
Y-160942D01*
X153481Y-160246D01*
X153086Y-159656D01*
X152496Y-159262D01*
X151800Y-159123D01*
D02*
G37*
G36*
Y-131480D02*
X151027Y-131634D01*
X150372Y-132072D01*
X149934Y-132727D01*
X149780Y-133500D01*
X149934Y-134273D01*
X150016Y-134396D01*
X150016Y-135143D01*
X150016D01*
Y-143042D01*
X153584D01*
Y-135143D01*
X153584D01*
X153584Y-134396D01*
X153666Y-134273D01*
X153820Y-133500D01*
X153666Y-132727D01*
X153228Y-132072D01*
X152573Y-131634D01*
X151800Y-131480D01*
D02*
G37*
G36*
X104430Y-141263D02*
X99680D01*
Y-145225D01*
X104430D01*
Y-141263D01*
D02*
G37*
G36*
X91590Y-149589D02*
X90409D01*
X89378Y-149724D01*
X88418Y-150122D01*
X87593Y-150756D01*
X86959Y-151581D01*
X86562Y-152541D01*
X86426Y-153572D01*
X86562Y-154604D01*
X86959Y-155564D01*
X87593Y-156389D01*
X88418Y-157022D01*
X89378Y-157420D01*
X90409Y-157556D01*
X91590D01*
X92622Y-157420D01*
X93582Y-157022D01*
X94407Y-156389D01*
X95041Y-155564D01*
X95438Y-154604D01*
X95574Y-153572D01*
X95438Y-152541D01*
X95041Y-151581D01*
X94407Y-150756D01*
X93582Y-150122D01*
X92622Y-149724D01*
X91590Y-149589D01*
D02*
G37*
G36*
X136800Y-159123D02*
X136104Y-159262D01*
X135514Y-159656D01*
X135119Y-160246D01*
X134981Y-160942D01*
Y-165273D01*
X135119Y-165969D01*
X135514Y-166560D01*
X135514Y-166560D01*
X135514Y-166560D01*
X135518Y-166563D01*
X135485Y-167062D01*
X135172Y-167272D01*
X134734Y-167927D01*
X134580Y-168700D01*
X134734Y-169473D01*
X134734D01*
X134422Y-169482D01*
X134428Y-169482D01*
X134422Y-169482D01*
X134422D01*
Y-173444D01*
Y-177381D01*
X135020D01*
Y-178211D01*
X134028D01*
Y-185716D01*
X139172D01*
Y-178211D01*
X138180D01*
Y-177381D01*
X138778D01*
Y-173444D01*
Y-169482D01*
X138778D01*
X138466Y-169473D01*
X138466D01*
X138620Y-168700D01*
X138466Y-167927D01*
X138028Y-167272D01*
X137899Y-167185D01*
X137899Y-166685D01*
X138086Y-166560D01*
X138481Y-165969D01*
X138619Y-165273D01*
Y-160942D01*
X138481Y-160246D01*
X138086Y-159656D01*
X137496Y-159262D01*
X136800Y-159123D01*
D02*
G37*
G36*
X91590Y-161400D02*
X90409D01*
X89378Y-161536D01*
X88418Y-161934D01*
X87593Y-162567D01*
X86959Y-163392D01*
X86562Y-164352D01*
X86426Y-165384D01*
X86562Y-166414D01*
X86959Y-167375D01*
X87593Y-168200D01*
X88418Y-168833D01*
X89378Y-169231D01*
X90409Y-169367D01*
X91590D01*
X92622Y-169231D01*
X93582Y-168833D01*
X94407Y-168200D01*
X95041Y-167375D01*
X95438Y-166414D01*
X95574Y-165384D01*
X95438Y-164352D01*
X95041Y-163392D01*
X94407Y-162567D01*
X93582Y-161934D01*
X92622Y-161536D01*
X91590Y-161400D01*
D02*
G37*
G36*
X118900Y-176955D02*
X117701Y-177074D01*
X116549Y-177423D01*
X115486Y-177991D01*
X114555Y-178755D01*
X113791Y-179686D01*
X113223Y-180749D01*
X112873Y-181901D01*
X112755Y-183100D01*
X112873Y-184299D01*
X113223Y-185451D01*
X113791Y-186514D01*
X114555Y-187445D01*
X115486Y-188209D01*
X116549Y-188777D01*
X117701Y-189127D01*
X118900Y-189245D01*
X120099Y-189127D01*
X121251Y-188777D01*
X122314Y-188209D01*
X123245Y-187445D01*
X124009Y-186514D01*
X124577Y-185451D01*
X124926Y-184299D01*
X125045Y-183100D01*
X124926Y-181901D01*
X124577Y-180749D01*
X124009Y-179686D01*
X123245Y-178755D01*
X122314Y-177991D01*
X121251Y-177423D01*
X120099Y-177074D01*
X118900Y-176955D01*
D02*
G37*
G36*
X119491Y-149589D02*
X118309D01*
X117278Y-149724D01*
X116318Y-150122D01*
X115493Y-150756D01*
X114859Y-151581D01*
X114462Y-152541D01*
X114326Y-153572D01*
X114462Y-154604D01*
X114859Y-155564D01*
X115493Y-156389D01*
X116318Y-157022D01*
X117278Y-157420D01*
X118309Y-157556D01*
X119491D01*
X120522Y-157420D01*
X121482Y-157022D01*
X122307Y-156389D01*
X122365Y-156314D01*
X123273Y-155618D01*
X124417Y-155144D01*
X125509Y-155000D01*
X125553D01*
X125646Y-155009D01*
Y-155000D01*
X126647D01*
X126793Y-155478D01*
X126774Y-155491D01*
X126774Y-155491D01*
X123251Y-159013D01*
X123251Y-159014D01*
X123240Y-159002D01*
X123136Y-159129D01*
X121826Y-160439D01*
X121826Y-160439D01*
X121826Y-160439D01*
X121826Y-160439D01*
X121795Y-160470D01*
X121144Y-160969D01*
X120347Y-161300D01*
X119538Y-161406D01*
X119491Y-161400D01*
X118309D01*
X117278Y-161536D01*
X116318Y-161934D01*
X115493Y-162567D01*
X114859Y-163392D01*
X114462Y-164352D01*
X114326Y-165384D01*
X114462Y-166414D01*
X114859Y-167375D01*
X115493Y-168200D01*
X116318Y-168833D01*
X117278Y-169231D01*
X118309Y-169367D01*
X119491D01*
X120522Y-169231D01*
X121482Y-168833D01*
X122307Y-168200D01*
X122941Y-167375D01*
X123338Y-166414D01*
X123474Y-165384D01*
X123466Y-165324D01*
X123579Y-164182D01*
X123929Y-163026D01*
X124499Y-161961D01*
X125219Y-161083D01*
X125270Y-161032D01*
D01*
X125270D01*
Y-161032D01*
D01*
X128375Y-157927D01*
X138909D01*
X140373Y-159391D01*
Y-159867D01*
X140119Y-160246D01*
X139981Y-160942D01*
Y-165273D01*
X140119Y-165969D01*
X140514Y-166560D01*
X140662Y-166659D01*
X140998Y-167162D01*
X141032Y-167331D01*
X140634Y-167927D01*
X140480Y-168700D01*
X140634Y-169473D01*
X140634D01*
X140322Y-169482D01*
X140328Y-169482D01*
X140322Y-169482D01*
X140322D01*
Y-173444D01*
Y-177381D01*
X140920D01*
Y-178211D01*
X139934D01*
Y-185716D01*
X145077D01*
Y-178211D01*
X144080D01*
Y-177381D01*
X144678D01*
Y-173444D01*
Y-169482D01*
X144678D01*
X144366Y-169473D01*
X144366D01*
X144520Y-168700D01*
X144366Y-167927D01*
X143928Y-167272D01*
X143273Y-166834D01*
X143135Y-166806D01*
X143086Y-166560D01*
X143481Y-165969D01*
X143619Y-165273D01*
Y-160942D01*
X143481Y-160246D01*
X143227Y-159867D01*
Y-158800D01*
X143227Y-158800D01*
X143134Y-158329D01*
X143575Y-158093D01*
X145363Y-159882D01*
X145119Y-160246D01*
X144981Y-160942D01*
Y-165273D01*
X145119Y-165969D01*
X145514Y-166560D01*
X146104Y-166954D01*
X146800Y-167092D01*
X147496Y-166954D01*
X148086Y-166560D01*
X148481Y-165969D01*
X148619Y-165273D01*
Y-160942D01*
X148481Y-160246D01*
X148227Y-159867D01*
Y-159300D01*
X148119Y-158754D01*
X147995Y-158568D01*
X147809Y-158291D01*
X147809Y-158291D01*
X142082Y-152563D01*
X141619Y-152254D01*
X141072Y-152145D01*
X141072Y-152145D01*
X125646D01*
Y-152136D01*
X125553Y-152145D01*
X125509D01*
X124417Y-152001D01*
X123273Y-151527D01*
X122365Y-150830D01*
X122307Y-150756D01*
X121482Y-150122D01*
X120522Y-149724D01*
X119491Y-149589D01*
D02*
G37*
G36*
X91000Y-176955D02*
X89801Y-177074D01*
X88649Y-177423D01*
X87586Y-177991D01*
X86655Y-178755D01*
X85891Y-179686D01*
X85323Y-180749D01*
X84974Y-181901D01*
X84855Y-183100D01*
X84974Y-184299D01*
X85323Y-185451D01*
X85891Y-186514D01*
X86655Y-187445D01*
X87586Y-188209D01*
X88649Y-188777D01*
X89801Y-189127D01*
X91000Y-189245D01*
X92199Y-189127D01*
X93351Y-188777D01*
X94414Y-188209D01*
X95345Y-187445D01*
X96109Y-186514D01*
X96677Y-185451D01*
X97026Y-184299D01*
X97145Y-183100D01*
X97026Y-181901D01*
X96677Y-180749D01*
X96109Y-179686D01*
X95345Y-178755D01*
X94414Y-177991D01*
X93351Y-177423D01*
X92199Y-177074D01*
X91000Y-176955D01*
D02*
G37*
G36*
X76500Y-132684D02*
X73500D01*
X73188Y-132746D01*
X72923Y-132923D01*
X72746Y-133188D01*
X72684Y-133500D01*
Y-138500D01*
X72746Y-138812D01*
X72923Y-139077D01*
X73188Y-139254D01*
X73500Y-139316D01*
X76500D01*
X76812Y-139254D01*
X77077Y-139077D01*
X77150Y-138967D01*
X88359D01*
Y-137854D01*
X90638D01*
X91186Y-137745D01*
X93013D01*
Y-137344D01*
X94109D01*
X94920Y-138155D01*
Y-140845D01*
X94101Y-141664D01*
X93013D01*
Y-141263D01*
X88263D01*
Y-145225D01*
X93013D01*
Y-144824D01*
X94756D01*
X95361Y-144704D01*
X95873Y-144361D01*
X97618Y-142617D01*
X97960Y-142105D01*
X98080Y-141500D01*
Y-137500D01*
X97960Y-136895D01*
X97618Y-136382D01*
X95881Y-134646D01*
X95369Y-134304D01*
X94764Y-134183D01*
X93013D01*
Y-133783D01*
X91186D01*
X90638Y-133674D01*
X88359D01*
Y-133036D01*
X77152D01*
X77077Y-132923D01*
X76812Y-132746D01*
X76500Y-132684D01*
D02*
G37*
G36*
X51401Y-48950D02*
X47001D01*
Y-54050D01*
X47941D01*
X47971Y-54201D01*
X47977D01*
Y-54201D01*
X48070Y-54669D01*
X48336Y-55066D01*
X48777Y-55507D01*
Y-57916D01*
X48763D01*
X48712Y-58039D01*
X48714Y-58040D01*
X48319Y-58631D01*
X48181Y-59327D01*
Y-63657D01*
X48319Y-64354D01*
X48714Y-64944D01*
X49304Y-65338D01*
X50000Y-65477D01*
X50696Y-65338D01*
X51286Y-64944D01*
X51681Y-64354D01*
X51819Y-63657D01*
Y-59327D01*
X51681Y-58631D01*
X51286Y-58040D01*
X51288Y-58039D01*
X51262Y-57978D01*
X51237Y-57916D01*
X51237Y-57916D01*
X51223Y-57903D01*
Y-55000D01*
X51130Y-54532D01*
X50865Y-54135D01*
X50900Y-54050D01*
X51401D01*
Y-48950D01*
D02*
G37*
G36*
X108401D02*
X104001D01*
Y-54050D01*
X104941D01*
X104971Y-54201D01*
X104977D01*
Y-54201D01*
X105070Y-54669D01*
X105336Y-55066D01*
X105777Y-55507D01*
Y-57916D01*
X105763D01*
X105712Y-58039D01*
X105714Y-58040D01*
X105319Y-58631D01*
X105181Y-59327D01*
Y-63657D01*
X105319Y-64354D01*
X105714Y-64944D01*
X106304Y-65338D01*
X107000Y-65477D01*
X107696Y-65338D01*
X108286Y-64944D01*
X108681Y-64354D01*
X108819Y-63657D01*
Y-59327D01*
X108681Y-58631D01*
X108286Y-58040D01*
X108288Y-58039D01*
X108262Y-57978D01*
X108237Y-57916D01*
X108237Y-57916D01*
X108223Y-57903D01*
Y-55000D01*
X108130Y-54532D01*
X107865Y-54135D01*
X107900Y-54050D01*
X108401D01*
Y-48950D01*
D02*
G37*
G36*
X84000Y-63991D02*
X83269Y-64087D01*
X82588Y-64369D01*
X82495Y-64440D01*
X81035D01*
Y-69190D01*
X81176D01*
Y-70444D01*
X79853D01*
Y-75503D01*
X79823Y-75523D01*
X79646Y-75788D01*
X79584Y-76100D01*
Y-77979D01*
X79580Y-78000D01*
X79584Y-78021D01*
Y-79200D01*
X79646Y-79512D01*
X79823Y-79777D01*
X80088Y-79954D01*
X80400Y-80016D01*
X81579D01*
X81600Y-80020D01*
X81621Y-80016D01*
X83979D01*
X84000Y-80020D01*
X84021Y-80016D01*
X86379D01*
X86400Y-80020D01*
X86421Y-80016D01*
X87600D01*
X87912Y-79954D01*
X88177Y-79777D01*
X88354Y-79512D01*
X88416Y-79200D01*
Y-78021D01*
X88420Y-78000D01*
X88416Y-77979D01*
Y-77164D01*
X88878Y-76973D01*
X90165Y-78260D01*
Y-85508D01*
X90216Y-85764D01*
Y-89457D01*
X93784D01*
Y-85764D01*
X93835Y-85508D01*
Y-77500D01*
X93696Y-76798D01*
X93298Y-76202D01*
X89798Y-72702D01*
X89202Y-72304D01*
X89086Y-72281D01*
X88500Y-72165D01*
X88500D01*
X88500Y-72154D01*
X88500D01*
Y-72154D01*
X88147Y-72111D01*
Y-70444D01*
X86824D01*
Y-69190D01*
X86965D01*
Y-64440D01*
X85505D01*
X85412Y-64369D01*
X84731Y-64087D01*
X84000Y-63991D01*
D02*
G37*
G36*
X27000D02*
X26269Y-64087D01*
X25588Y-64369D01*
X25495Y-64440D01*
X24035D01*
Y-69190D01*
X24176D01*
Y-70444D01*
X22854D01*
Y-75503D01*
X22823Y-75523D01*
X22646Y-75788D01*
X22584Y-76100D01*
Y-77979D01*
X22580Y-78000D01*
X22584Y-78021D01*
Y-79200D01*
X22646Y-79512D01*
X22823Y-79777D01*
X23088Y-79954D01*
X23400Y-80016D01*
X24579D01*
X24600Y-80020D01*
X24621Y-80016D01*
X26979D01*
X27000Y-80020D01*
X27021Y-80016D01*
X29379D01*
X29400Y-80020D01*
X29421Y-80016D01*
X30600D01*
X30912Y-79954D01*
X31177Y-79777D01*
X31354Y-79512D01*
X31416Y-79200D01*
Y-78734D01*
X31549Y-78294D01*
X32011Y-78103D01*
X32756Y-78501D01*
X33165Y-78836D01*
Y-85508D01*
X33216Y-85764D01*
Y-89457D01*
X36784D01*
Y-85764D01*
X36835Y-85508D01*
Y-78000D01*
X36696Y-77298D01*
X36564Y-77100D01*
X36298Y-76702D01*
Y-76702D01*
X36307Y-76693D01*
X36206Y-76610D01*
X32298Y-72702D01*
X31702Y-72304D01*
X31586Y-72281D01*
X31146Y-72194D01*
Y-70444D01*
X29824D01*
Y-69190D01*
X29965D01*
Y-64440D01*
X28505D01*
X28412Y-64369D01*
X27731Y-64087D01*
X27000Y-63991D01*
D02*
G37*
G36*
X131635Y-95691D02*
X125705D01*
Y-103197D01*
X131635D01*
Y-95691D01*
D02*
G37*
G36*
X141700Y-126580D02*
X140927Y-126734D01*
X140272Y-127172D01*
X139834Y-127827D01*
X139680Y-128600D01*
X139834Y-129373D01*
X140120Y-129801D01*
X139782Y-129822D01*
X139796Y-129821D01*
X139782Y-129822D01*
X139782D01*
Y-131778D01*
X139341Y-132013D01*
X138773Y-131634D01*
X138000Y-131480D01*
X137227Y-131634D01*
X136572Y-132072D01*
X136134Y-132727D01*
X135980Y-133500D01*
X135991Y-133556D01*
X135991Y-133556D01*
X135991Y-133557D01*
D01*
D01*
Y-133557D01*
X135991D01*
D01*
D01*
D01*
X135991Y-133557D01*
X135992Y-133558D01*
D01*
D01*
D01*
D01*
D01*
D01*
Y-133558D01*
X135992Y-133558D01*
X135994Y-133569D01*
X135898Y-133798D01*
X135899Y-133799D01*
X135899Y-133799D01*
X135899Y-133799D01*
X135623Y-134212D01*
X135526Y-134700D01*
Y-135606D01*
X135502Y-135629D01*
X135502Y-135629D01*
X135499Y-135637D01*
X135500D01*
X135502Y-135645D01*
X135502Y-135645D01*
X135502D01*
X135504Y-135655D01*
X135119Y-136231D01*
X134981Y-136927D01*
Y-141258D01*
X135119Y-141954D01*
X135514Y-142544D01*
X136104Y-142938D01*
X136800Y-143077D01*
X137496Y-142938D01*
X138086Y-142544D01*
X138481Y-141954D01*
X138619Y-141258D01*
Y-136927D01*
X138481Y-136231D01*
X138096Y-135655D01*
X138098Y-135645D01*
X138098D01*
X138098Y-135645D01*
X138100Y-135637D01*
X138101D01*
X138098Y-135629D01*
X138098Y-135629D01*
D01*
X138773Y-135366D01*
X138773D01*
D01*
D01*
X138773D01*
X139428Y-134928D01*
X139741Y-134460D01*
X140220Y-134605D01*
Y-136080D01*
X140119Y-136231D01*
X139981Y-136927D01*
Y-141258D01*
X140119Y-141954D01*
X140514Y-142544D01*
X141104Y-142938D01*
X141800Y-143077D01*
X142496Y-142938D01*
X143086Y-142544D01*
X143481Y-141954D01*
X143619Y-141258D01*
Y-136927D01*
X143481Y-136231D01*
X143380Y-136080D01*
Y-134178D01*
X143744D01*
Y-129822D01*
X143744D01*
X143280Y-129801D01*
Y-129801D01*
X143566Y-129373D01*
X143720Y-128600D01*
X143566Y-127827D01*
X143128Y-127172D01*
X142473Y-126734D01*
X141700Y-126580D01*
D02*
G37*
G36*
X109700Y-122650D02*
X105300D01*
Y-127750D01*
Y-132681D01*
X105300Y-132681D01*
X105300D01*
X105300Y-132850D01*
X105115Y-133035D01*
X104141D01*
Y-133419D01*
X102055D01*
X101158Y-133597D01*
X100880Y-133783D01*
X99680D01*
Y-137745D01*
X100880D01*
X101158Y-137930D01*
X102055Y-138109D01*
X104141D01*
Y-138965D01*
X117359D01*
Y-138401D01*
X117450D01*
Y-138401D01*
X119274D01*
X119999Y-138545D01*
X120684D01*
X121035Y-139071D01*
X121126Y-139132D01*
X121223Y-139277D01*
X121488Y-139454D01*
X121659Y-139488D01*
X121796Y-139579D01*
X122693Y-139758D01*
X123591Y-139579D01*
X123659Y-139533D01*
X123748Y-139516D01*
X124784D01*
X124915Y-139603D01*
X125812Y-139782D01*
X126710Y-139603D01*
X126901Y-139476D01*
X127012Y-139454D01*
X127277Y-139277D01*
X127340Y-139182D01*
X127471Y-139095D01*
X127979Y-138334D01*
X128158Y-137437D01*
X128067Y-136980D01*
X128076Y-136978D01*
X128044Y-136740D01*
X127832Y-136227D01*
X127847Y-136190D01*
X127892Y-136123D01*
X127908Y-136043D01*
X128013Y-135789D01*
X128012Y-135788D01*
X128149Y-135096D01*
X127971Y-134198D01*
X127462Y-133437D01*
X127385Y-133386D01*
X127277Y-133223D01*
X127012Y-133046D01*
X126821Y-133008D01*
X126702Y-132929D01*
X125804Y-132750D01*
X124907Y-132929D01*
X124824Y-132984D01*
X123748D01*
X123609Y-132957D01*
X123601Y-132952D01*
X122704Y-132773D01*
X121806Y-132952D01*
X121739Y-132996D01*
X121488Y-133046D01*
X121223Y-133223D01*
X121081Y-133436D01*
X121046Y-133460D01*
X120801Y-133825D01*
X120460Y-133597D01*
X119563Y-133419D01*
X117359D01*
Y-133035D01*
X115999D01*
Y-132850D01*
X115999D01*
Y-127750D01*
X111599D01*
Y-132850D01*
D01*
Y-132850D01*
X111415Y-133035D01*
X109885D01*
X109700Y-132850D01*
X109700Y-132681D01*
X109700Y-132681D01*
X109700D01*
Y-127750D01*
Y-122650D01*
D02*
G37*
G36*
X180143Y-107965D02*
X179639Y-108065D01*
X179212Y-108351D01*
X178926Y-108779D01*
X178826Y-109283D01*
Y-114204D01*
X178920Y-114676D01*
Y-116722D01*
X178156D01*
Y-121078D01*
X178156Y-121078D01*
X178317Y-121402D01*
X178234Y-121527D01*
X178080Y-122300D01*
X178234Y-123073D01*
X178672Y-123728D01*
X179327Y-124166D01*
X180100Y-124320D01*
X180873Y-124166D01*
X181528Y-123728D01*
X181966Y-123073D01*
X182120Y-122300D01*
X181966Y-121527D01*
X181680Y-121099D01*
Y-121078D01*
X182118D01*
Y-116722D01*
X181367D01*
Y-114676D01*
X181461Y-114204D01*
Y-109283D01*
X181360Y-108779D01*
X181075Y-108351D01*
X180647Y-108065D01*
X180143Y-107965D01*
D02*
G37*
G36*
X145500Y-8456D02*
X144301Y-8574D01*
X143149Y-8923D01*
X142086Y-9491D01*
X141155Y-10255D01*
X140391Y-11186D01*
X139823Y-12249D01*
X139473Y-13401D01*
X139355Y-14600D01*
X139473Y-15799D01*
X139823Y-16951D01*
X140391Y-18014D01*
X141155Y-18945D01*
X142086Y-19709D01*
X143149Y-20277D01*
X144301Y-20627D01*
X145500Y-20745D01*
X146699Y-20627D01*
X147851Y-20277D01*
X148914Y-19709D01*
X149845Y-18945D01*
X150609Y-18014D01*
X151177Y-16951D01*
X151526Y-15799D01*
X151645Y-14600D01*
X151526Y-13401D01*
X151177Y-12249D01*
X150609Y-11186D01*
X149845Y-10255D01*
X148914Y-9491D01*
X147851Y-8923D01*
X146699Y-8574D01*
X145500Y-8456D01*
D02*
G37*
%LPD*%
D10*
X172283Y-87317D02*
G03*
X171035Y-86800I-1248J-1248D01*
G01*
D02*
G03*
X172283Y-86283I0J1765D01*
G01*
X165769Y-84000D02*
G03*
X165252Y-82752I-1765J0D01*
G01*
X165252Y-82752D02*
G03*
X166500Y-83269I1248J1248D01*
G01*
X152317Y-134017D02*
G03*
X151800Y-135265I1248J-1248D01*
G01*
D02*
G03*
X151283Y-134017I-1765J0D01*
G01*
X137979Y-134231D02*
G03*
X136800Y-134700I-45J-1603D01*
G01*
D02*
G03*
X137269Y-133521I-1134J1134D01*
G01*
X151422Y-136549D02*
G03*
X151800Y-135637I-912J912D01*
G01*
D02*
G03*
X152178Y-136549I1290J0D01*
G01*
X136422D02*
G03*
X136800Y-135637I-912J912D01*
G01*
D02*
G03*
X137178Y-136549I1290J0D01*
G01*
X171862Y-52167D02*
G03*
X173670Y-52405I1191J2063D01*
G01*
X172827Y-52631D02*
G03*
X172130Y-53166I297J-1108D01*
G01*
X172014Y-52283D02*
G03*
X173262Y-52800I1248J1248D01*
G01*
D02*
G03*
X172014Y-53317I0J-1765D01*
G01*
X170586D02*
G03*
X169338Y-52800I-1248J-1248D01*
G01*
D02*
G03*
X170586Y-52283I0J1765D01*
G01*
X172130Y-56435D02*
G03*
X172835Y-56975I1005J580D01*
G01*
X173660Y-57196D02*
G03*
X171862Y-57433I-613J-2289D01*
G01*
X172014Y-56283D02*
G03*
X173262Y-56800I1248J1248D01*
G01*
D02*
G03*
X172014Y-57317I0J-1765D01*
G01*
X160954Y-64683D02*
G03*
X162202Y-65200I1248J1248D01*
G01*
D02*
G03*
X160954Y-65717I0J-1765D01*
G01*
X76483Y-110483D02*
G03*
X77000Y-109235I-1248J1248D01*
G01*
D02*
G03*
X77517Y-110483I1765J0D01*
G01*
X178780Y-148468D02*
G03*
X180700Y-149264I1920J1920D01*
G01*
D02*
G03*
X178780Y-150059I0J-2716D01*
G01*
X175857Y-57423D02*
G03*
X174353Y-56800I-1503J-1503D01*
G01*
X175220Y-58059D02*
G03*
X172181Y-56800I-3040J-3040D01*
G01*
X174420D02*
G03*
X175220Y-56468I0J1132D01*
G01*
X177795Y-58059D02*
G03*
X177000Y-59979I1920J-1920D01*
G01*
D02*
G03*
X176205Y-58059I-2716J0D01*
G01*
X175220Y-53138D02*
G03*
X174405Y-52800I-816J-816D01*
G01*
X174369D02*
G03*
X175857Y-52184I0J2105D01*
G01*
X172196Y-52800D02*
G03*
X175220Y-51547I0J4277D01*
G01*
X77662Y-107481D02*
G03*
X77000Y-109047I1522J-1567D01*
G01*
D02*
G03*
X76338Y-107481I-2185J0D01*
G01*
X177200Y-67200D02*
X180143Y-70143D01*
X172700Y-67200D02*
X177200D01*
X167500Y-62000D02*
X172700Y-67200D01*
X77000Y-109047D02*
Y-106799D01*
Y-110000D02*
Y-109047D01*
Y-111000D02*
Y-110000D01*
X167500Y-62000D02*
Y-54100D01*
X182000Y-85700D02*
Y-69000D01*
X177000Y-64000D02*
X182000Y-69000D01*
X177000Y-64000D02*
Y-57264D01*
X180143Y-76310D02*
Y-70143D01*
X178750Y-126750D02*
X183500Y-131500D01*
Y-147000D02*
Y-131500D01*
X181236Y-149264D02*
X183500Y-147000D01*
X177000Y-149264D02*
X181236D01*
X167250Y-126750D02*
X178750D01*
X158490Y-117990D02*
X167250Y-126750D01*
X158490Y-117990D02*
Y-111743D01*
X165800Y-86800D02*
X172800D01*
X171300Y-52800D02*
X176542D01*
X171300Y-56800D02*
X176536D01*
X168800Y-52800D02*
X171300D01*
X183437Y-87137D02*
X187033D01*
X182000Y-85700D02*
X183437Y-87137D01*
X167500Y-54100D02*
X168800Y-52800D01*
X160437Y-65200D02*
X162500D01*
X166364Y-69064D01*
Y-76310D02*
Y-69064D01*
X129138Y-70262D02*
X129676Y-70800D01*
X136800Y-139092D02*
Y-134700D01*
X138000Y-133500D01*
X151800Y-139092D02*
Y-133500D01*
X162427Y-83427D02*
Y-76310D01*
Y-83427D02*
X165800Y-86800D01*
X164395Y-81895D02*
Y-76310D01*
Y-81895D02*
X166500Y-84000D01*
D11*
X173052Y-96948D02*
G03*
X174386Y-97500I1333J1333D01*
G01*
D02*
G03*
X173052Y-98052I0J-1886D01*
G01*
X166552Y-99448D02*
G03*
X167886Y-100000I1333J1333D01*
G01*
D02*
G03*
X166552Y-100552I0J-1886D01*
G01*
X170052Y-91948D02*
G03*
X171386Y-92500I1333J1333D01*
G01*
D02*
G03*
X170052Y-93052I0J-1886D01*
G01*
X163552Y-94448D02*
G03*
X164886Y-95000I1333J1333D01*
G01*
D02*
G03*
X163552Y-95552I0J-1886D01*
G01*
X94013Y-98987D02*
G03*
X92839Y-98500I-1175J-1175D01*
G01*
X93448Y-99552D02*
G03*
X90907Y-98500I-2541J-2541D01*
G01*
X156648Y-95552D02*
G03*
X155341Y-95011I-1307J-1307D01*
G01*
X155288D02*
G03*
X156648Y-94448I0J1923D01*
G01*
X116281Y-95500D02*
G03*
X116833Y-96833I1886J0D01*
G01*
D02*
G03*
X115500Y-96281I-1333J-1333D01*
G01*
X175669Y-86850D02*
G03*
X175117Y-85517I-1886J0D01*
G01*
D02*
G03*
X176450Y-86069I1333J1333D01*
G01*
X178719Y-81697D02*
G03*
X178175Y-80375I-1858J8D01*
G01*
D02*
G03*
X179497Y-80919I1314J1314D01*
G01*
X176219Y-83688D02*
G03*
X175675Y-82375I-1856J0D01*
G01*
X175646Y-82346D02*
G03*
X177000Y-82907I1354J1354D01*
G01*
X139193Y-79491D02*
G03*
X140300Y-80000I1107J950D01*
G01*
D02*
G03*
X139193Y-80509I0J-1459D01*
G01*
X147120Y-106884D02*
G03*
X147600Y-105900I-768J984D01*
G01*
D02*
G03*
X148080Y-106884I1248J0D01*
G01*
X153412Y-42787D02*
G03*
X156841Y-44263I3429J3246D01*
G01*
X153993Y-42237D02*
G03*
X158700Y-44263I4707J4456D01*
G01*
X156376D02*
G03*
X153375Y-45506I0J-4244D01*
G01*
X158307Y-44263D02*
G03*
X153940Y-46072I0J-6176D01*
G01*
X153674Y-31324D02*
G03*
X155414Y-32316I1740J1029D01*
G01*
X154363Y-30917D02*
G03*
X156816Y-32316I2454J1451D01*
G01*
X155414D02*
G03*
X153674Y-33309I0J-2021D01*
G01*
X156816Y-32316D02*
G03*
X154363Y-33716I0J-2850D01*
G01*
X141335Y-32316D02*
G03*
X142565Y-35287I4201J0D01*
G01*
X142135Y-32316D02*
G03*
X143931Y-36653I6132J0D01*
G01*
X142935Y-32316D02*
G03*
X145297Y-38019I8064J0D01*
G01*
X142505Y-35227D02*
G03*
X140185Y-34266I-2320J-2320D01*
G01*
X143871Y-36593D02*
G03*
X140185Y-35066I-3686J-3686D01*
G01*
X145945Y-101971D02*
G03*
X143892Y-101445I-1471J-1471D01*
G01*
X146900Y-102926D02*
G03*
X144116Y-102213I-1994J-1994D01*
G01*
X143897Y-101482D02*
G03*
X146494Y-100406I0J3673D01*
G01*
X143897Y-100682D02*
G03*
X147860Y-99041I0J5604D01*
G01*
X176200Y-117922D02*
G03*
X177083Y-117556I0J1249D01*
G01*
X177720Y-116920D02*
G03*
X176981Y-118703I1784J-1784D01*
G01*
X179585Y-118151D02*
G03*
X180143Y-116802I-1348J1348D01*
G01*
Y-116832D02*
G03*
X180689Y-118151I1864J0D01*
G01*
X193151Y-83715D02*
G03*
X191907Y-83200I-1244J-1244D01*
G01*
X191728D02*
G03*
X193151Y-82611I0J2012D01*
G01*
X156818Y-70210D02*
G03*
X156500Y-70700I218J-490D01*
G01*
X155948Y-68551D02*
G03*
X156500Y-67217I-1333J1333D01*
G01*
D02*
G03*
X157052Y-68551I1886J0D01*
G01*
X143884Y-82613D02*
G03*
X145300Y-83200I1416J1416D01*
G01*
X144449Y-82048D02*
G03*
X147231Y-83200I2782J2782D01*
G01*
X141140Y-80840D02*
G03*
X143503Y-81819I2363J2363D01*
G01*
X171585Y-118151D02*
G03*
X172269Y-116498I-1653J1653D01*
G01*
Y-117137D02*
G03*
X172689Y-118151I1434J0D01*
G01*
X157052Y-65949D02*
G03*
X156500Y-67283I1333J-1333D01*
G01*
D02*
G03*
X155948Y-65949I-1886J0D01*
G01*
X142951Y-113552D02*
G03*
X141617Y-113000I-1333J-1333D01*
G01*
D02*
G03*
X142951Y-112448I0J1886D01*
G01*
Y-90752D02*
G03*
X141617Y-90200I-1333J-1333D01*
G01*
D02*
G03*
X142951Y-89648I0J1886D01*
G01*
X144489Y-89690D02*
G03*
X145600Y-90200I1111J957D01*
G01*
D02*
G03*
X144489Y-90710I0J-1466D01*
G01*
X142951Y-94415D02*
G03*
X141617Y-93863I-1333J-1333D01*
G01*
D02*
G03*
X142951Y-93311I0J1886D01*
G01*
X144489Y-93353D02*
G03*
X145600Y-93863I1111J957D01*
G01*
D02*
G03*
X144489Y-94373I0J-1466D01*
G01*
X157951Y-44815D02*
G03*
X156617Y-44263I-1333J-1333D01*
G01*
D02*
G03*
X157951Y-43711I0J1886D01*
G01*
X178987Y-138809D02*
G03*
X180079Y-139421I1092J667D01*
G01*
D02*
G03*
X178987Y-140034I0J-1280D01*
G01*
X166601Y-43662D02*
G03*
X167100Y-42600I-881J1062D01*
G01*
D02*
G03*
X167599Y-43662I1379J0D01*
G01*
X167652Y-48752D02*
G03*
X167100Y-50086I1333J-1333D01*
G01*
D02*
G03*
X166548Y-48752I-1886J0D01*
G01*
X162348Y-43711D02*
G03*
X162900Y-42377I-1333J1333D01*
G01*
D02*
G03*
X163452Y-43711I1886J0D01*
G01*
Y-48752D02*
G03*
X162900Y-50086I1333J-1333D01*
G01*
D02*
G03*
X162348Y-48752I-1886J0D01*
G01*
X20943Y-104207D02*
G03*
X19236Y-103500I-1707J-1707D01*
G01*
D02*
G03*
X20943Y-102793I0J2414D01*
G01*
X15843Y-104207D02*
G03*
X14136Y-103500I-1707J-1707D01*
G01*
D02*
G03*
X15843Y-102793I0J2414D01*
G01*
X17957D02*
G03*
X19664Y-103500I1707J1707D01*
G01*
D02*
G03*
X17957Y-104207I0J-2414D01*
G01*
X12857Y-102793D02*
G03*
X14564Y-103500I1707J1707D01*
G01*
D02*
G03*
X12857Y-104207I0J-2414D01*
G01*
X10743D02*
G03*
X9036Y-103500I-1707J-1707D01*
G01*
D02*
G03*
X10743Y-102793I0J2414D01*
G01*
X7757D02*
G03*
X9464Y-103500I1707J1707D01*
G01*
D02*
G03*
X7757Y-104207I0J-2414D01*
G01*
X90852Y-97851D02*
G03*
X92420Y-98500I1567J1567D01*
G01*
X91952D02*
G03*
X90852Y-98956I0J-1555D01*
G01*
X134098Y-110209D02*
G03*
X132093Y-109378I-2005J-2005D01*
G01*
D02*
G03*
X134098Y-108547I0J2836D01*
G01*
X137679Y-109378D02*
G03*
X138245Y-110745I1933J0D01*
G01*
X139148Y-111648D02*
G03*
X136504Y-110553I-2644J-2644D01*
G01*
X119618Y-108547D02*
G03*
X121624Y-109378I2005J2005D01*
G01*
D02*
G03*
X119618Y-110209I0J-2836D01*
G01*
X117169Y-108547D02*
G03*
X118000Y-106542I-2005J2005D01*
G01*
D02*
G03*
X118831Y-108547I2836J0D01*
G01*
X129635Y-86058D02*
G03*
X130397Y-87897I2600J0D01*
G01*
X130435Y-86058D02*
G03*
X131763Y-89263I4532J0D01*
G01*
X131493Y-88993D02*
G03*
X128670Y-87824I-2823J-2823D01*
G01*
X136630Y-97037D02*
G03*
X137331Y-95969I-463J1068D01*
G01*
D02*
G03*
X138033Y-97037I1164J0D01*
G01*
X118350Y-30881D02*
G03*
X117700Y-30500I-650J-363D01*
G01*
D02*
G03*
X118350Y-30119I0J744D01*
G01*
X119035Y-30481D02*
G03*
X117099Y-31101I-366J-2190D01*
G01*
X118903Y-31270D02*
G03*
X116000Y-32200I-549J-3283D01*
G01*
X87325Y-30833D02*
G03*
X86800Y-30500I-525J-247D01*
G01*
D02*
G03*
X87325Y-30167I0J580D01*
G01*
X88034Y-30481D02*
G03*
X86170Y-31130I-261J-2252D01*
G01*
X87942Y-31276D02*
G03*
X85000Y-32300I-412J-3554D01*
G01*
X10907Y-38459D02*
G03*
X5689Y-45472I2104J-7013D01*
G01*
X11137Y-39225D02*
G03*
X5689Y-46547I2197J-7322D01*
G01*
X11367Y-39991D02*
G03*
X5689Y-47623I2289J-7631D01*
G01*
X11597Y-40757D02*
G03*
X5689Y-48698I2382J-7940D01*
G01*
X11827Y-41524D02*
G03*
X5689Y-49773I2475J-8249D01*
G01*
X12057Y-42290D02*
G03*
X5689Y-50848I2567J-8558D01*
G01*
X12286Y-43056D02*
G03*
X5689Y-51923I2660J-8867D01*
G01*
X12516Y-43823D02*
G03*
X5689Y-52999I2753J-9176D01*
G01*
X12746Y-44589D02*
G03*
X5689Y-54074I2846J-9485D01*
G01*
X12976Y-45355D02*
G03*
X5689Y-55149I2938J-9794D01*
G01*
Y-46160D02*
G03*
X4795Y-44001I-3053J0D01*
G01*
X11415Y-39976D02*
G03*
X5756Y-46357I2619J-8022D01*
G01*
X11663Y-40737D02*
G03*
X5491Y-47697I2857J-8750D01*
G01*
X11911Y-41497D02*
G03*
X5225Y-49037I3095J-9479D01*
G01*
X5491Y-47693D02*
G03*
X4411Y-42279I-7076J1403D01*
G01*
X5116Y-49587D02*
G03*
X3746Y-42724I-8970J1778D01*
G01*
X25375Y-30923D02*
G03*
X24600Y-30500I-775J-498D01*
G01*
D02*
G03*
X25375Y-30077I0J921D01*
G01*
X26036Y-30481D02*
G03*
X24033Y-31067I-467J-2121D01*
G01*
X25864Y-31263D02*
G03*
X23000Y-32100I-667J-3033D01*
G01*
X96587Y-58914D02*
G03*
X97000Y-57916I-997J997D01*
G01*
D02*
G03*
X97413Y-58914I1410J0D01*
G01*
X106587D02*
G03*
X107000Y-57916I-997J997D01*
G01*
D02*
G03*
X107413Y-58914I1410J0D01*
G01*
X39587D02*
G03*
X40000Y-57916I-997J997D01*
G01*
D02*
G03*
X40413Y-58914I1410J0D01*
G01*
X49587D02*
G03*
X50000Y-57916I-997J997D01*
G01*
D02*
G03*
X50413Y-58914I1410J0D01*
G01*
X112500Y-50150D02*
G03*
X114805Y-49195I0J3259D01*
G01*
X113960Y-50040D02*
G03*
X113500Y-51150I1110J-1110D01*
G01*
X106894Y-52570D02*
G03*
X106201Y-54201I1569J-1630D01*
G01*
D02*
G03*
X105507Y-52570I-2263J0D01*
G01*
X88115Y-50157D02*
G03*
X90000Y-49500I263J2278D01*
G01*
X89460Y-50040D02*
G03*
X89000Y-51150I1110J-1110D01*
G01*
X81701Y-50150D02*
G03*
X84005Y-49195I0J3259D01*
G01*
X83160Y-50040D02*
G03*
X82701Y-51150I1110J-1110D01*
G01*
X54501Y-51100D02*
G03*
X54000Y-49799I-1716J86D01*
G01*
X54000Y-49799D02*
G03*
X55284Y-50174I983J983D01*
G01*
X54000Y-48977D02*
G03*
X55076Y-51574I3673J0D01*
G01*
X54000Y-47046D02*
G03*
X55641Y-51009I5604J0D01*
G01*
X54000Y-45114D02*
G03*
X56207Y-50443I7536J0D01*
G01*
X49894Y-52570D02*
G03*
X49201Y-54201I1569J-1630D01*
G01*
D02*
G03*
X48507Y-52570I-2263J0D01*
G01*
X31115Y-50157D02*
G03*
X33000Y-49500I263J2278D01*
G01*
X32460Y-50040D02*
G03*
X32000Y-51150I1110J-1110D01*
G01*
X23000Y-48493D02*
G03*
X24276Y-51574I4358J0D01*
G01*
X23000Y-46561D02*
G03*
X24842Y-51009I6290J0D01*
G01*
X23000Y-44630D02*
G03*
X25408Y-50443I8221J0D01*
G01*
X23701Y-51150D02*
G03*
X23241Y-50040I-1569J0D01*
G01*
X23000Y-49799D02*
G03*
X24441Y-50184I1053J1053D01*
G01*
X61310Y-65456D02*
G03*
X62689Y-62128I-3328J3328D01*
G01*
X60745Y-64890D02*
G03*
X62689Y-60197I-4694J4694D01*
G01*
Y-62128D02*
G03*
X64068Y-65456I4707J0D01*
G01*
X62689Y-60197D02*
G03*
X64633Y-64890I6638J0D01*
G01*
X61596Y-64311D02*
G03*
X63111Y-62498I-1044J2410D01*
G01*
X62874Y-63510D02*
G03*
X63603Y-65113I1405J-328D01*
G01*
X63111Y-62498D02*
G03*
X63978Y-64406I1672J-390D01*
G01*
X61775Y-65113D02*
G03*
X62504Y-63510I-676J1274D01*
G01*
X61400Y-64406D02*
G03*
X62268Y-62498I-805J1517D01*
G01*
Y-62498D02*
G03*
X63782Y-64311I2558J597D01*
G01*
Y-73689D02*
G03*
X62268Y-75502I1044J-2410D01*
G01*
X62504Y-74490D02*
G03*
X61775Y-72887I-1405J328D01*
G01*
X62268Y-75502D02*
G03*
X61400Y-73594I-1672J390D01*
G01*
X63603Y-72887D02*
G03*
X62874Y-74490I676J-1274D01*
G01*
X63978Y-73594D02*
G03*
X63111Y-75502I805J-1517D01*
G01*
Y-75502D02*
G03*
X61596Y-73689I-2558J-597D01*
G01*
X64068Y-72544D02*
G03*
X62689Y-75872I3328J-3328D01*
G01*
X64633Y-73110D02*
G03*
X62689Y-77803I4694J-4694D01*
G01*
Y-75872D02*
G03*
X61310Y-72544I-4707J0D01*
G01*
X62689Y-77803D02*
G03*
X60745Y-73110I-6638J0D01*
G01*
X64068Y-59044D02*
G03*
X62689Y-62372I3328J-3328D01*
G01*
X64633Y-59610D02*
G03*
X62689Y-64303I4694J-4694D01*
G01*
Y-62372D02*
G03*
X61310Y-59044I-4707J0D01*
G01*
X62689Y-64303D02*
G03*
X60745Y-59610I-6638J0D01*
G01*
X6603Y-59387D02*
G03*
X5874Y-60990I676J-1274D01*
G01*
X6978Y-60094D02*
G03*
X6111Y-62002I805J-1517D01*
G01*
Y-62002D02*
G03*
X4596Y-60189I-2558J-597D01*
G01*
X7068Y-59044D02*
G03*
X5689Y-62372I3328J-3328D01*
G01*
X7633Y-59610D02*
G03*
X5689Y-64303I4694J-4694D01*
G01*
Y-62372D02*
G03*
X4310Y-59044I-4707J0D01*
G01*
X5689Y-64303D02*
G03*
X3745Y-59610I-6638J0D01*
G01*
X4310Y-51956D02*
G03*
X5689Y-48628I-3328J3328D01*
G01*
X3745Y-51390D02*
G03*
X5689Y-46696I-4694J4694D01*
G01*
Y-48628D02*
G03*
X7068Y-51956I4707J0D01*
G01*
X5689Y-46696D02*
G03*
X7633Y-51390I6638J0D01*
G01*
X6782Y-60189D02*
G03*
X5268Y-62002I1044J-2410D01*
G01*
X5504Y-60990D02*
G03*
X4775Y-59387I-1405J328D01*
G01*
X5268Y-62002D02*
G03*
X4400Y-60094I-1672J390D01*
G01*
X6603Y-72887D02*
G03*
X5874Y-74490I676J-1274D01*
G01*
X6978Y-73594D02*
G03*
X6111Y-75502I805J-1517D01*
G01*
Y-75502D02*
G03*
X4596Y-73689I-2558J-597D01*
G01*
X4310Y-65456D02*
G03*
X5689Y-62128I-3328J3328D01*
G01*
X3745Y-64890D02*
G03*
X5689Y-60197I-4694J4694D01*
G01*
Y-62128D02*
G03*
X7068Y-65456I4707J0D01*
G01*
X5689Y-60197D02*
G03*
X7633Y-64890I6638J0D01*
G01*
X6782Y-73689D02*
G03*
X5268Y-75502I1044J-2410D01*
G01*
X5504Y-74490D02*
G03*
X4775Y-72887I-1405J328D01*
G01*
X5268Y-75502D02*
G03*
X4400Y-73594I-1672J390D01*
G01*
X7068Y-72544D02*
G03*
X5689Y-75872I3328J-3328D01*
G01*
X7633Y-73110D02*
G03*
X5689Y-77803I4694J-4694D01*
G01*
Y-75872D02*
G03*
X4310Y-72544I-4707J0D01*
G01*
X5689Y-77803D02*
G03*
X3745Y-73110I-6638J0D01*
G01*
X18313Y-83852D02*
G03*
X21140Y-85024I2827J2827D01*
G01*
X18879Y-83287D02*
G03*
X23072Y-85024I4193J4193D01*
G01*
X19444Y-82721D02*
G03*
X25003Y-85024I5559J5559D01*
G01*
X21342D02*
G03*
X18879Y-86044I0J-3483D01*
G01*
X23273Y-85024D02*
G03*
X19444Y-86610I0J-5415D01*
G01*
X4310Y-78956D02*
G03*
X5689Y-75628I-3328J3328D01*
G01*
X3745Y-78390D02*
G03*
X5689Y-73697I-4694J4694D01*
G01*
Y-75628D02*
G03*
X7068Y-78956I4707J0D01*
G01*
X5689Y-73697D02*
G03*
X7633Y-78390I6638J0D01*
G01*
X75313Y-83852D02*
G03*
X78140Y-85024I2827J2827D01*
G01*
X75879Y-83287D02*
G03*
X80072Y-85024I4193J4193D01*
G01*
X76444Y-82721D02*
G03*
X82003Y-85024I5559J5559D01*
G01*
X78342D02*
G03*
X75879Y-86044I0J-3483D01*
G01*
X80273Y-85024D02*
G03*
X76444Y-86610I0J-5415D01*
G01*
X61310Y-78956D02*
G03*
X62689Y-75628I-3328J3328D01*
G01*
X60745Y-78390D02*
G03*
X62689Y-73697I-4694J4694D01*
G01*
Y-75628D02*
G03*
X64068Y-78956I4707J0D01*
G01*
X62689Y-73697D02*
G03*
X64633Y-78390I6638J0D01*
G01*
X25309Y-86124D02*
G03*
X22653Y-85024I-2656J-2656D01*
G01*
X24744Y-86690D02*
G03*
X20722Y-85024I-4022J-4022D01*
G01*
X22653D02*
G03*
X25309Y-83923I0J3756D01*
G01*
X20722Y-85024D02*
G03*
X24744Y-83358I0J5688D01*
G01*
X57034Y-30481D02*
G03*
X55170Y-31130I-261J-2252D01*
G01*
X56942Y-31276D02*
G03*
X54000Y-32300I-412J-3554D01*
G01*
X56325Y-30833D02*
G03*
X55800Y-30500I-525J-247D01*
G01*
D02*
G03*
X56325Y-30167I0J580D01*
G01*
X82309Y-86124D02*
G03*
X79653Y-85024I-2656J-2656D01*
G01*
X81744Y-86690D02*
G03*
X77722Y-85024I-4022J-4022D01*
G01*
X79653D02*
G03*
X82309Y-83923I0J3756D01*
G01*
X77722Y-85024D02*
G03*
X81744Y-83358I0J5688D01*
G01*
X155571Y-105571D02*
G03*
X154061Y-104946I-1511J-1511D01*
G01*
X141700Y-131999D02*
X141800Y-132099D01*
X160437Y-71163D02*
Y-69300D01*
X158490Y-73110D02*
X160437Y-71163D01*
X158490Y-76310D02*
Y-73110D01*
X160000Y-97200D02*
Y-85000D01*
X145800Y-70800D02*
X160000Y-85000D01*
X140663Y-70800D02*
X145800D01*
X151406Y-44128D02*
X151541Y-44263D01*
X158700D01*
X178000Y-128500D02*
X181750Y-132250D01*
Y-137750D02*
Y-132250D01*
X180079Y-139421D02*
X181750Y-137750D01*
X166500Y-128500D02*
X178000D01*
X156500Y-118500D02*
X166500Y-128500D01*
X156500Y-118500D02*
Y-106500D01*
X175200Y-81900D02*
X177000Y-83700D01*
X171700Y-81900D02*
X175200D01*
X170301Y-80501D02*
X171700Y-81900D01*
X147600Y-107500D02*
Y-105900D01*
X146900Y-105200D02*
X147600Y-105900D01*
X146900Y-105200D02*
Y-102926D01*
X143700Y-120637D02*
X143737Y-120600D01*
X145437Y-101463D02*
X146900Y-102926D01*
X142900Y-82600D02*
X143700D01*
X140300Y-80000D02*
X142900Y-82600D01*
X138600Y-80000D02*
X140300D01*
X180100Y-118937D02*
X180137Y-118900D01*
X177000Y-83700D02*
Y-83688D01*
X158200Y-175078D02*
X158222Y-175100D01*
X178175Y-80375D02*
X179500Y-81700D01*
X178175Y-80375D02*
Y-76310D01*
X156283Y-100917D02*
X160000Y-97200D01*
X151600Y-100917D02*
X156283D01*
X157189Y-95011D02*
X157200Y-95000D01*
X151600Y-95011D02*
X157189D01*
X170301Y-80501D02*
Y-76310D01*
X170500Y-84300D02*
X173900D01*
X168332Y-82132D02*
X170500Y-84300D01*
X168332Y-82132D02*
Y-76310D01*
X173900Y-84300D02*
X176450Y-86850D01*
X163000Y-95000D02*
X176000D01*
X177000Y-139421D02*
X180079D01*
X154853Y-104853D02*
X156500Y-106500D01*
X151600Y-104853D02*
X154853D01*
X135716Y-109378D02*
X136878D01*
X140500Y-113000D01*
X143700D01*
X118000Y-109378D02*
X135716D01*
X118000D02*
Y-98000D01*
X115500Y-95500D02*
X118000Y-98000D01*
X167100Y-44263D02*
Y-42600D01*
X156816Y-32316D02*
X167100Y-42600D01*
X151406Y-32316D02*
X156816D01*
X162900Y-44263D02*
Y-41900D01*
X159300Y-38300D02*
X162900Y-41900D01*
X145578Y-38300D02*
X159300D01*
X77024Y-85024D02*
X84000D01*
X74500Y-82500D02*
X77024Y-85024D01*
X20024D02*
X27000D01*
X17500Y-82500D02*
X20024Y-85024D01*
X62689Y-69000D02*
Y-55500D01*
Y-82500D02*
Y-69000D01*
X67689Y-43697D02*
X73366Y-38020D01*
X5689Y-55500D02*
Y-43697D01*
Y-69000D02*
Y-55500D01*
Y-82500D02*
Y-69000D01*
X35000Y-55500D02*
X36500Y-54000D01*
X106201Y-54201D02*
Y-51500D01*
Y-54201D02*
X107000Y-55000D01*
Y-61492D02*
Y-55000D01*
X49201Y-54201D02*
Y-51500D01*
Y-54201D02*
X50000Y-55000D01*
Y-61492D02*
Y-55000D01*
X97000Y-61492D02*
Y-50500D01*
X96000Y-49500D02*
X97000Y-50500D01*
X90000Y-49500D02*
X96000D01*
X88000Y-51500D02*
X90000Y-49500D01*
X31000Y-51500D02*
X33000Y-49500D01*
X39000D01*
X40000Y-50500D01*
Y-61492D02*
Y-50500D01*
X54000Y-49799D02*
X55701Y-51500D01*
X23000Y-49799D02*
X24701Y-51500D01*
X180143Y-118894D02*
Y-111743D01*
X180137Y-118900D02*
X180143Y-118894D01*
X172269Y-118768D02*
Y-111743D01*
X172137Y-118900D02*
X172269Y-118768D01*
X160437Y-69300D02*
X160458Y-69321D01*
X144300Y-83200D02*
X151600D01*
X143700Y-82600D02*
X144300Y-83200D01*
X132700Y-90200D02*
X143700D01*
X128670Y-86170D02*
X132700Y-90200D01*
X128670Y-86170D02*
Y-85271D01*
X139437Y-93863D02*
X143700D01*
X137331Y-95969D02*
X139437Y-93863D01*
X137331Y-99444D02*
Y-95969D01*
X146421Y-93042D02*
X151600D01*
X145600Y-93863D02*
X146421Y-93042D01*
X143700Y-93863D02*
X145600D01*
X143700Y-90200D02*
X145600D01*
X146474Y-91074D01*
X151600D01*
X145437Y-101463D02*
X147952Y-98948D01*
X151600D01*
X81701Y-51500D02*
X85000Y-48201D01*
X112500Y-51500D02*
X116000Y-48000D01*
X187033Y-83200D02*
X193863D01*
X193900Y-83163D01*
X6700Y-103500D02*
X11800D01*
X16900D01*
X22000D01*
X23000Y-49799D02*
Y-32100D01*
X24600Y-30500D01*
X28000D01*
X54000Y-49799D02*
Y-32300D01*
X55800Y-30500D01*
X59000D01*
X85000Y-48201D02*
Y-32300D01*
X86800Y-30500D01*
X90000D01*
X116000Y-48000D02*
Y-32200D01*
X117700Y-30500D01*
X121000D01*
X90400Y-98500D02*
X93100D01*
X90300Y-98600D02*
X90400Y-98500D01*
X158465Y-44028D02*
X158700Y-44263D01*
X162900Y-62900D02*
Y-48200D01*
Y-62900D02*
X172269Y-72269D01*
Y-76310D02*
Y-72269D01*
X174238Y-76310D02*
Y-71438D01*
X165200Y-62400D02*
X174238Y-71438D01*
X165200Y-62400D02*
Y-52400D01*
X167100Y-50500D01*
Y-48200D01*
X156500Y-70700D02*
Y-69300D01*
Y-65200D01*
X178175Y-116465D02*
Y-111743D01*
X176200Y-118439D02*
X178175Y-116465D01*
X176200Y-118900D02*
Y-118439D01*
X139594Y-32316D02*
X145578Y-38300D01*
X177957Y-93042D02*
X187033D01*
X176000Y-95000D02*
X177957Y-93042D01*
X176926Y-91074D02*
X187033D01*
X178989Y-95011D02*
X187033D01*
X176500Y-97500D02*
X178989Y-95011D01*
X172500Y-97500D02*
X176500D01*
X180020Y-96979D02*
X187033D01*
X177000Y-100000D02*
X180020Y-96979D01*
X166000Y-100000D02*
X177000D01*
X169500Y-92500D02*
X175500D01*
X176926Y-91074D01*
D12*
X3000Y-98065D02*
G03*
X2395Y-96605I-2065J0D01*
G01*
X96314Y-98705D02*
G03*
X100001Y-100300I3686J3462D01*
G01*
X163568Y-70775D02*
G03*
X160437Y-69300I-3130J-2586D01*
G01*
X140555Y-69165D02*
G03*
X141008Y-70258I1546J0D01*
G01*
X139090Y-70800D02*
G03*
X140398Y-70258I0J1850D01*
G01*
X128692Y-70295D02*
G03*
X129138Y-69219I-1076J1076D01*
G01*
X129302Y-70295D02*
G03*
X130520Y-70800I1219J1219D01*
G01*
X141700Y-130610D02*
G03*
X142068Y-131498I1256J0D01*
G01*
X171928Y-60737D02*
G03*
X172487Y-62087I1909J0D01*
G01*
X8184Y-120244D02*
G03*
X7305Y-120608I0J-1243D01*
G01*
X30603Y-110642D02*
G03*
X31597Y-108243I-2400J2400D01*
G01*
X29542Y-109582D02*
G03*
X31597Y-104621I-4960J4960D01*
G01*
Y-107693D02*
G03*
X32379Y-109582I2670J0D01*
G01*
X25875Y-112764D02*
G03*
X28925Y-110792I0J3344D01*
G01*
X23555Y-112764D02*
G03*
X27557Y-110177I0J4388D01*
G01*
X7608Y-116742D02*
G03*
X7000Y-118210I1468J-1468D01*
G01*
X32458Y-105129D02*
G03*
X31597Y-107209I2080J-2080D01*
G01*
D02*
G03*
X30735Y-105129I-2942J0D01*
G01*
X24254Y-119939D02*
G03*
X25456Y-120437I1202J1202D01*
G01*
X23000Y-111333D02*
G03*
X23466Y-112459I1592J0D01*
G01*
X11563Y-111286D02*
G03*
X12049Y-112459I1659J0D01*
G01*
X83002Y-98195D02*
G03*
X83979Y-98600I977J977D01*
G01*
X135878Y-180060D02*
G03*
X136600Y-178316I-1744J1744D01*
G01*
D02*
G03*
X137322Y-180060I2466J0D01*
G01*
X141783Y-180060D02*
G03*
X142500Y-178330I-1731J1731D01*
G01*
Y-178303D02*
G03*
X143228Y-180060I2485J0D01*
G01*
X175433Y-43083D02*
G03*
X174024Y-42500I-1408J-1408D01*
G01*
D02*
G03*
X175433Y-41917I0J1991D01*
G01*
X87033Y-119782D02*
G03*
X90457Y-121200I3424J3424D01*
G01*
D02*
G03*
X87033Y-122618I0J-4843D01*
G01*
X87351Y-120197D02*
G03*
X88845Y-121343I2130J1230D01*
G01*
X89377Y-121486D02*
G03*
X87300Y-122287I-489J-1825D01*
G01*
X99541Y-100760D02*
G03*
X98432Y-100300I-1110J-1110D01*
G01*
D02*
G03*
X99541Y-99840I0J1569D01*
G01*
X91471Y-122509D02*
G03*
X88311Y-121200I-3160J-3160D01*
G01*
X92607Y-121710D02*
G03*
X91957Y-119457I-2365J538D01*
G01*
X91144Y-121377D02*
G03*
X90036Y-117536I-4031J917D01*
G01*
X129648Y-57349D02*
G03*
X132363Y-56637I749J2678D01*
G01*
X40229Y-87725D02*
G03*
X40800Y-89700I2077J-469D01*
G01*
X41494Y-92153D02*
G03*
X41298Y-90198I-1295J858D01*
G01*
X40244Y-91325D02*
G03*
X40000Y-88900I-1605J1063D01*
G01*
X143737Y-120600D02*
X147300D01*
X149300Y-61700D02*
X152900D01*
X171300Y-42500D02*
X177000D01*
X171300Y-48863D02*
Y-45400D01*
Y-60900D02*
X174000Y-63600D01*
X171300Y-60900D02*
Y-60737D01*
X162700Y-69300D02*
X163900Y-70500D01*
X160437Y-69300D02*
X162700D01*
X193900Y-83163D02*
Y-79700D01*
X180100Y-122300D02*
Y-118937D01*
X141700Y-131999D02*
Y-128600D01*
X140555Y-70692D02*
Y-65244D01*
X143700Y-116700D02*
Y-113000D01*
X129138Y-57764D02*
X131236D01*
X132363Y-56637D01*
Y-52300D01*
X128200D02*
X132363D01*
X96500Y-141500D02*
Y-137500D01*
X94756Y-143244D02*
X96500Y-141500D01*
X90638Y-143244D02*
X94756D01*
X94764Y-135764D02*
X96500Y-137500D01*
X90638Y-135764D02*
X94764D01*
X96000Y-99000D02*
X97300Y-100300D01*
X100001D01*
X3000Y-112500D02*
Y-97201D01*
X143700Y-101463D02*
X145437D01*
X3000Y-116437D02*
X7500D01*
X11563Y-112189D02*
Y-108000D01*
Y-112189D02*
X12138Y-112764D01*
X23000Y-112209D02*
Y-108000D01*
X15500D02*
X19063D01*
X7256Y-120244D02*
X12138D01*
X7000Y-120500D02*
Y-116937D01*
X23748Y-120437D02*
X28000D01*
X23555Y-112764D02*
X29197D01*
X31597Y-110364D02*
Y-104268D01*
X29197Y-112764D02*
X30961Y-111000D01*
X31597Y-110364D01*
X136600Y-181964D02*
Y-175400D01*
X142500Y-181958D02*
Y-175400D01*
X136600Y-171463D02*
Y-168700D01*
X142500Y-171463D02*
Y-168700D01*
X86363Y-98600D02*
Y-94500D01*
X82600Y-98600D02*
X86363D01*
X82556Y-103138D02*
Y-98556D01*
X90036Y-103138D02*
X95175D01*
X90300Y-98600D02*
Y-94500D01*
X77000Y-114937D02*
X82174D01*
X40800Y-98400D02*
Y-95500D01*
X45000Y-98400D02*
Y-95500D01*
X97000Y-91563D02*
Y-85508D01*
X102000Y-91563D02*
Y-85508D01*
X40000Y-88900D02*
Y-85508D01*
Y-88900D02*
X40800Y-89700D01*
Y-91563D02*
Y-89700D01*
X45000Y-91563D02*
Y-85508D01*
X102000Y-95500D02*
X105400D01*
X93600D02*
X97000D01*
X141800Y-139092D02*
Y-132099D01*
X90036Y-117536D02*
Y-114555D01*
Y-117536D02*
X92332Y-119832D01*
X84039Y-121200D02*
X91532D01*
X92332Y-124797D02*
Y-122000D01*
Y-119832D01*
X91532Y-121200D02*
X92332Y-122000D01*
X129138Y-70262D02*
Y-65244D01*
X129676Y-70800D02*
X132863D01*
X136800D02*
X140663D01*
X3000Y-112500D02*
X7500D01*
D13*
X124962Y-136828D02*
G03*
X122738Y-137318I-847J-1449D01*
G01*
X123225Y-137275D02*
G03*
X120631Y-136200I-2594J-2594D01*
G01*
X124300D02*
G03*
X122693Y-137413I0J-1671D01*
G01*
X122738Y-135181D02*
G03*
X124822Y-135697I1334J923D01*
G01*
X120873Y-136200D02*
G03*
X123225Y-135225I0J3327D01*
G01*
X122704Y-135118D02*
G03*
X124300Y-136200I1596J636D01*
G01*
X123373D02*
G03*
X125725Y-135225I0J3327D01*
G01*
X124300Y-136200D02*
G03*
X125804Y-135096I0J1577D01*
G01*
X125725Y-137275D02*
G03*
X123131Y-136200I-2594J-2594D01*
G01*
X125812Y-137437D02*
G03*
X124300Y-136200I-1512J-307D01*
G01*
X106636Y-136470D02*
G03*
X104930Y-135764I-1706J-1706D01*
G01*
X110070D02*
G03*
X108364Y-136470I0J-2413D01*
G01*
X113136D02*
G03*
X111430Y-135764I-1706J-1706D01*
G01*
X116570D02*
G03*
X114864Y-136470I0J-2413D01*
G01*
X15070Y-131488D02*
G03*
X17599Y-125700I-5358J5788D01*
G01*
X22350Y-97301D02*
G03*
X25167Y-96134I0J3983D01*
G01*
X28257Y-96428D02*
G03*
X24100Y-97201I-1516J-3414D01*
G01*
X100001Y-119070D02*
G03*
X100931Y-121316I3177J0D01*
G01*
X113799Y-135764D02*
X119563D01*
X119999Y-136200D02*
X124300D01*
X102055Y-135764D02*
X113799D01*
X100001Y-105300D02*
Y-100300D01*
Y-110300D02*
Y-105300D01*
Y-115300D02*
Y-110300D01*
Y-124198D02*
Y-115300D01*
Y-124198D02*
X100600Y-124797D01*
X119563Y-135764D02*
X119999Y-136200D01*
X78500Y-136002D02*
X85000D01*
X3000Y-97201D02*
X16900D01*
X25301Y-96000D02*
X31597D01*
X16900Y-97201D02*
X22000D01*
X24100D01*
X25301Y-96000D01*
X15924Y-133000D02*
X17599Y-131324D01*
Y-125700D01*
Y-118401D01*
X19500Y-116500D01*
X21000D01*
D14*
X40500Y-128965D02*
G03*
X30830Y-132970I0J-13676D01*
G01*
X42908Y-123151D02*
G03*
X48722Y-125559I5814J5814D01*
G01*
D02*
G03*
X42908Y-127967I0J-8222D01*
G01*
X61092D02*
G03*
X55278Y-125559I-5814J-5814D01*
G01*
D02*
G03*
X61092Y-123151I0J8222D01*
G01*
X38241Y-125559D02*
X40500D01*
X27000Y-136800D02*
X38241Y-125559D01*
X27000Y-157500D02*
Y-136800D01*
X24900Y-159600D02*
X27000Y-157500D01*
X18200Y-159600D02*
X24900D01*
X15924Y-157324D02*
X18200Y-159600D01*
X15924Y-157324D02*
Y-151000D01*
X17500Y-82500D02*
Y-69000D01*
Y-55500D01*
X74500Y-82500D02*
Y-69000D01*
Y-55500D01*
X15924Y-151000D02*
Y-142000D01*
Y-133000D01*
X51500Y-125559D02*
X51700Y-125359D01*
X40500Y-125559D02*
X51500D01*
X63500D01*
X51700Y-110024D02*
X60700D01*
X69700D01*
D15*
X120445Y-152618D02*
G03*
X122749Y-153572I2304J2304D01*
G01*
X121293Y-151770D02*
G03*
X125646Y-153572I4352J4352D01*
G01*
X122749D02*
G03*
X120445Y-154527I0J-3258D01*
G01*
X125646Y-153572D02*
G03*
X121293Y-155375I0J-6155D01*
G01*
X119491Y-162834D02*
G03*
X122835Y-161449I0J4730D01*
G01*
X122212Y-162071D02*
G03*
X120840Y-165384I3312J-3312D01*
G01*
X124261Y-160023D02*
G03*
X122040Y-165384I5361J-5361D01*
G01*
X139500Y-156500D02*
X141800Y-158800D01*
X127784Y-156500D02*
X139500D01*
X118900Y-165384D02*
X127784Y-156500D01*
X141800Y-163108D02*
Y-158800D01*
X118900Y-153572D02*
X141072D01*
X146800Y-159300D01*
Y-163108D02*
Y-159300D01*
D16*
X81745Y-109047D02*
G03*
X77148Y-110951I0J-6501D01*
G01*
X88178Y-135764D02*
G03*
X86041Y-136649I0J-3022D01*
G01*
X77456Y-106693D02*
G03*
X83139Y-109047I5683J5683D01*
G01*
X77000D02*
X84047D01*
X70676D02*
X71629Y-110000D01*
X21000Y-116500D02*
X28000D01*
X85000Y-136002D02*
X85238Y-135764D01*
X90638D01*
X84047Y-109047D02*
X86296Y-111296D01*
Y-114555D02*
Y-111296D01*
D17*
X112782Y-135176D02*
G03*
X113799Y-132721I-2455J2455D01*
G01*
Y-133652D02*
G03*
X114430Y-135176I2155J0D01*
G01*
X136054Y-192746D02*
G03*
X134254Y-192000I-1800J-1800D01*
G01*
X138946D02*
G03*
X137146Y-192746I0J-2546D01*
G01*
X141960D02*
G03*
X140160Y-192000I-1800J-1800D01*
G01*
X89734Y-59226D02*
G03*
X92010Y-59339I1200J1200D01*
G01*
X32734Y-59226D02*
G03*
X35010Y-59339I1200J1200D01*
G01*
X35910Y-53803D02*
G03*
X35000Y-56000I2197J-2197D01*
G01*
X37324Y-55218D02*
G03*
X35000Y-60828I5611J-5611D01*
G01*
X45000Y-56004D02*
G03*
X44089Y-53803I-3112J0D01*
G01*
X45000Y-60832D02*
G03*
X42674Y-55218I-7940J0D01*
G01*
X32262Y-75262D02*
G03*
X27550Y-73759I-3810J-3810D01*
G01*
X35000Y-78000D02*
G03*
X27884Y-75731I-5754J-5754D01*
G01*
X29020Y-72980D02*
G03*
X31000Y-74000I1980J1412D01*
G01*
D02*
G03*
X29020Y-75020I0J-2432D01*
G01*
X92910Y-53803D02*
G03*
X92000Y-56000I2197J-2197D01*
G01*
X94324Y-55218D02*
G03*
X92000Y-60828I5611J-5611D01*
G01*
X102000Y-56004D02*
G03*
X101089Y-53803I-3112J0D01*
G01*
X102000Y-60832D02*
G03*
X99674Y-55218I-7940J0D01*
G01*
X85903Y-72834D02*
G03*
X88500Y-74000I2597J2307D01*
G01*
D02*
G03*
X85903Y-75166I0J-3474D01*
G01*
X132000Y-192000D02*
X142306D01*
X164500Y-188900D02*
Y-185500D01*
X142306Y-192000D02*
X142506Y-192200D01*
X164479Y-192816D02*
X164500Y-192837D01*
X158222Y-192816D02*
X164479D01*
X158222D02*
Y-175100D01*
X158200Y-175078D02*
Y-171500D01*
X140555Y-57764D02*
X149299D01*
X149300Y-57763D01*
X113799Y-135764D02*
Y-130300D01*
Y-135799D02*
Y-135764D01*
Y-135799D02*
X114000Y-136000D01*
X107500Y-130300D02*
Y-125200D01*
X93496Y-139504D02*
X93500Y-139500D01*
X90638Y-139504D02*
X93496D01*
X35000Y-85508D02*
Y-78000D01*
X31000Y-74000D02*
X35000Y-78000D01*
X27000Y-74000D02*
X31000D01*
X84000D02*
X88500D01*
X92000Y-77500D01*
Y-85508D02*
Y-77500D01*
X89734Y-59226D02*
X92000Y-61492D01*
X84000Y-59226D02*
X89734D01*
X32734D02*
X35000Y-61492D01*
X27000Y-59226D02*
X32734D01*
X45000Y-61492D02*
Y-55502D01*
X102000Y-61492D02*
Y-55502D01*
X92000Y-61492D02*
Y-55500D01*
X35000Y-61492D02*
Y-55500D01*
X95200Y-110763D02*
Y-107100D01*
D18*
X71629Y-110000D02*
G03*
X77140Y-107145I0J6746D01*
G01*
X71629Y-110000D02*
X77000D01*
X27000Y-74000D02*
Y-66815D01*
X84000Y-74000D02*
Y-66815D01*
D19*
X149200Y-66000D02*
D03*
X145263D02*
D03*
X90300Y-98600D02*
D03*
X86363D02*
D03*
X90300Y-94500D02*
D03*
X86363D02*
D03*
X23000Y-108000D02*
D03*
X19063D02*
D03*
X15500D02*
D03*
X11563D02*
D03*
X7000Y-120500D02*
D03*
X3063D02*
D03*
X160437Y-65200D02*
D03*
X156500D02*
D03*
X172137Y-118900D02*
D03*
X168200D02*
D03*
X160437Y-69300D02*
D03*
X156500D02*
D03*
X180137Y-118900D02*
D03*
X176200D02*
D03*
X141763Y-132000D02*
D03*
X145700D02*
D03*
X132863Y-70800D02*
D03*
X136800D02*
D03*
X132363Y-52300D02*
D03*
X136300D02*
D03*
X124263D02*
D03*
X128200D02*
D03*
D20*
X102000Y-95500D02*
D03*
Y-91563D02*
D03*
X97000Y-95500D02*
D03*
Y-91563D02*
D03*
X45000Y-95500D02*
D03*
Y-91563D02*
D03*
X40800Y-95500D02*
D03*
Y-91563D02*
D03*
X95200Y-114700D02*
D03*
Y-110763D02*
D03*
Y-107100D02*
D03*
Y-103163D02*
D03*
X82500Y-98500D02*
D03*
Y-94563D02*
D03*
X136600Y-175400D02*
D03*
Y-171463D02*
D03*
X142500Y-175400D02*
D03*
Y-171463D02*
D03*
X28000Y-116500D02*
D03*
Y-120437D02*
D03*
X3000Y-112500D02*
D03*
Y-116437D02*
D03*
X7500Y-112500D02*
D03*
Y-116437D02*
D03*
X162900Y-48200D02*
D03*
Y-44263D02*
D03*
X167100Y-48200D02*
D03*
Y-44263D02*
D03*
X158700Y-48200D02*
D03*
Y-44263D02*
D03*
X77000Y-114937D02*
D03*
Y-111000D02*
D03*
X143700Y-93863D02*
D03*
Y-97800D02*
D03*
Y-86263D02*
D03*
Y-90200D02*
D03*
Y-109063D02*
D03*
Y-113000D02*
D03*
Y-120637D02*
D03*
Y-116700D02*
D03*
Y-78663D02*
D03*
Y-82600D02*
D03*
X193900Y-83163D02*
D03*
Y-87100D02*
D03*
X143700Y-101463D02*
D03*
Y-105400D02*
D03*
X171300Y-60737D02*
D03*
Y-56800D02*
D03*
Y-48863D02*
D03*
Y-52800D02*
D03*
X164500Y-192837D02*
D03*
Y-188900D02*
D03*
X128800Y-74537D02*
D03*
Y-70600D02*
D03*
X140900Y-70563D02*
D03*
Y-74500D02*
D03*
X145100Y-57763D02*
D03*
Y-61700D02*
D03*
X149300Y-57763D02*
D03*
Y-61700D02*
D03*
D21*
X151600Y-83200D02*
D03*
Y-85168D02*
D03*
Y-87137D02*
D03*
Y-89105D02*
D03*
Y-91074D02*
D03*
Y-93042D02*
D03*
Y-95011D02*
D03*
Y-96979D02*
D03*
Y-98948D02*
D03*
Y-100917D02*
D03*
Y-102885D02*
D03*
Y-104853D02*
D03*
X187033D02*
D03*
Y-102885D02*
D03*
Y-100917D02*
D03*
Y-98948D02*
D03*
Y-96979D02*
D03*
Y-95011D02*
D03*
Y-93042D02*
D03*
Y-91074D02*
D03*
Y-89105D02*
D03*
Y-87137D02*
D03*
Y-85168D02*
D03*
Y-83200D02*
D03*
D22*
X158490Y-111743D02*
D03*
X160458D02*
D03*
X162427D02*
D03*
X164395D02*
D03*
X166364D02*
D03*
X168332D02*
D03*
X170301D02*
D03*
X172269D02*
D03*
X174238D02*
D03*
X176206D02*
D03*
X178175D02*
D03*
X180143D02*
D03*
Y-76310D02*
D03*
X178175D02*
D03*
X176206D02*
D03*
X174238D02*
D03*
X172269D02*
D03*
X170301D02*
D03*
X168332D02*
D03*
X166364D02*
D03*
X164395D02*
D03*
X162427D02*
D03*
X160458D02*
D03*
X158490D02*
D03*
D23*
X84000Y-85024D02*
D03*
Y-74000D02*
D03*
X27000Y-85024D02*
D03*
Y-74000D02*
D03*
X69700Y-110024D02*
D03*
Y-99000D02*
D03*
X60700Y-110024D02*
D03*
Y-99000D02*
D03*
X51700Y-110024D02*
D03*
Y-99000D02*
D03*
D24*
X100498Y-54000D02*
D03*
X93500D02*
D03*
X43498D02*
D03*
X36500D02*
D03*
D25*
X59000Y-30500D02*
D03*
Y-35500D02*
D03*
Y-40500D02*
D03*
Y-45500D02*
D03*
X28000Y-30500D02*
D03*
Y-35500D02*
D03*
Y-40500D02*
D03*
Y-45500D02*
D03*
X90000Y-30500D02*
D03*
Y-35500D02*
D03*
Y-40500D02*
D03*
Y-45500D02*
D03*
X121000Y-30500D02*
D03*
Y-35500D02*
D03*
Y-40500D02*
D03*
Y-45500D02*
D03*
D26*
X42366Y-38020D02*
D03*
X11366D02*
D03*
X73366D02*
D03*
X104366D02*
D03*
D27*
X62689Y-82500D02*
D03*
X74500D02*
D03*
X5689D02*
D03*
X17500D02*
D03*
X5689Y-69000D02*
D03*
X17500D02*
D03*
X5689Y-55500D02*
D03*
X17500D02*
D03*
X74500D02*
D03*
X62689D02*
D03*
X74500Y-69000D02*
D03*
X62689D02*
D03*
D28*
X27000Y-66815D02*
D03*
Y-59226D02*
D03*
X84000Y-66815D02*
D03*
Y-59226D02*
D03*
D29*
X24701Y-51500D02*
D03*
X31000D02*
D03*
X49201D02*
D03*
X55500D02*
D03*
X81701D02*
D03*
X88000D02*
D03*
X106201D02*
D03*
X112500D02*
D03*
X100001Y-100300D02*
D03*
X106300D02*
D03*
X100001Y-115300D02*
D03*
X106300D02*
D03*
X100001Y-105300D02*
D03*
X106300D02*
D03*
X100001Y-110300D02*
D03*
X106300D02*
D03*
X17599Y-125700D02*
D03*
X11300D02*
D03*
X113799Y-130300D02*
D03*
X107500D02*
D03*
Y-125200D02*
D03*
X113799D02*
D03*
D30*
X50000Y-61492D02*
D03*
X45000D02*
D03*
X40000D02*
D03*
X35000D02*
D03*
X50000Y-85508D02*
D03*
X45000D02*
D03*
X40000D02*
D03*
X107000Y-61492D02*
D03*
X102000D02*
D03*
X97000D02*
D03*
X92000D02*
D03*
X107000Y-85508D02*
D03*
X102000D02*
D03*
X97000D02*
D03*
X136800Y-163108D02*
D03*
X141800D02*
D03*
X146800D02*
D03*
X151800D02*
D03*
X136800Y-139092D02*
D03*
X141800D02*
D03*
X146800D02*
D03*
D31*
X35000Y-85508D02*
D03*
X92000D02*
D03*
X151800Y-139092D02*
D03*
D32*
X137331Y-99444D02*
D03*
X128670D02*
D03*
X137331Y-85271D02*
D03*
X128670D02*
D03*
D33*
X62700Y-14000D02*
D03*
X85700D02*
D03*
D34*
X118000Y-117842D02*
D03*
Y-109378D02*
D03*
X135716Y-117842D02*
D03*
Y-109378D02*
D03*
D35*
X129138Y-65244D02*
D03*
Y-57764D02*
D03*
Y-61504D02*
D03*
X140555Y-57764D02*
D03*
Y-65244D02*
D03*
X12138Y-120244D02*
D03*
Y-112764D02*
D03*
Y-116504D02*
D03*
X23555D02*
D03*
Y-112764D02*
D03*
Y-120244D02*
D03*
X90638Y-143244D02*
D03*
Y-135764D02*
D03*
Y-139504D02*
D03*
X102055Y-135764D02*
D03*
Y-143244D02*
D03*
D36*
X82556Y-103138D02*
D03*
X90036D02*
D03*
X86296D02*
D03*
Y-114555D02*
D03*
X90036D02*
D03*
X82556D02*
D03*
D37*
X92332Y-124797D02*
D03*
X100600D02*
D03*
D38*
X77000Y-106799D02*
D03*
Y-100500D02*
D03*
X6700Y-97201D02*
D03*
Y-103500D02*
D03*
X11800Y-97201D02*
D03*
Y-103500D02*
D03*
X16900Y-97201D02*
D03*
Y-103500D02*
D03*
X22000Y-97201D02*
D03*
Y-103500D02*
D03*
X120000Y-136201D02*
D03*
Y-142500D02*
D03*
D39*
X74000Y-121200D02*
D03*
X41000Y-111000D02*
D03*
D40*
X84039Y-121200D02*
D03*
X30961Y-111000D02*
D03*
D41*
X177000Y-42500D02*
D03*
Y-47421D02*
D03*
Y-52342D02*
D03*
Y-57264D02*
D03*
Y-154185D02*
D03*
Y-149264D02*
D03*
Y-139421D02*
D03*
Y-134500D02*
D03*
Y-144343D02*
D03*
D42*
X189598Y-67303D02*
D03*
Y-32461D02*
D03*
Y-124461D02*
D03*
Y-164224D02*
D03*
D43*
X142506Y-181964D02*
D03*
X136600D02*
D03*
X142506Y-192200D02*
D03*
X136600D02*
D03*
D44*
X31597Y-104268D02*
D03*
Y-96000D02*
D03*
D45*
X15924Y-151000D02*
D03*
X4900D02*
D03*
X15924Y-142000D02*
D03*
X4900D02*
D03*
X15924Y-133000D02*
D03*
X4900D02*
D03*
D46*
X85000Y-136002D02*
D03*
Y-143000D02*
D03*
X78500Y-136002D02*
D03*
Y-143000D02*
D03*
X114000Y-142998D02*
D03*
Y-136000D02*
D03*
X107500Y-142998D02*
D03*
Y-136000D02*
D03*
D47*
X158222Y-192816D02*
D03*
X149758D02*
D03*
X158222Y-175100D02*
D03*
X149758D02*
D03*
D48*
X118500Y-84000D02*
D03*
Y-60378D02*
D03*
D49*
X-15748Y173228D02*
D03*
Y-161417D02*
D03*
X421260Y173228D02*
D03*
Y-161417D02*
D03*
D50*
X51700Y-125359D02*
Y-110024D01*
D51*
X52000Y-148000D02*
D03*
D52*
X124250Y-136250D02*
D03*
D53*
X75000Y-136000D02*
D03*
D54*
X88500Y-121250D02*
D03*
D55*
X91750Y-118750D02*
D03*
D56*
X95000Y-99000D02*
D03*
D57*
X5600Y-66450D02*
D03*
D58*
X27000Y-77650D02*
D03*
X84000D02*
D03*
D59*
X52000Y-125500D02*
D03*
D60*
X59050Y-40500D02*
D03*
D61*
X121650D02*
D03*
D62*
X182850Y-14000D02*
D03*
X14000D02*
D03*
Y-182850D02*
D03*
X182850D02*
D03*
D63*
X118900Y-183100D02*
D03*
X91000D02*
D03*
X145500Y-14600D02*
D03*
D64*
X118900Y-165384D02*
D03*
Y-153572D02*
D03*
X91000Y-165384D02*
D03*
Y-153572D02*
D03*
X139594Y-44128D02*
D03*
Y-32316D02*
D03*
X151406D02*
D03*
Y-44128D02*
D03*
D65*
X63500Y-148000D02*
D03*
X63500Y-125559D02*
D03*
X40500Y-148000D02*
D03*
X40500Y-125559D02*
D03*
D66*
X-19685Y200787D02*
D03*
Y-188976D02*
D03*
X425197D02*
D03*
Y200787D02*
D03*
D67*
X176100Y-69700D02*
D03*
X146400Y-86300D02*
D03*
X75000Y-95000D02*
D03*
X138000Y-123000D02*
D03*
X120000Y-130000D02*
D03*
X177500Y-162500D02*
D03*
X170000D02*
D03*
X130000Y-177500D02*
D03*
Y-162500D02*
D03*
X80000Y-150000D02*
D03*
X105000Y-192500D02*
D03*
Y-177500D02*
D03*
X72500Y-192500D02*
D03*
X57500D02*
D03*
X42500D02*
D03*
X72500Y-177500D02*
D03*
X57500D02*
D03*
X42500D02*
D03*
X72500Y-162500D02*
D03*
X57500D02*
D03*
X42500D02*
D03*
X178000Y-36000D02*
D03*
Y-31000D02*
D03*
X172000D02*
D03*
X166000D02*
D03*
X172000Y-36000D02*
D03*
X166000D02*
D03*
X130000Y-41000D02*
D03*
Y-31000D02*
D03*
Y-36000D02*
D03*
Y-46000D02*
D03*
X190000Y-40000D02*
D03*
Y-45000D02*
D03*
Y-50000D02*
D03*
Y-55000D02*
D03*
Y-60000D02*
D03*
X112000Y-107000D02*
D03*
Y-121000D02*
D03*
X152000Y-119000D02*
D03*
X159000Y-61000D02*
D03*
Y-57000D02*
D03*
X154000D02*
D03*
X177100Y-71300D02*
D03*
X155000Y-75000D02*
D03*
X152000Y-71000D02*
D03*
X151000Y-80000D02*
D03*
X148000Y-77000D02*
D03*
X134000Y-80000D02*
D03*
X132800Y-93000D02*
D03*
X106000Y-121000D02*
D03*
X70200Y-116100D02*
D03*
X55000Y-95000D02*
D03*
X50000D02*
D03*
X70000D02*
D03*
X110900Y-95600D02*
D03*
X112000Y-116000D02*
D03*
Y-112000D02*
D03*
X130000Y-114000D02*
D03*
X123000D02*
D03*
X152000D02*
D03*
Y-109000D02*
D03*
X182500Y-155000D02*
D03*
X190000D02*
D03*
Y-147500D02*
D03*
Y-140000D02*
D03*
Y-132500D02*
D03*
X135000Y-132000D02*
D03*
X130000Y-150000D02*
D03*
Y-142000D02*
D03*
Y-135000D02*
D03*
X145300Y-152300D02*
D03*
X150000Y-146000D02*
D03*
X143000D02*
D03*
X136000D02*
D03*
X154000Y-168900D02*
D03*
X148600Y-169000D02*
D03*
X155000Y-180000D02*
D03*
X150000D02*
D03*
X155000Y-187500D02*
D03*
X150000D02*
D03*
X45200Y-112900D02*
D03*
Y-116700D02*
D03*
X40300D02*
D03*
X4000Y-157000D02*
D03*
X157300Y-87000D02*
D03*
X136500Y-74500D02*
D03*
X133000D02*
D03*
X136500Y-56500D02*
D03*
Y-60000D02*
D03*
X133000D02*
D03*
X136500Y-67000D02*
D03*
X133000D02*
D03*
X140500Y-61500D02*
D03*
X136500Y-63500D02*
D03*
X133000D02*
D03*
X139500Y-54500D02*
D03*
X184000Y-40000D02*
D03*
Y-60000D02*
D03*
Y-45000D02*
D03*
Y-50000D02*
D03*
Y-55000D02*
D03*
X193500Y-74000D02*
D03*
X185000Y-75500D02*
D03*
X189500Y-80000D02*
D03*
X185000D02*
D03*
X163700Y-106500D02*
D03*
X159400D02*
D03*
X159900Y-81300D02*
D03*
X167700Y-89500D02*
D03*
X168700Y-97400D02*
D03*
X162500Y-87000D02*
D03*
X165700Y-92500D02*
D03*
X162500Y-90500D02*
D03*
X157300D02*
D03*
X183500Y-112500D02*
D03*
Y-117500D02*
D03*
Y-107500D02*
D03*
X182000Y-125500D02*
D03*
X176500Y-123500D02*
D03*
X172500D02*
D03*
X168500D02*
D03*
X188500Y-107500D02*
D03*
Y-117500D02*
D03*
Y-112500D02*
D03*
X193500Y-117500D02*
D03*
Y-112500D02*
D03*
Y-107500D02*
D03*
Y-102500D02*
D03*
Y-97500D02*
D03*
Y-92500D02*
D03*
X125500Y-137500D02*
D03*
Y-135000D02*
D03*
X123000D02*
D03*
Y-137500D02*
D03*
X147300Y-120600D02*
D03*
X147600Y-107500D02*
D03*
X138600Y-80000D02*
D03*
X152900Y-61700D02*
D03*
X171300Y-42500D02*
D03*
Y-45400D02*
D03*
X174000Y-63600D02*
D03*
X163900Y-70500D02*
D03*
X193900Y-79700D02*
D03*
X180100Y-122300D02*
D03*
X141700Y-128600D02*
D03*
X164500Y-185500D02*
D03*
X132000Y-192000D02*
D03*
X177000Y-83688D02*
D03*
X158200Y-171500D02*
D03*
X179500Y-81700D02*
D03*
X176450Y-86850D02*
D03*
X115500Y-95500D02*
D03*
X157200Y-95000D02*
D03*
X75000Y-137000D02*
D03*
Y-135000D02*
D03*
X55000Y-137500D02*
D03*
X75000Y-150000D02*
D03*
X85000D02*
D03*
X78000Y-96000D02*
D03*
X103000Y-139500D02*
D03*
X99500D02*
D03*
X93500D02*
D03*
X70000Y-137500D02*
D03*
X40000D02*
D03*
X87500Y-131000D02*
D03*
X82500D02*
D03*
X77500D02*
D03*
X72500D02*
D03*
X87500Y-127000D02*
D03*
X82500D02*
D03*
X77500D02*
D03*
X72500D02*
D03*
X90000Y-107500D02*
D03*
Y-110000D02*
D03*
X87500Y-107500D02*
D03*
X96000Y-99000D02*
D03*
X94000D02*
D03*
X31000Y-161500D02*
D03*
Y-166000D02*
D03*
X26500D02*
D03*
X22000D02*
D03*
X17500D02*
D03*
X13000D02*
D03*
X8500D02*
D03*
X4000D02*
D03*
X13000Y-161500D02*
D03*
X4000D02*
D03*
X8500D02*
D03*
Y-157000D02*
D03*
X21700Y-138500D02*
D03*
Y-143500D02*
D03*
Y-148000D02*
D03*
Y-152500D02*
D03*
X45200Y-109300D02*
D03*
X30000Y-125000D02*
D03*
X38900Y-102500D02*
D03*
X42500Y-106000D02*
D03*
X38900D02*
D03*
X93000Y-91000D02*
D03*
X122000Y-90500D02*
D03*
X117000D02*
D03*
X112000D02*
D03*
X107000Y-91000D02*
D03*
X88000Y-90500D02*
D03*
X83000D02*
D03*
X78000D02*
D03*
X73000D02*
D03*
X68000D02*
D03*
X34500Y-91000D02*
D03*
X123000Y-78000D02*
D03*
X118000D02*
D03*
X113000D02*
D03*
X108000D02*
D03*
X103000D02*
D03*
X98000D02*
D03*
X123000Y-73000D02*
D03*
X118000D02*
D03*
X123000Y-68000D02*
D03*
X118000D02*
D03*
X93000D02*
D03*
X98000D02*
D03*
X103000D02*
D03*
X108000D02*
D03*
X113000D02*
D03*
X98000Y-73000D02*
D03*
X103000D02*
D03*
X108000D02*
D03*
X113000D02*
D03*
X93000D02*
D03*
X70000Y-82000D02*
D03*
Y-86000D02*
D03*
Y-53000D02*
D03*
Y-59000D02*
D03*
Y-65000D02*
D03*
Y-71000D02*
D03*
X29000Y-90000D02*
D03*
X24000D02*
D03*
X19000D02*
D03*
X14000D02*
D03*
X55000Y-91000D02*
D03*
X50000D02*
D03*
X55000Y-86500D02*
D03*
Y-82000D02*
D03*
X35000Y-73000D02*
D03*
X55000Y-58000D02*
D03*
Y-63000D02*
D03*
Y-73000D02*
D03*
X50000D02*
D03*
X45000D02*
D03*
X40000D02*
D03*
X55000Y-68000D02*
D03*
X50000D02*
D03*
X45000D02*
D03*
X40000D02*
D03*
X35000D02*
D03*
X13000Y-86000D02*
D03*
Y-82000D02*
D03*
Y-71000D02*
D03*
Y-65000D02*
D03*
Y-59000D02*
D03*
Y-53000D02*
D03*
X40800Y-98400D02*
D03*
X45000D02*
D03*
X136600Y-168700D02*
D03*
X142500D02*
D03*
X93600Y-95500D02*
D03*
X105400D02*
D03*
X6500Y-91000D02*
D03*
X10500D02*
D03*
X6500Y-93000D02*
D03*
X10500D02*
D03*
X8500D02*
D03*
Y-91000D02*
D03*
X62700D02*
D03*
Y-93000D02*
D03*
X64700D02*
D03*
X60700D02*
D03*
X64700Y-91000D02*
D03*
X60700D02*
D03*
X2700Y-96300D02*
D03*
Y-91500D02*
D03*
Y-93900D02*
D03*
X9250Y-101500D02*
D03*
X14350D02*
D03*
X19450D02*
D03*
X27000Y-78000D02*
D03*
X29400D02*
D03*
X24600D02*
D03*
X81600D02*
D03*
X86400D02*
D03*
X84000D02*
D03*
X3000Y-124000D02*
D03*
X6500D02*
D03*
X3000Y-127500D02*
D03*
X6500D02*
D03*
X8500Y-133000D02*
D03*
Y-142000D02*
D03*
Y-151000D02*
D03*
Y-137500D02*
D03*
Y-146500D02*
D03*
X16000Y-115000D02*
D03*
X19500Y-112000D02*
D03*
X16000D02*
D03*
X7000Y-108000D02*
D03*
X22500Y-125000D02*
D03*
Y-132500D02*
D03*
X26200Y-128700D02*
D03*
X57000Y-38000D02*
D03*
X61000D02*
D03*
X57000Y-43000D02*
D03*
X61000D02*
D03*
X119000Y-38000D02*
D03*
X121000D02*
D03*
Y-43000D02*
D03*
X123000D02*
D03*
X59000Y-38000D02*
D03*
Y-43000D02*
D03*
X123000Y-38000D02*
D03*
X119000Y-43000D02*
D03*
X163000Y-95000D02*
D03*
X169500Y-92500D02*
D03*
X166000Y-100000D02*
D03*
X172500Y-97500D02*
D03*
X138000Y-133500D02*
D03*
X151800D02*
D03*
X166500Y-84000D02*
D03*
X172800Y-86800D02*
D03*
M02*
