%FSLAX25Y25*%
%MOIN*%
G70*
G01*
G75*
G04 Layer_Physical_Order=2*
G04 Layer_Color=36540*
%ADD10C,0.00900*%
%ADD11C,0.00800*%
%ADD12C,0.01500*%
%ADD13C,0.03000*%
%ADD14C,0.05000*%
%ADD15C,0.01200*%
%ADD16C,0.02500*%
%ADD17C,0.02000*%
%ADD18C,0.04000*%
%ADD19R,0.02362X0.02756*%
%ADD20R,0.02756X0.02362*%
%ADD21O,0.05906X0.00984*%
%ADD22O,0.00984X0.05906*%
%ADD23R,0.06693X0.05512*%
%ADD24R,0.04331X0.05118*%
%ADD25O,0.06299X0.02362*%
%ADD26R,0.18898X0.17716*%
%ADD27R,0.06299X0.10630*%
%ADD28R,0.04331X0.03150*%
%ADD29R,0.02800X0.03500*%
%ADD30O,0.01969X0.06299*%
%ADD31R,0.01969X0.06299*%
%ADD32R,0.04331X0.05906*%
G04:AMPARAMS|DCode=33|XSize=157.48mil|YSize=196.85mil|CornerRadius=39.37mil|HoleSize=0mil|Usage=FLASHONLY|Rotation=180.000|XOffset=0mil|YOffset=0mil|HoleType=Round|Shape=RoundedRectangle|*
%AMROUNDEDRECTD33*
21,1,0.15748,0.11811,0,0,180.0*
21,1,0.07874,0.19685,0,0,180.0*
1,1,0.07874,-0.03937,0.05906*
1,1,0.07874,0.03937,0.05906*
1,1,0.07874,0.03937,-0.05906*
1,1,0.07874,-0.03937,-0.05906*
%
%ADD33ROUNDEDRECTD33*%
%ADD34R,0.04724X0.03150*%
%ADD35R,0.03150X0.02362*%
%ADD36R,0.02362X0.03150*%
%ADD37R,0.03937X0.10236*%
%ADD38R,0.03500X0.02800*%
%ADD39R,0.03543X0.05512*%
%ADD40R,0.08661X0.05512*%
%ADD41R,0.05118X0.03150*%
%ADD42R,0.11024X0.08268*%
%ADD43R,0.03543X0.05906*%
%ADD44R,0.10236X0.03937*%
%ADD45R,0.05512X0.06693*%
%ADD46R,0.05118X0.04331*%
%ADD47R,0.03150X0.04724*%
%ADD48R,0.12598X0.07874*%
%ADD49C,0.03937*%
%ADD50C,0.06500*%
%ADD51R,0.36600X0.13000*%
%ADD52R,0.04900X0.04900*%
%ADD53R,0.03000X0.05000*%
%ADD54R,0.12000X0.05500*%
%ADD55R,0.05500X0.10500*%
%ADD56R,0.05000X0.03000*%
%ADD57R,0.06200X0.41500*%
%ADD58R,0.07200X0.03100*%
%ADD59R,0.36000X0.13000*%
%ADD60R,0.06300X0.12400*%
%ADD61R,0.07700X0.12400*%
%ADD62C,0.25590*%
%ADD63C,0.10630*%
%ADD64O,0.07480X0.06299*%
%ADD65C,0.11811*%
%ADD66C,0.07874*%
%ADD67C,0.02362*%
%ADD68R,0.06400X0.04400*%
%ADD69R,0.06400X0.12400*%
%ADD70R,0.07200X0.02400*%
%ADD71R,0.02400X0.07200*%
%ADD72R,0.36700X0.13000*%
G36*
X177355Y-1561D02*
X176659Y-1849D01*
X174835Y-2967D01*
X173207Y-4357D01*
X171818Y-5984D01*
X170700Y-7809D01*
X169880Y-9786D01*
X169381Y-11867D01*
X169213Y-14000D01*
X169381Y-16133D01*
X169880Y-18214D01*
X170700Y-20191D01*
X171818Y-22016D01*
X173207Y-23643D01*
X174835Y-25033D01*
X176659Y-26151D01*
X178636Y-26970D01*
X180717Y-27469D01*
X182850Y-27637D01*
X184984Y-27469D01*
X187065Y-26970D01*
X189042Y-26151D01*
X190866Y-25033D01*
X192493Y-23643D01*
X193883Y-22016D01*
X195001Y-20191D01*
X195289Y-19496D01*
X195780Y-19593D01*
Y-77970D01*
X195328Y-78272D01*
X194673Y-77834D01*
X193900Y-77680D01*
X193127Y-77834D01*
X192472Y-78272D01*
X192034Y-78927D01*
X191880Y-79700D01*
X192034Y-80473D01*
X192472Y-81128D01*
X193127Y-81566D01*
X193900Y-81720D01*
X194673Y-81566D01*
X195328Y-81128D01*
X195780Y-81430D01*
Y-177257D01*
X195289Y-177355D01*
X195001Y-176659D01*
X193883Y-174835D01*
X192493Y-173207D01*
X190866Y-171818D01*
X189042Y-170700D01*
X187065Y-169880D01*
X184984Y-169381D01*
X182850Y-169213D01*
X180717Y-169381D01*
X178636Y-169880D01*
X176659Y-170700D01*
X174835Y-171818D01*
X173207Y-173207D01*
X171818Y-174835D01*
X170700Y-176659D01*
X169880Y-178636D01*
X169381Y-180717D01*
X169213Y-182850D01*
X169381Y-184984D01*
X169880Y-187065D01*
X170700Y-189042D01*
X171818Y-190866D01*
X173207Y-192493D01*
X174835Y-193883D01*
X176659Y-195001D01*
X177355Y-195289D01*
X177257Y-195780D01*
X35000D01*
Y-155500D01*
X70000D01*
Y-140500D01*
X35000D01*
Y-133000D01*
X48000D01*
Y-132816D01*
X70000D01*
X70312Y-132754D01*
X70577Y-132577D01*
X70754Y-132312D01*
X70816Y-132000D01*
Y-119000D01*
X70754Y-118688D01*
X70577Y-118423D01*
X70312Y-118246D01*
X70000Y-118184D01*
X48000D01*
Y-107500D01*
X41275Y-100775D01*
X41420Y-100297D01*
X41573Y-100266D01*
X42228Y-99828D01*
X42650Y-99197D01*
X43150D01*
X43572Y-99828D01*
X44227Y-100266D01*
X45000Y-100420D01*
X45773Y-100266D01*
X46428Y-99828D01*
X46866Y-99173D01*
X47020Y-98400D01*
X46866Y-97627D01*
X46428Y-96972D01*
X45773Y-96534D01*
X45000Y-96380D01*
X44227Y-96534D01*
X43572Y-96972D01*
X43150Y-97603D01*
X42650D01*
X42228Y-96972D01*
X41573Y-96534D01*
X40800Y-96380D01*
X40027Y-96534D01*
X39372Y-96972D01*
X39178Y-97261D01*
X38700Y-97116D01*
Y-93500D01*
X58684D01*
Y-94200D01*
X58746Y-94512D01*
X58923Y-94777D01*
X59188Y-94954D01*
X59500Y-95016D01*
X60679D01*
X60700Y-95020D01*
X60721Y-95016D01*
X62679D01*
X62700Y-95020D01*
X62721Y-95016D01*
X64679D01*
X64700Y-95020D01*
X64721Y-95016D01*
X65900D01*
X66212Y-94954D01*
X66477Y-94777D01*
X66654Y-94512D01*
X66716Y-94200D01*
Y-93500D01*
X92166D01*
X92311Y-93979D01*
X92172Y-94072D01*
X91734Y-94727D01*
X91580Y-95500D01*
X91734Y-96273D01*
X91979Y-96641D01*
X91923Y-96923D01*
X91923Y-96923D01*
X91923D01*
X91746Y-97188D01*
X91684Y-97500D01*
Y-100500D01*
X91746Y-100812D01*
X91923Y-101077D01*
X92188Y-101254D01*
X92500Y-101316D01*
X97500D01*
X97812Y-101254D01*
X98077Y-101077D01*
X98254Y-100812D01*
X98316Y-100500D01*
Y-97500D01*
X98254Y-97188D01*
X98077Y-96923D01*
X97812Y-96746D01*
X97500Y-96684D01*
X95686D01*
X95466Y-96273D01*
X95620Y-95500D01*
X95466Y-94727D01*
X95028Y-94072D01*
X94390Y-93645D01*
X94390Y-93645D01*
X94390D01*
X94373Y-93634D01*
Y-93634D01*
X94386Y-93500D01*
X103966D01*
X104111Y-93979D01*
X103972Y-94072D01*
X103534Y-94727D01*
X103380Y-95500D01*
X103534Y-96273D01*
X103972Y-96928D01*
X104627Y-97366D01*
X105400Y-97520D01*
X106173Y-97366D01*
X106828Y-96928D01*
X107266Y-96273D01*
X107420Y-95500D01*
X107266Y-94727D01*
X106828Y-94072D01*
X106190Y-93645D01*
X106190Y-93645D01*
X106190D01*
X106173Y-93634D01*
Y-93634D01*
X106186Y-93500D01*
X114066D01*
X114211Y-93979D01*
X114072Y-94072D01*
X113634Y-94727D01*
X113480Y-95500D01*
X113634Y-96273D01*
X114072Y-96928D01*
X114727Y-97366D01*
X115500Y-97520D01*
X116273Y-97366D01*
X116928Y-96928D01*
X117366Y-96273D01*
X117520Y-95500D01*
X117366Y-94727D01*
X116928Y-94072D01*
X116290Y-93645D01*
X116290Y-93645D01*
X116290D01*
X116273Y-93634D01*
Y-93634D01*
X116286Y-93500D01*
X126500D01*
Y-77300D01*
X143500D01*
X148000Y-72800D01*
Y-55000D01*
X144300D01*
X138700Y-49400D01*
X126500D01*
Y-1071D01*
X177257D01*
X177355Y-1561D01*
D02*
G37*
G36*
X125500Y-34184D02*
X125002Y-34233D01*
X124954Y-33988D01*
X124777Y-33723D01*
X124512Y-33546D01*
X124200Y-33484D01*
X117800D01*
X117488Y-33546D01*
X117223Y-33723D01*
X117046Y-33988D01*
X116984Y-34300D01*
Y-37979D01*
X116980Y-38000D01*
X116984Y-38021D01*
Y-42979D01*
X116980Y-43000D01*
X116984Y-43021D01*
Y-46700D01*
X117046Y-47012D01*
X117223Y-47277D01*
X117488Y-47454D01*
X117800Y-47516D01*
X124200D01*
X124512Y-47454D01*
X124777Y-47277D01*
X124954Y-47012D01*
X125002Y-46767D01*
X125500Y-46816D01*
Y-92500D01*
X66716D01*
Y-91021D01*
X66720Y-91000D01*
X66716Y-90979D01*
Y-89800D01*
X66654Y-89488D01*
X66477Y-89223D01*
X66212Y-89046D01*
X65900Y-88984D01*
X64721D01*
X64700Y-88980D01*
X64679Y-88984D01*
X62721D01*
X62700Y-88980D01*
X62679Y-88984D01*
X60721D01*
X60700Y-88980D01*
X60679Y-88984D01*
X59500D01*
X59188Y-89046D01*
X58923Y-89223D01*
X58746Y-89488D01*
X58684Y-89800D01*
Y-90979D01*
X58680Y-91000D01*
X58684Y-91021D01*
Y-92500D01*
X37700D01*
Y-98600D01*
X47000Y-107900D01*
Y-118184D01*
X34000D01*
X33688Y-118246D01*
X33423Y-118423D01*
X33246Y-118688D01*
X33184Y-119000D01*
Y-132000D01*
X33246Y-132312D01*
X33423Y-132577D01*
X33688Y-132754D01*
X34000Y-132816D01*
Y-195780D01*
X19593D01*
X19496Y-195289D01*
X20191Y-195001D01*
X22016Y-193883D01*
X23643Y-192493D01*
X25033Y-190866D01*
X26151Y-189042D01*
X26970Y-187065D01*
X27469Y-184984D01*
X27637Y-182850D01*
X27469Y-180717D01*
X26970Y-178636D01*
X26151Y-176659D01*
X25033Y-174835D01*
X23643Y-173207D01*
X22016Y-171818D01*
X20191Y-170700D01*
X18214Y-169880D01*
X16133Y-169381D01*
X14000Y-169213D01*
X11867Y-169381D01*
X9786Y-169880D01*
X7809Y-170700D01*
X5984Y-171818D01*
X4357Y-173207D01*
X2967Y-174835D01*
X1849Y-176659D01*
X1561Y-177355D01*
X1071Y-177257D01*
Y-98624D01*
X1457Y-98307D01*
X1500Y-98316D01*
X2679D01*
X2700Y-98320D01*
X2721Y-98316D01*
X3900D01*
X4212Y-98254D01*
X4477Y-98077D01*
X4654Y-97812D01*
X4716Y-97500D01*
Y-96321D01*
X4720Y-96300D01*
X4716Y-96279D01*
Y-95361D01*
X4815Y-95212D01*
X5102Y-94976D01*
X5300Y-95016D01*
X6479D01*
X6500Y-95020D01*
X6521Y-95016D01*
X8479D01*
X8500Y-95020D01*
X8521Y-95016D01*
X10479D01*
X10500Y-95020D01*
X10521Y-95016D01*
X11700D01*
X12012Y-94954D01*
X12277Y-94777D01*
X12454Y-94512D01*
X12516Y-94200D01*
Y-93021D01*
X12520Y-93000D01*
X12516Y-92979D01*
Y-91021D01*
X12520Y-91000D01*
X12516Y-90979D01*
Y-89800D01*
X12454Y-89488D01*
X12277Y-89223D01*
X12012Y-89046D01*
X11700Y-88984D01*
X10521D01*
X10500Y-88980D01*
X10479Y-88984D01*
X8521D01*
X8500Y-88980D01*
X8479Y-88984D01*
X6521D01*
X6500Y-88980D01*
X6479Y-88984D01*
X5300D01*
X4988Y-89046D01*
X4723Y-89223D01*
X4546Y-89488D01*
D01*
Y-89488D01*
X4546Y-89488D01*
Y-89488D01*
Y-89488D01*
X4273Y-89587D01*
X4212Y-89546D01*
X3900Y-89484D01*
X2721D01*
X2700Y-89480D01*
X2679Y-89484D01*
X1500D01*
X1457Y-89493D01*
X1071Y-89176D01*
Y-19593D01*
X1561Y-19496D01*
X1849Y-20191D01*
X2967Y-22016D01*
X4357Y-23643D01*
X5984Y-25033D01*
X7809Y-26151D01*
X9786Y-26970D01*
X11867Y-27469D01*
X14000Y-27637D01*
X16133Y-27469D01*
X18214Y-26970D01*
X20191Y-26151D01*
X22016Y-25033D01*
X23643Y-23643D01*
X25033Y-22016D01*
X26151Y-20191D01*
X26970Y-18214D01*
X27469Y-16133D01*
X27637Y-14000D01*
X27469Y-11867D01*
X26970Y-9786D01*
X26151Y-7809D01*
X25033Y-5984D01*
X23643Y-4357D01*
X22016Y-2967D01*
X20191Y-1849D01*
X19496Y-1561D01*
X19593Y-1071D01*
X125500D01*
Y-34184D01*
D02*
G37*
G36*
X143800Y-56000D02*
X147000D01*
Y-72300D01*
X143000Y-76300D01*
X126500D01*
Y-50400D01*
X138200D01*
X143800Y-56000D01*
D02*
G37*
%LPC*%
G36*
X151800Y-131480D02*
X151027Y-131634D01*
X150372Y-132072D01*
X149934Y-132727D01*
X149780Y-133500D01*
X149934Y-134273D01*
X150372Y-134928D01*
X151027Y-135366D01*
X151800Y-135520D01*
X152573Y-135366D01*
X153228Y-134928D01*
X153666Y-134273D01*
X153820Y-133500D01*
X153666Y-132727D01*
X153228Y-132072D01*
X152573Y-131634D01*
X151800Y-131480D01*
D02*
G37*
G36*
X138000D02*
X137227Y-131634D01*
X136572Y-132072D01*
X136134Y-132727D01*
X135980Y-133500D01*
X136134Y-134273D01*
X136572Y-134928D01*
X137227Y-135366D01*
X138000Y-135520D01*
X138773Y-135366D01*
X139428Y-134928D01*
X139866Y-134273D01*
X140020Y-133500D01*
X139866Y-132727D01*
X139428Y-132072D01*
X138773Y-131634D01*
X138000Y-131480D01*
D02*
G37*
G36*
X75000Y-132980D02*
X74227Y-133134D01*
X73572Y-133572D01*
X73134Y-134227D01*
X72980Y-135000D01*
X73134Y-135773D01*
X73286Y-136000D01*
X73134Y-136227D01*
X72980Y-137000D01*
X73134Y-137773D01*
X73572Y-138428D01*
X74227Y-138866D01*
X75000Y-139020D01*
X75773Y-138866D01*
X76428Y-138428D01*
X76866Y-137773D01*
X77020Y-137000D01*
X76866Y-136227D01*
X76714Y-136000D01*
X76866Y-135773D01*
X77020Y-135000D01*
X76866Y-134227D01*
X76428Y-133572D01*
X75773Y-133134D01*
X75000Y-132980D01*
D02*
G37*
G36*
X147300Y-118580D02*
X146527Y-118734D01*
X145872Y-119172D01*
X145434Y-119827D01*
X145280Y-120600D01*
X145434Y-121373D01*
X145872Y-122028D01*
X146527Y-122466D01*
X147300Y-122620D01*
X148073Y-122466D01*
X148728Y-122028D01*
X149166Y-121373D01*
X149320Y-120600D01*
X149166Y-119827D01*
X148728Y-119172D01*
X148073Y-118734D01*
X147300Y-118580D01*
D02*
G37*
G36*
X147600Y-105480D02*
X146827Y-105634D01*
X146172Y-106072D01*
X145734Y-106727D01*
X145580Y-107500D01*
X145734Y-108273D01*
X146172Y-108928D01*
X146827Y-109366D01*
X147600Y-109520D01*
X148373Y-109366D01*
X149028Y-108928D01*
X149466Y-108273D01*
X149620Y-107500D01*
X149466Y-106727D01*
X149028Y-106072D01*
X148373Y-105634D01*
X147600Y-105480D01*
D02*
G37*
G36*
X180100Y-120280D02*
X179327Y-120434D01*
X178672Y-120872D01*
X178234Y-121527D01*
X178080Y-122300D01*
X178234Y-123073D01*
X178672Y-123728D01*
X179327Y-124166D01*
X180100Y-124320D01*
X180873Y-124166D01*
X181528Y-123728D01*
X181966Y-123073D01*
X182120Y-122300D01*
X181966Y-121527D01*
X181528Y-120872D01*
X180873Y-120434D01*
X180100Y-120280D01*
D02*
G37*
G36*
X125500Y-132980D02*
X125479Y-132984D01*
X123021D01*
X123000Y-132980D01*
X122979Y-132984D01*
X121800D01*
X121488Y-133046D01*
X121223Y-133223D01*
X121046Y-133488D01*
X120984Y-133800D01*
Y-134979D01*
X120980Y-135000D01*
X120984Y-135021D01*
Y-137479D01*
X120980Y-137500D01*
X120984Y-137521D01*
Y-138700D01*
X121046Y-139012D01*
X121223Y-139277D01*
X121488Y-139454D01*
X121800Y-139516D01*
X122979D01*
X123000Y-139520D01*
X123021Y-139516D01*
X125479D01*
X125500Y-139520D01*
X125521Y-139516D01*
X126700D01*
X127012Y-139454D01*
X127277Y-139277D01*
X127454Y-139012D01*
X127516Y-138700D01*
Y-137521D01*
X127520Y-137500D01*
X127516Y-137479D01*
Y-135021D01*
X127520Y-135000D01*
X127516Y-134979D01*
Y-133800D01*
X127454Y-133488D01*
X127277Y-133223D01*
X127012Y-133046D01*
X126700Y-132984D01*
X125521D01*
X125500Y-132980D01*
D02*
G37*
G36*
X141700Y-126580D02*
X140927Y-126734D01*
X140272Y-127172D01*
X139834Y-127827D01*
X139680Y-128600D01*
X139834Y-129373D01*
X140272Y-130028D01*
X140927Y-130466D01*
X141700Y-130620D01*
X142473Y-130466D01*
X143128Y-130028D01*
X143566Y-129373D01*
X143720Y-128600D01*
X143566Y-127827D01*
X143128Y-127172D01*
X142473Y-126734D01*
X141700Y-126580D01*
D02*
G37*
G36*
X119491Y-149589D02*
X118309D01*
X117278Y-149724D01*
X116318Y-150122D01*
X115493Y-150756D01*
X114859Y-151581D01*
X114462Y-152541D01*
X114326Y-153572D01*
X114462Y-154604D01*
X114859Y-155564D01*
X115493Y-156389D01*
X116318Y-157022D01*
X117278Y-157420D01*
X118309Y-157556D01*
X119491D01*
X120522Y-157420D01*
X121482Y-157022D01*
X122307Y-156389D01*
X122941Y-155564D01*
X123338Y-154604D01*
X123474Y-153572D01*
X123338Y-152541D01*
X122941Y-151581D01*
X122307Y-150756D01*
X121482Y-150122D01*
X120522Y-149724D01*
X119491Y-149589D01*
D02*
G37*
G36*
X164500Y-183480D02*
X163727Y-183634D01*
X163072Y-184072D01*
X162634Y-184727D01*
X162480Y-185500D01*
X162634Y-186273D01*
X163072Y-186928D01*
X163727Y-187366D01*
X164500Y-187520D01*
X165273Y-187366D01*
X165928Y-186928D01*
X166366Y-186273D01*
X166520Y-185500D01*
X166366Y-184727D01*
X165928Y-184072D01*
X165273Y-183634D01*
X164500Y-183480D01*
D02*
G37*
G36*
X158200Y-169480D02*
X157427Y-169634D01*
X156772Y-170072D01*
X156334Y-170727D01*
X156180Y-171500D01*
X156334Y-172273D01*
X156772Y-172928D01*
X157427Y-173366D01*
X158200Y-173520D01*
X158973Y-173366D01*
X159628Y-172928D01*
X160066Y-172273D01*
X160220Y-171500D01*
X160066Y-170727D01*
X159628Y-170072D01*
X158973Y-169634D01*
X158200Y-169480D01*
D02*
G37*
G36*
X118900Y-176955D02*
X117701Y-177074D01*
X116549Y-177423D01*
X115486Y-177991D01*
X114555Y-178755D01*
X113791Y-179686D01*
X113223Y-180749D01*
X112873Y-181901D01*
X112755Y-183100D01*
X112873Y-184299D01*
X113223Y-185451D01*
X113791Y-186514D01*
X114555Y-187445D01*
X115486Y-188209D01*
X116549Y-188777D01*
X117701Y-189127D01*
X118900Y-189245D01*
X120099Y-189127D01*
X121251Y-188777D01*
X122314Y-188209D01*
X123245Y-187445D01*
X124009Y-186514D01*
X124577Y-185451D01*
X124926Y-184299D01*
X125045Y-183100D01*
X124926Y-181901D01*
X124577Y-180749D01*
X124009Y-179686D01*
X123245Y-178755D01*
X122314Y-177991D01*
X121251Y-177423D01*
X120099Y-177074D01*
X118900Y-176955D01*
D02*
G37*
G36*
X132000Y-189980D02*
X131227Y-190134D01*
X130572Y-190572D01*
X130134Y-191227D01*
X129980Y-192000D01*
X130134Y-192773D01*
X130572Y-193428D01*
X131227Y-193866D01*
X132000Y-194020D01*
X132773Y-193866D01*
X133428Y-193428D01*
X133866Y-192773D01*
X134020Y-192000D01*
X133866Y-191227D01*
X133428Y-190572D01*
X132773Y-190134D01*
X132000Y-189980D01*
D02*
G37*
G36*
X91000Y-176955D02*
X89801Y-177074D01*
X88649Y-177423D01*
X87586Y-177991D01*
X86655Y-178755D01*
X85891Y-179686D01*
X85323Y-180749D01*
X84974Y-181901D01*
X84855Y-183100D01*
X84974Y-184299D01*
X85323Y-185451D01*
X85891Y-186514D01*
X86655Y-187445D01*
X87586Y-188209D01*
X88649Y-188777D01*
X89801Y-189127D01*
X91000Y-189245D01*
X92199Y-189127D01*
X93351Y-188777D01*
X94414Y-188209D01*
X95345Y-187445D01*
X96109Y-186514D01*
X96677Y-185451D01*
X97026Y-184299D01*
X97145Y-183100D01*
X97026Y-181901D01*
X96677Y-180749D01*
X96109Y-179686D01*
X95345Y-178755D01*
X94414Y-177991D01*
X93351Y-177423D01*
X92199Y-177074D01*
X91000Y-176955D01*
D02*
G37*
G36*
X119491Y-161400D02*
X118309D01*
X117278Y-161536D01*
X116318Y-161934D01*
X115493Y-162567D01*
X114859Y-163392D01*
X114462Y-164352D01*
X114326Y-165384D01*
X114462Y-166414D01*
X114859Y-167375D01*
X115493Y-168200D01*
X116318Y-168833D01*
X117278Y-169231D01*
X118309Y-169367D01*
X119491D01*
X120522Y-169231D01*
X121482Y-168833D01*
X122307Y-168200D01*
X122941Y-167375D01*
X123338Y-166414D01*
X123474Y-165384D01*
X123338Y-164352D01*
X122941Y-163392D01*
X122307Y-162567D01*
X121482Y-161934D01*
X120522Y-161536D01*
X119491Y-161400D01*
D02*
G37*
G36*
X91590Y-149589D02*
X90409D01*
X89378Y-149724D01*
X88418Y-150122D01*
X87593Y-150756D01*
X86959Y-151581D01*
X86562Y-152541D01*
X86426Y-153572D01*
X86562Y-154604D01*
X86959Y-155564D01*
X87593Y-156389D01*
X88418Y-157022D01*
X89378Y-157420D01*
X90409Y-157556D01*
X91590D01*
X92622Y-157420D01*
X93582Y-157022D01*
X94407Y-156389D01*
X95041Y-155564D01*
X95438Y-154604D01*
X95574Y-153572D01*
X95438Y-152541D01*
X95041Y-151581D01*
X94407Y-150756D01*
X93582Y-150122D01*
X92622Y-149724D01*
X91590Y-149589D01*
D02*
G37*
G36*
Y-161400D02*
X90409D01*
X89378Y-161536D01*
X88418Y-161934D01*
X87593Y-162567D01*
X86959Y-163392D01*
X86562Y-164352D01*
X86426Y-165384D01*
X86562Y-166414D01*
X86959Y-167375D01*
X87593Y-168200D01*
X88418Y-168833D01*
X89378Y-169231D01*
X90409Y-169367D01*
X91590D01*
X92622Y-169231D01*
X93582Y-168833D01*
X94407Y-168200D01*
X95041Y-167375D01*
X95438Y-166414D01*
X95574Y-165384D01*
X95438Y-164352D01*
X95041Y-163392D01*
X94407Y-162567D01*
X93582Y-161934D01*
X92622Y-161536D01*
X91590Y-161400D01*
D02*
G37*
G36*
X136600Y-166680D02*
X135827Y-166834D01*
X135172Y-167272D01*
X134734Y-167927D01*
X134580Y-168700D01*
X134734Y-169473D01*
X135172Y-170128D01*
X135827Y-170566D01*
X136600Y-170720D01*
X137373Y-170566D01*
X138028Y-170128D01*
X138466Y-169473D01*
X138620Y-168700D01*
X138466Y-167927D01*
X138028Y-167272D01*
X137373Y-166834D01*
X136600Y-166680D01*
D02*
G37*
G36*
X142500D02*
X141727Y-166834D01*
X141072Y-167272D01*
X140634Y-167927D01*
X140480Y-168700D01*
X140634Y-169473D01*
X141072Y-170128D01*
X141727Y-170566D01*
X142500Y-170720D01*
X143273Y-170566D01*
X143928Y-170128D01*
X144366Y-169473D01*
X144520Y-168700D01*
X144366Y-167927D01*
X143928Y-167272D01*
X143273Y-166834D01*
X142500Y-166680D01*
D02*
G37*
G36*
X152900Y-59680D02*
X152127Y-59834D01*
X151472Y-60272D01*
X151034Y-60927D01*
X150880Y-61700D01*
X151034Y-62473D01*
X151472Y-63128D01*
X152127Y-63566D01*
X152900Y-63720D01*
X153673Y-63566D01*
X154328Y-63128D01*
X154766Y-62473D01*
X154920Y-61700D01*
X154766Y-60927D01*
X154328Y-60272D01*
X153673Y-59834D01*
X152900Y-59680D01*
D02*
G37*
G36*
X151996Y-40144D02*
X150815D01*
X149784Y-40280D01*
X148823Y-40678D01*
X147998Y-41311D01*
X147365Y-42136D01*
X146967Y-43097D01*
X146831Y-44128D01*
X146967Y-45159D01*
X147365Y-46119D01*
X147998Y-46944D01*
X148823Y-47578D01*
X149784Y-47976D01*
X150815Y-48111D01*
X151996D01*
X153027Y-47976D01*
X153988Y-47578D01*
X154813Y-46944D01*
X155446Y-46119D01*
X155844Y-45159D01*
X155980Y-44128D01*
X155844Y-43097D01*
X155446Y-42136D01*
X154813Y-41311D01*
X153988Y-40678D01*
X153027Y-40280D01*
X151996Y-40144D01*
D02*
G37*
G36*
X163900Y-68480D02*
X163127Y-68634D01*
X162472Y-69072D01*
X162034Y-69727D01*
X161880Y-70500D01*
X162034Y-71273D01*
X162472Y-71928D01*
X163127Y-72366D01*
X163900Y-72520D01*
X164673Y-72366D01*
X165328Y-71928D01*
X165766Y-71273D01*
X165920Y-70500D01*
X165766Y-69727D01*
X165328Y-69072D01*
X164673Y-68634D01*
X163900Y-68480D01*
D02*
G37*
G36*
X174000Y-61580D02*
X173227Y-61734D01*
X172572Y-62172D01*
X172134Y-62827D01*
X171980Y-63600D01*
X172134Y-64373D01*
X172572Y-65028D01*
X173227Y-65466D01*
X174000Y-65620D01*
X174773Y-65466D01*
X175428Y-65028D01*
X175866Y-64373D01*
X176020Y-63600D01*
X175866Y-62827D01*
X175428Y-62172D01*
X174773Y-61734D01*
X174000Y-61580D01*
D02*
G37*
G36*
X62200Y-33484D02*
X55900D01*
X55588Y-33546D01*
X55323Y-33723D01*
X55146Y-33988D01*
X55084Y-34300D01*
Y-37476D01*
X54980Y-38000D01*
X55084Y-38524D01*
Y-42476D01*
X54980Y-43000D01*
X55084Y-43524D01*
Y-46700D01*
X55146Y-47012D01*
X55323Y-47277D01*
X55588Y-47454D01*
X55900Y-47516D01*
X62200D01*
X62512Y-47454D01*
X62777Y-47277D01*
X62954Y-47012D01*
X63016Y-46700D01*
Y-43021D01*
X63020Y-43000D01*
X63016Y-42979D01*
Y-38021D01*
X63020Y-38000D01*
X63016Y-37979D01*
Y-34300D01*
X62954Y-33988D01*
X62777Y-33723D01*
X62512Y-33546D01*
X62200Y-33484D01*
D02*
G37*
G36*
X151996Y-28333D02*
X150815D01*
X149784Y-28469D01*
X148823Y-28867D01*
X147998Y-29500D01*
X147365Y-30325D01*
X146967Y-31286D01*
X146831Y-32316D01*
X146967Y-33348D01*
X147365Y-34308D01*
X147998Y-35133D01*
X148823Y-35767D01*
X149784Y-36165D01*
X150815Y-36300D01*
X151996D01*
X153027Y-36165D01*
X153988Y-35767D01*
X154813Y-35133D01*
X155446Y-34308D01*
X155844Y-33348D01*
X155980Y-32316D01*
X155844Y-31286D01*
X155446Y-30325D01*
X154813Y-29500D01*
X153988Y-28867D01*
X153027Y-28469D01*
X151996Y-28333D01*
D02*
G37*
G36*
X145500Y-8456D02*
X144301Y-8574D01*
X143149Y-8923D01*
X142086Y-9491D01*
X141155Y-10255D01*
X140391Y-11186D01*
X139823Y-12249D01*
X139473Y-13401D01*
X139355Y-14600D01*
X139473Y-15799D01*
X139823Y-16951D01*
X140391Y-18014D01*
X141155Y-18945D01*
X142086Y-19709D01*
X143149Y-20277D01*
X144301Y-20627D01*
X145500Y-20745D01*
X146699Y-20627D01*
X147851Y-20277D01*
X148914Y-19709D01*
X149845Y-18945D01*
X150609Y-18014D01*
X151177Y-16951D01*
X151526Y-15799D01*
X151645Y-14600D01*
X151526Y-13401D01*
X151177Y-12249D01*
X150609Y-11186D01*
X149845Y-10255D01*
X148914Y-9491D01*
X147851Y-8923D01*
X146699Y-8574D01*
X145500Y-8456D01*
D02*
G37*
G36*
X171300Y-40480D02*
X170527Y-40634D01*
X169872Y-41072D01*
X169434Y-41727D01*
X169280Y-42500D01*
X169434Y-43273D01*
X169872Y-43928D01*
Y-43972D01*
X169434Y-44627D01*
X169280Y-45400D01*
X169434Y-46173D01*
X169872Y-46828D01*
X170527Y-47266D01*
X171300Y-47420D01*
X172073Y-47266D01*
X172728Y-46828D01*
X173166Y-46173D01*
X173320Y-45400D01*
X173166Y-44627D01*
X172728Y-43972D01*
Y-43928D01*
X173166Y-43273D01*
X173320Y-42500D01*
X173166Y-41727D01*
X172728Y-41072D01*
X172073Y-40634D01*
X171300Y-40480D01*
D02*
G37*
G36*
X140185Y-28333D02*
X139004D01*
X137973Y-28469D01*
X137012Y-28867D01*
X136187Y-29500D01*
X135554Y-30325D01*
X135156Y-31286D01*
X135020Y-32316D01*
X135156Y-33348D01*
X135554Y-34308D01*
X136187Y-35133D01*
X137012Y-35767D01*
X137973Y-36165D01*
X139004Y-36300D01*
X140185D01*
X141216Y-36165D01*
X142177Y-35767D01*
X143002Y-35133D01*
X143635Y-34308D01*
X144033Y-33348D01*
X144169Y-32316D01*
X144033Y-31286D01*
X143635Y-30325D01*
X143002Y-29500D01*
X142177Y-28867D01*
X141216Y-28469D01*
X140185Y-28333D01*
D02*
G37*
G36*
X86400Y-75980D02*
X86379Y-75984D01*
X84021D01*
X84000Y-75980D01*
X83979Y-75984D01*
X81621D01*
X81600Y-75980D01*
X81579Y-75984D01*
X80400D01*
X80088Y-76046D01*
X79823Y-76223D01*
X79646Y-76488D01*
X79584Y-76800D01*
Y-77979D01*
X79580Y-78000D01*
X79584Y-78021D01*
Y-79200D01*
X79646Y-79512D01*
X79823Y-79777D01*
X80088Y-79954D01*
X80400Y-80016D01*
X81579D01*
X81600Y-80020D01*
X81621Y-80016D01*
X83979D01*
X84000Y-80020D01*
X84021Y-80016D01*
X86379D01*
X86400Y-80020D01*
X86421Y-80016D01*
X87600D01*
X87912Y-79954D01*
X88177Y-79777D01*
X88354Y-79512D01*
X88416Y-79200D01*
Y-78021D01*
X88420Y-78000D01*
X88416Y-77979D01*
Y-76800D01*
X88354Y-76488D01*
X88177Y-76223D01*
X87912Y-76046D01*
X87600Y-75984D01*
X86421D01*
X86400Y-75980D01*
D02*
G37*
G36*
X157200Y-92980D02*
X156427Y-93134D01*
X155772Y-93572D01*
X155334Y-94227D01*
X155180Y-95000D01*
X155334Y-95773D01*
X155772Y-96428D01*
X156427Y-96866D01*
X157200Y-97020D01*
X157973Y-96866D01*
X158628Y-96428D01*
X159066Y-95773D01*
X159220Y-95000D01*
X159066Y-94227D01*
X158628Y-93572D01*
X157973Y-93134D01*
X157200Y-92980D01*
D02*
G37*
G36*
X163000D02*
X162227Y-93134D01*
X161572Y-93572D01*
X161134Y-94227D01*
X160980Y-95000D01*
X161134Y-95773D01*
X161572Y-96428D01*
X162227Y-96866D01*
X163000Y-97020D01*
X163773Y-96866D01*
X164428Y-96428D01*
X164866Y-95773D01*
X165020Y-95000D01*
X164866Y-94227D01*
X164428Y-93572D01*
X163773Y-93134D01*
X163000Y-92980D01*
D02*
G37*
G36*
X166000Y-97980D02*
X165227Y-98134D01*
X164572Y-98572D01*
X164134Y-99227D01*
X163980Y-100000D01*
X164134Y-100773D01*
X164572Y-101428D01*
X165227Y-101866D01*
X166000Y-102020D01*
X166773Y-101866D01*
X167428Y-101428D01*
X167866Y-100773D01*
X168020Y-100000D01*
X167866Y-99227D01*
X167428Y-98572D01*
X166773Y-98134D01*
X166000Y-97980D01*
D02*
G37*
G36*
X172500Y-95480D02*
X171727Y-95634D01*
X171072Y-96072D01*
X170634Y-96727D01*
X170480Y-97500D01*
X170634Y-98273D01*
X171072Y-98928D01*
X171727Y-99366D01*
X172500Y-99520D01*
X173273Y-99366D01*
X173928Y-98928D01*
X174366Y-98273D01*
X174520Y-97500D01*
X174366Y-96727D01*
X173928Y-96072D01*
X173273Y-95634D01*
X172500Y-95480D01*
D02*
G37*
G36*
X169500Y-90480D02*
X168727Y-90634D01*
X168072Y-91072D01*
X167634Y-91727D01*
X167480Y-92500D01*
X167634Y-93273D01*
X168072Y-93928D01*
X168727Y-94366D01*
X169500Y-94520D01*
X170273Y-94366D01*
X170928Y-93928D01*
X171366Y-93273D01*
X171520Y-92500D01*
X171366Y-91727D01*
X170928Y-91072D01*
X170273Y-90634D01*
X169500Y-90480D01*
D02*
G37*
G36*
X179500Y-79680D02*
X178727Y-79834D01*
X178072Y-80272D01*
X177634Y-80927D01*
X177537Y-81414D01*
X177121Y-81692D01*
X177000Y-81668D01*
X176227Y-81822D01*
X175572Y-82260D01*
X175134Y-82915D01*
X174980Y-83688D01*
X175134Y-84461D01*
X175347Y-84779D01*
X175249Y-85270D01*
X175022Y-85422D01*
X174892Y-85616D01*
X174392D01*
X174228Y-85372D01*
X173573Y-84934D01*
X172800Y-84780D01*
X172027Y-84934D01*
X171372Y-85372D01*
X170934Y-86027D01*
X170780Y-86800D01*
X170934Y-87573D01*
X171372Y-88228D01*
X172027Y-88666D01*
X172800Y-88820D01*
X173573Y-88666D01*
X174228Y-88228D01*
X174358Y-88034D01*
X174858D01*
X175022Y-88278D01*
X175677Y-88716D01*
X176450Y-88870D01*
X177223Y-88716D01*
X177878Y-88278D01*
X178316Y-87623D01*
X178470Y-86850D01*
X178316Y-86077D01*
X178103Y-85759D01*
X178201Y-85268D01*
X178428Y-85116D01*
X178866Y-84461D01*
X178963Y-83974D01*
X179379Y-83696D01*
X179500Y-83720D01*
X180273Y-83566D01*
X180928Y-83128D01*
X181366Y-82473D01*
X181520Y-81700D01*
X181366Y-80927D01*
X180928Y-80272D01*
X180273Y-79834D01*
X179500Y-79680D01*
D02*
G37*
G36*
X29400Y-75980D02*
X29379Y-75984D01*
X27021D01*
X27000Y-75980D01*
X26979Y-75984D01*
X24621D01*
X24600Y-75980D01*
X24579Y-75984D01*
X23400D01*
X23088Y-76046D01*
X22823Y-76223D01*
X22646Y-76488D01*
X22584Y-76800D01*
Y-77979D01*
X22580Y-78000D01*
X22584Y-78021D01*
Y-79200D01*
X22646Y-79512D01*
X22823Y-79777D01*
X23088Y-79954D01*
X23400Y-80016D01*
X24579D01*
X24600Y-80020D01*
X24621Y-80016D01*
X26979D01*
X27000Y-80020D01*
X27021Y-80016D01*
X29379D01*
X29400Y-80020D01*
X29421Y-80016D01*
X30600D01*
X30912Y-79954D01*
X31177Y-79777D01*
X31354Y-79512D01*
X31416Y-79200D01*
Y-78021D01*
X31420Y-78000D01*
X31416Y-77979D01*
Y-76800D01*
X31354Y-76488D01*
X31177Y-76223D01*
X30912Y-76046D01*
X30600Y-75984D01*
X29421D01*
X29400Y-75980D01*
D02*
G37*
G36*
X166500Y-81980D02*
X165727Y-82134D01*
X165072Y-82572D01*
X164634Y-83227D01*
X164480Y-84000D01*
X164634Y-84773D01*
X165072Y-85428D01*
X165727Y-85866D01*
X166500Y-86020D01*
X167273Y-85866D01*
X167928Y-85428D01*
X168366Y-84773D01*
X168520Y-84000D01*
X168366Y-83227D01*
X167928Y-82572D01*
X167273Y-82134D01*
X166500Y-81980D01*
D02*
G37*
G36*
X138600Y-77980D02*
X137827Y-78134D01*
X137172Y-78572D01*
X136734Y-79227D01*
X136580Y-80000D01*
X136734Y-80773D01*
X137172Y-81428D01*
X137827Y-81866D01*
X138600Y-82020D01*
X139373Y-81866D01*
X140028Y-81428D01*
X140466Y-80773D01*
X140620Y-80000D01*
X140466Y-79227D01*
X140028Y-78572D01*
X139373Y-78134D01*
X138600Y-77980D01*
D02*
G37*
%LPD*%
D52*
X124250Y-136250D02*
D03*
D56*
X95000Y-99000D02*
D03*
D59*
X52000Y-125500D02*
D03*
D60*
X59050Y-40500D02*
D03*
D62*
X182850Y-14000D02*
D03*
X14000D02*
D03*
Y-182850D02*
D03*
X182850D02*
D03*
D63*
X118900Y-183100D02*
D03*
X91000D02*
D03*
X145500Y-14600D02*
D03*
D64*
X118900Y-165384D02*
D03*
Y-153572D02*
D03*
X91000Y-165384D02*
D03*
Y-153572D02*
D03*
X139594Y-44128D02*
D03*
Y-32316D02*
D03*
X151406D02*
D03*
Y-44128D02*
D03*
D65*
X63500Y-148000D02*
D03*
X63500Y-125559D02*
D03*
X40500Y-148000D02*
D03*
X40500Y-125559D02*
D03*
D66*
X-19685Y200787D02*
D03*
Y-188976D02*
D03*
X425197D02*
D03*
Y200787D02*
D03*
D67*
X176100Y-69700D02*
D03*
X146400Y-86300D02*
D03*
X75000Y-95000D02*
D03*
X138000Y-123000D02*
D03*
X120000Y-130000D02*
D03*
X177500Y-162500D02*
D03*
X170000D02*
D03*
X130000Y-177500D02*
D03*
Y-162500D02*
D03*
X80000Y-150000D02*
D03*
X105000Y-192500D02*
D03*
Y-177500D02*
D03*
X72500Y-192500D02*
D03*
X57500D02*
D03*
X42500D02*
D03*
X72500Y-177500D02*
D03*
X57500D02*
D03*
X42500D02*
D03*
X72500Y-162500D02*
D03*
X57500D02*
D03*
X42500D02*
D03*
X178000Y-36000D02*
D03*
Y-31000D02*
D03*
X172000D02*
D03*
X166000D02*
D03*
X172000Y-36000D02*
D03*
X166000D02*
D03*
X130000Y-41000D02*
D03*
Y-31000D02*
D03*
Y-36000D02*
D03*
Y-46000D02*
D03*
X190000Y-40000D02*
D03*
Y-45000D02*
D03*
Y-50000D02*
D03*
Y-55000D02*
D03*
Y-60000D02*
D03*
X112000Y-107000D02*
D03*
Y-121000D02*
D03*
X152000Y-119000D02*
D03*
X159000Y-61000D02*
D03*
Y-57000D02*
D03*
X154000D02*
D03*
X177100Y-71300D02*
D03*
X155000Y-75000D02*
D03*
X152000Y-71000D02*
D03*
X151000Y-80000D02*
D03*
X148000Y-77000D02*
D03*
X134000Y-80000D02*
D03*
X132800Y-93000D02*
D03*
X106000Y-121000D02*
D03*
X70200Y-116100D02*
D03*
X55000Y-95000D02*
D03*
X50000D02*
D03*
X70000D02*
D03*
X110900Y-95600D02*
D03*
X112000Y-116000D02*
D03*
Y-112000D02*
D03*
X130000Y-114000D02*
D03*
X123000D02*
D03*
X152000D02*
D03*
Y-109000D02*
D03*
X182500Y-155000D02*
D03*
X190000D02*
D03*
Y-147500D02*
D03*
Y-140000D02*
D03*
Y-132500D02*
D03*
X135000Y-132000D02*
D03*
X130000Y-150000D02*
D03*
Y-142000D02*
D03*
Y-135000D02*
D03*
X145300Y-152300D02*
D03*
X150000Y-146000D02*
D03*
X143000D02*
D03*
X136000D02*
D03*
X154000Y-168900D02*
D03*
X148600Y-169000D02*
D03*
X155000Y-180000D02*
D03*
X150000D02*
D03*
X155000Y-187500D02*
D03*
X150000D02*
D03*
X45200Y-112900D02*
D03*
Y-116700D02*
D03*
X40300D02*
D03*
X4000Y-157000D02*
D03*
X157300Y-87000D02*
D03*
X136500Y-74500D02*
D03*
X133000D02*
D03*
X136500Y-56500D02*
D03*
Y-60000D02*
D03*
X133000D02*
D03*
X136500Y-67000D02*
D03*
X133000D02*
D03*
X140500Y-61500D02*
D03*
X136500Y-63500D02*
D03*
X133000D02*
D03*
X139500Y-54500D02*
D03*
X184000Y-40000D02*
D03*
Y-60000D02*
D03*
Y-45000D02*
D03*
Y-50000D02*
D03*
Y-55000D02*
D03*
X193500Y-74000D02*
D03*
X185000Y-75500D02*
D03*
X189500Y-80000D02*
D03*
X185000D02*
D03*
X163700Y-106500D02*
D03*
X159400D02*
D03*
X159900Y-81300D02*
D03*
X167700Y-89500D02*
D03*
X168700Y-97400D02*
D03*
X162500Y-87000D02*
D03*
X165700Y-92500D02*
D03*
X162500Y-90500D02*
D03*
X157300D02*
D03*
X183500Y-112500D02*
D03*
Y-117500D02*
D03*
Y-107500D02*
D03*
X182000Y-125500D02*
D03*
X176500Y-123500D02*
D03*
X172500D02*
D03*
X168500D02*
D03*
X188500Y-107500D02*
D03*
Y-117500D02*
D03*
Y-112500D02*
D03*
X193500Y-117500D02*
D03*
Y-112500D02*
D03*
Y-107500D02*
D03*
Y-102500D02*
D03*
Y-97500D02*
D03*
Y-92500D02*
D03*
X125500Y-137500D02*
D03*
Y-135000D02*
D03*
X123000D02*
D03*
Y-137500D02*
D03*
X147300Y-120600D02*
D03*
X147600Y-107500D02*
D03*
X138600Y-80000D02*
D03*
X152900Y-61700D02*
D03*
X171300Y-42500D02*
D03*
Y-45400D02*
D03*
X174000Y-63600D02*
D03*
X163900Y-70500D02*
D03*
X193900Y-79700D02*
D03*
X180100Y-122300D02*
D03*
X141700Y-128600D02*
D03*
X164500Y-185500D02*
D03*
X132000Y-192000D02*
D03*
X177000Y-83688D02*
D03*
X158200Y-171500D02*
D03*
X179500Y-81700D02*
D03*
X176450Y-86850D02*
D03*
X115500Y-95500D02*
D03*
X157200Y-95000D02*
D03*
X75000Y-137000D02*
D03*
Y-135000D02*
D03*
X55000Y-137500D02*
D03*
X75000Y-150000D02*
D03*
X85000D02*
D03*
X78000Y-96000D02*
D03*
X103000Y-139500D02*
D03*
X99500D02*
D03*
X93500D02*
D03*
X70000Y-137500D02*
D03*
X40000D02*
D03*
X87500Y-131000D02*
D03*
X82500D02*
D03*
X77500D02*
D03*
X72500D02*
D03*
X87500Y-127000D02*
D03*
X82500D02*
D03*
X77500D02*
D03*
X72500D02*
D03*
X90000Y-107500D02*
D03*
Y-110000D02*
D03*
X87500Y-107500D02*
D03*
X96000Y-99000D02*
D03*
X94000D02*
D03*
X31000Y-161500D02*
D03*
Y-166000D02*
D03*
X26500D02*
D03*
X22000D02*
D03*
X17500D02*
D03*
X13000D02*
D03*
X8500D02*
D03*
X4000D02*
D03*
X13000Y-161500D02*
D03*
X4000D02*
D03*
X8500D02*
D03*
Y-157000D02*
D03*
X21700Y-138500D02*
D03*
Y-143500D02*
D03*
Y-148000D02*
D03*
Y-152500D02*
D03*
X45200Y-109300D02*
D03*
X30000Y-125000D02*
D03*
X38900Y-102500D02*
D03*
X42500Y-106000D02*
D03*
X38900D02*
D03*
X93000Y-91000D02*
D03*
X122000Y-90500D02*
D03*
X117000D02*
D03*
X112000D02*
D03*
X107000Y-91000D02*
D03*
X88000Y-90500D02*
D03*
X83000D02*
D03*
X78000D02*
D03*
X73000D02*
D03*
X68000D02*
D03*
X34500Y-91000D02*
D03*
X123000Y-78000D02*
D03*
X118000D02*
D03*
X113000D02*
D03*
X108000D02*
D03*
X103000D02*
D03*
X98000D02*
D03*
X123000Y-73000D02*
D03*
X118000D02*
D03*
X123000Y-68000D02*
D03*
X118000D02*
D03*
X93000D02*
D03*
X98000D02*
D03*
X103000D02*
D03*
X108000D02*
D03*
X113000D02*
D03*
X98000Y-73000D02*
D03*
X103000D02*
D03*
X108000D02*
D03*
X113000D02*
D03*
X93000D02*
D03*
X70000Y-82000D02*
D03*
Y-86000D02*
D03*
Y-53000D02*
D03*
Y-59000D02*
D03*
Y-65000D02*
D03*
Y-71000D02*
D03*
X29000Y-90000D02*
D03*
X24000D02*
D03*
X19000D02*
D03*
X14000D02*
D03*
X55000Y-91000D02*
D03*
X50000D02*
D03*
X55000Y-86500D02*
D03*
Y-82000D02*
D03*
X35000Y-73000D02*
D03*
X55000Y-58000D02*
D03*
Y-63000D02*
D03*
Y-73000D02*
D03*
X50000D02*
D03*
X45000D02*
D03*
X40000D02*
D03*
X55000Y-68000D02*
D03*
X50000D02*
D03*
X45000D02*
D03*
X40000D02*
D03*
X35000D02*
D03*
X13000Y-86000D02*
D03*
Y-82000D02*
D03*
Y-71000D02*
D03*
Y-65000D02*
D03*
Y-59000D02*
D03*
Y-53000D02*
D03*
X40800Y-98400D02*
D03*
X45000D02*
D03*
X136600Y-168700D02*
D03*
X142500D02*
D03*
X93600Y-95500D02*
D03*
X105400D02*
D03*
X6500Y-91000D02*
D03*
X10500D02*
D03*
X6500Y-93000D02*
D03*
X10500D02*
D03*
X8500D02*
D03*
Y-91000D02*
D03*
X62700D02*
D03*
Y-93000D02*
D03*
X64700D02*
D03*
X60700D02*
D03*
X64700Y-91000D02*
D03*
X60700D02*
D03*
X2700Y-96300D02*
D03*
Y-91500D02*
D03*
Y-93900D02*
D03*
X9250Y-101500D02*
D03*
X14350D02*
D03*
X19450D02*
D03*
X27000Y-78000D02*
D03*
X29400D02*
D03*
X24600D02*
D03*
X81600D02*
D03*
X86400D02*
D03*
X84000D02*
D03*
X3000Y-124000D02*
D03*
X6500D02*
D03*
X3000Y-127500D02*
D03*
X6500D02*
D03*
X8500Y-133000D02*
D03*
Y-142000D02*
D03*
Y-151000D02*
D03*
Y-137500D02*
D03*
Y-146500D02*
D03*
X16000Y-115000D02*
D03*
X19500Y-112000D02*
D03*
X16000D02*
D03*
X7000Y-108000D02*
D03*
X22500Y-125000D02*
D03*
Y-132500D02*
D03*
X26200Y-128700D02*
D03*
X57000Y-38000D02*
D03*
X61000D02*
D03*
X57000Y-43000D02*
D03*
X61000D02*
D03*
X119000Y-38000D02*
D03*
X121000D02*
D03*
Y-43000D02*
D03*
X123000D02*
D03*
X59000Y-38000D02*
D03*
Y-43000D02*
D03*
X123000Y-38000D02*
D03*
X119000Y-43000D02*
D03*
X163000Y-95000D02*
D03*
X169500Y-92500D02*
D03*
X166000Y-100000D02*
D03*
X172500Y-97500D02*
D03*
X138000Y-133500D02*
D03*
X151800D02*
D03*
X166500Y-84000D02*
D03*
X172800Y-86800D02*
D03*
D68*
X62700Y-92000D02*
D03*
X8500D02*
D03*
D69*
X121000Y-40500D02*
D03*
D70*
X84000Y-78000D02*
D03*
X27000D02*
D03*
D71*
X2700Y-93900D02*
D03*
D72*
X52050Y-148000D02*
D03*
M02*
